<?xml version="1.0" encoding="utf-8"?>
<!-- Generator: Adobe Illustrator 28.0.0, SVG Export Plug-In . SVG Version: 6.00 Build 0)  -->
<svg version="1.1" id="Capa_1" xmlns="http://www.w3.org/2000/svg" xmlns:xlink="http://www.w3.org/1999/xlink" x="0px" y="0px"
	 viewBox="0 0 126 126" style="enable-background:new 0 0 126 126;" xml:space="preserve">
<style type="text/css">
	.st0{fill:#FFFFFF;stroke:#1DA9FC;stroke-miterlimit:10;}
	.st1{fill:none;}
	.st2{fill:#286892;}
	.st3{fill:#FFFFFF;}
	.st4{fill:#B3DFF8;}
</style>
<circle class="st0" cx="63" cy="63" r="59.67"/>
<g>
	<path class="st1" d="M64.39,36.95c-0.42-0.16-0.86-0.24-1.32-0.24c-0.27,0-0.54,0.04-0.8,0.1c0.26-0.06,0.53-0.1,0.8-0.1
		C63.53,36.71,63.97,36.79,64.39,36.95z"/>
	<path class="st1" d="M67.54,42.22C67.54,42.22,67.54,42.22,67.54,42.22c0,0.29-0.01,0.57-0.04,0.85
		C67.53,42.79,67.54,42.51,67.54,42.22z"/>
	<path class="st1" d="M70.22,94.61c0,0,0-0.01,0-0.01c0,0.04-0.02,0.08-0.02,0.12C70.2,94.68,70.22,94.65,70.22,94.61z"/>
	<path class="st1" d="M58.7,42.3c0,0.19,0.01,0.38,0.03,0.57C58.71,42.68,58.7,42.49,58.7,42.3C58.7,42.3,58.7,42.3,58.7,42.3z"/>
	<path class="st1" d="M56.77,95.31c0.01,0,0.02-0.01,0.02-0.01c-0.06,0-0.11-0.01-0.16-0.02C56.67,95.29,56.72,95.31,56.77,95.31z"
		/>
	<path class="st1" d="M62.72,47.78c-0.45-0.05-0.87-0.19-1.27-0.4C61.84,47.6,62.27,47.73,62.72,47.78z"/>
	<path class="st1" d="M55.31,73.65c0.04,0,0.08,0.01,0.12,0.01c-0.03,0-0.05-0.02-0.08-0.02C55.34,73.65,55.32,73.65,55.31,73.65z"
		/>
	<path class="st2" d="M63.13,49.46c3.33,0,6.03-3.22,6.03-7.19s-2.7-7.19-6.03-7.19c-3.33,0-6.03,3.22-6.03,7.19
		S59.8,49.46,63.13,49.46z M58.91,43.95c-0.09-0.35-0.15-0.71-0.19-1.08c-0.02-0.19-0.03-0.38-0.03-0.57c0,0,0,0,0,0
		c0-0.38,0.02-0.76,0.08-1.12c0.06-0.36,0.14-0.71,0.25-1.04c0.05-0.17,0.12-0.33,0.18-0.49c0.09-0.22,0.2-0.42,0.31-0.62
		c0.1-0.18,0.21-0.34,0.32-0.5c0.13-0.19,0.27-0.36,0.43-0.53c0.32-0.34,0.69-0.63,1.08-0.84c0.13-0.07,0.27-0.13,0.4-0.19
		c0.17-0.07,0.34-0.12,0.51-0.16c0.26-0.06,0.53-0.1,0.8-0.1c0.46,0,0.9,0.08,1.32,0.24c0.14,0.05,0.27,0.11,0.41,0.18
		c0.4,0.21,0.77,0.49,1.1,0.82c0.66,0.67,1.17,1.58,1.43,2.62c0.13,0.52,0.21,1.07,0.21,1.65c0,0,0,0,0,0
		c0,0.29-0.01,0.57-0.04,0.85s-0.08,0.55-0.14,0.81c-0.12,0.52-0.31,1.01-0.54,1.46c-0.16,0.3-0.33,0.57-0.53,0.83
		s-0.41,0.48-0.65,0.68c-0.12,0.1-0.24,0.19-0.36,0.28c-0.21,0.15-0.43,0.26-0.66,0.37c-0.45,0.2-0.93,0.32-1.44,0.32h0
		c-0.15,0-0.3-0.01-0.45-0.02c-0.45-0.05-0.87-0.19-1.27-0.4c-0.27-0.14-0.52-0.31-0.76-0.51c-0.12-0.1-0.23-0.2-0.34-0.32
		c-0.22-0.22-0.42-0.47-0.61-0.75c-0.09-0.14-0.18-0.28-0.26-0.42c-0.16-0.29-0.3-0.61-0.42-0.94
		C59.01,44.29,58.96,44.12,58.91,43.95z"/>
	<path class="st3" d="M59.74,45.82c0.18,0.27,0.39,0.52,0.61,0.75c0.11,0.11,0.22,0.22,0.34,0.32c0.24,0.2,0.49,0.37,0.76,0.51
		c0.4,0.21,0.83,0.34,1.27,0.4c0.15,0.02,0.3,0.03,0.45,0.02h0c0.51,0,0.99-0.12,1.44-0.32c0.23-0.1,0.45-0.22,0.66-0.37
		c0.12-0.09,0.25-0.18,0.36-0.28c0.23-0.2,0.45-0.43,0.65-0.68s0.38-0.53,0.53-0.83c0.23-0.44,0.42-0.93,0.54-1.46
		c0.06-0.26,0.11-0.53,0.14-0.81s0.05-0.56,0.04-0.85c-0.01-0.57-0.08-1.13-0.21-1.65c-0.27-1.04-0.77-1.95-1.43-2.62
		c-0.33-0.34-0.7-0.61-1.1-0.82c-0.13-0.07-0.27-0.13-0.41-0.18c-0.42-0.16-0.86-0.24-1.32-0.24c-0.27,0-0.54,0.04-0.8,0.1
		c-0.17,0.04-0.34,0.09-0.51,0.16c-0.14,0.06-0.27,0.12-0.4,0.19c-0.39,0.21-0.76,0.5-1.08,0.84c-0.15,0.16-0.29,0.34-0.43,0.53
		c-0.12,0.16-0.22,0.33-0.32,0.5c-0.11,0.2-0.22,0.4-0.31,0.62c-0.07,0.16-0.13,0.32-0.18,0.49c-0.11,0.33-0.19,0.68-0.25,1.04
		c-0.06,0.36-0.08,0.74-0.08,1.12c0,0.19,0.01,0.38,0.03,0.57c0.03,0.37,0.1,0.73,0.19,1.08c0.04,0.17,0.1,0.34,0.15,0.51
		c0.11,0.33,0.25,0.65,0.42,0.94C59.56,45.54,59.65,45.68,59.74,45.82z"/>
	<path class="st2" d="M68.8,51.42c-2.93,0.13-5.8,0.14-8.61,0.04c-4.88-0.18-9.29,0.07-9.5,5.88c-0.12,3.13-0.12,7.05-0.01,11.77
		c0.03,1.6,0.32,2.69,0.87,3.27c0.93,0.98,2.18,1.4,3.76,1.27c0.01,0,0.03,0,0.04,0c0.03,0,0.05,0.01,0.08,0.02
		c0.03,0.01,0.07,0.01,0.1,0.02c0.03,0.01,0.06,0.03,0.08,0.05c0.03,0.02,0.06,0.03,0.08,0.05c0.02,0.02,0.04,0.05,0.06,0.07
		c0.02,0.03,0.04,0.05,0.05,0.08c0.01,0.03,0.02,0.06,0.03,0.1c0.01,0.04,0.02,0.08,0.02,0.12l-0.06,20.18
		c0,0.15,0.04,0.28,0.09,0.41c0,0.01,0,0.02,0.01,0.02c0.02,0.04,0.06,0.07,0.09,0.11c0.04,0.06,0.08,0.12,0.13,0.17
		c0.05,0.04,0.1,0.07,0.15,0.1c0.05,0.03,0.1,0.07,0.16,0.09c0.07,0.03,0.14,0.03,0.21,0.04c0.05,0.01,0.11,0.02,0.16,0.02
		c0.14,0,0.27-0.03,0.4-0.09c0.49-0.23,0.66-0.49,0.51-0.76L57.65,61c0-0.54-0.26-0.73-0.78-0.57l-0.51,0.16
		c-0.37,0.11-0.61,0.45-0.61,0.84l0.08,9.36c0.01,1.06-0.5,1.49-1.54,1.29c-0.08-0.02-0.18-0.04-0.3-0.06
		c-1.05-0.21-1.58-0.85-1.57-1.92l0.09-13.39c0.02-1.96,1.62-3.53,3.58-3.52l14.56,0.1c1.64,0.01,2.97,1.34,2.98,2.98l0.08,14.11
		c0.01,0.96-0.47,1.49-1.42,1.59l-0.76,0.08c-0.85,0.09-1.28-0.29-1.28-1.15l0.01-10.04c0-0.35-0.18-0.52-0.53-0.49l-0.72,0.05
		c-0.35,0.02-0.53,0.21-0.53,0.57l0.11,33.23c-0.31,0.62,0.04,0.94,1.03,0.97c0,0,0.01,0,0.01,0c0.04,0,0.07-0.02,0.11-0.02
		c0.04-0.01,0.08-0.01,0.11-0.02c0.04-0.01,0.06-0.04,0.1-0.06c0.03-0.02,0.07-0.04,0.09-0.06c0.03-0.03,0.04-0.06,0.07-0.09
		c0.02-0.03,0.05-0.06,0.06-0.09c0.02-0.04,0.02-0.08,0.03-0.12c0.01-0.04,0.02-0.08,0.02-0.12l0.04-20.14
		c0-0.47,0.23-0.72,0.7-0.76c2.93-0.24,4.4-1.37,4.39-3.4c-0.02-4.69,0-9.25,0.05-13.69C75.45,52.97,71.91,51.29,68.8,51.42z"/>
	<path class="st4" d="M69.01,60.42l0.72-0.05c0.35-0.03,0.53,0.14,0.53,0.49L70.25,70.9c0,0.86,0.43,1.24,1.28,1.15l0.76-0.08
		c0.95-0.1,1.43-0.63,1.42-1.59l-0.08-14.11c-0.01-1.64-1.34-2.97-2.98-2.98l-14.56-0.1c-1.96-0.01-3.56,1.56-3.58,3.52L52.42,70.1
		c-0.01,1.07,0.52,1.71,1.57,1.92c0.12,0.02,0.22,0.04,0.3,0.06c1.04,0.2,1.55-0.23,1.54-1.29l-0.08-9.36
		c0-0.39,0.24-0.73,0.61-0.84l0.51-0.16c0.52-0.16,0.78,0.03,0.78,0.57l0.05,33.45l4.63,0.23l-0.07-22.83c0-0.4,0.32-0.73,0.72-0.75
		l0.43-0.01c0.41-0.02,0.62,0.18,0.62,0.6L64,94.7l4.59-0.48l-0.11-33.23C68.48,60.63,68.66,60.44,69.01,60.42z"/>
	<path class="st2" d="M63.41,71.09l-0.43,0.01c-0.4,0.02-0.72,0.35-0.72,0.75l0.07,22.83c0.19,0.35,0.44,0.52,0.75,0.52
		c0.5,0.01,0.81-0.16,0.92-0.5l0.03-23.01C64.03,71.27,63.82,71.07,63.41,71.09z"/>
</g>
</svg>
