<?xml version="1.0" encoding="utf-8"?>
<!-- Generator: Adobe Illustrator 28.0.0, SVG Export Plug-In . SVG Version: 6.00 Build 0)  -->
<svg version="1.1" id="Capa_1" xmlns="http://www.w3.org/2000/svg" xmlns:xlink="http://www.w3.org/1999/xlink" x="0px" y="0px"
	 viewBox="0 0 126 126" style="enable-background:new 0 0 126 126;" xml:space="preserve">
<style type="text/css">
	.st0{fill:#FFFFFF;stroke:#1DA9FC;stroke-miterlimit:10;}
	.st1{fill:none;}
	.st2{fill:#29678F;}
	.st3{fill:#FFFFFF;}
	.st4{fill:#B3DFF8;}
</style>
<circle class="st0" cx="63" cy="63" r="59.67"/>
<g>
	<path class="st1" d="M56,60.85l0,0.05c0,0.06,0.02,0.12,0.03,0.17C56.02,61.02,56,60.96,56,60.9L56,60.85z"/>
	<path class="st1" d="M63.32,72.06c0.47-0.27,0.87-0.71,1.15-1.26C64.18,71.35,63.79,71.79,63.32,72.06z"/>
	<path class="st1" d="M61.52,61.43c0.29,0,0.52-0.23,0.52-0.52v0C62.04,61.2,61.81,61.43,61.52,61.43z"/>
	<path class="st1" d="M50.43,25.46L50.43,25.46c0.44,0,0.85,0.13,1.19,0.35C51.28,25.59,50.87,25.46,50.43,25.46z"/>
	<path class="st1" d="M56.04,60.64c0.07-0.21,0.26-0.36,0.49-0.36l2.5,0l-2.5,0C56.3,60.28,56.11,60.43,56.04,60.64z"/>
	<path class="st1" d="M47.57,29.58l0,0.02c0,0.15,0.02,0.29,0.05,0.43c-0.03-0.14-0.05-0.28-0.05-0.43L47.57,29.58z"/>
	<path class="st1" d="M60.04,67.04c0.18-0.34,0.38-0.65,0.64-0.89C60.42,66.39,60.21,66.7,60.04,67.04z"/>
	<path class="st1" d="M64.88,68.88C64.88,68.88,64.88,68.88,64.88,68.88c0.01,0.71-0.15,1.37-0.42,1.92
		C64.74,70.25,64.9,69.59,64.88,68.88z"/>
	<path class="st1" d="M63.67,66.07c0.29,0.24,0.53,0.55,0.73,0.91C64.21,66.62,63.96,66.31,63.67,66.07z"/>
	<path class="st1" d="M62.29,72.35C62.29,72.35,62.29,72.35,62.29,72.35c-0.13,0-0.25-0.01-0.38-0.03
		C62.03,72.34,62.16,72.35,62.29,72.35z"/>
	<path class="st1" d="M60.42,71.4c-0.18-0.22-0.32-0.47-0.45-0.75C60.1,70.93,60.25,71.18,60.42,71.4z"/>
	<path class="st1" d="M62.97,65.65c0.25,0.1,0.49,0.24,0.7,0.42C63.46,65.89,63.22,65.74,62.97,65.65z"/>
	<path class="st1" d="M59.59,68.97C59.59,68.97,59.59,68.97,59.59,68.97c-0.01-0.37,0.05-0.72,0.13-1.06
		C59.63,68.25,59.58,68.6,59.59,68.97z"/>
	<path class="st1" d="M30.75,29.63c0,0.19-0.03,0.37-0.08,0.55C30.72,30,30.75,29.82,30.75,29.63l0-2.06c0-0.44-0.13-0.84-0.36-1.18
		c0.23,0.34,0.36,0.74,0.36,1.18L30.75,29.63z"/>
	<path class="st1" d="M21.71,61.42c0.01,0,0.03-0.01,0.04-0.01C21.74,61.41,21.73,61.42,21.71,61.42L21.71,61.42z"/>
	<path class="st1" d="M25.71,27.04c-0.04,0.17-0.07,0.34-0.07,0.52l0,2.06l0-2.06C25.64,27.38,25.67,27.21,25.71,27.04z"/>
	<path class="st1" d="M16.5,60.3c-0.01,0-0.03,0.01-0.04,0.01C16.47,60.3,16.48,60.3,16.5,60.3L16.5,60.3z"/>
	<path class="st1" d="M15.96,60.87l0-0.04L15.96,60.87c0,0.29,0.24,0.53,0.53,0.53c0,0,0,0,0,0l5.2,0.02l-5.2-0.02
		C16.2,61.4,15.96,61.16,15.96,60.87z"/>
	<path class="st1" d="M42.8,29.71C42.8,29.71,42.8,29.71,42.8,29.71c0,0.28-0.05,0.55-0.12,0.81C42.75,30.27,42.8,30,42.8,29.71z"/>
	<path class="st1" d="M41.67,29.61l0-2.04c0-0.44-0.13-0.84-0.36-1.18c0.23,0.34,0.36,0.74,0.36,1.18L41.67,29.61z"/>
	<path class="st1" d="M50.42,25.46l-0.75,0.01c-0.13,0-0.26,0.02-0.39,0.04c0.13-0.02,0.25-0.04,0.39-0.04L50.42,25.46z"/>
	<path class="st1" d="M35.67,27.52C35.67,27.52,35.67,27.52,35.67,27.52c0-0.04,0.01-0.09,0.01-0.13
		C35.68,27.43,35.67,27.48,35.67,27.52z"/>
	<path class="st1" d="M52.4,26.75c-0.16-0.38-0.44-0.7-0.78-0.93C51.96,26.04,52.24,26.37,52.4,26.75z"/>
	<path class="st1" d="M38.23,31.62c0.2,0.06,0.41,0.1,0.63,0.1l0.7,0l-0.7,0C38.64,31.72,38.43,31.68,38.23,31.62z"/>
	<path class="st1" d="M96.66,31.46c0.31,0.17,0.67,0.27,1.06,0.27l0.52,0l-0.52,0C97.33,31.73,96.97,31.63,96.66,31.46z"/>
	<path class="st1" d="M79.61,29.65C79.61,29.65,79.61,29.65,79.61,29.65c0,0.22-0.02,0.44-0.07,0.65
		C79.59,30.09,79.61,29.87,79.61,29.65z"/>
	<path class="st1" d="M99.13,31.55c0.78-0.34,1.33-1.11,1.33-2.02c0,0,0,0,0,0C100.46,30.43,99.91,31.2,99.13,31.55z"/>
	<path class="st1" d="M100.18,26.61c-0.17-0.31-0.42-0.58-0.71-0.77C99.77,26.03,100.01,26.3,100.18,26.61z"/>
	<path class="st1" d="M96.22,26.05c-0.44,0.4-0.71,0.97-0.71,1.62v0l-0.01,1.84l0.01-1.84C95.51,27.03,95.79,26.45,96.22,26.05z"/>
	<polygon class="st1" points="89.38,29.51 89.35,27.59 89.38,29.51 	"/>
	<path class="st1" d="M83.16,28.58C83.16,28.58,83.16,28.58,83.16,28.58c0-0.18,0.01-0.35,0.03-0.52
		C83.17,28.23,83.16,28.41,83.16,28.58z"/>
	<path class="st1" d="M94.12,28.56c-0.01,0.55,0.09,1.07,0.24,1.56C94.2,29.63,94.11,29.11,94.12,28.56z"/>
	<path class="st1" d="M94.12,28.56C94.12,28.56,94.12,28.56,94.12,28.56c0.01-0.61,0.12-1.19,0.32-1.72
		C94.23,27.36,94.12,27.94,94.12,28.56z"/>
	<path class="st1" d="M98.26,25.46C98.26,25.46,98.26,25.46,98.26,25.46c0.02,0,0.03,0,0.05,0C98.29,25.46,98.27,25.46,98.26,25.46z
		"/>
	<path class="st1" d="M101.71,28.64C101.71,28.64,101.71,28.64,101.71,28.64c-0.01,1.22-0.45,2.33-1.15,3.12
		C101.27,30.96,101.7,29.86,101.71,28.64z"/>
	<path class="st1" d="M21.72,60.32C21.72,60.32,21.72,60.32,21.72,60.32l-5.2-0.02L21.72,60.32c0.29,0,0.53,0.24,0.53,0.53l0,0.04
		l0-0.04C22.25,60.55,22.01,60.32,21.72,60.32z"/>
	<path class="st1" d="M76.25,31.74l-0.27,0L76.25,31.74c1.23,0,2.22-0.99,2.22-2.22c0,0,0,0,0,0
		C78.47,30.75,77.48,31.74,76.25,31.74z"/>
	<path class="st1" d="M69.45,61.47l-5.2-0.08L69.45,61.47c0.21,0,0.39-0.12,0.47-0.3C69.84,61.34,69.66,61.47,69.45,61.47z"/>
	<path class="st1" d="M76.9,68.93C76.9,68.93,76.9,68.93,76.9,68.93c0,0.19-0.02,0.37-0.04,0.56C76.89,69.31,76.9,69.12,76.9,68.93z
		"/>
	<path class="st1" d="M69.46,60.31l-5.2-0.08c-0.07,0-0.14,0.01-0.2,0.04c0.06-0.02,0.13-0.04,0.2-0.04L69.46,60.31z"/>
	<path class="st1" d="M69.43,68.78C69.43,68.78,69.43,68.78,69.43,68.78c0-0.03,0.01-0.06,0.01-0.09
		C69.43,68.72,69.43,68.75,69.43,68.78z"/>
	<path class="st1" d="M65.75,70.18C65.75,70.18,65.75,70.18,65.75,70.18c0,0.33-0.07,0.63-0.17,0.93
		C65.69,70.82,65.75,70.51,65.75,70.18z"/>
	<path class="st1" d="M73,31.44c0.23,0.34,0.53,0.64,0.87,0.87C73.53,32.08,73.23,31.78,73,31.44z"/>
	<path class="st1" d="M69.46,60.31C69.46,60.31,69.46,60.31,69.46,60.31c0.07,0,0.14,0.02,0.2,0.04
		C69.6,60.32,69.53,60.31,69.46,60.31z"/>
	<path class="st1" d="M78.48,27.64c0-0.15-0.02-0.3-0.04-0.45C78.46,27.34,78.48,27.49,78.48,27.64L78.48,27.64z"/>
	<path class="st1" d="M73.88,24.91c-0.34,0.23-0.64,0.53-0.87,0.87C73.24,25.44,73.54,25.14,73.88,24.91z"/>
	<path class="st1" d="M58.72,67.51C58.72,67.51,58.72,67.51,58.72,67.51c0-0.04,0.01-0.08,0.01-0.12
		C58.73,67.43,58.72,67.47,58.72,67.51z"/>
	<path class="st1" d="M75.72,25.42l0.27,0L75.72,25.42c-1.23,0-2.22,0.99-2.22,2.22c0,0,0,0,0,0l0,0.94l0-0.94
		C73.5,26.41,74.49,25.41,75.72,25.42z"/>
	<path class="st1" d="M101.28,59.59c0,0.05-0.02,0.1-0.03,0.14c0.01-0.05,0.03-0.09,0.03-0.13
		C101.29,59.59,101.28,59.59,101.28,59.59z"/>
	<path class="st1" d="M63.51,100.57c0.01,0,0.01,0,0.02,0c-0.05,0-0.09-0.01-0.14-0.02C63.44,100.55,63.47,100.57,63.51,100.57z"/>
	<path class="st1" d="M77.63,88.65c0-0.03,0.01-0.06,0.02-0.09c-0.01,0.02-0.02,0.04-0.02,0.06C77.64,88.63,77.63,88.64,77.63,88.65
		z"/>
	<path class="st1" d="M50.9,99.9c0,0.05-0.02,0.09-0.03,0.14c0.01-0.04,0.02-0.07,0.03-0.11C50.91,99.92,50.91,99.91,50.9,99.9z"/>
	<path class="st1" d="M59.27,100.6c0,0,0.01,0,0.01,0c-0.04,0-0.07-0.01-0.11-0.02C59.21,100.58,59.24,100.6,59.27,100.6z"/>
	<path class="st1" d="M62.42,86.68c0.03,0,0.06,0.01,0.09,0.01c-0.02,0-0.04-0.01-0.06-0.01C62.45,86.67,62.44,86.68,62.42,86.68z"
		/>
	<path class="st1" d="M55.68,77.7c0,0.01,0,0.02,0,0.03c0-0.08,0.01-0.16,0.02-0.23C55.7,77.56,55.69,77.63,55.68,77.7z"/>
	<path class="st1" d="M78.43,87.33c-0.07,0.01-0.14,0-0.21-0.01c0.03,0,0.06,0.02,0.09,0.02C78.36,87.33,78.4,87.33,78.43,87.33z"/>
	<path class="st1" d="M66.67,74.51c-0.04,0-0.09,0-0.13,0c0.13,0,0.25,0.02,0.37,0.03C66.83,74.53,66.75,74.51,66.67,74.51z"/>
	<path class="st1" d="M53.11,74.57c-0.05-0.02-0.11-0.04-0.16-0.04C53.01,74.53,53.06,74.55,53.11,74.57
		C53.11,74.57,53.11,74.57,53.11,74.57z"/>
	<path class="st1" d="M76.49,80.51c0,0.01,0,0.01,0,0.02c0-0.03,0.01-0.05,0.02-0.08C76.5,80.47,76.49,80.48,76.49,80.51z"/>
	<path class="st1" d="M70.32,100.57c-0.05,0-0.09-0.01-0.13-0.02c0.04,0.01,0.07,0.02,0.11,0.02
		C70.31,100.57,70.32,100.57,70.32,100.57z"/>
	<path class="st1" d="M91.13,34.15c-0.01,0-0.03,0-0.04,0c0.12,0,0.23,0.02,0.35,0.03C91.33,34.17,91.23,34.15,91.13,34.15z"/>
	<path class="st1" d="M103.76,60.74c0,0.01-0.01,0.03-0.01,0.04l0,0.1l0-0.1C103.76,60.77,103.76,60.76,103.76,60.74z"/>
	<path class="st1" d="M31.54,37.52c0,0,0,0.01,0,0.01c0-0.11,0.02-0.21,0.03-0.31C31.57,37.31,31.54,37.41,31.54,37.52z"/>
	<path class="st1" d="M109.53,60.3L109.53,60.3c0.06,0,0.11,0.01,0.17,0.03C109.64,60.31,109.59,60.3,109.53,60.3z"/>
	<path class="st1" d="M103.84,61.15c0.09,0.15,0.24,0.25,0.43,0.25c0,0,0,0,0,0C104.08,61.4,103.93,61.29,103.84,61.15z"/>
	<path class="st1" d="M109.89,60.45c0.09,0.09,0.15,0.22,0.15,0.36l0,0.1c0,0.21-0.13,0.39-0.31,0.47c0.18-0.08,0.31-0.26,0.31-0.47
		l0-0.1C110.04,60.67,109.98,60.54,109.89,60.45z"/>
	<path class="st1" d="M38.97,101.15c0,0.36,0.29,0.65,0.65,0.65C39.26,101.8,38.97,101.5,38.97,101.15z"/>
	<path class="st1" d="M82.31,46.85c0-0.01,0-0.01,0.01-0.02c-0.01,0.02-0.03,0.05-0.05,0.07C82.28,46.88,82.3,46.87,82.31,46.85z"/>
	<path class="st1" d="M79.43,101.75c0.08,0.03,0.17,0.05,0.26,0.05l5.02,0.04l-5.02-0.04C79.6,101.8,79.51,101.78,79.43,101.75z"/>
	<path class="st1" d="M84.92,100.48c-0.06-0.02-0.13-0.03-0.2-0.03l-5.02-0.04l5.02,0.04C84.79,100.45,84.85,100.47,84.92,100.48z"
		/>
	<path class="st1" d="M84.92,100.48c0.12,0.04,0.23,0.11,0.31,0.21C85.15,100.6,85.04,100.52,84.92,100.48z"/>
	<path class="st1" d="M102.24,35.37c0.08,0,0.15,0.01,0.23,0.02c-0.07-0.01-0.14-0.02-0.22-0.02
		C102.25,35.37,102.25,35.37,102.24,35.37z"/>
	<path class="st1" d="M33.87,47.89c0.05,0,0.1,0.02,0.15,0.03c-0.05-0.01-0.09-0.03-0.14-0.03C33.88,47.89,33.88,47.89,33.87,47.89z
		"/>
	<path class="st1" d="M44.16,47.03c0.05,0,0.11-0.01,0.16-0.02c-0.07,0.02-0.13,0.02-0.2,0.02C44.14,47.03,44.15,47.03,44.16,47.03z
		"/>
	<path class="st1" d="M40.44,60.29c0.01,0,0.01,0,0.02,0c-0.04,0-0.08-0.01-0.12-0.02C40.38,60.27,40.41,60.29,40.44,60.29z"/>
	<path class="st1" d="M32.49,37.64c0,0,0,0.01,0,0.01c0-0.08,0.01-0.15,0.02-0.23C32.51,37.49,32.49,37.56,32.49,37.64z"/>
	<path class="st1" d="M50.84,73.08C50.84,73.08,50.84,73.08,50.84,73.08c-0.21,0-0.42-0.02-0.62-0.06
		C50.42,73.06,50.63,73.08,50.84,73.08z"/>
	<path class="st1" d="M51.63,65.61l-0.57-0.01c-0.59-0.01-1.13,0.23-1.52,0.61c0.39-0.38,0.93-0.62,1.52-0.61L51.63,65.61z"/>
	<path class="st1" d="M43.66,34.2c-0.01,0-0.02,0-0.03,0c0.11,0,0.21,0.02,0.32,0.03C43.85,34.22,43.75,34.2,43.66,34.2z"/>
	<path class="st1" d="M44.25,60.36c-0.05,0-0.1-0.02-0.15-0.02c0.04,0.01,0.08,0.03,0.12,0.03C44.23,60.36,44.24,60.36,44.25,60.36z
		"/>
	<path class="st1" d="M55.32,46.96c-0.06,0.01-0.12,0.01-0.17,0.01c0.02,0,0.03,0.01,0.04,0.01C55.24,46.97,55.28,46.97,55.32,46.96
		z"/>
	<path class="st1" d="M39.21,100.58c-0.14,0.12-0.24,0.3-0.24,0.5l0,0.06l0-0.06C38.98,100.88,39.07,100.7,39.21,100.58z"/>
	<path class="st1" d="M44.57,100.45c0.13,0,0.26,0.04,0.36,0.11C44.83,100.5,44.7,100.46,44.57,100.45z"/>
	<path class="st1" d="M51,72.18l0.57,0.01c0.44,0,0.86-0.13,1.2-0.35c-0.34,0.23-0.76,0.36-1.2,0.35L51,72.18z"/>
	<path class="st2" d="M27.81,32.84l0.66,0.01c1.87,0.02,3.41-1.48,3.43-3.35l0.02-1.7c0.02-1.87-1.48-3.41-3.35-3.43l-0.66-0.01
		c-1.87-0.02-3.41,1.48-3.43,3.35l-0.02,1.7C24.44,31.29,25.94,32.82,27.81,32.84z M25.63,29.62l0-2.06c0-0.18,0.03-0.35,0.07-0.52
		c0.05-0.19,0.12-0.37,0.22-0.53c0.08-0.14,0.17-0.27,0.28-0.38c0.02-0.02,0.03-0.04,0.04-0.05c0.1-0.1,0.2-0.18,0.31-0.26
		c0.34-0.23,0.74-0.36,1.18-0.36l0.9,0c0.15,0,0.29,0.02,0.43,0.04c0.27,0.06,0.53,0.17,0.75,0.32c0.11,0.08,0.22,0.16,0.31,0.26
		s0.18,0.2,0.26,0.31c0.23,0.34,0.36,0.74,0.36,1.18l0,2.06c0,0.19-0.03,0.37-0.08,0.55c-0.13,0.49-0.44,0.92-0.85,1.2
		c-0.34,0.23-0.74,0.36-1.18,0.36l-0.9,0c-0.7,0-1.32-0.35-1.7-0.88c-0.05-0.07-0.09-0.14-0.13-0.22
		C25.74,30.33,25.63,29.99,25.63,29.62L25.63,29.62z"/>
	<path class="st2" d="M38.79,32.84l0.88,0c0,0,0,0,0,0c0.82,0,1.56-0.32,2.11-0.83c0.03-0.03,0.07-0.05,0.1-0.08
		c0.38-0.38,0.65-0.86,0.8-1.4c0.07-0.26,0.12-0.53,0.12-0.81l0-2.18c0-1.73-1.4-3.13-3.12-3.14l-0.88,0c0,0,0,0,0,0
		c-0.49,0-0.95,0.12-1.36,0.32c-0.32,0.15-0.61,0.35-0.85,0.59c-0.03,0.03-0.05,0.07-0.08,0.1c-0.24,0.26-0.45,0.56-0.59,0.9
		c-0.14,0.34-0.22,0.7-0.23,1.09c0,0.04-0.01,0.09-0.01,0.13l0,2.18C35.66,31.43,37.06,32.83,38.79,32.84z M36.76,27.56
		c0-0.87,0.53-1.62,1.29-1.94c0.25-0.11,0.53-0.16,0.82-0.16l0.7,0c0.15,0,0.29,0.02,0.43,0.04c0.27,0.06,0.53,0.17,0.75,0.32
		c0.11,0.08,0.22,0.16,0.31,0.26s0.18,0.2,0.26,0.31c0.23,0.34,0.36,0.74,0.36,1.18l0,2.04c0,0.26-0.05,0.5-0.14,0.73
		c-0.06,0.16-0.13,0.31-0.22,0.45c-0.08,0.11-0.16,0.22-0.26,0.31c-0.16,0.16-0.34,0.28-0.55,0.38c-0.29,0.14-0.61,0.23-0.95,0.23h0
		l-0.7,0c-0.22,0-0.43-0.03-0.63-0.1c-0.2-0.06-0.38-0.15-0.55-0.27c-0.56-0.38-0.93-1.02-0.93-1.75L36.76,27.56z"/>
	<path class="st2" d="M49.75,32.86l0.96-0.01c1.73-0.02,3.11-1.44,3.09-3.17l-0.03-2.24c-0.02-1.73-1.44-3.11-3.17-3.09l-0.96,0.01
		c-1.73,0.02-3.11,1.44-3.09,3.17l0.03,2.24C46.6,31.5,48.02,32.88,49.75,32.86z M48.61,25.77c0.17-0.1,0.34-0.17,0.53-0.23
		c0.05-0.01,0.09-0.03,0.14-0.04c0.13-0.02,0.25-0.04,0.39-0.04l0.75-0.01l0.01,0h0c0.44,0,0.85,0.13,1.19,0.35
		c0.34,0.23,0.61,0.55,0.78,0.93c0.11,0.25,0.17,0.53,0.17,0.83l0.02,1.98c0.01,0.59-0.23,1.12-0.61,1.51
		c-0.14,0.14-0.3,0.25-0.47,0.35c-0.1,0.05-0.19,0.1-0.3,0.14c-0.22,0.08-0.45,0.13-0.69,0.14c-0.01,0-0.03,0-0.04,0l-0.76,0.01
		c-0.29,0-0.57-0.05-0.83-0.16c-0.26-0.11-0.49-0.26-0.68-0.45c-0.1-0.1-0.19-0.2-0.26-0.31c-0.16-0.23-0.27-0.48-0.33-0.76
		c-0.03-0.14-0.05-0.28-0.05-0.43l0-0.02l-0.02-1.96C47.55,26.83,47.98,26.15,48.61,25.77z"/>
	<path class="st2" d="M73,31.44c0.23,0.34,0.53,0.64,0.87,0.87c0.17,0.12,0.35,0.22,0.55,0.3c0.38,0.16,0.81,0.25,1.25,0.26l0.72,0
		c0.44,0,0.87-0.09,1.25-0.25c0.39-0.16,0.73-0.4,1.02-0.69c0.44-0.44,0.75-1,0.88-1.63c0.04-0.21,0.07-0.43,0.07-0.65l0-2.06
		c0-0.44-0.09-0.87-0.25-1.25c-0.49-1.16-1.63-1.97-2.96-1.97l-0.72,0c0,0,0,0,0,0c-0.27,0-0.54,0.04-0.79,0.11
		c-0.36,0.09-0.71,0.23-1.01,0.44c-0.34,0.23-0.64,0.53-0.87,0.87c-0.12,0.17-0.22,0.35-0.3,0.55c-0.16,0.38-0.25,0.81-0.26,1.25
		l0,2.06c0,0.22,0.02,0.44,0.06,0.65C72.6,30.71,72.77,31.1,73,31.44z M73.49,28.57l0-0.94c0,0,0,0,0,0c0-1.23,1-2.22,2.22-2.22
		l0.27,0l0.27,0c0.92,0,1.71,0.56,2.04,1.36c0.06,0.13,0.1,0.27,0.13,0.42c0.03,0.14,0.04,0.29,0.04,0.45v0l0,1.88c0,0,0,0,0,0
		c0,1.23-1,2.22-2.22,2.22l-0.27,0l-0.27,0c-1.23,0-2.22-1-2.22-2.22L73.49,28.57z"/>
	<path class="st2" d="M86.91,33.05C86.91,33.05,86.91,33.05,86.91,33.05c0.69,0.01,1.32-0.22,1.88-0.59
		c0.09-0.06,0.19-0.11,0.27-0.18c1-0.79,1.66-2.12,1.67-3.63c0.02-2.45-1.66-4.44-3.75-4.46c-0.26,0-0.52,0.03-0.76,0.08
		c-0.37,0.09-0.72,0.23-1.05,0.44c-0.32,0.2-0.62,0.46-0.88,0.76c-0.29,0.33-0.52,0.73-0.71,1.16c-0.19,0.44-0.33,0.93-0.39,1.44
		c-0.02,0.17-0.03,0.35-0.03,0.52C83.13,31.03,84.81,33.03,86.91,33.05z M86.47,25.44l0.68-0.01c1.2-0.01,2.19,0.95,2.21,2.15
		l0.02,1.92v0c0.01,1.05-0.72,1.94-1.71,2.16c-0.14,0.03-0.29,0.05-0.44,0.05l-0.68,0.01c-1.2,0.01-2.19-0.95-2.21-2.15l-0.02-1.92
		C84.3,26.44,85.26,25.46,86.47,25.44z"/>
	<path class="st2" d="M94.74,31.04c0.13,0.24,0.29,0.46,0.46,0.66c0.34,0.4,0.75,0.73,1.2,0.96c0.45,0.23,0.95,0.36,1.48,0.36
		c0,0,0,0,0,0c0.35,0,0.69-0.07,1.02-0.17c0.64-0.2,1.22-0.57,1.68-1.1c0.7-0.79,1.13-1.9,1.15-3.12c0,0,0,0,0,0
		c0-0.02-0.01-0.04-0.01-0.07c0-0.59-0.1-1.15-0.28-1.66c-0.56-1.6-1.9-2.73-3.47-2.74c0,0,0,0,0,0c-0.52-0.01-1.03,0.11-1.48,0.33
		c-0.24,0.12-0.47,0.26-0.68,0.43c-0.39,0.31-0.74,0.7-1.01,1.15c-0.14,0.23-0.26,0.48-0.36,0.75c-0.2,0.53-0.31,1.11-0.32,1.72
		c-0.01,0.55,0.09,1.07,0.24,1.56C94.45,30.44,94.58,30.75,94.74,31.04z M95.5,29.51l0.01-1.84v0c0-0.64,0.28-1.21,0.71-1.62
		c0.26-0.24,0.58-0.42,0.94-0.51c0.18-0.05,0.38-0.08,0.58-0.08h0l0.52,0c0,0,0,0,0,0c0.02,0,0.03,0,0.05,0
		c0.24,0.01,0.47,0.05,0.69,0.13c0.17,0.06,0.33,0.14,0.48,0.24c0.3,0.2,0.54,0.46,0.71,0.77c0.09,0.16,0.15,0.32,0.2,0.5
		c0.05,0.18,0.08,0.38,0.08,0.58v0l-0.01,1.84c0,0,0,0,0,0c0,0.91-0.55,1.68-1.33,2.02c-0.11,0.05-0.23,0.09-0.35,0.12
		c-0.18,0.04-0.36,0.07-0.55,0.07h0l-0.52,0c-0.38,0-0.74-0.1-1.06-0.27c-0.52-0.29-0.91-0.79-1.07-1.38
		C95.54,29.9,95.5,29.71,95.5,29.51L95.5,29.51z"/>
	<path class="st3" d="M26.04,30.86c0.38,0.53,1,0.88,1.7,0.88l0.9,0c0.44,0,0.84-0.13,1.18-0.36c0.41-0.28,0.72-0.7,0.85-1.2
		c0.05-0.18,0.08-0.36,0.08-0.55l0-2.06c0-0.44-0.13-0.84-0.36-1.18c-0.08-0.11-0.16-0.22-0.26-0.31s-0.2-0.18-0.31-0.26
		c-0.22-0.15-0.48-0.26-0.75-0.32c-0.14-0.03-0.28-0.04-0.43-0.04l-0.9,0c-0.44,0-0.84,0.13-1.18,0.36
		c-0.11,0.08-0.22,0.16-0.31,0.26c-0.02,0.02-0.03,0.04-0.04,0.05c-0.11,0.12-0.2,0.25-0.28,0.38c-0.1,0.17-0.17,0.34-0.22,0.53
		c-0.04,0.17-0.07,0.34-0.07,0.52l0,2.06v0c0,0.37,0.1,0.71,0.27,1.02C25.94,30.71,25.99,30.79,26.04,30.86z"/>
	<path class="st3" d="M37.68,31.35c0.17,0.11,0.35,0.2,0.55,0.27c0.2,0.06,0.41,0.1,0.63,0.1l0.7,0h0c0.34,0,0.66-0.09,0.95-0.23
		c0.2-0.1,0.39-0.23,0.55-0.38c0.1-0.1,0.18-0.2,0.26-0.31c0.09-0.14,0.17-0.29,0.22-0.45c0.08-0.23,0.14-0.47,0.14-0.73l0-2.04
		c0-0.44-0.13-0.84-0.36-1.18c-0.08-0.11-0.16-0.22-0.26-0.31s-0.2-0.18-0.31-0.26c-0.22-0.15-0.48-0.26-0.75-0.32
		c-0.14-0.03-0.28-0.04-0.43-0.04l-0.7,0c-0.29,0-0.57,0.06-0.82,0.16c-0.76,0.32-1.29,1.07-1.29,1.94l0,2.04
		C36.75,30.33,37.12,30.97,37.68,31.35z"/>
	<path class="st3" d="M47.57,29.6c0,0.15,0.02,0.29,0.05,0.43c0.06,0.28,0.17,0.53,0.33,0.76c0.08,0.11,0.17,0.22,0.26,0.31
		c0.19,0.19,0.43,0.34,0.68,0.45c0.26,0.11,0.54,0.16,0.83,0.16l0.76-0.01c0.01,0,0.03,0,0.04,0c0.24-0.01,0.47-0.06,0.69-0.14
		c0.1-0.04,0.2-0.09,0.3-0.14c0.17-0.1,0.34-0.21,0.47-0.35c0.38-0.39,0.62-0.92,0.61-1.51l-0.02-1.98c0-0.29-0.06-0.57-0.17-0.83
		c-0.16-0.38-0.44-0.7-0.78-0.93c-0.34-0.23-0.75-0.36-1.19-0.35l-0.01,0l-0.75,0.01c-0.13,0-0.26,0.02-0.39,0.04
		c-0.05,0.01-0.09,0.02-0.14,0.04c-0.19,0.05-0.37,0.13-0.53,0.23c-0.63,0.37-1.06,1.06-1.05,1.85l0.02,1.96L47.57,29.6z"/>
	<path class="st3" d="M75.71,31.74l0.27,0l0.27,0c1.23,0,2.22-0.99,2.22-2.22l0-1.88c0-0.15-0.02-0.3-0.04-0.45
		c-0.03-0.14-0.07-0.28-0.13-0.42c-0.34-0.8-1.12-1.36-2.04-1.36l-0.27,0l-0.27,0c-1.23,0-2.22,0.99-2.22,2.22l0,0.94l0,0.94
		C73.49,30.74,74.48,31.73,75.71,31.74z"/>
	<path class="st3" d="M86.54,31.72l0.68-0.01c0.15,0,0.3-0.02,0.44-0.05c0.99-0.22,1.73-1.1,1.71-2.16l-0.02-1.92
		c-0.01-1.2-1-2.17-2.21-2.15l-0.68,0.01c-1.2,0.01-2.17,1-2.15,2.21l0.02,1.92C84.35,30.77,85.34,31.73,86.54,31.72z"/>
	<path class="st3" d="M96.66,31.46c0.31,0.17,0.67,0.27,1.06,0.27l0.52,0h0c0.19,0,0.37-0.03,0.55-0.07
		c0.12-0.03,0.24-0.07,0.35-0.12c0.78-0.34,1.33-1.11,1.33-2.02l0.01-1.84v0c0-0.2-0.03-0.39-0.08-0.58
		c-0.05-0.18-0.12-0.34-0.2-0.5c-0.17-0.31-0.42-0.58-0.71-0.77c-0.15-0.1-0.31-0.18-0.48-0.24c-0.22-0.08-0.44-0.13-0.69-0.13
		c-0.02,0-0.03,0-0.05,0l-0.52,0h0c-0.2,0-0.39,0.03-0.58,0.08c-0.35,0.09-0.68,0.27-0.94,0.51c-0.44,0.4-0.71,0.97-0.71,1.62
		l-0.01,1.84v0c0,0.2,0.03,0.39,0.08,0.58C95.74,30.67,96.13,31.17,96.66,31.46z"/>
	<path class="st2" d="M54.63,60.84l-0.01-12.07c0-0.51,0.25-0.79,0.76-0.86c1.5-0.19,2.25-0.96,2.24-2.3
		c-0.01-2.64-0.02-5.33-0.02-8.08c0.01-4.32-6.77-3.38-9.28-3.24c-0.27,0.01-0.38,0.15-0.34,0.42l0.07,0.46
		c0.02,0.13,0.09,0.19,0.22,0.19l6.23,0.02c1.11,0,2.01,0.9,2.01,2.01l0.02,8.35c0,0.61-0.29,0.99-0.88,1.14l-0.33,0.08
		c-0.04,0.01-0.09,0.02-0.13,0.02c-0.02,0-0.03-0.01-0.04-0.01c-0.04,0-0.07-0.01-0.11-0.02c-0.03-0.01-0.07-0.02-0.1-0.03
		c-0.03-0.02-0.06-0.04-0.09-0.06c-0.03-0.02-0.05-0.04-0.08-0.07c-0.02-0.03-0.04-0.05-0.06-0.08c-0.02-0.03-0.04-0.06-0.05-0.1
		c-0.02-0.05-0.03-0.11-0.03-0.17l-0.02-6.27c0-0.23-0.17-0.43-0.4-0.47l-0.45-0.07c-0.19-0.03-0.29,0.05-0.29,0.24l-0.01,19.46
		c0,0.57-0.28,0.88-0.85,0.93l-1.1,0.1c-0.51,0.05-0.77-0.18-0.77-0.7V47.21c0-0.19-0.13-0.36-0.31-0.41l-0.37-0.1
		c-0.33-0.1-0.5,0.02-0.5,0.37l0.02,12.81c0,0.27-0.13,0.4-0.4,0.41l-2.15,0.01c-0.25,0.01-0.37-0.12-0.37-0.37V49.71
		c0-0.28-0.22-0.51-0.5-0.53l-0.35-0.02c-0.17-0.01-0.25,0.07-0.25,0.23l-0.04,10.33c-0.01,0.4-0.21,0.61-0.61,0.62l-0.67,0.02
		c-0.01,0-0.02,0-0.03,0c-0.04,0-0.08-0.02-0.12-0.03c-0.05-0.01-0.1-0.01-0.14-0.03c-0.04-0.02-0.08-0.05-0.12-0.07
		c-0.04-0.02-0.08-0.05-0.11-0.08c-0.03-0.03-0.05-0.07-0.08-0.11c-0.03-0.04-0.06-0.07-0.08-0.11c-0.02-0.04-0.02-0.09-0.03-0.14
		c-0.01-0.05-0.03-0.1-0.03-0.15l0.03-10.97c0-0.48,0.24-0.74,0.71-0.77c0.71-0.05,1.34-0.27,1.9-0.65c0.29-0.2,0.47-0.53,0.47-0.89
		l0.05-9.1c0-0.01,0-0.02,0-0.03c0-0.1-0.02-0.19-0.03-0.29c-0.01-0.1-0.01-0.21-0.03-0.31c-0.02-0.1-0.06-0.19-0.09-0.29
		s-0.05-0.19-0.09-0.28c-0.04-0.09-0.09-0.18-0.14-0.26c-0.05-0.08-0.08-0.17-0.14-0.25c-0.06-0.08-0.12-0.15-0.19-0.23
		c-0.06-0.07-0.12-0.15-0.18-0.22c-0.07-0.07-0.15-0.12-0.22-0.19c-0.08-0.06-0.15-0.13-0.23-0.19c-0.08-0.05-0.17-0.09-0.26-0.14
		c-0.09-0.05-0.17-0.1-0.26-0.14s-0.19-0.06-0.29-0.09c-0.09-0.03-0.19-0.07-0.28-0.09c-0.1-0.02-0.21-0.02-0.31-0.03
		c-0.11-0.01-0.21-0.03-0.32-0.03l-8.79,0.01c0,0-0.01,0-0.01,0c-0.11,0-0.21,0.02-0.32,0.03c-0.11,0.01-0.23,0.01-0.34,0.04
		c-0.11,0.02-0.2,0.06-0.31,0.1c-0.1,0.03-0.21,0.06-0.31,0.1c-0.1,0.04-0.18,0.1-0.28,0.15c-0.09,0.05-0.19,0.1-0.28,0.16
		c-0.09,0.06-0.16,0.13-0.24,0.2c-0.08,0.07-0.17,0.13-0.24,0.2c-0.08,0.08-0.14,0.16-0.2,0.25c-0.07,0.08-0.14,0.16-0.2,0.24
		c-0.06,0.09-0.1,0.19-0.15,0.29c-0.05,0.09-0.11,0.18-0.15,0.27c-0.04,0.11-0.07,0.22-0.1,0.33c-0.03,0.1-0.07,0.19-0.09,0.29
		c-0.02,0.12-0.02,0.24-0.03,0.36c-0.01,0.1-0.03,0.21-0.03,0.31c0.01,2.73,0.02,5.38,0.01,7.95c-0.01,1.61,0.77,2.42,2.32,2.41
		c0,0,0.01,0,0.01,0c0.05,0,0.09,0.02,0.14,0.03c0.05,0.01,0.1,0.01,0.14,0.03c0.04,0.02,0.08,0.05,0.11,0.08
		c0.04,0.03,0.08,0.05,0.11,0.08c0.03,0.03,0.05,0.08,0.08,0.11c0.03,0.04,0.06,0.07,0.07,0.11c0.02,0.04,0.02,0.09,0.03,0.14
		c0.01,0.05,0.03,0.09,0.03,0.14l-0.05,11.01c0,0.51-0.26,0.77-0.77,0.76h-0.54c-0.53-0.01-0.78-0.27-0.77-0.79
		c0.09-3.49,0.07-6.97-0.05-10.42c0-0.06-0.03-0.09-0.1-0.09H32c-0.29,0-0.43,0.14-0.43,0.43l-0.05,10.42
		c0,0.21-0.11,0.32-0.32,0.33l-1.92,0.03c-0.24,0-0.36-0.12-0.36-0.36l-0.03-12.89c0-0.22-0.11-0.31-0.33-0.28l-0.36,0.06
		c-0.21,0.03-0.32,0.15-0.32,0.36l0.01,12.63c0,0.37-0.19,0.55-0.56,0.54l-2.29-0.05c-0.23-0.01-0.35-0.13-0.35-0.37l0.1-19.79
		c0-0.2-0.1-0.29-0.3-0.27l-0.47,0.03c-0.14,0.01-0.21,0.09-0.2,0.22l0.11,6.76c0.01,0.3-0.13,0.4-0.41,0.29l-1.55-0.58
		c-0.3-0.12-0.5-0.4-0.5-0.72l0.03-7.99c0.01-1.38,1.13-2.5,2.51-2.51h6.02c0.25,0,0.37-0.13,0.35-0.38l-0.03-0.34
		c-0.01-0.18-0.11-0.28-0.29-0.3c-2.68-0.31-9.61-1.21-9.56,3.39c0.03,2.62,0.02,5.17-0.01,7.65c-0.02,1.57,1.4,2.69,2.87,2.68
		c0.4-0.01,0.6,0.19,0.59,0.59l-0.22,12.48c0,0.15,0.12,0.27,0.27,0.27l30.05,0.01C54.38,61.42,54.63,61.16,54.63,60.84z
		 M43.27,39.7l-0.37-0.05c-0.26-0.04-0.39,0.07-0.39,0.34v19.68c0,0.37-0.18,0.55-0.54,0.56l-1.51,0.06c-0.01,0-0.01,0-0.02,0
		c-0.04,0-0.07-0.01-0.1-0.02c-0.04-0.01-0.08-0.01-0.11-0.02c-0.03-0.01-0.06-0.04-0.09-0.06c-0.03-0.02-0.06-0.04-0.09-0.06
		c-0.03-0.03-0.04-0.06-0.06-0.09c-0.02-0.03-0.05-0.06-0.06-0.09c-0.02-0.03-0.02-0.07-0.03-0.11c-0.01-0.03-0.02-0.06-0.02-0.1
		c0-0.01,0-0.01,0-0.02l-0.01-13.09c0-0.28-0.14-0.41-0.42-0.4l-0.34,0.03c-0.21,0.01-0.37,0.19-0.37,0.4l0.05,13.18
		c0.01,0.33-0.15,0.49-0.48,0.49l-2.08,0.04c-0.35,0-0.52-0.17-0.52-0.51l0.04-19.61c0-0.3-0.22-0.55-0.52-0.58l-0.34-0.04
		c-0.19-0.02-0.29,0.07-0.29,0.26l-0.1,6.75c-0.01,0.44-0.21,0.56-0.61,0.37l-0.56-0.27c-0.53-0.26-0.8-0.69-0.81-1.28l-0.02-7.81
		c0,0,0-0.01,0-0.01c0-0.07,0.01-0.14,0.02-0.22c0.01-0.08,0.01-0.16,0.02-0.23c0.01-0.07,0.04-0.14,0.06-0.21
		c0.02-0.07,0.04-0.15,0.07-0.22c0.03-0.07,0.07-0.12,0.1-0.19c0.04-0.07,0.07-0.13,0.11-0.2c0.04-0.06,0.09-0.11,0.14-0.17
		c0.05-0.06,0.09-0.12,0.14-0.17c0.05-0.05,0.11-0.09,0.17-0.14s0.11-0.1,0.17-0.14c0.06-0.04,0.12-0.07,0.19-0.1
		c0.06-0.04,0.13-0.08,0.19-0.11c0.07-0.03,0.14-0.04,0.21-0.07c0.07-0.02,0.14-0.05,0.21-0.07c0.07-0.01,0.15-0.02,0.22-0.02
		c0.08-0.01,0.15-0.02,0.23-0.02c0,0,0.01,0,0.01,0l8.77-0.01c1.12,0,2.02,0.9,2.02,2.02v8.48c0,0.47-0.32,0.88-0.77,1.01
		l-0.44,0.12c-0.05,0.02-0.11,0.02-0.16,0.02c-0.01,0-0.02-0.01-0.03-0.01c-0.04,0-0.08-0.01-0.12-0.02
		c-0.03-0.01-0.07-0.02-0.1-0.03c-0.03-0.02-0.06-0.04-0.09-0.06c-0.03-0.02-0.06-0.04-0.09-0.07c-0.02-0.03-0.04-0.06-0.06-0.09
		c-0.02-0.03-0.04-0.07-0.06-0.11c0-0.01-0.01-0.02-0.02-0.03c-0.02-0.05-0.02-0.11-0.03-0.16l-0.05-6.46
		C43.53,39.84,43.42,39.72,43.27,39.7z"/>
	<path class="st2" d="M105.36,45.76c0.1-2.54,0.1-5.19,0.01-7.94c-0.07-2.17-1.11-3.34-3.11-3.52c-1.77-0.16-3.8-0.19-6.11-0.09
		c-0.28,0.01-0.4,0.16-0.37,0.43l0.04,0.4c0.03,0.23,0.15,0.34,0.38,0.34l6.04-0.01c0,0,0.01,0,0.01,0c0.07,0,0.14,0.01,0.22,0.02
		c0.08,0.01,0.16,0.01,0.24,0.02c0.07,0.01,0.14,0.04,0.21,0.06c0.07,0.02,0.15,0.04,0.22,0.07c0.07,0.03,0.13,0.07,0.2,0.11
		c0.06,0.03,0.13,0.06,0.19,0.1c0.06,0.04,0.12,0.1,0.18,0.15c0.05,0.04,0.11,0.08,0.16,0.13c0.05,0.05,0.1,0.11,0.14,0.17
		c0.05,0.05,0.1,0.11,0.14,0.16c0.04,0.06,0.07,0.13,0.1,0.19c0.04,0.07,0.08,0.13,0.11,0.2c0.03,0.07,0.04,0.14,0.07,0.21
		c0.02,0.07,0.05,0.14,0.07,0.22c0.02,0.08,0.02,0.15,0.02,0.23c0.01,0.08,0.02,0.15,0.02,0.23l0.01,7.78
		c0,0.65-0.29,1.11-0.88,1.38l-0.34,0.16c-0.56,0.26-0.85,0.08-0.86-0.54l-0.09-6.47c0-0.25-0.12-0.35-0.37-0.29l-0.35,0.07
		c-0.35,0.08-0.59,0.39-0.59,0.74l0.23,19.12c0,0,0,0.01,0,0.01c0,0.05-0.02,0.09-0.03,0.13c-0.01,0.05-0.01,0.1-0.03,0.14
		c-0.02,0.04-0.05,0.08-0.08,0.12c-0.03,0.04-0.05,0.08-0.08,0.12c-0.03,0.03-0.08,0.05-0.12,0.08c-0.04,0.03-0.07,0.06-0.11,0.08
		c-0.04,0.02-0.1,0.02-0.14,0.03c-0.05,0.01-0.09,0.03-0.14,0.03l-1.49-0.01c-0.49,0-0.73-0.24-0.73-0.73l0.1-12.39
		c0.01-0.33-0.16-0.5-0.49-0.5H97.6c-0.17,0-0.3,0.14-0.3,0.31l0.01,12.59c0,0.43-0.22,0.66-0.65,0.68l-1.45,0.06
		c-0.52,0.02-0.78-0.23-0.78-0.74l0.01-9.93c0-0.31-0.15-0.47-0.46-0.48h-0.32c-0.15-0.01-0.23,0.07-0.23,0.22l-0.04,10.24
		c-0.01,0.43-0.22,0.64-0.65,0.63l-0.81-0.03c-0.43-0.02-0.65-0.25-0.65-0.68l0.02-10.68c0-0.49,0.37-0.9,0.86-0.95
		c0.79-0.07,1.43-0.36,1.91-0.87c0.25-0.26,0.37-0.57,0.37-0.93v-8.67c0-0.01,0-0.03,0-0.04c0-0.11-0.02-0.21-0.04-0.31
		c-0.01-0.11-0.02-0.23-0.04-0.34c-0.02-0.11-0.06-0.21-0.1-0.31c-0.03-0.1-0.06-0.21-0.1-0.31c-0.04-0.1-0.1-0.19-0.15-0.28
		c-0.05-0.09-0.1-0.19-0.16-0.28c-0.06-0.09-0.13-0.16-0.2-0.25c-0.07-0.08-0.13-0.17-0.21-0.24c-0.07-0.07-0.16-0.13-0.24-0.2
		c-0.08-0.07-0.16-0.14-0.25-0.2c-0.09-0.06-0.19-0.1-0.28-0.15c-0.1-0.05-0.19-0.11-0.29-0.15c-0.1-0.04-0.21-0.07-0.31-0.1
		c-0.1-0.03-0.2-0.07-0.31-0.09c-0.11-0.02-0.22-0.02-0.34-0.03c-0.12-0.01-0.23-0.03-0.35-0.03l-8.71,0.09
		c-1.66,0.02-2.99,1.37-2.99,3.03l0.02,8.99c0,0.38,0.16,0.68,0.47,0.91c0.63,0.46,1.33,0.75,2.08,0.87
		c0.36,0.06,0.54,0.27,0.54,0.64v10.96c0,0.49-0.25,0.73-0.74,0.73l-0.51-0.01c-0.48,0-0.72-0.24-0.72-0.73l0.01-10.04
		c0-0.23-0.15-0.43-0.36-0.5l-0.42-0.15c-0.25-0.08-0.37,0.01-0.37,0.27l-0.01,10.41c0,0.34-0.26,0.62-0.6,0.64l-1.52,0.1
		c-0.51,0.03-0.76-0.21-0.75-0.72l0.01-12.53c0.01-0.17-0.07-0.25-0.24-0.26H76c-0.36-0.01-0.54,0.16-0.54,0.51V59.7
		c0,0.35-0.17,0.53-0.52,0.54l-1.8,0.06c-0.27,0.01-0.4-0.12-0.4-0.39l0.01-19.75c0-0.2-0.14-0.37-0.34-0.41l-0.33-0.05
		c-0.29-0.05-0.44,0.07-0.44,0.36l-0.08,6.29c-0.01,0.66-0.31,0.86-0.92,0.61c-0.16-0.07-0.32-0.13-0.47-0.2
		c-0.58-0.25-0.87-0.69-0.86-1.32l0.06-7.87c0.01-1.21,0.99-2.19,2.2-2.19l6.14-0.01c0.29,0,0.43-0.15,0.41-0.44l-0.02-0.27
		c-0.02-0.19-0.16-0.33-0.35-0.35c-2.37-0.25-4.68-0.21-6.92,0.11c-1.37,0.19-2.39,1.37-2.39,2.75l-0.02,8.69
		c0,0.37,0.11,0.7,0.33,0.99c0.53,0.71,1.28,1.13,2.25,1.25c0.4,0.05,0.6,0.27,0.6,0.67l-0.03,11.98c0,0.44,0.22,0.66,0.66,0.66
		h29.52c0.34,0,0.51-0.17,0.52-0.52l0.02-11.96c0-0.47,0.36-0.87,0.84-0.92C104.57,47.88,105.31,47.13,105.36,45.76z M90.83,39.68
		c-0.35-0.13-0.53,0-0.54,0.37l-0.11,19.61c0,0.3-0.15,0.46-0.45,0.47l-1.41,0.1c-0.37,0.02-0.55-0.15-0.56-0.52l-0.1-13.04
		c0-0.23-0.16-0.42-0.38-0.46l-0.3-0.05c-0.4-0.07-0.6,0.1-0.6,0.5l-0.05,12.98c0,0.39-0.19,0.6-0.58,0.62l-1.54,0.1
		c-0.37,0.03-0.55-0.14-0.55-0.51V40.16c0-0.28-0.14-0.44-0.41-0.49L82.8,39.6c-0.19-0.03-0.29,0.05-0.3,0.25l-0.13,6.77
		c0,0.08-0.02,0.15-0.06,0.21c0,0.01,0,0.01-0.01,0.02c-0.01,0.02-0.03,0.03-0.04,0.05c-0.02,0.03-0.04,0.05-0.07,0.07
		c-0.02,0.02-0.05,0.03-0.08,0.05c-0.03,0.02-0.05,0.03-0.08,0.04c-0.03,0.01-0.06,0.01-0.1,0.02c-0.02,0-0.04,0.01-0.06,0.01
		c-0.01,0-0.01-0.01-0.02-0.01c-0.07,0-0.15-0.02-0.22-0.06l-0.38-0.22c-0.43-0.25-0.69-0.71-0.69-1.2V37.6
		c0-1.23,0.99-2.22,2.22-2.22h8.76c1,0,1.81,0.81,1.81,1.81v8.42c0,0.53-0.24,0.91-0.71,1.14l-0.38,0.19
		c-0.56,0.27-0.84,0.1-0.85-0.53l-0.06-6.28c0-0.16-0.1-0.31-0.26-0.36L90.83,39.68z"/>
	<path class="st4" d="M43.57,46.45c0,0.06,0.01,0.11,0.03,0.16c0,0.01,0.01,0.02,0.02,0.03c0.01,0.04,0.04,0.07,0.06,0.11
		c0.02,0.03,0.04,0.06,0.06,0.09c0.03,0.03,0.06,0.05,0.09,0.07c0.03,0.02,0.06,0.05,0.09,0.06c0.03,0.02,0.07,0.02,0.1,0.03
		c0.04,0.01,0.08,0.02,0.12,0.02c0.06,0,0.13,0,0.2-0.02l0.44-0.12c0.45-0.13,0.77-0.54,0.77-1.01V37.4c0-1.12-0.9-2.02-2.02-2.02
		l-8.77,0.01c0,0-0.01,0-0.01,0c-0.08,0-0.15,0.02-0.23,0.02c-0.07,0.01-0.15,0.01-0.22,0.02c-0.07,0.02-0.14,0.04-0.21,0.07
		c-0.07,0.02-0.14,0.04-0.21,0.07c-0.07,0.03-0.13,0.07-0.19,0.11c-0.06,0.03-0.13,0.06-0.19,0.1c-0.06,0.04-0.11,0.09-0.17,0.14
		S33.2,36,33.15,36.05c-0.05,0.05-0.09,0.11-0.14,0.17c-0.05,0.06-0.1,0.11-0.14,0.17c-0.04,0.06-0.07,0.13-0.11,0.2
		c-0.03,0.06-0.07,0.12-0.1,0.19c-0.03,0.07-0.05,0.14-0.07,0.22c-0.02,0.07-0.05,0.13-0.06,0.21c-0.02,0.08-0.02,0.16-0.02,0.23
		c-0.01,0.08-0.02,0.15-0.02,0.23l0.02,7.81c0.01,0.59,0.28,1.02,0.81,1.28l0.56,0.27c0.4,0.19,0.6,0.07,0.61-0.37l0.1-6.75
		c0-0.19,0.1-0.28,0.29-0.26l0.34,0.04c0.3,0.03,0.52,0.28,0.52,0.58L35.7,59.86c0,0.34,0.17,0.51,0.52,0.51l2.08-0.04
		c0.33,0,0.49-0.16,0.48-0.49l-0.05-13.18c0-0.21,0.16-0.39,0.37-0.4l0.34-0.03c0.28-0.01,0.42,0.12,0.42,0.4l0.01,13.09
		c0,0.01,0,0.01,0,0.02c0,0.04,0.02,0.07,0.02,0.1c0.01,0.04,0.01,0.08,0.03,0.11c0.02,0.03,0.04,0.06,0.06,0.09
		c0.02,0.03,0.04,0.06,0.06,0.09c0.03,0.03,0.06,0.04,0.09,0.06c0.03,0.02,0.06,0.04,0.09,0.06c0.04,0.01,0.07,0.02,0.11,0.02
		c0.04,0.01,0.08,0.02,0.12,0.02l1.51-0.06c0.36-0.01,0.54-0.19,0.54-0.56V39.99c0-0.27,0.13-0.38,0.39-0.34l0.37,0.05
		c0.15,0.02,0.25,0.15,0.25,0.29L43.57,46.45z"/>
	<path class="st4" d="M91.36,40.13l0.06,6.28c0.01,0.63,0.29,0.8,0.85,0.53l0.38-0.19c0.47-0.23,0.71-0.61,0.71-1.14v-8.42
		c0-1-0.81-1.81-1.81-1.81h-8.76c-1.23,0-2.22,0.99-2.22,2.22v8.01c0,0.49,0.26,0.95,0.69,1.2l0.38,0.22
		c0.07,0.04,0.14,0.05,0.22,0.06c0.01,0,0.01,0.01,0.02,0.01c0.02,0,0.04-0.01,0.06-0.01c0.03,0,0.07-0.01,0.1-0.02
		c0.03-0.01,0.06-0.02,0.08-0.04c0.03-0.02,0.05-0.03,0.08-0.05c0.03-0.02,0.05-0.05,0.07-0.07c0.02-0.02,0.03-0.04,0.05-0.07
		c0.03-0.06,0.06-0.14,0.06-0.21l0.13-6.77c0.01-0.2,0.11-0.28,0.3-0.25l0.45,0.07c0.27,0.05,0.41,0.21,0.41,0.49v19.69
		c0,0.37,0.18,0.54,0.55,0.51l1.54-0.1c0.39-0.02,0.58-0.23,0.58-0.62l0.05-12.98c0-0.4,0.2-0.57,0.6-0.5l0.3,0.05
		c0.22,0.04,0.38,0.23,0.38,0.46l0.1,13.04c0.01,0.37,0.19,0.54,0.56,0.52l1.41-0.1c0.3-0.01,0.45-0.17,0.45-0.47l0.11-19.61
		c0.01-0.37,0.19-0.5,0.54-0.37l0.27,0.09C91.26,39.82,91.36,39.97,91.36,40.13z"/>
	<path class="st2" d="M63.89,61.23c0.09,0.09,0.22,0.15,0.36,0.16l5.2,0.08c0.21,0,0.39-0.12,0.47-0.3c0.03-0.06,0.04-0.13,0.04-0.2
		l0-0.07l0-0.07v0c0-0.12-0.04-0.22-0.11-0.31c-0.01-0.02-0.02-0.04-0.04-0.06c-0.05-0.05-0.1-0.09-0.16-0.11
		c-0.06-0.03-0.13-0.04-0.2-0.04l-5.2-0.08c-0.07,0-0.14,0.01-0.2,0.04c-0.12,0.05-0.22,0.15-0.28,0.27
		c-0.03,0.06-0.04,0.13-0.04,0.2l0,0.14c0,0.07,0.01,0.14,0.04,0.2S63.84,61.18,63.89,61.23z"/>
	<path class="st2" d="M21.72,60.32l-5.2-0.02l-0.02,0c-0.01,0-0.03,0.01-0.04,0.01c-0.13,0.01-0.25,0.06-0.33,0.15
		c-0.1,0.1-0.16,0.23-0.16,0.37l0,0.04c0,0.29,0.24,0.53,0.53,0.53l5.2,0.02l0.02,0c0.01,0,0.03-0.01,0.04-0.01
		c0.27-0.02,0.49-0.24,0.49-0.52l0-0.04C22.25,60.55,22.01,60.32,21.72,60.32z"/>
	<path class="st2" d="M56.04,60.64c-0.02,0.05-0.03,0.1-0.03,0.16l0,0.05l0,0.05c0,0.06,0.02,0.12,0.03,0.17
		c0.07,0.2,0.26,0.35,0.49,0.35l5,0.01c0.29,0,0.52-0.23,0.52-0.52l0-0.1c0-0.29-0.23-0.52-0.52-0.52l-2.5,0l-2.5,0
		C56.3,60.28,56.11,60.43,56.04,60.64z"/>
	<path class="st2" d="M110.03,60.91l0-0.1c0-0.14-0.06-0.27-0.15-0.36c-0.01-0.01-0.04-0.02-0.05-0.04
		c-0.04-0.03-0.09-0.06-0.14-0.08c-0.05-0.02-0.11-0.03-0.17-0.03l-5.26-0.02h0c-0.12,0-0.22,0.05-0.31,0.11
		c-0.02,0.01-0.04,0.02-0.05,0.04c-0.08,0.08-0.13,0.2-0.14,0.32c0,0.01-0.01,0.03-0.01,0.04l0,0.1c0,0.1,0.03,0.19,0.08,0.26
		c0.09,0.15,0.24,0.25,0.43,0.25l5.26,0.02c0.07,0,0.14-0.01,0.2-0.04C109.9,61.3,110.03,61.12,110.03,60.91z"/>
	<path class="st2" d="M51.79,64.65l-0.92,0c-1.71-0.01-3.09,1.37-3.1,3.08l-0.01,2.26c0,0,0,0,0,0c-0.01,1.49,1.05,2.74,2.46,3.04
		c0.2,0.04,0.41,0.06,0.62,0.06l0.92,0c1.71,0.01,3.09-1.37,3.1-3.08l0.01-2.26C54.87,66.04,53.5,64.65,51.79,64.65z M53.73,70.07
		c-0.01,0.59-0.25,1.12-0.64,1.51c-0.1,0.1-0.2,0.18-0.32,0.26c-0.34,0.23-0.76,0.36-1.2,0.35L51,72.18l-0.01,0
		c-0.44,0-0.85-0.14-1.19-0.38c-0.57-0.39-0.93-1.05-0.92-1.78l0.02-2.3c0.01-0.59,0.25-1.12,0.64-1.51s0.93-0.62,1.52-0.61
		l0.57,0.01l0.01,0c1.18,0.01,2.13,0.98,2.12,2.16L53.73,70.07z"/>
	<path class="st2" d="M61.63,64.61c-0.29,0-0.57,0.05-0.83,0.13c-0.1,0.03-0.21,0.05-0.3,0.09c-0.03,0.01-0.05,0.03-0.07,0.04
		c-0.32,0.14-0.61,0.34-0.85,0.58c-0.5,0.5-0.81,1.18-0.84,1.94c0,0.04-0.01,0.08-0.01,0.12l0,2.66c0,1.61,1.3,2.91,2.9,2.92l1.22,0
		c0,0,0,0,0,0c0.29,0,0.57-0.05,0.83-0.13c0.1-0.03,0.21-0.05,0.3-0.09c0.24-0.1,0.45-0.24,0.65-0.39c0.39-0.3,0.71-0.69,0.9-1.15
		c0.03-0.07,0.04-0.14,0.06-0.21c0.1-0.29,0.17-0.6,0.17-0.93l0-2.66c0-1.61-1.3-2.91-2.9-2.92L61.63,64.61L61.63,64.61z
		 M62.18,65.51L62.18,65.51c0.27,0,0.54,0.05,0.79,0.14c0.25,0.1,0.49,0.24,0.7,0.42c0.29,0.24,0.53,0.55,0.73,0.91
		c0.2,0.36,0.34,0.77,0.42,1.22c0.04,0.22,0.06,0.45,0.06,0.69v0c0,0,0,0,0,0c0.01,0.71-0.15,1.37-0.42,1.92
		c-0.28,0.55-0.67,0.99-1.15,1.26c-0.29,0.17-0.61,0.26-0.95,0.27c-0.03,0-0.05,0.01-0.08,0.01h0c0,0,0,0,0,0
		c-0.13,0-0.25-0.01-0.38-0.03c-0.12-0.02-0.24-0.05-0.36-0.1c-0.24-0.09-0.46-0.21-0.66-0.37c-0.03-0.02-0.06-0.04-0.09-0.06
		c-0.13-0.11-0.26-0.24-0.37-0.38c-0.18-0.22-0.32-0.47-0.45-0.75c-0.12-0.26-0.22-0.54-0.29-0.83c-0.06-0.27-0.1-0.56-0.11-0.85
		c0,0,0,0,0,0c-0.01-0.37,0.05-0.72,0.13-1.06c0.07-0.31,0.18-0.6,0.32-0.87c0.18-0.34,0.38-0.65,0.64-0.89
		c0.01-0.01,0.02-0.03,0.03-0.04c0.04-0.03,0.08-0.06,0.12-0.09c0.17-0.13,0.34-0.24,0.53-0.32c0.23-0.1,0.48-0.17,0.74-0.19
		C62.13,65.52,62.15,65.51,62.18,65.51z"/>
	<path class="st2" d="M69.43,68.78c-0.05,2.43,1.58,4.44,3.65,4.49c1.02,0.02,1.94-0.44,2.63-1.2c0.01-0.01,0.03-0.02,0.04-0.04
		c0.26-0.3,0.47-0.65,0.66-1.02c0.22-0.46,0.39-0.97,0.46-1.51c0.02-0.18,0.04-0.37,0.04-0.56c0.05-2.43-1.58-4.44-3.65-4.49
		c0,0,0,0,0,0c-0.35-0.01-0.68,0.06-1,0.16c-0.63,0.19-1.21,0.56-1.67,1.08c-0.23,0.26-0.42,0.57-0.59,0.9
		c-0.32,0.62-0.53,1.33-0.56,2.11C69.43,68.72,69.43,68.75,69.43,68.78z M70.79,67.55c0.07-0.21,0.15-0.4,0.24-0.59
		c0.47-0.92,1.26-1.51,2.15-1.5c0.53,0.01,1.02,0.23,1.43,0.61c0.02,0.02,0.03,0.04,0.05,0.05c0.65,0.64,1.07,1.67,1.05,2.84
		c-0.01,0.72-0.18,1.38-0.46,1.93c-0.47,0.92-1.26,1.51-2.15,1.5c-0.53-0.01-1.02-0.23-1.43-0.61c-0.14-0.13-0.26-0.27-0.38-0.43
		c-0.46-0.63-0.73-1.5-0.72-2.46C70.58,68.42,70.66,67.96,70.79,67.55z"/>
	<path class="st3" d="M51.64,65.61L51.64,65.61l-0.58-0.01c-0.59-0.01-1.13,0.23-1.52,0.61c-0.39,0.38-0.64,0.92-0.64,1.51
		l-0.02,2.3c-0.01,0.74,0.36,1.39,0.92,1.78c0.34,0.23,0.75,0.37,1.19,0.38l0.01,0l0.57,0.01c0.44,0,0.86-0.13,1.2-0.35
		c0.11-0.08,0.22-0.16,0.32-0.26c0.39-0.38,0.64-0.92,0.64-1.51l0.02-2.3C53.77,66.59,52.82,65.62,51.64,65.61z"/>
	<path class="st3" d="M60.83,66.03c-0.04,0.03-0.08,0.05-0.12,0.09c-0.01,0.01-0.02,0.03-0.03,0.04c-0.26,0.24-0.46,0.55-0.64,0.89
		c-0.14,0.27-0.25,0.56-0.32,0.87c-0.08,0.34-0.14,0.69-0.13,1.06c0,0.3,0.05,0.58,0.11,0.85c0.06,0.3,0.17,0.57,0.29,0.83
		c0.12,0.27,0.27,0.53,0.45,0.75c0.11,0.14,0.24,0.27,0.37,0.38c0.03,0.02,0.06,0.04,0.09,0.06c0.21,0.16,0.43,0.29,0.66,0.37
		c0.12,0.04,0.24,0.08,0.36,0.1c0.12,0.02,0.25,0.03,0.38,0.03h0c0.03,0,0.05-0.01,0.08-0.01c0.34-0.02,0.66-0.11,0.95-0.27
		c0.47-0.27,0.87-0.71,1.15-1.26c0.28-0.55,0.43-1.21,0.42-1.92v0c0-0.24-0.03-0.47-0.06-0.69c-0.08-0.44-0.22-0.86-0.42-1.22
		c-0.2-0.36-0.44-0.67-0.73-0.91c-0.21-0.18-0.45-0.32-0.7-0.42c-0.25-0.1-0.52-0.15-0.79-0.14h0c-0.03,0-0.05,0.01-0.08,0.01
		c-0.26,0.01-0.51,0.08-0.74,0.19C61.17,65.79,61,65.89,60.83,66.03z"/>
	<path class="st3" d="M71.67,71.79c0.41,0.38,0.9,0.6,1.43,0.61c0.89,0.01,1.68-0.59,2.15-1.5c0.28-0.55,0.45-1.22,0.46-1.93
		c0.01-1.17-0.4-2.2-1.05-2.84c-0.02-0.02-0.03-0.04-0.05-0.05c-0.41-0.38-0.9-0.6-1.43-0.61c-0.89-0.01-1.68,0.59-2.15,1.5
		c-0.09,0.18-0.18,0.38-0.24,0.59c-0.14,0.41-0.21,0.87-0.22,1.35c-0.01,0.96,0.27,1.83,0.72,2.46
		C71.41,71.52,71.54,71.66,71.67,71.79z"/>
	<path class="st2" d="M80.67,85.94c0.09-2.71,0.08-5.48-0.04-8.31c-0.08-1.72-1.49-3.08-3.22-3.08l-6.03-0.01
		c-0.2,0-0.3,0.1-0.3,0.3v0.29c0,0.27,0.14,0.41,0.41,0.42l5.87,0.06c1.31,0.02,2.37,1.08,2.39,2.39l0.13,7.93
		c0.01,0.67-0.48,1.26-1.16,1.36l-0.29,0.04c-0.04,0.01-0.08,0.01-0.12,0.01c-0.03,0-0.06-0.02-0.09-0.02
		c-0.05-0.01-0.1-0.02-0.15-0.03c-0.05-0.02-0.09-0.04-0.13-0.06c-0.04-0.02-0.08-0.05-0.12-0.08c-0.04-0.03-0.07-0.07-0.1-0.11
		c-0.03-0.04-0.06-0.08-0.08-0.12c-0.02-0.04-0.04-0.09-0.05-0.14c-0.02-0.07-0.04-0.13-0.04-0.2l0.08-5.87
		c0.01-0.26-0.2-0.48-0.46-0.5l-0.3-0.03c-0.01,0-0.01,0-0.02,0c-0.02,0-0.04,0.01-0.06,0.01c-0.02,0-0.05,0.01-0.07,0.01
		c-0.02,0.01-0.04,0.02-0.06,0.04c-0.02,0.01-0.04,0.02-0.06,0.04c-0.02,0.02-0.03,0.04-0.04,0.05c-0.01,0.02-0.03,0.04-0.04,0.06
		c-0.01,0.02-0.01,0.05-0.02,0.07c-0.01,0.03-0.02,0.05-0.02,0.08l0.01,19.35c0,0.49-0.25,0.73-0.74,0.72l-1.65-0.04
		c-0.37-0.01-0.55-0.2-0.55-0.57l0.13-12.34c0.01-0.25-0.18-0.46-0.43-0.48l-0.39-0.02c-0.17-0.01-0.26,0.07-0.26,0.25l0.04,12.53
		c0,0.37-0.18,0.56-0.55,0.57l-1.77,0.07c-0.01,0-0.01,0-0.02,0c-0.04,0-0.07-0.02-0.11-0.02c-0.04-0.01-0.08-0.01-0.12-0.02
		c-0.04-0.01-0.07-0.04-0.1-0.06c-0.03-0.02-0.07-0.04-0.1-0.07c-0.03-0.03-0.05-0.06-0.07-0.09c-0.02-0.03-0.05-0.06-0.07-0.1
		c-0.02-0.04-0.02-0.08-0.03-0.12c-0.01-0.04-0.03-0.08-0.03-0.13V89.88c0-0.26-0.13-0.38-0.38-0.37l-0.31,0.01
		c-0.28,0.01-0.42,0.15-0.42,0.43l-0.03,9.96c0,0.52-0.26,0.76-0.78,0.72l-0.31-0.02c-0.61-0.05-0.91-0.37-0.91-0.98l0.05-10.7
		c0.01-0.52,0.27-0.79,0.79-0.81c1.63-0.07,2.41-0.89,2.34-2.47c-0.12-2.6-0.14-5.25-0.06-7.94c0-0.04,0-0.09,0-0.13
		c0-0.08-0.02-0.16-0.03-0.24c-0.01-0.11-0.02-0.21-0.04-0.32c-0.02-0.1-0.05-0.19-0.08-0.29c-0.03-0.1-0.06-0.2-0.09-0.29
		c-0.04-0.09-0.09-0.18-0.13-0.27c-0.05-0.09-0.09-0.18-0.14-0.26c-0.06-0.08-0.12-0.16-0.18-0.24c-0.06-0.08-0.12-0.16-0.19-0.23
		c-0.07-0.07-0.15-0.13-0.22-0.2c-0.08-0.06-0.15-0.13-0.23-0.19c-0.08-0.06-0.17-0.1-0.26-0.15c-0.09-0.05-0.17-0.1-0.27-0.14
		c-0.09-0.04-0.19-0.07-0.29-0.1c-0.1-0.03-0.19-0.06-0.29-0.09c-0.1-0.02-0.21-0.03-0.32-0.04c-0.12-0.01-0.25-0.04-0.37-0.03
		l-7.99,0.06c-2.67,0.02-4,1.36-4.01,4.03v7.65c0,0.43,0.16,0.78,0.48,1.07c0.51,0.45,1.12,0.72,1.84,0.79
		c0.48,0.05,0.72,0.31,0.72,0.79v10.97c0,0.53-0.27,0.79-0.8,0.78l-0.49-0.01c-0.47,0-0.71-0.24-0.7-0.72l0.11-9.77
		c0.01-0.31-0.17-0.59-0.45-0.72l-0.47-0.21c-0.15-0.07-0.22-0.03-0.22,0.14v10.75c-0.01,0.35-0.19,0.52-0.54,0.51l-1.71-0.1
		c-0.26-0.01-0.39-0.15-0.39-0.41l-0.01-12.6c0-0.37-0.18-0.5-0.53-0.39l-0.36,0.11c-0.11,0.04-0.17,0.12-0.16,0.23L50.9,99.9
		c0,0.01,0,0.02,0,0.03c0,0.04-0.02,0.07-0.03,0.11c-0.01,0.04-0.01,0.08-0.03,0.12c-0.02,0.04-0.04,0.07-0.07,0.1
		c-0.02,0.03-0.04,0.07-0.07,0.1c-0.03,0.03-0.07,0.05-0.1,0.07c-0.03,0.02-0.07,0.05-0.1,0.06c-0.04,0.02-0.08,0.02-0.13,0.03
		c-0.05,0.01-0.09,0.02-0.14,0.02l-1.87-0.05c-0.39-0.01-0.58-0.21-0.58-0.6l0.03-19.22c0-0.27-0.13-0.41-0.4-0.42h-0.31
		c-0.25-0.01-0.38,0.12-0.38,0.37l-0.02,5.96c-0.01,0.64-0.31,0.85-0.9,0.62l-0.5-0.19c-0.54-0.21-0.81-0.6-0.81-1.18l0.04-7.59
		c0.01-1.44,1.17-2.61,2.61-2.62L53,75.57c0.09,0,0.16-0.04,0.19-0.12l0.13-0.28c0.02-0.05,0.04-0.11,0.04-0.16c0,0,0,0,0,0
		c0-0.04-0.01-0.08-0.02-0.12c0-0.02,0-0.04-0.01-0.05c-0.01-0.03-0.03-0.05-0.04-0.08c-0.01-0.02-0.02-0.05-0.04-0.07
		c-0.01-0.01-0.03-0.02-0.04-0.03c-0.03-0.03-0.06-0.06-0.1-0.07c-0.05-0.02-0.11-0.04-0.17-0.04c-3.23-0.19-9.6-1.24-9.46,3.99
		c0.07,2.82,0.08,5.38,0.04,7.68c-0.01,0.43,0.15,0.8,0.46,1.1c0.61,0.58,1.31,0.89,2.08,0.93c0.43,0.03,0.65,0.25,0.65,0.68v12.12
		c0,0.45,0.23,0.67,0.68,0.67l29.37,0.01c0.56,0,0.84-0.28,0.84-0.83l0.03-12.23c0-0.01,0-0.02,0-0.03c0-0.02,0.01-0.04,0.02-0.06
		c0.01-0.03,0.01-0.05,0.02-0.08c0.01-0.02,0.03-0.04,0.04-0.06c0.02-0.02,0.03-0.04,0.05-0.06c0.02-0.02,0.04-0.03,0.06-0.04
		c0.02-0.01,0.04-0.03,0.07-0.04c0.02-0.01,0.05-0.01,0.08-0.02c0.03-0.01,0.06-0.01,0.09-0.01C79.74,88.35,80.61,87.58,80.67,85.94
		z M66.39,80.24l-0.52-0.05c-0.24-0.02-0.36,0.09-0.36,0.33l0.02,19.4c0.01,0.37-0.18,0.57-0.56,0.59l-1.44,0.06
		c-0.01,0-0.01,0-0.02,0c-0.04,0-0.08-0.02-0.12-0.02c-0.04-0.01-0.09-0.01-0.13-0.02c-0.04-0.02-0.07-0.04-0.11-0.07
		c-0.04-0.02-0.07-0.04-0.1-0.07c-0.03-0.03-0.05-0.07-0.08-0.1c-0.02-0.03-0.05-0.06-0.07-0.1c-0.02-0.04-0.02-0.08-0.03-0.13
		c-0.01-0.04-0.03-0.07-0.03-0.12c0-0.01,0-0.01,0-0.02l-0.01-12.86c0-0.03-0.01-0.06-0.02-0.09c-0.01-0.02-0.01-0.05-0.02-0.07
		c-0.01-0.02-0.03-0.04-0.04-0.06c-0.01-0.02-0.03-0.04-0.04-0.06c-0.02-0.02-0.04-0.03-0.06-0.04c-0.02-0.01-0.04-0.03-0.06-0.04
		c-0.02-0.01-0.05-0.01-0.07-0.02c-0.03,0-0.06-0.01-0.09-0.01l-0.35,0.02c-0.25,0.01-0.38,0.15-0.38,0.4v12.76
		c0,0.44-0.22,0.67-0.66,0.68l-1.75,0.06c0,0-0.01,0-0.01,0c-0.04,0-0.07-0.01-0.1-0.02c-0.04-0.01-0.08-0.01-0.11-0.02
		c-0.03-0.01-0.06-0.04-0.09-0.06c-0.03-0.02-0.06-0.03-0.09-0.06c-0.03-0.02-0.04-0.06-0.06-0.08c-0.02-0.03-0.05-0.06-0.06-0.09
		c-0.01-0.03-0.02-0.07-0.02-0.11c-0.01-0.03-0.02-0.07-0.02-0.1c0,0,0-0.01,0-0.01l0.04-19.53c0-0.17-0.08-0.27-0.25-0.3
		l-0.43-0.08c-0.35-0.06-0.52,0.08-0.52,0.43l-0.05,6.3c0,0.46-0.21,0.6-0.63,0.42l-0.34-0.15c-0.53-0.23-0.8-0.64-0.81-1.22
		l-0.04-8.19c0-0.01,0-0.02,0-0.03c0-0.07,0.02-0.14,0.02-0.2c0.01-0.08,0.01-0.15,0.02-0.23c0.01-0.07,0.04-0.14,0.06-0.2
		c0.02-0.07,0.04-0.14,0.07-0.21c0.03-0.07,0.07-0.13,0.1-0.19c0.03-0.06,0.06-0.13,0.1-0.18c0.04-0.06,0.09-0.11,0.14-0.17
		c0.04-0.05,0.08-0.11,0.13-0.16c0.05-0.05,0.11-0.09,0.16-0.14c0.05-0.05,0.11-0.09,0.17-0.13c0.06-0.04,0.12-0.07,0.19-0.1
		c0.06-0.03,0.12-0.07,0.19-0.1c0.07-0.03,0.14-0.04,0.21-0.07c0.07-0.02,0.14-0.05,0.21-0.06c0.07-0.01,0.15-0.02,0.22-0.02
		c0.07-0.01,0.14-0.02,0.21-0.02c0.01,0,0.02,0,0.03,0l8.72,0.08c1.06,0.01,1.91,0.87,1.91,1.93l-0.01,8.65c0,0.55-0.27,0.88-0.8,1
		l-0.36,0.08c-0.52,0.12-0.78-0.09-0.79-0.62l-0.04-6.22C66.54,80.31,66.49,80.25,66.39,80.24z"/>
	<path class="st4" d="M66.58,86.63c0.01,0.53,0.27,0.74,0.79,0.62l0.36-0.08c0.53-0.12,0.8-0.45,0.8-1l0.01-8.65
		c0-1.06-0.85-1.92-1.91-1.93l-8.72-0.08c-0.01,0-0.02,0-0.03,0c-0.07,0-0.14,0.01-0.21,0.02c-0.08,0.01-0.15,0.01-0.22,0.02
		c-0.07,0.01-0.14,0.04-0.21,0.06c-0.07,0.02-0.14,0.04-0.21,0.07c-0.07,0.03-0.13,0.07-0.19,0.1c-0.06,0.03-0.13,0.06-0.19,0.1
		c-0.06,0.04-0.11,0.09-0.17,0.13c-0.05,0.04-0.11,0.09-0.16,0.14c-0.05,0.05-0.09,0.11-0.13,0.16c-0.05,0.06-0.1,0.11-0.14,0.17
		c-0.04,0.06-0.07,0.12-0.1,0.18c-0.03,0.06-0.07,0.12-0.1,0.19c-0.03,0.07-0.05,0.14-0.07,0.21c-0.02,0.07-0.05,0.13-0.06,0.2
		c-0.02,0.07-0.02,0.15-0.02,0.23c-0.01,0.08-0.02,0.15-0.02,0.23l0.04,8.19c0.01,0.58,0.28,0.99,0.81,1.22l0.34,0.15
		c0.42,0.18,0.63,0.04,0.63-0.42l0.05-6.3c0-0.35,0.17-0.49,0.52-0.43l0.43,0.08c0.17,0.03,0.25,0.13,0.25,0.3l-0.04,19.53
		c0,0,0,0.01,0,0.01c0,0.04,0.02,0.07,0.02,0.1c0.01,0.04,0.01,0.07,0.02,0.11c0.01,0.03,0.04,0.06,0.06,0.09
		c0.02,0.03,0.04,0.06,0.06,0.08c0.03,0.03,0.06,0.04,0.09,0.06c0.03,0.02,0.05,0.04,0.09,0.06c0.03,0.01,0.07,0.02,0.11,0.02
		c0.04,0.01,0.07,0.02,0.11,0.02l1.75-0.06c0.44-0.01,0.66-0.24,0.66-0.68V87.1c0-0.25,0.13-0.39,0.38-0.4l0.35-0.02
		c0.01,0,0.02,0,0.03,0c0.02,0,0.04,0.01,0.06,0.01c0.03,0,0.05,0.01,0.07,0.02c0.02,0.01,0.04,0.02,0.06,0.04
		c0.02,0.01,0.04,0.02,0.06,0.04c0.02,0.02,0.03,0.04,0.04,0.06c0.01,0.02,0.03,0.04,0.04,0.06c0.01,0.02,0.01,0.05,0.02,0.07
		c0.01,0.03,0.02,0.06,0.02,0.09l0.01,12.86c0,0.01,0,0.01,0,0.02c0,0.04,0.02,0.08,0.03,0.12c0.01,0.04,0.01,0.09,0.03,0.13
		c0.02,0.04,0.05,0.07,0.07,0.1c0.02,0.03,0.04,0.07,0.08,0.1c0.03,0.03,0.07,0.05,0.1,0.07c0.04,0.02,0.07,0.05,0.11,0.07
		c0.04,0.02,0.09,0.02,0.13,0.02c0.05,0.01,0.09,0.02,0.14,0.02l1.44-0.06c0.38-0.02,0.57-0.22,0.56-0.59l-0.02-19.4
		c0-0.24,0.12-0.35,0.36-0.33l0.52,0.05c0.1,0.01,0.15,0.07,0.15,0.17L66.58,86.63z"/>
	<path class="st2" d="M44.93,100.57c-0.1-0.07-0.23-0.11-0.36-0.11l-4.94-0.02c-0.09,0-0.18,0.02-0.25,0.05
		c-0.06,0.02-0.11,0.06-0.16,0.1c-0.14,0.12-0.24,0.3-0.24,0.5l0,0.06c0,0.36,0.29,0.65,0.65,0.65l4.94,0.02
		c0.36,0,0.65-0.29,0.65-0.65l0-0.06c0-0.09-0.02-0.18-0.05-0.25C45.12,100.74,45.03,100.64,44.93,100.57z"/>
	<path class="st2" d="M85.23,100.7c-0.08-0.1-0.19-0.17-0.31-0.21c-0.06-0.02-0.13-0.03-0.2-0.03l-5.02-0.04
		c-0.36,0-0.66,0.29-0.66,0.66l0,0.06c0,0.09,0.02,0.18,0.05,0.26c0.07,0.16,0.19,0.29,0.35,0.35c0.08,0.03,0.17,0.05,0.26,0.05
		l5.02,0.04h0c0.27,0,0.51-0.16,0.61-0.4c0.03-0.08,0.05-0.17,0.05-0.26l0-0.06c0-0.09-0.02-0.18-0.05-0.26
		C85.3,100.8,85.27,100.75,85.23,100.7z"/>
</g>
</svg>
