<?xml version="1.0" encoding="utf-8"?>
<!-- Generator: Adobe Illustrator 28.0.0, SVG Export Plug-In . SVG Version: 6.00 Build 0)  -->
<svg version="1.1" id="Capa_1" xmlns="http://www.w3.org/2000/svg" xmlns:xlink="http://www.w3.org/1999/xlink" x="0px" y="0px"
	 viewBox="0 0 126 126" style="enable-background:new 0 0 126 126;" xml:space="preserve">
<style type="text/css">
	.st0{fill:#FFFFFF;stroke:#1DA9FC;stroke-miterlimit:10;}
	.st1{fill:none;}
	.st2{fill:#3B7598;}
	.st3{fill:#B3DFF8;}
</style>
<circle class="st0" cx="63" cy="63" r="59.67"/>
<g>
	<path class="st1" d="M26.55,85.64c0.07,0.06,0.14,0.1,0.22,0.14c-0.1-0.04-0.17-0.1-0.25-0.16C26.53,85.62,26.54,85.63,26.55,85.64
		z"/>
	<path class="st1" d="M23.47,84.65c-0.04-0.08-0.08-0.15-0.14-0.21c0.07,0.07,0.11,0.15,0.15,0.23
		C23.47,84.66,23.48,84.66,23.47,84.65z"/>
	<path class="st1" d="M21.86,84.27c0.03,0.04,0.04,0.09,0.06,0.13c-0.01-0.02-0.01-0.04-0.02-0.06
		C21.89,84.32,21.88,84.29,21.86,84.27z"/>
	<path class="st1" d="M24.18,38.82C24.18,38.82,24.18,38.82,24.18,38.82c0.01,0.02,0.01,0.06,0.02,0.09
		C24.19,38.88,24.19,38.85,24.18,38.82z"/>
	<path class="st1" d="M96.25,47.91c0-0.05,0-0.09-0.01-0.14c0.01,0.08,0,0.16-0.01,0.24C96.24,47.98,96.25,47.95,96.25,47.91z"/>
	<path class="st1" d="M26.77,39.5c0.05,0.05,0.11,0.09,0.18,0.12C26.88,39.59,26.82,39.55,26.77,39.5
		C26.77,39.5,26.77,39.5,26.77,39.5z"/>
	<path class="st1" d="M85.93,42.64c0.04,0.04,0.06,0.08,0.08,0.13C86,42.76,86,42.74,85.99,42.72
		C85.97,42.69,85.95,42.67,85.93,42.64z"/>
	<path class="st1" d="M48.22,94.94c0.01-0.05,0.03-0.1,0.03-0.16c0-0.01,0-0.03,0-0.04C48.25,94.81,48.23,94.87,48.22,94.94z"/>
	<path class="st1" d="M29.97,95.81c0.02,0,0.03,0,0.05,0c-0.06,0-0.11-0.02-0.17-0.03C29.89,95.79,29.93,95.81,29.97,95.81z"/>
	<path class="st1" d="M53.78,85.49C53.78,85.5,53.78,85.5,53.78,85.49c-0.03-0.03-0.04-0.08-0.07-0.12
		C53.73,85.41,53.74,85.46,53.78,85.49z"/>
	<path class="st1" d="M84.49,42.57c0.04,0.04,0.05,0.1,0.06,0.15c0-0.02,0.01-0.04,0-0.07C84.53,42.63,84.51,42.6,84.49,42.57z"/>
	<path class="st1" d="M91.34,43.11c-0.05-0.02-0.1-0.06-0.14-0.1c0.01,0.01,0.02,0.02,0.03,0.03C91.26,43.07,91.3,43.09,91.34,43.11
		z"/>
	<path class="st1" d="M47.21,93.97c0.01-0.04,0.02-0.08,0.03-0.12c0-0.01-0.01-0.02-0.01-0.03C47.23,93.87,47.21,93.92,47.21,93.97z
		"/>
	<path class="st1" d="M42.84,43.09c-0.04-0.02-0.08-0.05-0.11-0.08c0.01,0.01,0.02,0.02,0.03,0.03
		C42.78,43.06,42.81,43.08,42.84,43.09z"/>
	<path class="st1" d="M77.78,62.54C77.78,62.54,77.78,62.54,77.78,62.54c-0.01-0.01-0.02-0.04-0.03-0.05
		C77.76,62.5,77.77,62.52,77.78,62.54z"/>
	<path class="st1" d="M70.74,38.29c0.04,0.06,0.06,0.12,0.08,0.19c0-0.01,0-0.03-0.01-0.04C70.79,38.39,70.77,38.34,70.74,38.29z"/>
	<path class="st1" d="M51.42,38.77c-0.03-0.07-0.07-0.14-0.12-0.19c0.06,0.07,0.1,0.15,0.13,0.23
		C51.42,38.79,51.43,38.78,51.42,38.77z"/>
	<path class="st1" d="M75.54,39.65c0.05,0.05,0.11,0.08,0.18,0.11c-0.08-0.03-0.14-0.08-0.2-0.14
		C75.53,39.63,75.53,39.64,75.54,39.65z"/>
	<path class="st1" d="M72.43,38.74c-0.03-0.07-0.08-0.13-0.13-0.18c0.06,0.06,0.1,0.13,0.13,0.21
		C72.43,38.75,72.43,38.74,72.43,38.74z"/>
	<path class="st1" d="M46.1,41.92c0.04,0,0.08-0.02,0.12-0.03c-0.04,0.02-0.09,0.03-0.13,0.03C46.09,41.92,46.1,41.93,46.1,41.92z"
		/>
	<path class="st1" d="M37.29,42.4c0.06,0.07,0.09,0.15,0.13,0.23c-0.01-0.02-0.01-0.05-0.02-0.07C37.37,42.5,37.33,42.45,37.29,42.4
		z"/>
	<path class="st1" d="M56.08,39.09c-0.04-0.02-0.08-0.05-0.11-0.08c0.01,0.01,0.02,0.02,0.03,0.03
		C56.03,39.07,56.05,39.08,56.08,39.09z"/>
	<path class="st1" d="M90.09,43.79c-0.1-0.05-0.17-0.12-0.24-0.19c0.02,0.02,0.03,0.05,0.05,0.07
		C89.96,43.72,90.02,43.76,90.09,43.79z"/>
	<path class="st1" d="M80.74,41.6c0.01-0.03,0.02-0.05,0.02-0.08c-0.01,0.06-0.05,0.09-0.08,0.13C80.7,41.63,80.72,41.63,80.74,41.6
		z"/>
	<path class="st1" d="M32.53,41.65c0.01-0.02,0.02-0.05,0.02-0.08c-0.01,0.04-0.02,0.07-0.04,0.1
		C32.51,41.67,32.52,41.66,32.53,41.65z"/>
	<path class="st1" d="M49.58,84.67c0.03,0.03,0.03,0.07,0.03,0.11c0-0.02,0.01-0.04,0-0.05C49.6,84.71,49.59,84.69,49.58,84.67z"/>
	<path class="st1" d="M50.45,62.62c0.05,0.05,0.11,0.08,0.18,0.11c-0.07-0.03-0.14-0.08-0.19-0.13
		C50.44,62.61,50.45,62.61,50.45,62.62z"/>
	<path class="st1" d="M40.8,89.32c-0.06-0.03-0.11-0.08-0.16-0.12c0.01,0.01,0.01,0.02,0.02,0.02C40.7,89.26,40.75,89.3,40.8,89.32z
		"/>
	<path class="st1" d="M96.2,95c0.01-0.05,0.03-0.1,0.03-0.15c0-0.01,0-0.02,0-0.03C96.23,94.88,96.21,94.94,96.2,95z"/>
	<path class="st1" d="M70,84.47c0.06,0.07,0.08,0.16,0.08,0.25c0-0.05,0-0.1-0.02-0.15C70.04,84.53,70.02,84.5,70,84.47z"/>
	<path class="st1" d="M88.91,89.42c-0.08-0.03-0.14-0.08-0.19-0.14c0.01,0.01,0.01,0.01,0.01,0.02
		C88.78,89.35,88.84,89.39,88.91,89.42z"/>
	<path class="st1" d="M98.96,84.61c-0.02-0.02-0.03-0.04-0.05-0.06c0.03,0.03,0.05,0.07,0.08,0.11
		C98.98,84.65,98.97,84.63,98.96,84.61z"/>
	<path class="st1" d="M95.25,93.86c0-0.01,0.01-0.02,0.01-0.03c0-0.11-0.02-0.21-0.05-0.31C95.24,93.63,95.25,93.75,95.25,93.86z"/>
	<path class="st1" d="M99.98,38.77c-0.02-0.02-0.03-0.05-0.05-0.07c0.03,0.03,0.05,0.07,0.07,0.11
		C99.99,38.8,99.99,38.78,99.98,38.77z"/>
	<path class="st1" d="M94.15,41.65c0,0,0.01,0,0.01,0.01c-0.02-0.01-0.03-0.03-0.05-0.05C94.13,41.62,94.13,41.63,94.15,41.65z"/>
	<path class="st1" d="M93.34,87.67c0.03,0,0.06,0,0.09-0.01c-0.05,0.01-0.09-0.01-0.14-0.02C93.31,87.65,93.32,87.67,93.34,87.67z"
		/>
	<path class="st1" d="M102.75,39.63c0.07,0.06,0.14,0.1,0.22,0.14c-0.09-0.04-0.17-0.1-0.24-0.16
		C102.74,39.62,102.75,39.63,102.75,39.63z"/>
	<path class="st1" d="M74.53,85.6c0.06,0.06,0.14,0.1,0.21,0.13c-0.09-0.04-0.17-0.1-0.23-0.16C74.51,85.58,74.52,85.59,74.53,85.6z
		"/>
	<path class="st1" d="M64.7,66.26c-0.04-0.03-0.07-0.08-0.1-0.12c0.02,0.02,0.03,0.05,0.05,0.07C64.66,66.23,64.68,66.25,64.7,66.26
		z"/>
	<path class="st1" d="M71.17,70.95c0-0.02,0.01-0.04,0.01-0.06c0-0.07-0.01-0.14-0.02-0.2C71.18,70.77,71.18,70.86,71.17,70.95z"/>
	<path class="st1" d="M98.19,38.65c0,0.04,0,0.08-0.01,0.11c0-0.03,0.01-0.07,0.01-0.1C98.19,38.66,98.19,38.65,98.19,38.65z"/>
	<path class="st1" d="M79.71,87.38c0.01-0.02,0.01-0.04,0.02-0.05c-0.01,0.04-0.03,0.07-0.05,0.1
		C79.69,87.41,79.7,87.39,79.71,87.38z"/>
	<path class="st1" d="M59.31,65.36c0.06,0.07,0.09,0.15,0.08,0.24c0-0.05,0-0.1-0.02-0.15C59.35,65.42,59.33,65.39,59.31,65.36z"/>
	<path class="st1" d="M71.44,84.6c-0.03-0.05-0.06-0.1-0.1-0.14c0.05,0.05,0.09,0.12,0.12,0.18C71.45,84.63,71.45,84.61,71.44,84.6z
		"/>
	<path class="st2" d="M18.43,44.67l0.43-0.14c0.04-0.01,0.06-0.04,0.05-0.08c-0.1-0.89-0.07-1.68,0.09-2.37
		c0.07-0.29,0.24-0.49,0.51-0.6l4.34-1.85c0.08-0.03,0.15-0.09,0.21-0.15c0,0,0.01,0,0.01-0.01c0.02-0.02,0.03-0.05,0.05-0.08
		c0.03-0.04,0.06-0.08,0.07-0.12c0.01-0.04,0.02-0.08,0.02-0.12c0.01-0.04,0.02-0.08,0.02-0.12c0-0.05-0.02-0.09-0.03-0.14
		c-0.01-0.03-0.01-0.07-0.02-0.1c-0.03-0.08-0.08-0.15-0.15-0.21c-1.53-1.43-2-3.32-1.43-5.67c0.48-1.95,4.56-2.14,5.34-0.28
		c0.75,1.81,0.37,4.53-1.16,6.04c-0.05,0.05-0.09,0.11-0.12,0.18c0,0,0,0,0,0c-0.03,0.06-0.04,0.12-0.04,0.19
		c0,0.07,0.01,0.13,0.02,0.2c0.01,0.02,0.01,0.04,0.02,0.07c0.03,0.06,0.06,0.12,0.11,0.17c0.05,0.05,0.11,0.1,0.18,0.13l5.09,2.22
		c0.02,0.01,0.05,0.02,0.08,0.02c0.01,0,0.02,0,0.03,0c0.03,0,0.05,0,0.07,0c0.02,0,0.05-0.01,0.07-0.01
		c0.02-0.01,0.04-0.02,0.06-0.03c0.02-0.01,0.04-0.02,0.06-0.04c0.02-0.01,0.03-0.03,0.05-0.05c0.02-0.02,0.03-0.04,0.04-0.06
		c0.02-0.03,0.04-0.07,0.04-0.1l0.07-0.39c0.05-0.23-0.04-0.4-0.25-0.49l-3.54-1.58c-0.41-0.19-0.49-0.47-0.24-0.85
		c2.69-4.02,0.04-9.87-5.31-7.56c-2.82,1.21-2.23,5.58-1.15,7.65c0.19,0.35,0.1,0.62-0.25,0.79l-3,1.45
		c-0.34,0.17-0.61,0.46-0.75,0.81c-0.37,0.97-0.41,1.99-0.1,3.06C18.09,44.67,18.22,44.74,18.43,44.67z"/>
	<path class="st2" d="M67.04,44.64c0.25-0.65,0.35-1.3,0.29-1.97c-0.04-0.47,0.22-0.92,0.65-1.12l4.11-1.89
		c0.07-0.03,0.13-0.08,0.19-0.13c0.01-0.01,0.01-0.01,0.01-0.02c0.04-0.04,0.06-0.08,0.09-0.12c0.02-0.04,0.05-0.07,0.06-0.1
		c0.02-0.04,0.02-0.08,0.03-0.13c0.01-0.04,0.02-0.09,0.02-0.13c0-0.04-0.01-0.08-0.02-0.12c-0.01-0.05-0.02-0.1-0.04-0.15
		c-0.03-0.07-0.07-0.15-0.13-0.21c-1.41-1.47-1.87-3.23-1.39-5.28c0.6-2.6,5.35-2.73,5.72-0.05c0.31,2.31-0.08,4.12-1.17,5.42
		c-0.05,0.05-0.08,0.12-0.11,0.18c-0.01,0.01,0,0.02-0.01,0.04c-0.02,0.05-0.02,0.1-0.03,0.15c-0.01,0.04-0.02,0.09-0.01,0.13
		c0,0.05,0.01,0.09,0.02,0.13c0.01,0.04,0.02,0.09,0.04,0.13c0.02,0.04,0.04,0.07,0.07,0.11c0.03,0.04,0.05,0.08,0.09,0.12
		c0.06,0.06,0.12,0.11,0.2,0.14l4.61,1.99c0.03,0.01,0.05,0.02,0.08,0.02c0.03,0,0.05-0.02,0.08-0.02c0.04,0,0.07-0.01,0.11-0.03
		c0.04-0.02,0.06-0.04,0.08-0.08c0.03-0.04,0.07-0.08,0.08-0.13l0.06-0.31c0.05-0.3-0.07-0.51-0.34-0.63l-3.16-1.45
		c-0.38-0.17-0.48-0.45-0.29-0.82c1.04-2.09,1.62-6.21-0.99-7.54c-1.82-0.93-4.49-0.71-5.63,1.21c-1.23,2.08-1.12,4.18,0.33,6.31
		c0.03,0.05,0.06,0.09,0.07,0.15c0,0.01,0,0.03,0.01,0.04c0.01,0.04,0.01,0.08,0.02,0.12c0,0.04,0.01,0.07,0,0.11
		c-0.01,0.04-0.02,0.07-0.03,0.11c-0.01,0.04-0.02,0.07-0.04,0.11c-0.02,0.03-0.04,0.06-0.07,0.09c-0.03,0.03-0.05,0.06-0.09,0.09
		c-0.05,0.04-0.11,0.08-0.17,0.1c-2.49,0.88-5.47,1.96-3.94,5.44C66.68,45.09,66.87,45.09,67.04,44.64z"/>
	<path class="st2" d="M108.68,41.33c-0.11-0.33-0.32-0.57-0.63-0.71l-3.49-1.56c-0.41-0.19-0.48-0.46-0.19-0.81
		c1.06-1.34,1.35-3.13,0.87-5.38c-0.11-0.49-0.36-0.92-0.77-1.29c-3.03-2.71-7.4-1.14-7.37,3.03c0.01,1.42,0.34,2.67,1,3.76
		c0.05,0.08,0.08,0.18,0.09,0.28c0,0,0,0.01,0,0.01c0,0.04-0.01,0.07-0.01,0.1c0,0.05,0,0.11-0.02,0.16
		c-0.01,0.04-0.04,0.08-0.06,0.12c-0.02,0.04-0.04,0.08-0.06,0.12c-0.03,0.04-0.08,0.07-0.12,0.11c-0.03,0.02-0.05,0.05-0.09,0.07
		c-0.09,0.05-0.18,0.08-0.28,0.09c-1.47,0.13-2.63,0.69-3.47,1.68c-0.03,0.04-0.06,0.09-0.07,0.14c0,0.01,0,0.03,0,0.04
		c-0.01,0.04-0.01,0.07,0,0.11c0,0,0,0.01,0,0.01c0,0.02,0.01,0.03,0.02,0.05c0.01,0.03,0.02,0.05,0.03,0.07
		c0.01,0.02,0.03,0.04,0.05,0.06c0.02,0.02,0.03,0.03,0.05,0.05c0.03,0.02,0.06,0.04,0.1,0.05c0.01,0,0.03,0.01,0.04,0.02
		c0.05,0.01,0.1,0.01,0.16,0c2.01-0.45,3.81-1.22,5.4-2.31c0.02-0.02,0.04-0.03,0.06-0.05c0.01-0.01,0.02-0.03,0.03-0.04
		c0.02-0.02,0.04-0.05,0.05-0.08c0.01-0.03,0.02-0.05,0.03-0.08c0.01-0.03,0.01-0.06,0.02-0.09s0-0.06,0-0.09
		c0-0.03-0.01-0.06-0.02-0.09c-0.01-0.03-0.02-0.06-0.04-0.09c-0.02-0.04-0.04-0.08-0.07-0.11c-1.49-1.51-1.94-3.46-1.36-5.84
		c0.09-0.39,0.31-0.69,0.64-0.91c1.95-1.27,4.7-0.62,4.81,2.12c0.07,1.83-0.38,3.3-1.34,4.41c-0.06,0.07-0.11,0.14-0.14,0.23
		c0,0.01,0,0.02-0.01,0.03c-0.02,0.06-0.03,0.11-0.03,0.17c-0.01,0.05-0.02,0.09-0.02,0.14c0,0.05,0.02,0.1,0.03,0.15
		c0.01,0.05,0.02,0.1,0.04,0.15c0.02,0.04,0.05,0.08,0.08,0.12c0.03,0.05,0.06,0.1,0.11,0.14c0.07,0.07,0.15,0.12,0.24,0.16
		l4.24,1.74c0.37,0.15,0.55,0.42,0.56,0.82c0,0.4,0.01,0.81,0.04,1.23c0.09,1.69,0.4,1.73,0.92,0.12
		C108.97,42.99,108.95,42.21,108.68,41.33z"/>
	<path class="st2" d="M45.7,41.7c0,0.01,0.01,0.01,0.01,0.01c0.01,0.03,0.03,0.05,0.05,0.07c0.01,0.02,0.03,0.04,0.04,0.05
		c0.02,0.02,0.04,0.03,0.06,0.04c0.02,0.01,0.04,0.03,0.07,0.03c0.02,0.01,0.04,0.01,0.07,0.01c0.03,0,0.05,0.01,0.08,0.01
		c0.05,0,0.09-0.01,0.13-0.03l4.81-2.14c0.07-0.03,0.14-0.07,0.19-0.12c0.01-0.01,0.01-0.02,0.02-0.03c0.04-0.04,0.07-0.08,0.1-0.13
		c0.03-0.04,0.05-0.07,0.07-0.11c0.02-0.04,0.03-0.09,0.04-0.14c0.01-0.05,0.02-0.09,0.03-0.14c0-0.04-0.01-0.09-0.02-0.13
		c-0.01-0.05-0.01-0.1-0.03-0.15c-0.03-0.08-0.07-0.16-0.13-0.23c-1.09-1.25-1.52-2.93-1.3-5.02c0.42-3.96,8.12-2.66,5.49,3.41
		c-0.3,0.7-1.1,1.18-1.48,1.88c-0.18,0.32-0.1,0.56,0.23,0.71l4.62,2.06c0.39,0.17,0.63,0.57,0.59,0.99
		c-0.05,0.69-0.01,1.36,0.12,2.01c0.1,0.5,0.27,0.53,0.52,0.08c0.88-1.57,0.57-3.72-1.33-4.5c-0.93-0.38-1.82-0.75-2.68-1.1
		c-0.03-0.01-0.05-0.03-0.08-0.04c-0.01-0.01-0.02-0.02-0.03-0.03c-0.02-0.02-0.04-0.04-0.06-0.07c-0.02-0.02-0.03-0.05-0.05-0.07
		c-0.01-0.03-0.02-0.05-0.03-0.08c-0.01-0.03-0.01-0.05-0.02-0.08c0-0.03,0-0.06,0-0.08c0-0.03,0.01-0.06,0.02-0.09
		c0.01-0.04,0.03-0.08,0.05-0.12c2.43-3.31,1.38-8.54-3.73-8.13c-4.18,0.34-3.73,5.44-2.51,8.22c0.15,0.35,0.05,0.59-0.3,0.73
		l-3.29,1.26c-0.33,0.13-0.48,0.38-0.43,0.73l0.04,0.35C45.67,41.62,45.68,41.66,45.7,41.7z"/>
	<path class="st2" d="M35.46,43.18c-2.73,1.31-6.76,1.77-5.76,6.01c0.09,0.4,0.45,0.68,0.86,0.68h17.26c0.46,0,0.72-0.23,0.78-0.68
		c0.15-1.12,0.07-2.15-0.22-3.09c-0.13-0.43-0.45-0.78-0.86-0.96l-4.68-2.05c-0.03-0.01-0.06-0.03-0.08-0.05
		c-0.01-0.01-0.02-0.02-0.03-0.03c-0.02-0.02-0.04-0.04-0.06-0.07c-0.02-0.02-0.03-0.04-0.04-0.07c-0.01-0.03-0.02-0.05-0.03-0.08
		s-0.01-0.05-0.02-0.08c0-0.03,0-0.06,0-0.08c0-0.03,0.01-0.06,0.02-0.09c0.01-0.04,0.03-0.09,0.06-0.12
		c2.68-3.8,2.45-10.75-4.15-10.25c-5.25,0.4-4.84,6.89-2.81,10.18C35.93,42.72,35.85,42.99,35.46,43.18z M39.98,33.45
		c1.45,0.16,2.46,1.11,2.7,2.55c0.42,2.6-0.09,4.81-1.54,6.62c-0.29,0.35-0.24,0.65,0.15,0.89c1.42,0.91,2.99,1.65,4.7,2.2
		c1.09,0.36,1.96,1.38,1.68,2.56c-0.07,0.33-0.28,0.49-0.61,0.48L31.3,48.74c-0.46,0-0.71-0.23-0.74-0.69
		c-0.07-0.96,0.46-1.87,1.39-2.18c1.65-0.54,3.35-1.27,5.09-2.18c0.08-0.04,0.14-0.1,0.2-0.16c0.04-0.04,0.07-0.09,0.1-0.13
		c0.03-0.04,0.05-0.09,0.07-0.14c0.02-0.05,0.03-0.1,0.04-0.15c0.01-0.05,0.02-0.1,0.02-0.16c0-0.05-0.01-0.1-0.02-0.15
		c-0.01-0.06-0.03-0.11-0.05-0.16c-0.03-0.08-0.07-0.16-0.13-0.23C34.82,39.51,34.1,32.77,39.98,33.45z"/>
	<path class="st2" d="M84.54,42.66c0.01,0.02,0,0.04,0,0.07c0.01,0.04,0.01,0.07,0,0.11c-0.01,0.04-0.03,0.07-0.05,0.1
		c-0.03,0.04-0.06,0.09-0.12,0.12c-1.19,0.49-2.51,1.02-3.98,1.58c-2.24,0.85-2.37,2.54-2.06,4.59c0.07,0.44,0.32,0.66,0.77,0.66
		l17.19-0.03c0.4,0,0.66-0.19,0.78-0.57c1.23-3.98-3.07-5.02-5.74-6.17c-0.04-0.02-0.08-0.04-0.11-0.07
		c-0.01-0.01-0.02-0.02-0.03-0.03c-0.03-0.02-0.05-0.05-0.07-0.08c-0.02-0.03-0.04-0.05-0.05-0.08c-0.01-0.03-0.02-0.06-0.03-0.1
		c-0.01-0.03-0.02-0.06-0.02-0.1c0-0.03,0-0.07,0.01-0.1c0-0.04,0.01-0.07,0.02-0.11c0.02-0.05,0.04-0.11,0.08-0.15
		c2.24-2.99,2.58-9.78-2.71-10.09c-3.59-0.21-5.47,1.42-5.65,4.9c-0.12,2.23,0.45,4.05,1.72,5.46
		C84.51,42.6,84.53,42.63,84.54,42.66z M84.22,35.46c0.29-1.12,1.03-1.79,2.21-2c6.08-1.13,5.98,5.57,3.33,8.8
		c-0.07,0.08-0.11,0.18-0.14,0.27c-0.03,0.06-0.04,0.13-0.05,0.2c-0.01,0.06-0.02,0.12-0.02,0.19c0,0.06,0.01,0.13,0.03,0.19
		c0.01,0.06,0.03,0.12,0.05,0.18c0.02,0.06,0.06,0.11,0.09,0.16c0.04,0.06,0.08,0.11,0.13,0.16c0.07,0.07,0.15,0.14,0.24,0.19
		c1.76,0.88,5.79,1.81,6.15,3.98c0.01,0.05,0.01,0.09,0.01,0.14c0,0.03-0.02,0.06-0.02,0.09c-0.01,0.06-0.02,0.11-0.03,0.16
		c-0.02,0.05-0.04,0.1-0.07,0.14c-0.03,0.05-0.05,0.09-0.09,0.13c-0.03,0.04-0.07,0.08-0.11,0.11c-0.04,0.03-0.08,0.06-0.13,0.09
		c-0.05,0.03-0.1,0.04-0.16,0.06c-0.03,0.01-0.06,0.03-0.09,0.03c-0.05,0.01-0.09,0.01-0.14,0.01H80.08c-0.43,0-0.68-0.21-0.75-0.63
		c-0.19-1.05,0.26-2.05,1.34-2.36c1.85-0.51,3.58-1.29,5.17-2.32c0.04-0.03,0.08-0.07,0.11-0.11c0.02-0.03,0.04-0.06,0.06-0.09
		c0.02-0.03,0.03-0.06,0.04-0.09c0.01-0.03,0.02-0.06,0.02-0.1c0-0.03,0-0.07,0-0.1c0-0.03-0.01-0.06-0.02-0.1
		c-0.01-0.03-0.02-0.07-0.04-0.1c-0.02-0.05-0.05-0.09-0.08-0.13C84.05,40.66,83.48,38.27,84.22,35.46z"/>
	<path class="st3" d="M37.39,42.56c0.01,0.02,0.01,0.05,0.02,0.07c0.02,0.05,0.04,0.11,0.05,0.16c0.01,0.05,0.02,0.1,0.02,0.15
		c0,0.05-0.01,0.11-0.02,0.16c-0.01,0.05-0.02,0.1-0.04,0.15c-0.02,0.05-0.05,0.09-0.07,0.14c-0.03,0.05-0.06,0.09-0.1,0.13
		c-0.06,0.06-0.12,0.12-0.2,0.16c-1.74,0.91-3.44,1.64-5.09,2.18c-0.93,0.31-1.46,1.22-1.39,2.18c0.03,0.46,0.28,0.69,0.74,0.69
		l15.76,0.01c0.33,0.01,0.54-0.15,0.61-0.48c0.28-1.18-0.59-2.2-1.68-2.56c-1.71-0.55-3.28-1.29-4.7-2.2
		c-0.39-0.24-0.44-0.54-0.15-0.89c1.45-1.81,1.96-4.02,1.54-6.62c-0.24-1.44-1.25-2.39-2.7-2.55c-5.88-0.68-5.16,6.06-2.69,8.95
		C37.33,42.45,37.37,42.5,37.39,42.56z"/>
	<path class="st3" d="M85.99,42.72c0.01,0.02,0.01,0.03,0.02,0.05c0.02,0.03,0.03,0.06,0.04,0.1c0.01,0.03,0.01,0.06,0.02,0.1
		c0,0.03,0,0.07,0,0.1c0,0.03-0.01,0.06-0.02,0.1c-0.01,0.03-0.02,0.06-0.04,0.09c-0.02,0.03-0.04,0.06-0.06,0.09
		c-0.03,0.04-0.07,0.08-0.11,0.11c-1.59,1.03-3.32,1.81-5.17,2.32c-1.08,0.31-1.53,1.31-1.34,2.36c0.07,0.42,0.32,0.63,0.75,0.63
		h15.33c0.05,0,0.09,0,0.14-0.01c0.03-0.01,0.06-0.03,0.09-0.03c0.06-0.02,0.11-0.03,0.16-0.06c0.05-0.03,0.09-0.05,0.13-0.09
		c0.04-0.03,0.08-0.07,0.11-0.11c0.03-0.04,0.06-0.08,0.09-0.13c0.03-0.05,0.05-0.09,0.07-0.14c0.02-0.05,0.03-0.11,0.03-0.16
		c0.01-0.08,0.02-0.16,0.01-0.24c-0.36-2.17-4.39-3.1-6.15-3.98c-0.07-0.03-0.13-0.07-0.19-0.12c-0.02-0.02-0.03-0.05-0.05-0.07
		c-0.05-0.05-0.09-0.1-0.13-0.16c-0.03-0.05-0.07-0.1-0.09-0.16c-0.03-0.06-0.04-0.12-0.05-0.18c-0.01-0.06-0.02-0.12-0.03-0.19
		c0-0.06,0.01-0.12,0.02-0.19c0.01-0.07,0.03-0.13,0.05-0.2c0.04-0.1,0.08-0.19,0.14-0.27c2.65-3.23,2.75-9.93-3.33-8.8
		c-1.18,0.21-1.92,0.88-2.21,2c-0.74,2.81-0.17,5.2,1.71,7.18C85.95,42.67,85.97,42.69,85.99,42.72z"/>
	<path class="st2" d="M50.29,61.88c0,0.01,0,0.02-0.01,0.02c-0.02,0.04-0.02,0.09-0.03,0.14c-0.01,0.04-0.02,0.08-0.02,0.11
		c0,0.04,0.01,0.08,0.02,0.12c0.01,0.04,0.01,0.08,0.03,0.12c0.02,0.03,0.04,0.06,0.06,0.1c0.03,0.04,0.05,0.08,0.08,0.11
		c0.06,0.05,0.12,0.1,0.19,0.13l4.92,2.08c0.27,0.12,0.43,0.03,0.47-0.27l0.05-0.38c0.03-0.16-0.03-0.28-0.18-0.35l-3.58-1.7
		c-0.39-0.19-0.48-0.47-0.29-0.85c1.08-2.09,1.72-6.69-1.36-7.66c-3.19-0.99-5.16,0.02-5.91,3.04c-0.38,1.51-0.14,2.9,0.73,4.17
		c0.59,0.87,0.38,1.43-0.63,1.69c-3.31,0.86-4.42,2.6-3.33,5.21c0.15,0.37,0.31,0.37,0.46,0.01c0.3-0.71,0.41-1.43,0.34-2.18
		c-0.04-0.4,0.18-0.78,0.55-0.95l4.05-1.84c0.72-0.33,0.81-0.77,0.26-1.34c-1.17-1.21-1.62-2.77-1.37-4.7
		c0.4-2.97,5.36-3.37,5.8-0.43c0.35,2.3-0.06,4.11-1.21,5.42C50.35,61.75,50.31,61.81,50.29,61.88z"/>
	<path class="st2" d="M82.88,67.43c0.1,0.52,0.28,0.55,0.53,0.09c0.58-1.04,0.65-2.13,0.2-3.26c-0.13-0.32-0.34-0.55-0.65-0.69
		l-3.35-1.53c-0.35-0.15-0.41-0.39-0.2-0.7c0.9-1.3,1.22-3,0.95-5.11c-0.37-2.98-4.75-3.86-6.79-2.1c-2.08,1.8-1.71,5.31-0.41,7.33
		c0.25,0.38,0.16,0.64-0.27,0.78l-2.7,0.86c-0.45,0.14-0.78,0.43-0.99,0.86l-0.17,0.36c-0.16,0.33-0.06,0.47,0.31,0.41
		c1.85-0.3,3.68-1.07,5.49-2.3c0.34-0.24,0.36-0.51,0.07-0.8c-1.47-1.46-1.9-3.4-1.31-5.81c0.09-0.35,0.29-0.63,0.6-0.83
		c2.38-1.55,5.19-0.18,5.13,2.85c-0.03,1.32-0.52,2.43-1.49,3.34c-0.1,0.09-0.17,0.2-0.22,0.31c0,0,0,0,0,0
		c-0.01,0.02-0.01,0.04-0.01,0.06c-0.04,0.1-0.06,0.2-0.07,0.3c0,0.06,0.02,0.12,0.03,0.18c0.01,0.06,0.01,0.12,0.03,0.18
		c0.04,0.1,0.1,0.18,0.16,0.26c0.01,0.02,0.02,0.04,0.03,0.05c0.09,0.09,0.19,0.17,0.31,0.22l4.22,1.83
		c0.37,0.16,0.53,0.44,0.49,0.84C82.73,66.08,82.75,66.74,82.88,67.43z"/>
	<path class="st2" d="M72.24,71.95c0.09-0.92,0.03-1.81-0.2-2.68c-0.09-0.34-0.32-0.62-0.63-0.79l-4.93-2.62
		c-0.33-0.17-0.4-0.42-0.19-0.73c2.1-3.24,2.38-9.26-2.63-9.97c-6.47-0.91-7.48,6.66-4.35,10.2c0.02,0.03,0.05,0.06,0.06,0.09
		c0.02,0.05,0.03,0.1,0.02,0.15c0,0.01,0,0.01,0,0.02c-0.01,0.08-0.04,0.16-0.1,0.22c-0.03,0.03-0.06,0.05-0.1,0.07
		c-1.42,0.61-2.92,1.3-4.5,2.07c-1.61,0.8-1.7,2.61-1.39,4.19c0.09,0.44,0.36,0.66,0.81,0.66l17.24-0.07
		C71.81,72.75,72.19,72.41,72.24,71.95z M71.17,70.95c0,0.06-0.02,0.11-0.03,0.16c-0.01,0.05-0.03,0.1-0.05,0.14
		c-0.02,0.05-0.06,0.09-0.09,0.13c-0.03,0.04-0.06,0.08-0.11,0.12c-0.04,0.03-0.08,0.06-0.13,0.09c-0.05,0.03-0.1,0.05-0.15,0.07
		c-0.02,0.01-0.04,0.02-0.06,0.03c-0.07,0.02-0.14,0.02-0.2,0.02L55,71.7c-0.28,0-0.53-0.19-0.59-0.46
		c-0.31-1.25,0.13-2.04,1.32-2.39c1.84-0.53,3.54-1.41,5.11-2.63c0.32-0.25,0.33-0.52,0.03-0.8c-1.56-1.43-2.15-3.57-1.77-6.42
		c0.51-3.88,7.26-3.59,7.4,1.14c0.06,2.14-0.56,3.87-1.86,5.19c-0.04,0.04-0.06,0.09-0.09,0.13c-0.02,0.04-0.04,0.07-0.06,0.11
		c-0.01,0.04-0.02,0.08-0.02,0.12c0,0.04-0.01,0.08-0.01,0.12c0,0.04,0.01,0.08,0.02,0.12c0.01,0.04,0.02,0.08,0.04,0.11
		c0.02,0.04,0.04,0.07,0.07,0.1c0.03,0.04,0.06,0.09,0.1,0.12c1.43,1.13,3.03,1.97,4.82,2.51c0.31,0.09,0.58,0.26,0.81,0.51
		c0.45,0.5,0.73,0.97,0.83,1.4c0.02,0.07,0.02,0.14,0.02,0.2C71.18,70.91,71.17,70.93,71.17,70.95z"/>
	<path class="st3" d="M70.33,69.28c-0.23-0.25-0.5-0.42-0.81-0.51c-1.79-0.54-3.39-1.38-4.82-2.51c-0.02-0.01-0.04-0.03-0.05-0.05
		c-0.02-0.02-0.03-0.05-0.05-0.07c-0.03-0.03-0.05-0.07-0.07-0.1c-0.02-0.04-0.03-0.07-0.04-0.11c-0.01-0.04-0.02-0.08-0.02-0.12
		c0-0.04,0-0.08,0.01-0.12c0.01-0.04,0.01-0.08,0.02-0.12c0.01-0.04,0.03-0.08,0.06-0.11c0.03-0.05,0.05-0.09,0.09-0.13
		c1.3-1.32,1.92-3.05,1.86-5.19c-0.14-4.73-6.89-5.02-7.4-1.14c-0.38,2.85,0.21,4.99,1.77,6.42c0.3,0.28,0.29,0.55-0.03,0.8
		c-1.57,1.22-3.27,2.1-5.11,2.63c-1.19,0.35-1.63,1.14-1.32,2.39c0.06,0.27,0.31,0.46,0.59,0.46l15.35,0.01
		c0.07,0,0.14-0.01,0.2-0.02c0.02-0.01,0.04-0.02,0.06-0.03c0.05-0.02,0.1-0.04,0.15-0.07c0.05-0.03,0.09-0.05,0.13-0.09
		c0.04-0.03,0.07-0.07,0.11-0.12c0.03-0.04,0.06-0.08,0.09-0.13c0.02-0.05,0.04-0.09,0.05-0.14c0.02-0.05,0.03-0.11,0.03-0.16
		c0.01-0.09,0.01-0.18-0.01-0.27C71.06,70.25,70.78,69.78,70.33,69.28z"/>
	<path class="st2" d="M31.85,87.62l0.2-0.38c0.09-0.15,0.05-0.27-0.11-0.35l-3.77-1.79c-0.37-0.17-0.46-0.44-0.26-0.8
		c1.35-2.45,1.74-6.77-1.58-7.98c-5.07-1.83-7.12,4.36-4.47,7.95c0.02,0.02,0.03,0.05,0.04,0.07c0.01,0.02,0.01,0.04,0.02,0.06
		c0.01,0.03,0.02,0.07,0.03,0.1c0,0.03,0,0.07,0,0.1c0,0.03-0.01,0.07-0.01,0.1c-0.01,0.03-0.02,0.06-0.03,0.09
		c-0.01,0.03-0.03,0.06-0.05,0.08c-0.02,0.03-0.04,0.05-0.07,0.08c-0.04,0.03-0.07,0.07-0.11,0.09c-2.1,1.06-5.42,1.71-4.36,5.03
		c0.06,0.18,0.18,0.29,0.36,0.34c0.12,0.03,0.23,0.01,0.32-0.08c0.22-0.21,0.32-0.48,0.3-0.79c-0.03-0.41-0.02-0.82,0.03-1.21
		c0.04-0.35,0.27-0.65,0.59-0.79l4.19-1.89c0.08-0.04,0.15-0.09,0.21-0.14c0.01-0.01,0.01-0.01,0.01-0.02
		c0.04-0.04,0.07-0.09,0.09-0.14c0.02-0.04,0.05-0.07,0.07-0.11c0.02-0.05,0.02-0.09,0.03-0.14c0.01-0.05,0.02-0.09,0.02-0.14
		c0-0.04-0.01-0.08-0.02-0.13c-0.01-0.05-0.02-0.11-0.04-0.16c-0.04-0.08-0.08-0.16-0.15-0.23c-2.06-2.11-2.77-6.96,1.57-7.15
		c4.12-0.18,3.03,5.39,1.55,7.16c-0.06,0.07-0.1,0.14-0.14,0.22c0,0.01,0,0.02-0.01,0.04c-0.02,0.06-0.03,0.12-0.03,0.17
		c-0.01,0.05-0.02,0.1-0.02,0.15c0,0.05,0.02,0.1,0.03,0.16c0.01,0.05,0.02,0.1,0.04,0.15c0.02,0.05,0.05,0.08,0.08,0.12
		c0.03,0.05,0.07,0.1,0.11,0.14c0.07,0.07,0.15,0.13,0.25,0.16l4.74,1.98C31.66,87.81,31.78,87.77,31.85,87.62z"/>
	<path class="st2" d="M79.17,87.63c0.02,0.01,0.04,0,0.06,0c0.03,0,0.06,0.01,0.09,0.01c0.03,0,0.06-0.01,0.08-0.02
		c0.03-0.01,0.05-0.01,0.08-0.03c0.03-0.01,0.05-0.03,0.07-0.05c0.02-0.02,0.05-0.03,0.07-0.05c0.02-0.02,0.04-0.05,0.05-0.07
		c0.02-0.03,0.04-0.06,0.05-0.1l0.08-0.28c0.03-0.13-0.01-0.22-0.12-0.27l-3.58-1.7c-0.35-0.17-0.44-0.42-0.25-0.77
		c1.55-2.81,1.73-7.39-2.17-8.25c-4.92-1.07-6.32,5.33-3.69,8.42c0.02,0.03,0.04,0.06,0.06,0.1c0.02,0.05,0.02,0.1,0.02,0.15
		c0,0.01,0,0.01,0,0.02c-0.01,0.08-0.05,0.16-0.11,0.22c-0.03,0.03-0.06,0.05-0.1,0.06c-2.26,0.9-5.66,1.86-4.52,5.14
		c0.07,0.22,0.22,0.29,0.44,0.21l0.25-0.1c0.23-0.09,0.32-0.25,0.28-0.48c-0.11-0.63-0.07-1.21,0.14-1.76
		c0.13-0.36,0.4-0.61,0.81-0.75c1.43-0.49,2.74-1.08,3.93-1.77c0.05-0.03,0.1-0.06,0.14-0.1c0.01-0.01,0.02-0.03,0.03-0.04
		c0.03-0.04,0.05-0.07,0.08-0.11c0.02-0.04,0.04-0.07,0.05-0.11c0.01-0.04,0.02-0.08,0.03-0.12c0.01-0.04,0.01-0.08,0.01-0.13
		c0-0.04-0.01-0.08-0.02-0.12c-0.01-0.04-0.02-0.09-0.04-0.13c-0.03-0.06-0.06-0.13-0.12-0.18c-1.38-1.44-1.87-3.13-1.46-5.08
		c0.54-2.56,5.42-3.04,5.77-0.02c0.25,2.19-0.15,3.89-1.2,5.1c-0.06,0.06-0.1,0.14-0.13,0.22c0,0.01,0,0.02-0.01,0.03
		c-0.02,0.05-0.03,0.11-0.03,0.17c-0.01,0.05-0.02,0.1-0.02,0.14c0,0.05,0.02,0.1,0.03,0.15c0.01,0.05,0.02,0.1,0.04,0.15
		c0.02,0.04,0.05,0.08,0.08,0.12c0.03,0.05,0.06,0.09,0.1,0.13c0.07,0.06,0.14,0.12,0.23,0.16l4.38,1.88
		C79.14,87.62,79.15,87.63,79.17,87.63z"/>
	<path class="st2" d="M107.08,86.66l-3.55-1.61c-0.36-0.16-0.43-0.41-0.22-0.75c1.92-3,1.6-6.63-1.7-8.06
		c-2.16-0.93-4.38,0.44-5.08,2.45c-0.71,2.06-0.42,3.98,0.87,5.75c0.25,0.35,0.18,0.6-0.23,0.75l-3.59,1.31
		c-0.27,0.1-0.41,0.29-0.44,0.58l-0.02,0.31c0,0.03,0,0.06,0.01,0.09c0,0.02,0.02,0.03,0.03,0.04c0.01,0.03,0.03,0.05,0.06,0.07
		c0.03,0.02,0.05,0.03,0.08,0.04c0.04,0.01,0.09,0.03,0.14,0.02c2.04-0.46,3.85-1.25,5.42-2.37c0.02-0.02,0.04-0.04,0.06-0.06
		c0.01-0.01,0.02-0.03,0.03-0.05c0.02-0.03,0.04-0.05,0.05-0.08c0.01-0.03,0.02-0.06,0.03-0.09c0.01-0.03,0.01-0.06,0.02-0.09
		c0-0.03,0-0.06,0-0.09c0-0.03-0.01-0.06-0.02-0.09c-0.01-0.03-0.02-0.06-0.04-0.09c-0.02-0.04-0.04-0.08-0.08-0.11
		c-1.57-1.57-2.01-3.52-1.31-5.84c0.09-0.31,0.28-0.55,0.55-0.73c1.27-0.85,2.59-0.87,3.96-0.04c1.47,0.9,1.32,2.79,0.98,4.21
		c-0.09,0.35-0.26,0.66-0.52,0.92c-0.51,0.5-0.85,1.07-1.03,1.71c-0.1,0.38,0.09,0.77,0.45,0.92l4.11,1.74
		c0.26,0.11,0.45,0.3,0.56,0.56c0.25,0.59,0.28,1.24,0.08,1.94c-0.07,0.23,0.02,0.37,0.26,0.4l0.34,0.05
		c0.09,0.01,0.14-0.02,0.17-0.1c0.39-0.93,0.44-1.91,0.17-2.92C107.59,87.04,107.39,86.8,107.08,86.66z"/>
	<path class="st2" d="M59.09,86.7l-3.55-1.62c-0.39-0.17-0.47-0.44-0.23-0.8c1.87-2.74,1.58-6.52-1.47-7.9
		c-1.2-0.54-2.32-0.52-3.36,0.07c-2.99,1.69-2.83,5.94-0.9,8.22c0.01,0.02,0.03,0.03,0.03,0.05c0.01,0.02,0,0.04,0,0.05
		c0,0.03,0.01,0.05,0,0.08c-0.01,0.03-0.02,0.05-0.04,0.07c-0.02,0.03-0.04,0.07-0.08,0.08l-4.43,1.76
		c-0.03,0.01-0.04,0.03-0.03,0.06l0.13,0.58c0.05,0.21,0.17,0.29,0.37,0.24c1.86-0.43,3.63-1.21,5.31-2.34
		c0.38-0.26,0.4-0.54,0.05-0.83c-1.29-1.13-1.81-2.76-1.57-4.91c0.19-1.7,1.69-2.52,3.26-2.23c3.61,0.68,3.59,4.56,1.26,6.7
		c-0.11,0.1-0.19,0.22-0.24,0.34c0,0-0.01,0.01-0.01,0.01c-0.02,0.05-0.02,0.09-0.03,0.14c-0.02,0.08-0.05,0.16-0.05,0.24
		c0,0.07,0.02,0.13,0.03,0.19c0.01,0.06,0.01,0.13,0.04,0.19c0.03,0.08,0.08,0.14,0.13,0.21c0.03,0.04,0.05,0.09,0.08,0.13
		c0.09,0.1,0.21,0.18,0.34,0.24l3.99,1.68c0.32,0.13,0.53,0.36,0.62,0.69c0.17,0.58,0.16,1.18-0.03,1.8
		c-0.08,0.25,0.01,0.4,0.28,0.43l0.34,0.04c0.15,0.02,0.24-0.04,0.29-0.18c0.27-0.88,0.29-1.8,0.06-2.77
		C59.6,87.09,59.4,86.85,59.09,86.7z"/>
	<path class="st2" d="M48.11,92.22c-0.01-0.29-0.14-0.52-0.39-0.67c-1.8-1.13-3.58-1.98-5.35-2.54c-0.39-0.12-0.47-0.35-0.24-0.68
		c2.12-3.14,2.69-9.44-2.46-10.08c-3.48-0.44-5.9,1.34-5.92,4.94c-0.01,2.19,0.48,3.85,1.48,5c0.27,0.31,0.22,0.54-0.15,0.7
		l-5.03,2.18c-0.38,0.16-0.63,0.54-0.65,0.96l-0.13,3c0,0.02,0,0.03,0,0.05c0,0.04,0.02,0.08,0.03,0.12
		c0.01,0.05,0.01,0.1,0.03,0.14c0.02,0.04,0.05,0.08,0.07,0.12c0.03,0.04,0.05,0.08,0.08,0.12c0.03,0.03,0.07,0.06,0.11,0.09
		c0.04,0.03,0.07,0.06,0.12,0.08c0.04,0.02,0.09,0.03,0.14,0.04c0.06,0.01,0.11,0.03,0.17,0.03l17.33-0.11c0.01,0,0.03,0,0.04,0
		c0.06,0,0.1-0.03,0.15-0.04c0.06-0.01,0.12-0.02,0.17-0.05c0.05-0.02,0.1-0.06,0.14-0.1c0.05-0.03,0.1-0.06,0.14-0.1
		c0.04-0.04,0.06-0.09,0.1-0.14c0.03-0.05,0.07-0.09,0.09-0.15c0.02-0.06,0.02-0.12,0.03-0.18c0.01-0.07,0.03-0.13,0.03-0.2
		L48.11,92.22z M47.21,93.97c-0.01,0.06-0.01,0.12-0.04,0.18c-0.02,0.05-0.05,0.1-0.08,0.14c-0.03,0.05-0.05,0.1-0.09,0.14
		c-0.04,0.05-0.09,0.08-0.15,0.11c-0.03,0.02-0.06,0.06-0.1,0.08c-0.01,0-0.02,0-0.03,0.01c-0.11,0.05-0.23,0.09-0.37,0.09
		L31.07,94.7c-0.41,0-0.65-0.21-0.72-0.62c-0.16-1,0.24-1.98,1.22-2.39c1.83-0.77,3.5-1.54,5.01-2.3c0.53-0.27,0.58-0.61,0.17-1.04
		c-2.39-2.45-3.32-9.38,2.24-9.04c4.86,0.29,4.09,6.54,1.65,9.1c-0.05,0.05-0.08,0.11-0.11,0.17c-0.02,0.04-0.02,0.08-0.03,0.12
		c-0.01,0.03-0.02,0.07-0.02,0.1c0,0.04,0.01,0.07,0.01,0.11c0.01,0.04,0.01,0.07,0.02,0.11c0.01,0.03,0.03,0.06,0.05,0.09
		c0.02,0.03,0.04,0.07,0.07,0.1c0.04,0.05,0.09,0.09,0.16,0.12c2.23,1.14,5.1,1.7,6.34,4.13c0.06,0.12,0.08,0.24,0.09,0.37
		c0,0.01,0.01,0.02,0.01,0.03C47.23,93.89,47.21,93.92,47.21,93.97z"/>
	<path class="st2" d="M96.09,92.11c-0.01-0.35-0.18-0.59-0.49-0.74l-5.25-2.49c-0.33-0.15-0.39-0.38-0.18-0.68
		c2.18-3.14,2.52-9.43-2.6-9.97c-3.16-0.34-5.68,1.21-5.79,4.52c-0.09,2.47,0.4,4.26,1.45,5.39c0.38,0.4,0.31,0.69-0.21,0.86
		c-1.44,0.49-2.95,1.11-4.54,1.87c-1.49,0.7-1.28,2.88-1.16,4.22c0.04,0.49,0.31,0.73,0.8,0.73L95.4,95.7c0.01,0,0.02,0,0.03,0
		c0.05,0,0.1-0.03,0.15-0.04c0.06-0.01,0.11-0.02,0.16-0.04c0.05-0.02,0.09-0.06,0.13-0.09c0.04-0.03,0.09-0.06,0.13-0.1
		c0.04-0.04,0.06-0.09,0.09-0.13c0.03-0.05,0.06-0.09,0.08-0.14c0.02-0.05,0.02-0.11,0.03-0.16c0.01-0.06,0.03-0.12,0.03-0.18
		L96.09,92.11z M95.25,93.86c0,0.07-0.02,0.13-0.04,0.2c-0.01,0.05-0.02,0.1-0.04,0.15c-0.02,0.05-0.07,0.1-0.1,0.15
		c-0.03,0.05-0.06,0.1-0.11,0.14c-0.04,0.04-0.09,0.06-0.13,0.09c-0.06,0.04-0.11,0.08-0.18,0.11c-0.01,0-0.01,0.01-0.02,0.01
		c-0.1,0.04-0.21,0.05-0.31,0.05l-15.28-0.06c-0.41,0-0.63-0.2-0.68-0.61c-0.11-0.93,0.15-1.91,1.07-2.34
		c1.49-0.69,3.03-1.37,4.64-2.04c0.91-0.38,1.03-0.94,0.38-1.67c-1.13-1.29-1.64-3.08-1.55-5.38c0.13-2.95,2.93-3.98,5.34-3.09
		c3.5,1.31,2.52,6.6,0.45,8.81c-0.06,0.06-0.09,0.13-0.12,0.2c-0.02,0.05-0.02,0.09-0.03,0.14c-0.01,0.04-0.02,0.08-0.02,0.11
		c0,0.04,0.01,0.08,0.02,0.12c0.01,0.04,0.01,0.08,0.03,0.12c0.01,0.04,0.04,0.06,0.06,0.1c0.03,0.04,0.05,0.08,0.08,0.12
		c0.06,0.05,0.12,0.1,0.19,0.14c2.02,0.87,5.55,1.93,6.29,4.1c0.04,0.1,0.05,0.2,0.05,0.31C95.25,93.84,95.25,93.85,95.25,93.86z"/>
	<path class="st3" d="M47.14,93.45c-1.24-2.43-4.11-2.99-6.34-4.13c-0.05-0.03-0.1-0.06-0.14-0.1c-0.01-0.01-0.01-0.02-0.02-0.02
		c-0.03-0.03-0.05-0.06-0.07-0.1c-0.02-0.03-0.04-0.06-0.05-0.09c-0.01-0.03-0.02-0.07-0.02-0.11c-0.01-0.04-0.01-0.07-0.01-0.11
		c0-0.03,0.01-0.07,0.02-0.1c0.01-0.04,0.01-0.08,0.03-0.12c0.03-0.06,0.06-0.12,0.11-0.17c2.44-2.56,3.21-8.81-1.65-9.1
		c-5.56-0.34-4.63,6.59-2.24,9.04c0.41,0.43,0.36,0.77-0.17,1.04c-1.51,0.76-3.18,1.53-5.01,2.3c-0.98,0.41-1.38,1.39-1.22,2.39
		c0.07,0.41,0.31,0.62,0.72,0.62l15.29,0.01c0.13,0,0.25-0.03,0.37-0.09c0.01,0,0.02,0,0.03-0.01c0.04-0.02,0.06-0.05,0.1-0.08
		c0.05-0.04,0.1-0.07,0.15-0.11c0.04-0.04,0.06-0.09,0.09-0.14c0.03-0.05,0.06-0.09,0.08-0.14c0.02-0.06,0.03-0.12,0.04-0.18
		c0.01-0.05,0.02-0.1,0.02-0.15C47.22,93.69,47.2,93.57,47.14,93.45z"/>
	<path class="st3" d="M88.91,89.42c-0.07-0.03-0.13-0.07-0.18-0.12c-0.01-0.01-0.01-0.01-0.01-0.02c-0.03-0.03-0.06-0.08-0.08-0.12
		c-0.02-0.03-0.05-0.06-0.06-0.1c-0.02-0.04-0.02-0.08-0.03-0.12c-0.01-0.04-0.02-0.08-0.02-0.12c0-0.04,0.01-0.08,0.02-0.11
		c0.01-0.05,0.01-0.09,0.03-0.14c0.03-0.07,0.07-0.14,0.12-0.2c2.07-2.21,3.05-7.5-0.45-8.81c-2.41-0.89-5.21,0.14-5.34,3.09
		c-0.09,2.3,0.42,4.09,1.55,5.38c0.65,0.73,0.53,1.29-0.38,1.67c-1.61,0.67-3.15,1.35-4.64,2.04c-0.92,0.43-1.18,1.41-1.07,2.34
		c0.05,0.41,0.27,0.61,0.68,0.61l15.28,0.06c0.11,0,0.21-0.02,0.31-0.05c0.01,0,0.01-0.01,0.02-0.01c0.07-0.03,0.12-0.07,0.18-0.11
		c0.04-0.03,0.09-0.05,0.13-0.09c0.04-0.04,0.07-0.09,0.11-0.14c0.03-0.05,0.08-0.09,0.1-0.15c0.02-0.05,0.03-0.1,0.04-0.15
		c0.02-0.07,0.04-0.13,0.04-0.2c0-0.11-0.01-0.22-0.05-0.34C94.46,91.35,90.93,90.29,88.91,89.42z"/>
</g>
</svg>
