<?xml version="1.0" encoding="utf-8"?>
<!-- Generator: Adobe Illustrator 28.0.0, SVG Export Plug-In . SVG Version: 6.00 Build 0)  -->
<svg version="1.1" id="Capa_1" xmlns="http://www.w3.org/2000/svg" xmlns:xlink="http://www.w3.org/1999/xlink" x="0px" y="0px"
	 viewBox="0 0 126 126" style="enable-background:new 0 0 126 126;" xml:space="preserve">
<style type="text/css">
	.st0{fill:#FFFFFF;stroke:#1DA9FC;stroke-miterlimit:10;}
	.st1{fill:none;}
	.st2{fill:#21618D;}
	.st3{fill:#B3DFF8;}
</style>
<circle class="st0" cx="63" cy="63" r="59.67"/>
<g>
	<path class="st1" d="M45.6,34.56L45.6,34.56c0.26,0,0.52,0.03,0.77,0.08C46.12,34.59,45.86,34.56,45.6,34.56z"/>
	<path class="st1" d="M34.72,91.5L34.72,91.5l-8.62,0.02c-0.1,0-0.19,0.02-0.27,0.06c0.08-0.04,0.18-0.06,0.27-0.06L34.72,91.5z"/>
	<path class="st1" d="M30.4,92.97l4.32-0.01c0.1,0,0.19-0.02,0.27-0.06c-0.08,0.04-0.18,0.06-0.27,0.06L30.4,92.97z"/>
	<path class="st1" d="M63.39,45.27L63.39,45.27c1.33,0.01,2.51-0.66,3.2-1.68C65.9,44.62,64.72,45.28,63.39,45.27z"/>
	<path class="st1" d="M58.94,39.91l0.01-1.47c0-0.27,0.03-0.53,0.08-0.78c-0.05,0.25-0.08,0.51-0.08,0.78L58.94,39.91z"/>
	<path class="st1" d="M48.57,49.34c-0.03-0.01-0.05-0.01-0.08-0.01c0.04,0,0.08,0.02,0.11,0.03C48.59,49.35,48.58,49.34,48.57,49.34
		z"/>
	<path class="st1" d="M48.67,49.39c0.02,0.01,0.04,0.03,0.06,0.05C48.71,49.42,48.7,49.41,48.67,49.39z"/>
	<path class="st1" d="M39.36,58.26c0.03,0.01,0.06,0.02,0.09,0.04C39.41,58.28,39.39,58.27,39.36,58.26z"/>
	<path class="st1" d="M39.52,58.35c0.02,0.02,0.05,0.04,0.07,0.07C39.57,58.39,39.55,58.37,39.52,58.35z"/>
	<path class="st1" d="M39.64,58.5c0.02,0.03,0.03,0.06,0.04,0.09C39.67,58.56,39.66,58.53,39.64,58.5z"/>
	<path class="st1" d="M48.84,49.63c0.01,0.03,0.01,0.05,0.01,0.08C48.85,49.69,48.85,49.66,48.84,49.63z"/>
	<path class="st1" d="M48.78,49.5c0.01,0.02,0.03,0.04,0.04,0.07C48.81,49.54,48.8,49.52,48.78,49.5z"/>
	<path class="st1" d="M67.19,42.23c-0.11,0.5-0.31,0.96-0.59,1.37C66.88,43.19,67.08,42.73,67.19,42.23z"/>
	<path class="st1" d="M39.21,58.23c-0.03,0-0.07,0-0.1,0.01c0.05-0.01,0.1,0,0.15,0C39.24,58.24,39.23,58.23,39.21,58.23z"/>
	<path class="st1" d="M85.22,45.28c-0.04,0.04-0.09,0.07-0.13,0.11C85.13,45.35,85.18,45.32,85.22,45.28z"/>
	<path class="st1" d="M77.83,44.18c-0.03-0.03-0.05-0.07-0.08-0.1C77.78,44.12,77.8,44.15,77.83,44.18z"/>
	<path class="st1" d="M44.47,70.05c0,0.02,0,0.04,0,0.05c0-0.04,0.01-0.08,0.02-0.12C44.49,70,44.48,70.02,44.47,70.05z"/>
	<path class="st1" d="M76.76,38.29l-0.01,3.28c0,0.67,0.19,1.3,0.51,1.84c-0.32-0.54-0.51-1.17-0.51-1.84L76.76,38.29z"/>
	<path class="st1" d="M75.15,38.39L75.15,38.39c0-0.45,0.07-0.89,0.17-1.31C75.22,37.51,75.15,37.94,75.15,38.39z"/>
	<path class="st1" d="M86.75,41.51C86.75,41.51,86.75,41.51,86.75,41.51c0.01,0.73-0.14,1.44-0.4,2.07
		C86.61,42.95,86.76,42.25,86.75,41.51z"/>
	<path class="st1" d="M85.12,41.59l0.01-3.28c0-0.76-0.23-1.47-0.63-2.06c0.4,0.59,0.63,1.3,0.63,2.06L85.12,41.59z"/>
	<path class="st1" d="M68.85,41.74C68.85,41.74,68.85,41.74,68.85,41.74c-0.02,0.95-0.32,1.82-0.77,2.58
		C68.53,43.56,68.82,42.69,68.85,41.74z"/>
	<path class="st1" d="M58.69,45.25c-0.05-0.05-0.09-0.12-0.14-0.18C58.6,45.13,58.64,45.19,58.69,45.25z"/>
	<path class="st1" d="M57.82,43.97c-0.19-0.37-0.34-0.76-0.43-1.17C57.49,43.21,57.64,43.6,57.82,43.97z"/>
	<path class="st1" d="M68.1,35.48c-0.92-1.44-2.52-2.42-4.36-2.46h0C65.58,33.06,67.18,34.04,68.1,35.48z"/>
	<path class="st1" d="M58.97,34.45c0.05-0.05,0.12-0.09,0.18-0.14C59.09,34.36,59.03,34.4,58.97,34.45z"/>
	<path class="st1" d="M84.5,36.24c-0.19-0.29-0.43-0.53-0.7-0.75C84.06,35.71,84.3,35.96,84.5,36.24z"/>
	<path class="st1" d="M62.42,46.91C62.42,46.91,62.42,46.91,62.42,46.91c-0.95-0.02-1.82-0.32-2.58-0.77
		C60.6,46.59,61.47,46.88,62.42,46.91z"/>
	<path class="st1" d="M59.26,36.94c0.2-0.46,0.48-0.87,0.83-1.22C59.75,36.06,59.46,36.48,59.26,36.94z"/>
	<path class="st1" d="M57.31,38.18C57.31,38.18,57.31,38.18,57.31,38.18c0.02-0.95,0.32-1.82,0.77-2.58
		C57.63,36.36,57.34,37.23,57.31,38.18z"/>
	<path class="st1" d="M63.45,68.77c0.04,0,0.08,0.01,0.11,0.02c-0.03,0-0.05-0.02-0.08-0.02C63.47,68.77,63.46,68.77,63.45,68.77z"
		/>
	<path class="st1" d="M57.31,58.21c0.03,0.02,0.06,0.04,0.08,0.06C57.36,58.24,57.33,58.23,57.31,58.21z"/>
	<path class="st1" d="M72.79,51.87c0.14,0.14,0.26,0.29,0.36,0.45C73.05,52.15,72.92,52,72.79,51.87z"/>
	<path class="st1" d="M56.82,58.12c0.06-0.02,0.13-0.02,0.19-0.02c-0.01,0-0.02,0-0.02,0C56.93,58.09,56.87,58.1,56.82,58.12z"/>
	<path class="st1" d="M63.96,69.16c-0.01-0.03-0.01-0.07-0.03-0.1C63.95,69.09,63.95,69.13,63.96,69.16z"/>
	<path class="st1" d="M57.5,58.45c-0.01-0.04-0.04-0.07-0.06-0.1C57.46,58.38,57.49,58.42,57.5,58.45z"/>
	<path class="st1" d="M70.67,50.98C70.67,50.98,70.67,50.98,70.67,50.98c0.49,0,0.94,0.13,1.35,0.34
		C71.61,51.11,71.16,50.98,70.67,50.98z"/>
	<path class="st1" d="M63.74,68.86c-0.03-0.02-0.05-0.04-0.08-0.05C63.69,68.82,63.72,68.84,63.74,68.86z"/>
	<path class="st1" d="M63.82,68.91c0.02,0.02,0.04,0.05,0.06,0.08C63.86,68.96,63.84,68.93,63.82,68.91z"/>
	<path class="st1" d="M90.42,92.27l0-0.04L90.42,92.27c0,0.3,0.18,0.55,0.44,0.66C90.6,92.82,90.42,92.57,90.42,92.27z"/>
	<path class="st1" d="M100.3,91.64c0.18,0.13,0.3,0.33,0.3,0.57l0,0.04l0,0v-0.04C100.6,91.97,100.48,91.77,100.3,91.64z"/>
	<path class="st1" d="M90.63,91.72c0.07-0.07,0.14-0.12,0.23-0.15C90.77,91.6,90.7,91.66,90.63,91.72z"/>
	<path class="st1" d="M44.52,69.89c0.01-0.03,0.03-0.05,0.05-0.08C44.55,69.84,44.54,69.86,44.52,69.89z"/>
	<path class="st1" d="M57.22,58.15c-0.03-0.01-0.06-0.02-0.09-0.03C57.16,58.13,57.19,58.13,57.22,58.15z"/>
	<path class="st1" d="M77.54,49.42c0.02-0.03,0.06-0.05,0.08-0.07C77.59,49.37,77.56,49.39,77.54,49.42z"/>
	<path class="st1" d="M73.58,90.75c0,0.05-0.02,0.1-0.02,0.14C73.56,90.85,73.58,90.8,73.58,90.75
		C73.58,90.75,73.58,90.75,73.58,90.75z"/>
	<path class="st1" d="M77.71,49.28c0.03-0.02,0.07-0.02,0.11-0.03C77.78,49.26,77.74,49.27,77.71,49.28z"/>
	<path class="st1" d="M77.43,49.6c0.01-0.03,0.03-0.06,0.05-0.09C77.46,49.54,77.44,49.57,77.43,49.6z"/>
	<path class="st1" d="M44.63,69.75c0.02-0.02,0.05-0.04,0.08-0.05C44.68,69.71,44.66,69.73,44.63,69.75z"/>
	<path class="st1" d="M73.45,91.16c0.03-0.04,0.06-0.08,0.08-0.13C73.51,91.08,73.48,91.11,73.45,91.16z"/>
	<path class="st1" d="M73.39,91.26c-0.03,0.03-0.07,0.05-0.11,0.08C73.31,91.31,73.36,91.29,73.39,91.26z"/>
	<path class="st1" d="M73.03,91.45c0.05-0.01,0.1-0.01,0.14-0.03C73.12,91.44,73.07,91.44,73.03,91.45z"/>
	<path class="st1" d="M44.79,69.65c0.03-0.01,0.06-0.01,0.1-0.02C44.85,69.64,44.82,69.64,44.79,69.65z"/>
	<path class="st1" d="M77.4,49.82c0,0,0,0.01,0,0.01c0-0.04,0.01-0.08,0.01-0.12C77.41,49.75,77.4,49.78,77.4,49.82z"/>
	<path class="st2" d="M44.66,46.89l0.88,0.02c2.95,0.06,5.4-2.28,5.46-5.24l0.07-3.2c0.06-2.95-2.28-5.4-5.24-5.46l-0.88-0.02
		c-2.95-0.06-5.4,2.28-5.46,5.24l-0.07,3.2C39.37,44.38,41.71,46.83,44.66,46.89z M41.13,38.39c0-2.12,1.71-3.83,3.83-3.83h0.64h0
		c0.26,0,0.52,0.03,0.77,0.08c1.75,0.36,3.06,1.9,3.06,3.75v3.06c0,2.12-1.71,3.83-3.83,3.83h-0.64c-2.12,0-3.83-1.71-3.83-3.83
		V38.39z"/>
	<path class="st2" d="M57.82,43.97c0.2,0.4,0.44,0.77,0.73,1.1c0.05,0.06,0.09,0.12,0.14,0.18c0.33,0.35,0.73,0.64,1.15,0.89
		c0.76,0.45,1.63,0.75,2.58,0.77l0.96,0.03c0,0,0,0,0,0c1.99,0.05,3.74-1.01,4.7-2.61c0.45-0.76,0.75-1.63,0.77-2.58l0.09-3.26
		c0,0,0,0,0,0c0.02-0.74-0.11-1.44-0.36-2.08c-0.13-0.32-0.28-0.63-0.47-0.92c-0.92-1.44-2.52-2.42-4.36-2.46l-0.96-0.03h0
		c-1.39-0.04-2.66,0.48-3.63,1.32c-0.06,0.05-0.12,0.09-0.18,0.14c-0.35,0.33-0.64,0.73-0.89,1.15c-0.45,0.76-0.75,1.63-0.77,2.58
		l-0.09,3.26c0,0,0,0,0,0c-0.01,0.47,0.06,0.92,0.16,1.36C57.49,43.21,57.64,43.6,57.82,43.97z M59.26,36.94
		c0.2-0.46,0.48-0.87,0.83-1.22c0.7-0.69,1.67-1.12,2.73-1.11l0.64,0c1.59,0.01,2.96,0.99,3.53,2.38c0.19,0.46,0.3,0.97,0.29,1.5
		l-0.02,2.96c0,0.27-0.03,0.53-0.08,0.78c-0.11,0.5-0.31,0.96-0.59,1.37c-0.7,1.02-1.88,1.68-3.2,1.68h0l0,0l-0.64,0
		c-2.13-0.01-3.84-1.75-3.82-3.88l0.01-1.49l0.01-1.47c0-0.27,0.03-0.53,0.08-0.78C59.09,37.41,59.16,37.17,59.26,36.94z"/>
	<path class="st2" d="M80.53,46.87l0.94-0.01c0,0,0,0,0,0c1.41-0.01,2.68-0.58,3.62-1.48c0.04-0.04,0.09-0.07,0.13-0.11
		c0.48-0.48,0.86-1.06,1.13-1.7c0.26-0.64,0.41-1.34,0.4-2.07l-0.02-3.2c-0.02-2.94-2.42-5.3-5.36-5.28l-0.94,0.01h0
		c-2.49,0.02-4.54,1.74-5.11,4.05c-0.1,0.42-0.17,0.85-0.17,1.31l0.02,3.2C75.19,44.53,77.59,46.89,80.53,46.87z M80.46,34.61
		l0.98,0c0.9,0,1.72,0.34,2.36,0.88c0.26,0.22,0.5,0.47,0.7,0.75c0.4,0.59,0.63,1.3,0.63,2.06l-0.01,3.28c0,2.04-1.66,3.69-3.7,3.68
		l-0.98,0c-1.02,0-1.94-0.42-2.61-1.09c-0.03-0.03-0.05-0.07-0.08-0.1c-0.19-0.2-0.35-0.43-0.49-0.67
		c-0.32-0.54-0.51-1.17-0.51-1.84l0.01-3.28C76.77,36.26,78.42,34.61,80.46,34.61z"/>
	<path class="st2" d="M93.21,67.76c-0.07-3.97-0.07-8.06,0.01-12.25c0.07-3.24-1.58-5.9-5.03-6.22c-2.99-0.28-6.41-0.3-10.26-0.07
		c0,0-0.01,0-0.01,0c-0.04,0-0.07,0.02-0.1,0.03c-0.04,0.01-0.08,0.01-0.11,0.03c-0.03,0.02-0.06,0.04-0.09,0.07
		c-0.03,0.02-0.06,0.04-0.08,0.07c-0.02,0.03-0.04,0.06-0.05,0.09c-0.02,0.03-0.04,0.06-0.05,0.09c-0.01,0.03-0.01,0.07-0.01,0.11
		c-0.01,0.04-0.02,0.08-0.01,0.12l0.03,0.3c0.05,0.49,0.31,0.73,0.8,0.73l9.41,0.03c2.18,0.01,3.94,1.78,3.95,3.96l0.04,13.32
		c0,0.7-0.51,1.29-1.19,1.39l-1.25,0.19c-0.77,0.12-1.16-0.21-1.15-0.99l0.03-10.07c0-0.31-0.15-0.46-0.45-0.46l-0.65-0.01
		c-0.34,0-0.51,0.17-0.51,0.51l-0.03,32.28c0,0.27-0.22,0.49-0.49,0.49h-3.75c-0.33,0-0.49-0.16-0.49-0.49l0.05-20.98
		c0-0.36-0.18-0.53-0.54-0.51l-0.42,0.02c-0.39,0.03-0.59,0.23-0.59,0.62l-0.01,20.58c0,0.49-0.24,0.74-0.73,0.75l-3.24,0.02
		c-0.48,0.01-0.72-0.23-0.72-0.72l0.11-16.84c0-0.35-0.17-0.51-0.52-0.48c-0.68,0.06-1.03,0.09-1.05,0.09
		c-0.33,0.03-0.5,0.21-0.51,0.55c-0.05,5.67-0.03,11.22,0.05,16.64c0,0,0,0,0,0c0,0.05-0.02,0.1-0.02,0.14
		c-0.01,0.04-0.01,0.09-0.02,0.13c-0.02,0.05-0.05,0.09-0.08,0.13c-0.02,0.03-0.04,0.07-0.07,0.1c-0.03,0.03-0.07,0.05-0.11,0.08
		c-0.04,0.03-0.07,0.06-0.11,0.08c-0.04,0.02-0.09,0.02-0.14,0.03c-0.05,0.01-0.09,0.03-0.14,0.03l-1.68,0.03
		c-0.66,0.01-0.99-0.31-0.99-0.98V71.99c0-0.51,0.25-0.75,0.76-0.72c3.35,0.19,4.36-1.34,4.35-4.4c-0.01-2.61-0.02-5.28-0.02-8.02
		c0.01-5.24,0.74-8.84-5.12-9.65c-1.89-0.26-6.29-0.26-13.2,0.01c-3.56,0.13-6.13,1.33-6.23,5.29c-0.11,4.29-0.1,8.92,0.03,13.87
		c0.06,2.09,2.61,3.11,4.39,2.96c0.52-0.04,0.78,0.2,0.77,0.72l-0.11,18.7c-0.01,0.38-0.31,0.68-0.69,0.7l-1.94,0.07
		c-0.51,0.02-0.76-0.23-0.76-0.74l0.08-16.95c0-0.35-0.17-0.5-0.52-0.43l-0.83,0.18c-0.33,0.06-0.57,0.35-0.57,0.69l0.03,16.62
		c0,0.39-0.2,0.58-0.59,0.59l-3.43,0.04c-0.39,0-0.59-0.19-0.59-0.58l0.09-20.48c0-0.49-0.24-0.76-0.73-0.81l-0.38-0.03
		c-0.02,0-0.04,0-0.05,0c-0.02,0-0.05,0.01-0.07,0.01c-0.03,0-0.07,0.01-0.1,0.02c-0.03,0.01-0.06,0.03-0.08,0.04
		c-0.03,0.02-0.05,0.03-0.08,0.05c-0.02,0.02-0.04,0.05-0.06,0.07c-0.02,0.02-0.04,0.05-0.05,0.08c-0.01,0.03-0.02,0.06-0.03,0.09
		c-0.01,0.04-0.02,0.08-0.02,0.12L44.45,91c0,0.28-0.22,0.5-0.5,0.5l-3.76,0.01c-0.34,0-0.51-0.17-0.51-0.5l0.03-32.27
		c0-0.03,0-0.07-0.01-0.1c0-0.02-0.01-0.03-0.02-0.05c-0.01-0.03-0.02-0.06-0.04-0.09c-0.02-0.03-0.03-0.05-0.05-0.08
		c-0.02-0.02-0.04-0.05-0.07-0.07c-0.02-0.02-0.05-0.04-0.08-0.05c-0.03-0.02-0.06-0.03-0.09-0.04c-0.03-0.01-0.06-0.02-0.1-0.02
		c-0.05-0.01-0.1-0.01-0.15,0l-0.35,0.08c-0.39,0.08-0.59,0.32-0.59,0.73l0.03,9.38c0.01,0.97-0.47,1.41-1.43,1.33l-0.67-0.05
		c-0.93-0.08-1.64-0.86-1.64-1.79l0.04-13.49c0.01-1.94,1.58-3.51,3.52-3.52l9.7-0.03c0.54,0,0.89-0.26,1.04-0.78l0.08-0.27
		c0.01-0.03,0.01-0.05,0.01-0.08c0-0.01,0-0.03,0-0.04c0-0.03,0-0.05-0.01-0.08c-0.01-0.02-0.01-0.05-0.02-0.07
		c-0.01-0.02-0.02-0.05-0.04-0.07c-0.01-0.02-0.03-0.04-0.05-0.06c-0.02-0.02-0.04-0.03-0.06-0.05c-0.02-0.02-0.05-0.03-0.07-0.04
		c-0.04-0.01-0.07-0.03-0.11-0.03c-5.03-0.41-8.91-0.35-11.63,0.19c-2.55,0.51-3.81,2.13-3.79,4.86c0.03,4.65,0,9.18-0.08,13.6
		c-0.05,2.67,2.47,3.34,4.6,3.39c0.42,0.01,0.63,0.23,0.64,0.65l0.27,19.27c0,0.27-0.09,0.5-0.27,0.7
		c-0.21,0.23-0.18,0.48,0.09,0.76c0.17,0.17,0.39,0.27,0.63,0.27h48.43c0.38,0,0.69-0.31,0.7-0.69l0.06-20.33
		c0.01-0.57,0.29-0.82,0.85-0.75C91.25,71.51,93.26,70.16,93.21,67.76z M69.7,58.05l-0.65,0.04c-0.35,0.02-0.53,0.21-0.53,0.56
		l0.03,32.05c0,0.44-0.36,0.8-0.8,0.8h-3.04c-0.4,0-0.73-0.32-0.73-0.72V69.27c0-0.04-0.01-0.08-0.02-0.11
		c-0.01-0.03-0.01-0.07-0.03-0.1s-0.03-0.05-0.05-0.08c-0.02-0.03-0.03-0.05-0.06-0.08c-0.02-0.02-0.05-0.04-0.08-0.05
		c-0.03-0.02-0.05-0.04-0.08-0.05c-0.03-0.01-0.06-0.01-0.1-0.02c-0.04-0.01-0.07-0.02-0.11-0.02l-0.37,0.03
		c-0.51,0.03-0.77,0.31-0.77,0.82L62.3,90.89c0,0.4-0.2,0.6-0.61,0.6l-3.45,0.02c-0.47,0.01-0.7-0.23-0.7-0.7V58.64
		c0-0.07-0.02-0.13-0.04-0.19c-0.01-0.04-0.04-0.07-0.06-0.1c-0.02-0.03-0.03-0.06-0.06-0.08c-0.02-0.03-0.05-0.04-0.08-0.06
		c-0.03-0.02-0.05-0.04-0.09-0.06c-0.03-0.01-0.06-0.02-0.09-0.03c-0.04-0.01-0.07-0.02-0.11-0.02c-0.06,0-0.13,0-0.19,0.02
		l-0.41,0.13c-0.34,0.11-0.58,0.43-0.58,0.79l0.01,9.61c0.01,0.87-0.42,1.25-1.29,1.14l-0.78-0.1c-0.82-0.11-1.43-0.81-1.42-1.63
		l0.11-13.75c0.01-1.88,1.55-3.4,3.43-3.39l14.78,0.06c0,0,0,0,0,0c0.49,0,0.94,0.13,1.35,0.34c0.28,0.15,0.55,0.32,0.77,0.55
		c0.14,0.14,0.26,0.29,0.36,0.45c0.32,0.48,0.51,1.06,0.51,1.68v14.26c-0.01,0.8-0.41,1.25-1.2,1.36l-1.07,0.13
		c-0.79,0.11-1.18-0.24-1.18-1.03V58.53C70.21,58.19,70.04,58.03,69.7,58.05z"/>
	<path class="st3" d="M71.39,69.74l1.07-0.13c0.79-0.11,1.19-0.56,1.2-1.36V53.99c0-0.62-0.18-1.2-0.51-1.68
		c-0.11-0.16-0.23-0.31-0.36-0.45c-0.22-0.22-0.49-0.4-0.77-0.55c-0.41-0.21-0.86-0.34-1.35-0.34l-14.78-0.06
		c-1.88-0.01-3.42,1.51-3.43,3.39l-0.11,13.75c-0.01,0.82,0.6,1.52,1.42,1.63l0.78,0.1c0.87,0.11,1.3-0.27,1.29-1.14l-0.01-9.61
		c0-0.36,0.24-0.68,0.58-0.79l0.41-0.13c0.05-0.02,0.11-0.03,0.17-0.03c0.01,0,0.02,0,0.02,0c0.04,0,0.08,0.01,0.11,0.02
		c0.03,0.01,0.07,0.01,0.09,0.03c0.03,0.01,0.06,0.04,0.09,0.06c0.03,0.02,0.06,0.04,0.08,0.06c0.02,0.02,0.04,0.05,0.06,0.08
		c0.02,0.03,0.04,0.06,0.06,0.1c0.02,0.06,0.04,0.12,0.04,0.19v32.17c0,0.47,0.23,0.71,0.7,0.7l3.45-0.02c0.41,0,0.61-0.2,0.61-0.6
		l0.01-21.27c0-0.51,0.26-0.79,0.77-0.82l0.37-0.03c0.01,0,0.02,0,0.03,0c0.03,0,0.05,0.01,0.08,0.02c0.03,0.01,0.07,0.01,0.1,0.02
		c0.03,0.01,0.05,0.03,0.08,0.05c0.03,0.02,0.06,0.03,0.08,0.05c0.02,0.02,0.04,0.05,0.06,0.08c0.02,0.03,0.04,0.05,0.05,0.08
		c0.01,0.03,0.02,0.06,0.03,0.1c0.01,0.04,0.02,0.07,0.02,0.11v21.51c0,0.4,0.33,0.72,0.73,0.72h3.04c0.44,0,0.8-0.36,0.8-0.8
		l-0.03-32.05c0-0.35,0.18-0.54,0.53-0.56l0.65-0.04c0.34-0.02,0.51,0.14,0.51,0.48v10.18C70.21,69.5,70.6,69.85,71.39,69.74z"/>
	<path class="st2" d="M35.21,91.71c-0.13-0.13-0.3-0.2-0.5-0.2h0l-8.62,0.02c-0.1,0-0.19,0.02-0.27,0.06
		c-0.25,0.11-0.43,0.36-0.43,0.65l0,0.06c0,0.39,0.31,0.7,0.7,0.7l4.3-0.01l4.32-0.01c0.1,0,0.19-0.02,0.27-0.06
		c0.17-0.07,0.3-0.21,0.37-0.37c0.04-0.08,0.05-0.18,0.05-0.27l0-0.06C35.42,92.01,35.34,91.83,35.21,91.71z"/>
	<path class="st2" d="M100.3,91.64c-0.12-0.09-0.26-0.15-0.42-0.15l-8.74,0.02c-0.1,0-0.19,0.02-0.28,0.06s-0.16,0.09-0.23,0.15
		c-0.07,0.07-0.12,0.14-0.15,0.23c-0.04,0.09-0.06,0.18-0.06,0.28l0,0.04c0,0.3,0.18,0.55,0.44,0.66c0.09,0.04,0.18,0.06,0.28,0.06
		l8.74-0.02c0.2,0,0.38-0.08,0.51-0.21c0.13-0.13,0.21-0.31,0.21-0.51v0l0-0.04C100.6,91.97,100.48,91.77,100.3,91.64z"/>
</g>
</svg>
