<?xml version="1.0" encoding="utf-8"?>
<!-- Generator: Adobe Illustrator 28.0.0, SVG Export Plug-In . SVG Version: 6.00 Build 0)  -->
<svg version="1.1" id="Capa_1" xmlns="http://www.w3.org/2000/svg" xmlns:xlink="http://www.w3.org/1999/xlink" x="0px" y="0px"
	 viewBox="0 0 126 126" style="enable-background:new 0 0 126 126;" xml:space="preserve">
<style type="text/css">
	.st0{fill:#FFFFFF;stroke:#1DA9FC;stroke-miterlimit:10;}
	.st1{fill:none;}
	.st2{fill:#206891;}
	.st3{fill:#B3DFF8;}
</style>
<circle class="st0" cx="63" cy="63" r="59.67"/>
<g>
	<path class="st1" d="M47.09,47.68c-0.01-0.04-0.02-0.08-0.02-0.13C47.07,47.6,47.07,47.64,47.09,47.68z"/>
	<path class="st1" d="M47.06,47.43c0-0.05,0.02-0.09,0.03-0.14C47.08,47.34,47.07,47.38,47.06,47.43z"/>
	<path class="st1" d="M47.18,47.89c0.01,0.01,0.02,0.01,0.03,0.02c-0.02-0.03-0.04-0.06-0.06-0.1
		C47.16,47.83,47.16,47.86,47.18,47.89z"/>
	<path class="st1" d="M47.13,47.18c0.05-0.1,0.11-0.18,0.2-0.25C47.24,47,47.18,47.09,47.13,47.18z"/>
	<path class="st1" d="M43.68,47.31c-0.02-0.04-0.04-0.07-0.07-0.1c0.03,0.03,0.06,0.08,0.08,0.12
		C43.68,47.32,43.68,47.31,43.68,47.31z"/>
	<path class="st1" d="M54.27,51.06c-0.03,0.01-0.05,0.02-0.08,0.03C54.22,51.08,54.25,51.08,54.27,51.06z"/>
	<path class="st1" d="M54.5,50.85c0.01-0.02,0.02-0.04,0.02-0.06c-0.01,0.04-0.04,0.07-0.06,0.11
		C54.48,50.88,54.49,50.87,54.5,50.85z"/>
	<path class="st1" d="M48.98,47.18c0.01,0.03,0.03,0.05,0.04,0.08C49.01,47.23,48.99,47.21,48.98,47.18z"/>
	<path class="st1" d="M48.98,46.82c-0.01,0.03-0.02,0.06-0.03,0.09C48.96,46.88,48.97,46.85,48.98,46.82z"/>
	<path class="st1" d="M54.41,50.97c-0.02,0.02-0.04,0.04-0.07,0.05C54.37,51,54.39,50.99,54.41,50.97z"/>
	<path class="st1" d="M43.7,47.41c0.01,0.02,0.01,0.05,0.01,0.07C43.72,47.45,43.71,47.43,43.7,47.41z"/>
	<path class="st1" d="M54.11,51.1c-0.03,0-0.06,0-0.09-0.01C54.05,51.1,54.08,51.1,54.11,51.1z"/>
	<path class="st1" d="M43.71,47.55c0,0.03-0.01,0.05-0.01,0.08C43.7,47.6,43.7,47.58,43.71,47.55z"/>
	<path class="st1" d="M47.12,75.89c0.01-0.05,0.02-0.11,0.04-0.16C47.14,75.78,47.13,75.83,47.12,75.89z"/>
	<path class="st1" d="M43.49,75.73c-0.03-0.08-0.07-0.15-0.12-0.22c0.06,0.08,0.1,0.17,0.13,0.26
		C43.49,75.75,43.49,75.74,43.49,75.73z"/>
	<path class="st1" d="M43.52,75.94c0,0.05,0.02,0.1,0.01,0.15C43.53,76.03,43.52,75.98,43.52,75.94z"/>
	<path class="st1" d="M43.49,76.23c-0.01,0.05-0.02,0.1-0.05,0.15C43.47,76.33,43.48,76.28,43.49,76.23z"/>
	<path class="st1" d="M47.12,76.15c-0.01-0.05-0.02-0.09-0.02-0.14C47.1,76.06,47.11,76.1,47.12,76.15z"/>
	<path class="st1" d="M43.66,47.69c-0.01,0.02-0.03,0.05-0.05,0.07C43.63,47.74,43.64,47.71,43.66,47.69z"/>
	<path class="st1" d="M48.95,47.09c-0.01-0.03-0.01-0.06-0.01-0.09C48.94,47.03,48.95,47.06,48.95,47.09z"/>
	<path class="st1" d="M47.22,76.39c-0.02-0.04-0.05-0.07-0.06-0.11C47.17,76.33,47.19,76.36,47.22,76.39z"/>
	<path class="st1" d="M47.32,76.55c0.06,0.06,0.13,0.11,0.21,0.15c-0.09-0.04-0.16-0.1-0.22-0.16
		C47.31,76.54,47.31,76.54,47.32,76.55z"/>
	<path class="st1" d="M43.36,76.5c-0.03,0.05-0.07,0.09-0.11,0.13C43.3,76.59,43.33,76.54,43.36,76.5z"/>
	<path class="st1" d="M82.3,47.63c-0.01-0.04-0.01-0.09-0.02-0.13C82.29,47.55,82.29,47.59,82.3,47.63z"/>
	<path class="st1" d="M82.42,47.86c0,0,0.01,0.01,0.01,0.01c-0.03-0.03-0.04-0.07-0.06-0.1C82.39,47.8,82.4,47.83,82.42,47.86z"/>
	<path class="st1" d="M82.27,47.37c0-0.05,0.02-0.1,0.04-0.15C82.29,47.28,82.28,47.32,82.27,47.37z"/>
	<path class="st1" d="M82.34,47.12c0.04-0.09,0.1-0.17,0.18-0.23C82.44,46.95,82.38,47.03,82.34,47.12z"/>
	<path class="st1" d="M79.04,47.23C79.04,47.23,79.04,47.23,79.04,47.23c0.01,0.02,0.01,0.04,0.02,0.06
		C79.05,47.27,79.05,47.25,79.04,47.23z"/>
	<path class="st1" d="M78.97,47.82c-0.05,0.06-0.1,0.1-0.17,0.13C78.87,47.91,78.92,47.87,78.97,47.82z"/>
	<path class="st1" d="M65.43,52.09c-0.02,0.05-0.03,0.1-0.05,0.15C65.39,52.19,65.4,52.14,65.43,52.09z"/>
	<path class="st1" d="M51.13,60.76c-0.02-0.05-0.02-0.1-0.03-0.16C51.11,60.66,51.11,60.71,51.13,60.76z"/>
	<path class="st1" d="M51.29,61.02c-0.04-0.04-0.06-0.08-0.09-0.13C51.24,60.93,51.26,60.98,51.29,61.02z"/>
	<path class="st1" d="M65.38,52.65c0.01,0.04,0.04,0.08,0.06,0.12C65.42,52.72,65.4,52.69,65.38,52.65z"/>
	<path class="st1" d="M65.72,53.07c-0.08-0.04-0.14-0.11-0.2-0.17c0.01,0.01,0.01,0.02,0.02,0.03
		C65.59,52.98,65.65,53.03,65.72,53.07z"/>
	<path class="st1" d="M79.07,47.63c-0.01,0.04-0.04,0.09-0.07,0.13C79.03,47.72,79.05,47.68,79.07,47.63z"/>
	<path class="st1" d="M65.36,52.51c-0.01-0.05-0.02-0.09-0.01-0.14C65.35,52.41,65.36,52.46,65.36,52.51z"/>
	<path class="st1" d="M79.09,47.43c0,0.03-0.01,0.07-0.01,0.1C79.09,47.5,79.09,47.47,79.09,47.43z"/>
	<path class="st1" d="M51.83,61.27c0.01,0,0.03,0,0.04,0c-0.06,0-0.12-0.02-0.18-0.04C51.74,61.24,51.78,61.26,51.83,61.27z"/>
	<path class="st1" d="M51.54,61.19c-0.05-0.02-0.09-0.06-0.13-0.09C51.46,61.14,51.49,61.17,51.54,61.19z"/>
	<path class="st1" d="M49.2,47.43c-0.05-0.02-0.08-0.06-0.12-0.09c0.01,0.01,0.01,0.02,0.02,0.03
		C49.14,47.39,49.17,47.41,49.2,47.43z"/>
	<path class="st1" d="M60.63,80.33c0.06,0.07,0.11,0.14,0.14,0.22c-0.01-0.02-0.01-0.04-0.02-0.05
		C60.72,80.43,60.68,80.38,60.63,80.33z"/>
	<path class="st1" d="M60.82,80.71c0.01,0.05,0.02,0.1,0.03,0.15C60.85,80.8,60.84,80.76,60.82,80.71z"/>
	<path class="st1" d="M60.74,81.29c-0.03,0.05-0.06,0.09-0.09,0.14C60.68,81.38,60.71,81.34,60.74,81.29z"/>
	<path class="st1" d="M82.59,76.58c0.07,0.07,0.15,0.12,0.24,0.16c-0.1-0.05-0.18-0.11-0.25-0.19
		C82.58,76.57,82.59,76.58,82.59,76.58z"/>
	<path class="st1" d="M82.47,76.41c-0.03-0.04-0.06-0.08-0.08-0.12C82.41,76.33,82.44,76.36,82.47,76.41z"/>
	<path class="st1" d="M82.36,76.12c-0.01-0.05-0.03-0.11-0.03-0.16C82.33,76.02,82.35,76.07,82.36,76.12z"/>
	<path class="st1" d="M60.8,81.16c0.02-0.05,0.02-0.1,0.03-0.15C60.83,81.06,60.82,81.11,60.8,81.16z"/>
	<path class="st1" d="M65.62,81.11c-0.01-0.07-0.04-0.14-0.04-0.22C65.58,80.96,65.61,81.04,65.62,81.11z"/>
	<path class="st1" d="M65.67,81.33c0.02,0.06,0.07,0.11,0.1,0.16C65.74,81.44,65.69,81.39,65.67,81.33z"/>
	<path class="st1" d="M66.28,81.97c-0.14-0.06-0.26-0.15-0.36-0.25c0.01,0.01,0.01,0.02,0.02,0.02
		C66.04,81.83,66.15,81.91,66.28,81.97z"/>
	<path class="st1" d="M65.67,80.44c-0.04,0.08-0.04,0.17-0.06,0.26C65.63,80.61,65.64,80.52,65.67,80.44z"/>
	<path class="st1" d="M84.66,76.07c-0.03-0.04-0.06-0.08-0.08-0.12C84.6,75.99,84.63,76.03,84.66,76.07z"/>
	<path class="st1" d="M84.94,76.29c-0.07-0.03-0.12-0.07-0.17-0.11c0.03,0.02,0.04,0.05,0.08,0.07
		C84.88,76.26,84.91,76.27,84.94,76.29z"/>
	<path class="st1" d="M84.49,75.68c0.01,0.05,0.01,0.1,0.03,0.14C84.5,75.77,84.49,75.72,84.49,75.68z"/>
	<path class="st1" d="M82.36,75.82c0.01-0.06,0.02-0.12,0.04-0.18C82.38,75.69,82.37,75.75,82.36,75.82z"/>
	<path class="st1" d="M84.48,75.53c0-0.05,0.02-0.1,0.03-0.15C84.49,75.43,84.48,75.48,84.48,75.53z"/>
	<path class="st1" d="M78.98,75.89C78.99,75.93,79,75.96,79,76C79,75.96,78.99,75.93,78.98,75.89z"/>
	<path class="st1" d="M36.12,83.27c0.03-0.01,0.05-0.03,0.08-0.04c-0.04,0.03-0.09,0.04-0.13,0.04
		C36.08,83.27,36.1,83.28,36.12,83.27z"/>
	<path class="st1" d="M78.94,75.73c-0.03-0.07-0.07-0.12-0.12-0.18c0.06,0.06,0.1,0.13,0.13,0.2
		C78.95,75.75,78.95,75.74,78.94,75.73z"/>
	<path class="st1" d="M78.98,76.12c-0.01,0.04-0.01,0.08-0.02,0.12C78.97,76.2,78.98,76.16,78.98,76.12z"/>
	<path class="st1" d="M78.9,76.33c-0.02,0.04-0.04,0.08-0.08,0.11C78.86,76.41,78.88,76.37,78.9,76.33z"/>
	<path class="st1" d="M41.4,75.1c0.03,0.06,0.05,0.12,0.06,0.18c-0.01-0.03-0.01-0.07-0.02-0.1C41.43,75.15,41.42,75.12,41.4,75.1z"
		/>
	<path class="st1" d="M58.81,80.92c0.02-0.04,0.02-0.08,0.03-0.11C58.84,80.84,58.83,80.88,58.81,80.92z"/>
	<path class="st1" d="M41.5,75.42c0,0.05,0,0.09-0.01,0.14C41.5,75.51,41.5,75.47,41.5,75.42z"/>
	<path class="st1" d="M49.3,75.96c-0.03-0.03-0.05-0.07-0.07-0.11C49.26,75.88,49.28,75.92,49.3,75.96z"/>
	<path class="st1" d="M41.34,75.94c-0.03,0.04-0.07,0.07-0.11,0.1C41.27,76.01,41.31,75.98,41.34,75.94z"/>
	<path class="st1" d="M49.16,75.46c0-0.04,0.02-0.09,0.03-0.13C49.18,75.38,49.17,75.42,49.16,75.46z"/>
	<path class="st1" d="M35.96,83.27c-0.03-0.01-0.06-0.02-0.08-0.04C35.9,83.24,35.93,83.26,35.96,83.27z"/>
	<path class="st1" d="M58.75,81.02c-0.02,0.04-0.05,0.07-0.08,0.1C58.7,81.09,58.72,81.05,58.75,81.02z"/>
	<path class="st1" d="M49.17,75.59c0,0.04,0.01,0.09,0.02,0.13C49.17,75.68,49.17,75.64,49.17,75.59z"/>
	<path class="st1" d="M49.54,76.16c-0.05-0.03-0.09-0.07-0.14-0.11c0.03,0.02,0.04,0.05,0.07,0.07
		C49.5,76.13,49.52,76.15,49.54,76.16z"/>
	<path class="st1" d="M41.41,75.82c0.02-0.04,0.04-0.08,0.06-0.13C41.46,75.74,41.43,75.78,41.41,75.82z"/>
	<path class="st1" d="M68.03,81.42c-0.09-0.03-0.17-0.09-0.24-0.14c0.01,0.01,0.02,0.03,0.03,0.04
		C67.89,81.35,67.96,81.39,68.03,81.42z"/>
	<path class="st1" d="M67.51,80.39c-0.02,0.06-0.02,0.11-0.03,0.17C67.49,80.5,67.5,80.45,67.51,80.39z"/>
	<path class="st1" d="M67.52,80.87c-0.02-0.05-0.03-0.1-0.04-0.16C67.49,80.77,67.51,80.82,67.52,80.87z"/>
	<path class="st1" d="M58.86,80.57c0.01,0.04,0.01,0.08,0.01,0.11C58.87,80.65,58.86,80.61,58.86,80.57z"/>
	<path class="st1" d="M58.73,80.26c0.05,0.06,0.08,0.12,0.1,0.19c0-0.01,0-0.02-0.01-0.03C58.8,80.36,58.77,80.3,58.73,80.26z"/>
	<path class="st1" d="M67.58,81.02c0.02,0.05,0.06,0.08,0.09,0.12C67.64,81.11,67.6,81.07,67.58,81.02z"/>
	<path class="st2" d="M36.02,54.58l0.51-0.2c0.16-0.06,0.25-0.21,0.24-0.37c-0.08-1.29-0.3-2.76,1.1-3.41
		c2.03-0.95,3.91-1.86,5.63-2.75c0.04-0.02,0.07-0.04,0.1-0.07c0,0,0.01-0.01,0.01-0.01c0.02-0.02,0.03-0.05,0.05-0.07
		c0.01-0.02,0.03-0.04,0.03-0.06c0.01-0.02,0.01-0.05,0.01-0.08c0-0.03,0.01-0.05,0.01-0.07c0-0.02-0.01-0.05-0.01-0.07
		c-0.01-0.03-0.01-0.06-0.02-0.08c-0.02-0.04-0.04-0.08-0.08-0.12c-1.77-1.81-2.47-4.04-2.12-6.67c0.55-4.13,7.17-4.07,7.75,0.07
		c0.43,2.97-0.21,5.08-1.9,6.33c-0.09,0.06-0.15,0.15-0.2,0.25c0,0.01-0.02,0.02-0.02,0.03c-0.01,0.03-0.01,0.06-0.02,0.08
		c-0.01,0.05-0.03,0.09-0.03,0.14c0,0.04,0,0.09,0,0.13c0,0.04,0.01,0.09,0.02,0.13c0.01,0.05,0.04,0.09,0.06,0.13
		c0.02,0.03,0.04,0.07,0.06,0.1c0.07,0.08,0.14,0.15,0.25,0.2l6.45,2.96c0.02,0.01,0.04,0.02,0.06,0.02c0.02,0.01,0.04,0,0.06,0.01
		c0.03,0,0.06,0.01,0.09,0.01c0.03,0,0.06-0.01,0.08-0.01c0.03-0.01,0.06-0.01,0.08-0.03c0.03-0.01,0.05-0.03,0.07-0.04
		c0.02-0.02,0.05-0.03,0.07-0.05c0.02-0.02,0.04-0.05,0.05-0.07c0.02-0.03,0.04-0.07,0.06-0.11l0.1-0.36c0.05-0.15,0-0.25-0.14-0.32
		l-5.28-2.68c-0.03-0.02-0.07-0.04-0.1-0.06c-0.01-0.01-0.01-0.02-0.02-0.03c-0.02-0.02-0.04-0.05-0.06-0.08
		c-0.02-0.03-0.03-0.05-0.04-0.08c-0.01-0.03-0.02-0.06-0.02-0.09c-0.01-0.03-0.01-0.06-0.01-0.09c0-0.03,0-0.06,0.01-0.09
		c0.01-0.03,0.01-0.06,0.03-0.09c0.02-0.05,0.04-0.09,0.07-0.13c1.29-1.52,1.79-3.61,1.5-6.26c-0.35-3.19-3.74-4.69-6.56-4.05
		c-4.59,1.05-4.68,7.19-2.42,10.31c0.23,0.31,0.17,0.57-0.16,0.77c-1.58,0.94-4.58,1.79-5.54,3.18c-0.59,0.86-0.68,2.1-0.28,3.72
		C35.65,54.6,35.79,54.67,36.02,54.58z"/>
	<path class="st2" d="M76.74,47.59l-5.01,2.21c-0.33,0.15-0.43,0.39-0.29,0.72l0.19,0.46c0.1,0.25,0.27,0.31,0.51,0.19l6.66-3.22
		c0.06-0.03,0.12-0.08,0.17-0.13c0,0,0,0,0,0c0.01-0.02,0.02-0.04,0.03-0.05c0.03-0.04,0.05-0.08,0.07-0.13
		c0.01-0.03,0.01-0.07,0.01-0.1c0-0.03,0.01-0.07,0.01-0.1c0-0.05-0.02-0.09-0.04-0.14c-0.01-0.02-0.01-0.04-0.02-0.06
		c-0.03-0.06-0.08-0.12-0.13-0.17c-1.68-1.4-2.35-3.59-2.01-6.56c0.32-2.83,3.22-3.51,5.54-2.59c3.57,1.42,2.45,7.08,0.09,8.98
		c-0.08,0.06-0.14,0.14-0.18,0.23c0,0-0.01,0.01-0.01,0.01c-0.01,0.03-0.01,0.06-0.02,0.1c-0.01,0.05-0.03,0.1-0.04,0.15
		c0,0.04,0.01,0.09,0.01,0.13c0.01,0.04,0.01,0.09,0.02,0.13c0.02,0.05,0.04,0.09,0.07,0.13c0.02,0.03,0.03,0.07,0.06,0.1
		c0.06,0.07,0.14,0.14,0.23,0.18l6.24,3c0.39,0.19,0.57,0.5,0.53,0.93l-0.18,1.96c-0.02,0.27,0.1,0.44,0.37,0.5l0.27,0.06
		c0.31,0.07,0.5-0.05,0.55-0.36c0.19-1.09,0.17-2.2-0.05-3.33c-0.09-0.41-0.32-0.71-0.7-0.89l-5.02-2.31
		c-0.44-0.21-0.52-0.5-0.23-0.89c1.91-2.58,2.58-8.25-1.3-9.9c-3.18-1.36-6.97-0.23-7.6,3.51c-0.47,2.81-0.02,4.95,1.37,6.43
		C77.24,47.11,77.19,47.39,76.74,47.59z"/>
	<path class="st2" d="M58.61,52.64l-6.36,2.88c-0.58,0.26-0.97,0.83-1,1.48l-0.18,3.43c0,0.01,0,0.03,0,0.04
		c0,0.05,0.02,0.09,0.03,0.14c0.01,0.05,0.01,0.11,0.03,0.16c0.02,0.05,0.05,0.09,0.08,0.13c0.03,0.04,0.05,0.09,0.09,0.13
		c0.04,0.04,0.08,0.06,0.12,0.09c0.04,0.03,0.08,0.06,0.13,0.09c0.05,0.02,0.1,0.03,0.15,0.04c0.06,0.01,0.11,0.04,0.18,0.04h22.32
		c0.41-0.01,0.77-0.27,0.89-0.66c0.86-2.79-0.02-4.73-2.63-5.84c-1.65-0.69-3.25-1.42-4.8-2.17c-0.41-0.2-0.47-0.47-0.18-0.82
		c1.59-1.9,2.25-4.4,1.98-7.49c-0.63-7.39-11.81-7.4-12.53-0.26c-0.34,3.39,0.29,5.94,1.88,7.63C59.2,52.07,59.14,52.4,58.61,52.64z
		 M58.4,43.3c0.91-4.32,8.6-4.31,9.51,0.22c0.7,3.53-0.08,6.31-2.33,8.36c-0.07,0.06-0.11,0.14-0.15,0.21
		c-0.02,0.05-0.04,0.1-0.05,0.15c-0.01,0.04-0.03,0.08-0.03,0.13c0,0.05,0.01,0.09,0.01,0.14c0.01,0.05,0.01,0.09,0.02,0.14
		c0.01,0.04,0.04,0.08,0.06,0.12c0.02,0.05,0.05,0.09,0.08,0.13c0.06,0.07,0.12,0.13,0.2,0.17c2.11,1.17,4.36,2.23,6.75,3.18
		c1.36,0.54,1.83,1.65,1.79,3.04c-0.01,0.51-0.28,0.77-0.8,0.77L53,60.05c-0.37,0-0.58-0.19-0.61-0.56c-0.07-0.77,0-1.47,0.19-2.1
		c0.13-0.39,0.38-0.68,0.75-0.85l7.15-3.38c0.66-0.31,0.73-0.73,0.22-1.24C58.43,49.66,57.66,46.78,58.4,43.3z"/>
	<path class="st3" d="M60.48,53.16l-7.15,3.38c-0.37,0.17-0.62,0.46-0.75,0.85c-0.19,0.63-0.26,1.33-0.19,2.1
		c0.03,0.37,0.24,0.56,0.61,0.56l20.46,0.01c0.52,0,0.79-0.26,0.8-0.77c0.04-1.39-0.43-2.5-1.79-3.04
		c-2.39-0.95-4.64-2.01-6.75-3.18c-0.07-0.04-0.13-0.09-0.18-0.14c-0.01-0.01-0.01-0.02-0.02-0.03c-0.03-0.04-0.06-0.09-0.08-0.13
		c-0.02-0.04-0.05-0.08-0.06-0.12c-0.01-0.05-0.02-0.09-0.02-0.14c-0.01-0.05-0.02-0.09-0.01-0.14c0-0.04,0.02-0.08,0.03-0.13
		c0.01-0.05,0.02-0.1,0.05-0.15c0.04-0.08,0.09-0.15,0.15-0.21c2.25-2.05,3.03-4.83,2.33-8.36c-0.91-4.53-8.6-4.54-9.51-0.22
		c-0.74,3.49,0.03,6.36,2.3,8.62C61.21,52.43,61.14,52.84,60.48,53.16z"/>
	<path class="st2" d="M54.32,79.48l0.1-0.3c0.12-0.33-0.03-0.69-0.34-0.84l-4.54-2.18c-0.02-0.01-0.05-0.02-0.07-0.04
		c-0.03-0.02-0.05-0.05-0.07-0.07c-0.04-0.03-0.07-0.06-0.1-0.1c-0.03-0.04-0.05-0.07-0.07-0.11c-0.02-0.04-0.04-0.08-0.05-0.12
		c-0.01-0.04-0.01-0.09-0.02-0.13c0-0.04-0.01-0.09,0-0.13c0-0.05,0.02-0.09,0.03-0.13c0.02-0.06,0.03-0.11,0.06-0.16
		c1.05-1.66,1.51-3.6,1.38-5.82c-0.31-5.36-8.53-6.5-10.05-1.61c-0.81,2.64-0.54,5.09,0.81,7.36c0.01,0.02,0.03,0.05,0.04,0.08
		c0.01,0.03,0.01,0.07,0.02,0.1c0.01,0.05,0.03,0.1,0.03,0.14c0,0.05,0,0.09-0.01,0.14c-0.01,0.05-0.01,0.09-0.02,0.14
		c-0.01,0.05-0.04,0.08-0.06,0.13c-0.02,0.04-0.04,0.08-0.07,0.12c-0.03,0.04-0.07,0.07-0.11,0.1c-0.05,0.04-0.09,0.08-0.15,0.11
		c-3.06,1.41-7.02,2.24-5.3,6.97c0.01,0.03,0.03,0.05,0.04,0.08c0.01,0.02,0.04,0.02,0.05,0.03c0.03,0.02,0.05,0.04,0.08,0.04
		c0.03,0.01,0.06,0.01,0.1,0c0.05-0.01,0.1-0.01,0.13-0.04l0.34-0.29c0.15-0.14,0.22-0.34,0.18-0.54c-0.37-1.55,0.05-2.66,1.26-3.33
		c1.54-0.85,3.22-1.62,5.04-2.29c0.08-0.03,0.15-0.07,0.22-0.12c0.01-0.01,0.01-0.02,0.02-0.03c0.04-0.04,0.08-0.09,0.11-0.13
		c0.03-0.04,0.06-0.07,0.08-0.12c0.02-0.05,0.03-0.1,0.05-0.15c0.01-0.05,0.03-0.1,0.04-0.15c0-0.05-0.01-0.1-0.01-0.15
		c-0.01-0.06-0.01-0.11-0.03-0.17c-0.03-0.09-0.07-0.18-0.13-0.26c-2.09-2.63-2.51-5.33-1.24-8.1c0.2-0.43,0.52-0.74,0.97-0.91
		c6.86-2.67,7.6,5.57,4.22,9c-0.06,0.06-0.11,0.13-0.15,0.21c0,0.01,0,0.01,0,0.02c-0.02,0.05-0.03,0.11-0.04,0.16
		c-0.01,0.04-0.02,0.08-0.02,0.12c0,0.05,0.01,0.09,0.02,0.14c0.01,0.05,0.01,0.09,0.03,0.14c0.02,0.04,0.04,0.07,0.06,0.11
		c0.03,0.05,0.05,0.1,0.09,0.14c0.06,0.07,0.14,0.12,0.22,0.16l6.41,2.94C54.13,79.72,54.25,79.67,54.32,79.48z"/>
	<path class="st2" d="M89.39,78.16l-4.45-1.87c-0.03-0.01-0.06-0.03-0.09-0.05c-0.03-0.02-0.05-0.05-0.08-0.07
		c-0.04-0.03-0.08-0.06-0.11-0.1c-0.03-0.04-0.06-0.08-0.08-0.12c-0.02-0.04-0.05-0.09-0.06-0.13c-0.02-0.05-0.02-0.09-0.03-0.14
		c-0.01-0.05-0.01-0.1-0.01-0.15c0-0.05,0.02-0.1,0.03-0.15c0.02-0.07,0.03-0.13,0.07-0.19c2.04-3.56,2.34-9.53-2.93-10.36
		c-5.49-0.86-7.07,3.99-5.9,8.29c0.21,0.78,0.78,1.46,1.09,2.19c0.19,0.43,0.07,0.74-0.36,0.93l-4.31,1.88
		c-0.37,0.16-0.58,0.44-0.61,0.85l-0.03,0.37c-0.03,0.44,0.15,0.56,0.54,0.37l6.58-3.13c0.06-0.03,0.12-0.07,0.17-0.12
		c0,0,0.01-0.01,0.01-0.02c0.03-0.03,0.05-0.07,0.08-0.11c0.02-0.03,0.04-0.06,0.06-0.09c0.01-0.04,0.02-0.08,0.02-0.12
		C78.99,76.08,79,76.04,79,76c0-0.04-0.01-0.07-0.02-0.11c-0.01-0.05-0.01-0.09-0.03-0.14c-0.03-0.07-0.07-0.14-0.13-0.2
		c-1.57-1.59-2.25-3.65-2.05-6.18c0.23-2.84,2.95-4.02,5.46-3.08c3.92,1.46,2.51,6.84,0.34,9.07c-0.07,0.07-0.12,0.15-0.16,0.24
		c0,0.01,0,0.02-0.01,0.02c-0.03,0.06-0.03,0.12-0.04,0.18c-0.01,0.05-0.03,0.1-0.03,0.14c0,0.06,0.02,0.11,0.03,0.16
		c0.01,0.05,0.01,0.11,0.03,0.16c0.02,0.05,0.05,0.08,0.08,0.12c0.03,0.05,0.06,0.11,0.11,0.16c0.07,0.07,0.16,0.14,0.25,0.19
		l5.45,2.46c0.7,0.32,1.13,1.04,1.06,1.8c-0.05,0.62,0.02,1.21,0.21,1.77c0.26,0.76,0.53,0.76,0.8,0.01
		c0.45-1.27,0.39-2.55-0.18-3.86C90.01,78.57,89.75,78.31,89.39,78.16z"/>
	<path class="st2" d="M68.03,81.42c-0.07-0.03-0.14-0.06-0.21-0.11c-0.01-0.01-0.02-0.03-0.03-0.04c-0.05-0.04-0.08-0.08-0.12-0.13
		c-0.03-0.04-0.07-0.08-0.09-0.12c-0.03-0.05-0.04-0.1-0.06-0.15c-0.02-0.05-0.03-0.1-0.04-0.16c-0.01-0.05,0-0.1,0-0.15
		c0-0.06,0.01-0.12,0.03-0.17c0.03-0.09,0.06-0.18,0.12-0.26c2.92-4.14,3.08-12.38-3.85-12.93c-3.72-0.3-6.57,1.66-6.89,5.55
		c-0.26,3.19,0.35,5.7,1.84,7.51c0.04,0.05,0.07,0.1,0.09,0.15c0,0.01,0,0.02,0.01,0.03c0.02,0.04,0.02,0.09,0.03,0.13
		c0.01,0.04,0.01,0.08,0.01,0.11c0,0.04-0.01,0.08-0.02,0.12c-0.01,0.04-0.02,0.08-0.03,0.11c-0.02,0.03-0.04,0.06-0.06,0.1
		c-0.03,0.04-0.05,0.07-0.08,0.1c-0.05,0.05-0.11,0.09-0.18,0.12c-3.86,1.64-8.55,2.19-7.36,7.85c0.09,0.46,0.37,0.69,0.84,0.68
		l22.26-0.02c0.42,0,0.78-0.28,0.87-0.68C76.35,83.85,71.65,82.71,68.03,81.42z M74.04,87.8c-0.06,0.36-0.37,0.63-0.74,0.64
		l-20.06,0.08c-0.36,0-0.67-0.24-0.75-0.59c-0.37-1.55,0.19-2.64,1.68-3.27c2.23-0.94,4.32-1.96,6.27-3.06
		c0.08-0.04,0.14-0.11,0.2-0.17c0.04-0.04,0.07-0.09,0.09-0.14c0.03-0.04,0.05-0.09,0.07-0.13c0.02-0.05,0.02-0.1,0.03-0.15
		c0.01-0.05,0.02-0.1,0.01-0.15c0-0.05-0.01-0.1-0.03-0.15c-0.01-0.05-0.03-0.11-0.05-0.16c-0.04-0.08-0.08-0.16-0.14-0.22
		c-2.2-2.29-2.94-5.08-2.21-8.37c0.82-3.73,5.84-4.23,8.25-2.12c0.91,0.8,1.38,2.17,1.41,4.1c0.03,2.57-0.7,4.61-2.17,6.13
		c-0.11,0.11-0.18,0.24-0.24,0.37c-0.04,0.09-0.04,0.17-0.06,0.26c-0.01,0.06-0.03,0.12-0.03,0.19c0,0.08,0.02,0.15,0.04,0.22
		c0.01,0.07,0.02,0.15,0.05,0.22c0.02,0.06,0.07,0.11,0.1,0.16c0.05,0.08,0.09,0.16,0.15,0.22c0.1,0.1,0.22,0.19,0.36,0.25
		c2.36,1.03,4.51,2.05,6.44,3.07C73.8,85.61,74.24,86.53,74.04,87.8z"/>
	<path class="st3" d="M72.72,85.04c-1.93-1.02-4.08-2.04-6.44-3.07c-0.13-0.06-0.24-0.13-0.34-0.23c-0.01-0.01-0.01-0.02-0.02-0.02
		c-0.07-0.07-0.11-0.15-0.15-0.22c-0.03-0.05-0.08-0.1-0.1-0.16c-0.03-0.07-0.03-0.15-0.05-0.22s-0.04-0.15-0.04-0.22
		c0-0.06,0.02-0.13,0.03-0.19c0.01-0.09,0.02-0.18,0.06-0.26c0.06-0.13,0.13-0.26,0.24-0.37c1.47-1.52,2.2-3.56,2.17-6.13
		c-0.03-1.93-0.5-3.3-1.41-4.1c-2.41-2.11-7.43-1.61-8.25,2.12c-0.73,3.29,0.01,6.08,2.21,8.37c0.05,0.05,0.09,0.11,0.12,0.17
		c0.01,0.02,0.01,0.04,0.02,0.05c0.02,0.05,0.04,0.1,0.05,0.16c0.01,0.05,0.02,0.1,0.03,0.15c0,0.05-0.01,0.1-0.01,0.15
		c-0.01,0.05-0.01,0.1-0.03,0.15c-0.02,0.05-0.04,0.09-0.07,0.13c-0.03,0.05-0.06,0.09-0.09,0.14c-0.06,0.06-0.12,0.13-0.2,0.17
		c-1.95,1.1-4.04,2.12-6.27,3.06c-1.49,0.63-2.05,1.72-1.68,3.27c0.08,0.35,0.39,0.59,0.75,0.59l20.06-0.08
		c0.37-0.01,0.68-0.28,0.74-0.64C74.24,86.53,73.8,85.61,72.72,85.04z"/>
</g>
</svg>
