<?xml version="1.0" encoding="utf-8"?>
<!-- Generator: Adobe Illustrator 28.0.0, SVG Export Plug-In . SVG Version: 6.00 Build 0)  -->
<svg version="1.1" id="Capa_1" xmlns="http://www.w3.org/2000/svg" xmlns:xlink="http://www.w3.org/1999/xlink" x="0px" y="0px"
	 viewBox="0 0 126 126" style="enable-background:new 0 0 126 126;" xml:space="preserve">
<style type="text/css">
	.st0{fill:#FFFFFF;stroke:#1DA9FC;stroke-miterlimit:10;}
	.st1{fill:#064874;}
	.st2{fill:#B3DFF8;stroke:#064874;stroke-miterlimit:10;}
</style>
<circle class="st0" cx="63" cy="63" r="59.67"/>
<g>
	<rect x="26.88" y="25.26" class="st1" width="1" height="75.48"/>
	<polygon class="st2" points="44.06,27.96 41.36,27.96 41.36,33.35 38.67,33.35 38.67,27.96 35.97,27.96 35.97,38.74 44.06,38.74 	
		"/>
	<rect x="30.58" y="75.13" class="st1" width="64.7" height="1.35"/>
	<polygon class="st2" points="54.84,27.96 52.14,27.96 52.14,33.35 49.45,33.35 49.45,27.96 46.75,27.96 46.75,38.74 54.84,38.74 	
		"/>
	<polygon class="st2" points="76.4,27.96 73.71,27.96 73.71,33.35 71.01,33.35 71.01,27.96 68.32,27.96 68.32,38.74 76.4,38.74 	"/>
	<polygon class="st2" points="65.62,27.96 62.93,27.96 62.93,33.35 60.23,33.35 60.23,27.96 57.53,27.96 57.53,38.74 65.62,38.74 	
		"/>
	<polygon class="st2" points="45.4,65.7 42.71,65.7 42.71,63 38.67,63 38.67,71.09 49.45,71.09 49.45,63 45.4,63 	"/>
	<polygon class="st2" points="62.93,63 62.93,71.09 71.01,71.09 71.01,63 68.32,63 68.32,65.7 65.62,65.7 65.62,63 	"/>
	<rect x="71.01" y="52.22" class="st2" width="8.09" height="2.7"/>
	<rect x="81.8" y="52.22" class="st2" width="8.09" height="2.7"/>
	<polygon class="st2" points="81.8,60.3 79.1,60.3 79.1,57.61 73.71,57.61 73.71,71.09 87.19,71.09 87.19,57.61 81.8,57.61 	"/>
	<rect x="30.58" y="42.88" class="st1" width="64.7" height="1.25"/>
	<rect x="45.4" y="57.61" class="st2" width="6.74" height="2.7"/>
	<rect x="97.97" y="25.26" class="st1" width="1.15" height="75.48"/>
	<rect x="35.97" y="57.61" class="st2" width="6.74" height="2.7"/>
	<polygon class="st2" points="80.45,98.04 72.36,98.04 72.36,89.96 64.27,89.96 64.27,100.74 88.53,100.74 88.53,89.96 80.45,89.96 
			"/>
	<rect x="49.45" y="84.57" class="st2" width="2.7" height="5.39"/>
	<rect x="75.06" y="89.96" class="st2" width="2.7" height="5.39"/>
	<path class="st2" d="M54.84,92.65h-8.09v-8.09h-6.74v16.17h21.57V84.57h-6.74V92.65z M45.4,98.04h-2.7v-2.7h2.7V98.04z M50.8,98.04
		h-2.7v-2.7h2.7V98.04z"/>
</g>
</svg>
