<?xml version="1.0" encoding="utf-8"?>
<!-- Generator: Adobe Illustrator 28.0.0, SVG Export Plug-In . SVG Version: 6.00 Build 0)  -->
<svg version="1.1" id="Capa_1" xmlns="http://www.w3.org/2000/svg" xmlns:xlink="http://www.w3.org/1999/xlink" x="0px" y="0px"
	 viewBox="0 0 126 126" style="enable-background:new 0 0 126 126;" xml:space="preserve">
<style type="text/css">
	.st0{fill:#FFFFFF;stroke:#1DA9FC;stroke-miterlimit:10;}
	.st1{fill:none;}
	.st2{fill:#08456F;}
	.st3{fill:#B3DFF8;}
	.st4{fill:#FFFFFF;}
</style>
<circle class="st0" cx="63" cy="63" r="59.67"/>
<g>
	<path class="st1" d="M35.99,77.8c-0.03-0.07-0.03-0.15-0.04-0.22C35.96,77.65,35.96,77.73,35.99,77.8z"/>
	<path class="st1" d="M49.21,90.02c-0.04,0.02-0.09,0.02-0.14,0.02C49.12,90.04,49.17,90.04,49.21,90.02z"/>
	<path class="st1" d="M36.24,78.19c0.01,0.01,0.01,0.01,0.02,0.02c-0.06-0.06-0.09-0.14-0.14-0.2
		C36.16,78.06,36.18,78.13,36.24,78.19z"/>
	<path class="st1" d="M78.51,69.23c-0.01-0.04-0.01-0.09-0.03-0.13C78.5,69.15,78.5,69.19,78.51,69.23z"/>
	<path class="st1" d="M50.66,82.03c-0.06,0.01-0.12,0.01-0.18,0.03C50.54,82.04,50.6,82.03,50.66,82.03z"/>
	<path class="st1" d="M50.08,82.37c-0.04,0.05-0.07,0.09-0.1,0.14C50,82.46,50.04,82.42,50.08,82.37z"/>
	<path class="st1" d="M35.99,76.91c0.03-0.07,0.09-0.13,0.13-0.2C36.08,76.77,36.02,76.83,35.99,76.91z"/>
	<path class="st1" d="M49.45,89.88c-0.03,0.03-0.08,0.05-0.12,0.07C49.37,89.93,49.41,89.91,49.45,89.88z"/>
	<path class="st1" d="M49.61,89.66c-0.02,0.04-0.05,0.07-0.08,0.11C49.56,89.73,49.59,89.7,49.61,89.66z"/>
	<path class="st1" d="M49.68,89.4c0,0,0-0.01,0-0.01c0,0.05-0.02,0.1-0.03,0.14C49.66,89.48,49.68,89.44,49.68,89.4z"/>
	<path class="st1" d="M68.97,72.84c0.05,0.05,0.08,0.11,0.11,0.17C69.05,72.95,69.02,72.89,68.97,72.84z"/>
	<path class="st1" d="M48.28,64.73c0.08-0.08,0.18-0.15,0.28-0.19C48.45,64.58,48.36,64.64,48.28,64.73z"/>
	<path class="st1" d="M69.2,73.18c0.03,0.06,0.03,0.14,0.04,0.21C69.23,73.32,69.22,73.24,69.2,73.18z"/>
	<path class="st1" d="M78.42,69.74c0.02-0.04,0.06-0.07,0.07-0.12C78.48,69.66,78.45,69.7,78.42,69.74z"/>
	<path class="st1" d="M68.64,72.61c0.06,0.03,0.11,0.07,0.17,0.11C68.75,72.69,68.7,72.64,68.64,72.61z"/>
	<path class="st1" d="M49.21,64.54c0.07,0.03,0.13,0.08,0.2,0.13C49.35,64.62,49.29,64.57,49.21,64.54z"/>
	<path class="st1" d="M48.89,64.47C48.89,64.47,48.89,64.47,48.89,64.47c0.03,0,0.06,0.02,0.09,0.02
		C48.95,64.49,48.92,64.47,48.89,64.47z"/>
	<path class="st1" d="M49.49,64.72c0.08,0.08,0.14,0.17,0.19,0.28C49.63,64.9,49.57,64.8,49.49,64.72z"/>
	<path class="st1" d="M68.24,72.53c0,0-0.01,0-0.01,0c0.07,0,0.14,0.03,0.21,0.04C68.37,72.56,68.31,72.53,68.24,72.53z"/>
	<path class="st1" d="M35.9,77.36c0-0.08,0.03-0.15,0.04-0.23C35.93,77.21,35.9,77.28,35.9,77.36z"/>
	<path class="st1" d="M89.67,88.23c-0.03,0.04-0.06,0.08-0.08,0.12C89.61,88.31,89.64,88.27,89.67,88.23z"/>
	<path class="st1" d="M67.48,81.86c-0.04-0.05-0.08-0.1-0.11-0.17C67.39,81.75,67.44,81.8,67.48,81.86z"/>
	<path class="st1" d="M89.75,88.11c0.03-0.03,0.08-0.05,0.12-0.08C89.83,88.06,89.79,88.08,89.75,88.11z"/>
	<path class="st1" d="M97.56,87.97c-0.05,0.02-0.1,0.02-0.15,0.03C97.46,87.99,97.51,87.99,97.56,87.97z"/>
	<path class="st1" d="M89.52,88.66c0-0.06,0.02-0.1,0.03-0.16c-0.01,0.05-0.03,0.09-0.03,0.14C89.52,88.65,89.52,88.66,89.52,88.66z
		"/>
	<path class="st1" d="M98.03,87.27c0,0,0-0.01,0-0.01c0,0.06-0.02,0.1-0.03,0.16C98.01,87.37,98.03,87.32,98.03,87.27z"/>
	<path class="st1" d="M97.8,87.81c-0.04,0.03-0.08,0.06-0.12,0.08C97.72,87.86,97.77,87.84,97.8,87.81z"/>
	<path class="st1" d="M97.97,87.56c-0.02,0.05-0.05,0.08-0.08,0.12C97.91,87.64,97.95,87.61,97.97,87.56z"/>
	<path class="st1" d="M90.15,87.92c-0.05,0.01-0.1,0.01-0.15,0.03C90.05,87.93,90.1,87.93,90.15,87.92z"/>
	<path class="st1" d="M68.18,82.23c0.05,0,0.09-0.02,0.14-0.03C68.26,82.21,68.22,82.23,68.18,82.23
		C68.17,82.23,68.17,82.23,68.18,82.23z"/>
	<path class="st1" d="M68.79,81.98c-0.09,0.08-0.19,0.14-0.29,0.19C68.61,82.12,68.71,82.06,68.79,81.98z"/>
	<path class="st1" d="M67.84,82.16c-0.1-0.04-0.2-0.11-0.28-0.19C67.63,82.05,67.73,82.12,67.84,82.16z"/>
	<path class="st1" d="M81.16,69.79c-0.02,0.05-0.06,0.1-0.1,0.15C81.09,69.89,81.13,69.85,81.16,69.79z"/>
	<path class="st1" d="M81.22,69.47c0,0.06-0.02,0.11-0.03,0.16C81.2,69.58,81.22,69.53,81.22,69.47z"/>
	<path class="st1" d="M56.98,64.65c0.28,0.24,0.44,0.56,0.42,0.9C57.42,65.21,57.26,64.89,56.98,64.65z"/>
	<path class="st1" d="M55.66,66.66c-0.58-0.04-1.05-0.31-1.32-0.68C54.61,66.35,55.08,66.62,55.66,66.66
		C55.66,66.66,55.66,66.66,55.66,66.66c0.91,0.07,1.69-0.43,1.74-1.11c0,0,0,0,0,0C57.35,66.23,56.57,66.73,55.66,66.66z"/>
	<path class="st1" d="M55.84,64.21c0.46,0.03,0.86,0.2,1.14,0.44C56.7,64.41,56.3,64.24,55.84,64.21c-0.91-0.07-1.69,0.43-1.74,1.11
		v0C54.15,64.64,54.93,64.14,55.84,64.21z"/>
	<path class="st1" d="M69.72,61.04c0.04-0.02,0.08-0.04,0.13-0.03C69.81,61,69.77,61.03,69.72,61.04z"/>
	<path class="st1" d="M89.61,85.64c-0.06-0.1-0.09-0.2-0.1-0.32C89.52,85.44,89.56,85.55,89.61,85.64z"/>
	<polygon class="st1" points="89.5,85.26 89.5,85.26 89.54,64.15 	"/>
	<path class="st1" d="M89.57,43.03L89.57,43.03c0-0.18,0.07-0.33,0.17-0.47C89.64,42.7,89.57,42.86,89.57,43.03z"/>
	<path class="st1" d="M89.8,42.49c0.02-0.02,0.05-0.03,0.08-0.05C89.85,42.46,89.82,42.47,89.8,42.49z"/>
	<path class="st1" d="M95.74,85.93c-0.1,0.06-0.2,0.09-0.32,0.1C95.54,86.02,95.64,85.99,95.74,85.93z"/>
	<polygon class="st1" points="95.36,86.04 95.36,86.04 92.81,86.04 	"/>
	<path class="st1" d="M90.27,86.04C90.27,86.04,90.27,86.04,90.27,86.04c-0.11,0-0.21-0.02-0.3-0.06
		C90.06,86.01,90.16,86.04,90.27,86.04z"/>
	<path class="st1" d="M96.04,29.83c0.04,0.04,0.06,0.08,0.09,0.13C96.1,29.91,96.07,29.86,96.04,29.83z"/>
	<path class="st1" d="M50.19,82.24c0.04-0.04,0.1-0.06,0.15-0.09C50.28,82.17,50.23,82.2,50.19,82.24z"/>
	<polygon class="st1" points="90.34,42.27 90.34,42.27 90.35,42.27 	"/>
	<path class="st1" d="M96.21,30.08c0.02,0.05,0.02,0.1,0.03,0.16C96.23,30.19,96.23,30.13,96.21,30.08z"/>
	<path class="st1" d="M95.98,42.5c0.14,0.14,0.22,0.33,0.22,0.54l-0.04,21.11l0.04-21.11C96.21,42.83,96.12,42.64,95.98,42.5z"/>
	<path class="st1" d="M95.79,29.66c0.05,0.02,0.08,0.06,0.12,0.08C95.87,29.71,95.83,29.68,95.79,29.66z"/>
	<path class="st1" d="M95.49,29.59c0,0-0.01,0-0.01,0c0.06,0,0.11,0.02,0.16,0.03C95.58,29.61,95.54,29.59,95.49,29.59z"/>
	<path class="st1" d="M81.16,69.15c0.02,0.05,0.02,0.11,0.03,0.16C81.18,69.25,81.18,69.2,81.16,69.15z"/>
	<path class="st1" d="M61.53,64.9c0.03-0.06,0.08-0.1,0.12-0.15C61.61,64.81,61.56,64.85,61.53,64.9z"/>
	<path class="st1" d="M68.48,56.67c0.05,0.02,0.09,0.04,0.14,0.07C68.58,56.71,68.53,56.68,68.48,56.67z"/>
	<path class="st1" d="M68.19,56.63c0.05,0,0.1,0,0.15,0.01C68.29,56.63,68.24,56.63,68.19,56.63z"/>
	<path class="st1" d="M80.97,68.87C80.97,68.87,80.97,68.86,80.97,68.87c0.04,0.04,0.06,0.09,0.09,0.14
		C81.03,68.96,81.01,68.91,80.97,68.87z"/>
	<path class="st1" d="M67.91,56.7c0.04-0.02,0.09-0.03,0.14-0.04C68,56.67,67.96,56.68,67.91,56.7z"/>
	<path class="st1" d="M67.69,56.85c-0.02,0.02-0.04,0.04-0.05,0.06c0.04-0.05,0.1-0.09,0.15-0.12
		C67.76,56.81,67.72,56.82,67.69,56.85z"/>
	<path class="st1" d="M61.76,64.62c0.05-0.04,0.11-0.06,0.16-0.09C61.87,64.56,61.81,64.58,61.76,64.62z"/>
	<path class="st1" d="M62.08,64.44c0.06-0.02,0.13-0.02,0.19-0.02C62.21,64.42,62.14,64.42,62.08,64.44z"/>
	<path class="st1" d="M61.43,65.27C61.43,65.27,61.43,65.27,61.43,65.27c0-0.06,0.03-0.12,0.05-0.18
		C61.46,65.15,61.43,65.2,61.43,65.27z"/>
	<path class="st1" d="M78.54,69.36c0,0.04-0.01,0.09-0.02,0.13C78.52,69.45,78.54,69.41,78.54,69.36z"/>
	<path class="st1" d="M49.88,82.9c0-0.07,0.03-0.14,0.05-0.21c-0.01,0.05-0.04,0.09-0.04,0.14C49.88,82.85,49.88,82.88,49.88,82.9z"
		/>
	<path class="st1" d="M78.32,68.87c0.04,0.03,0.05,0.08,0.08,0.12C78.38,68.95,78.36,68.91,78.32,68.87
		C78.33,68.88,78.32,68.88,78.32,68.87z"/>
	<path class="st1" d="M69.48,61.31c0.01-0.09,0.06-0.16,0.12-0.22c-0.01,0.01-0.02,0-0.02,0.01C69.52,61.16,69.49,61.23,69.48,61.31
		z"/>
	<path class="st2" d="M97.26,27.95L38.6,27.83c-0.43,0-0.77,0.34-0.77,0.77l0.01,7.32c0,0.43-0.34,0.77-0.77,0.77l-8.33-0.01
		c-0.43,0-0.77,0.34-0.77,0.77l0.04,59.97c0,0.43,0.34,0.77,0.77,0.77h59.95c0.43,0,0.77-0.34,0.77-0.77l0.02-8.74
		c0,0,0-0.01,0-0.01c0-0.05,0.02-0.1,0.03-0.14c0.01-0.05,0.01-0.1,0.03-0.15c0.02-0.05,0.05-0.08,0.08-0.12
		c0.03-0.04,0.05-0.09,0.08-0.12c0.03-0.03,0.08-0.05,0.12-0.08c0.04-0.03,0.08-0.06,0.13-0.08c0.05-0.02,0.1-0.02,0.15-0.03
		c0.05-0.01,0.1-0.03,0.16-0.03l6.94,0.14c0,0,0.01,0,0.01,0c0.05,0,0.1-0.02,0.14-0.03c0.05-0.01,0.1-0.01,0.15-0.03
		c0.05-0.02,0.08-0.05,0.12-0.08c0.04-0.03,0.09-0.05,0.12-0.08c0.03-0.03,0.06-0.08,0.08-0.12c0.03-0.04,0.06-0.08,0.08-0.12
		c0.02-0.05,0.02-0.1,0.03-0.15c0.01-0.05,0.03-0.1,0.03-0.16V28.72C98.03,28.29,97.69,27.95,97.26,27.95z M87.56,95.54
		c0,0.42-0.34,0.76-0.76,0.76H30.59c-0.42,0-0.76-0.34-0.76-0.76V51.65c0-0.42,0.34-0.76,0.76-0.76H86.8c0.42,0,0.76,0.34,0.76,0.76
		V95.54z M87.59,47.85c0,0.46-0.37,0.83-0.83,0.83H30.71c-0.46,0-0.83-0.37-0.83-0.83V39.4c0-0.46,0.37-0.83,0.83-0.83h56.04
		c0.46,0,0.83,0.37,0.83,0.83V47.85z M96.13,85.28c0,0.28-0.16,0.52-0.39,0.65c-0.1,0.06-0.2,0.09-0.32,0.1
		c-0.02,0-0.04,0.01-0.06,0.01h0l0,0l-2.55,0l-2.55,0c0,0,0,0,0,0c-0.11,0-0.21-0.02-0.3-0.06c-0.15-0.07-0.27-0.19-0.36-0.33
		c-0.06-0.1-0.09-0.2-0.1-0.32c0-0.02-0.01-0.04-0.01-0.06v0l0,0l0.04-21.11l0.04-21.11v0c0-0.18,0.07-0.33,0.17-0.47
		c0.02-0.03,0.03-0.06,0.05-0.08c0.02-0.02,0.05-0.03,0.08-0.05c0.13-0.1,0.29-0.17,0.46-0.17h0l0,0h0.01l5.08,0.01
		c0.21,0,0.41,0.09,0.54,0.23c0.14,0.14,0.22,0.33,0.22,0.54l-0.04,21.11L96.13,85.28z M96.27,30.4l-0.07,9.18
		c0,0.44-0.36,0.79-0.79,0.79l-4.99,0.04c-0.39,0.01-0.73-0.27-0.79-0.66l-0.37-2.37c-0.06-0.39-0.39-0.67-0.78-0.67l-47.69-0.06
		c-0.44,0-0.79-0.36-0.79-0.79v-5.39c0-0.44,0.36-0.79,0.79-0.79l54.71-0.07c0,0,0.01,0,0.01,0c0.05,0,0.1,0.02,0.15,0.03
		c0.05,0.01,0.11,0.01,0.16,0.03c0.05,0.02,0.08,0.06,0.12,0.08c0.04,0.03,0.09,0.05,0.13,0.09c0.04,0.04,0.06,0.08,0.09,0.13
		c0.03,0.04,0.06,0.08,0.08,0.13c0.02,0.05,0.02,0.1,0.03,0.16c0.01,0.05,0.03,0.09,0.03,0.15C96.27,30.39,96.27,30.39,96.27,30.4z"
		/>
	<path class="st3" d="M96.21,30.08c-0.02-0.05-0.05-0.08-0.08-0.13c-0.03-0.04-0.05-0.09-0.09-0.13c-0.04-0.04-0.08-0.06-0.13-0.09
		c-0.04-0.03-0.08-0.06-0.12-0.08c-0.05-0.02-0.1-0.02-0.16-0.03c-0.05-0.01-0.1-0.03-0.16-0.03l-54.71,0.07
		c-0.44,0-0.79,0.36-0.79,0.79v5.39c0,0.44,0.36,0.79,0.79,0.79l47.69,0.06c0.39,0,0.72,0.29,0.78,0.67l0.37,2.37
		c0.07,0.39,0.4,0.66,0.79,0.66l4.99-0.04c0.44,0,0.79-0.36,0.79-0.79l0.07-9.18c0,0,0-0.01,0-0.01c0-0.05-0.02-0.1-0.03-0.15
		C96.23,30.19,96.23,30.13,96.21,30.08z"/>
	<path class="st3" d="M86.75,38.57H30.71c-0.46,0-0.83,0.37-0.83,0.83v8.45c0,0.46,0.37,0.83,0.83,0.83h56.04
		c0.46,0,0.83-0.37,0.83-0.83V39.4C87.59,38.94,87.21,38.57,86.75,38.57z"/>
	<path class="st4" d="M95.98,42.5c-0.14-0.14-0.33-0.23-0.54-0.23l-5.08-0.01h-0.01h0c-0.18,0-0.33,0.07-0.46,0.17
		c-0.03,0.02-0.06,0.03-0.08,0.05c-0.02,0.02-0.03,0.05-0.05,0.08c-0.1,0.13-0.17,0.29-0.17,0.47l-0.04,21.11L89.5,85.26v0
		c0,0.02,0.01,0.04,0.01,0.06c0.01,0.12,0.05,0.22,0.1,0.32c0.08,0.14,0.2,0.26,0.36,0.33c0.09,0.04,0.19,0.06,0.3,0.06l2.55,0
		l2.55,0h0c0.02,0,0.04-0.01,0.06-0.01c0.12-0.01,0.22-0.05,0.32-0.1c0.23-0.13,0.39-0.37,0.39-0.65l0.04-21.11l0.04-21.11
		C96.21,42.83,96.12,42.64,95.98,42.5z"/>
	<path class="st4" d="M86.8,50.89H30.59c-0.42,0-0.76,0.34-0.76,0.76v43.89c0,0.42,0.34,0.76,0.76,0.76H86.8
		c0.42,0,0.76-0.34,0.76-0.76V51.65C87.56,51.23,87.22,50.89,86.8,50.89z M54.1,65.32c0.05-0.68,0.83-1.17,1.74-1.11
		c0.46,0.03,0.86,0.2,1.14,0.44c0.28,0.24,0.44,0.56,0.42,0.9c0,0,0,0,0,0c-0.05,0.68-0.83,1.17-1.74,1.11c0,0,0,0,0,0
		c-0.58-0.04-1.05-0.31-1.32-0.68C54.19,65.78,54.09,65.56,54.1,65.32L54.1,65.32L54.1,65.32z M61.09,82.37
		c-1.2-0.05-2.15-0.59-2.12-1.21c0.03-0.62,1.02-1.07,2.22-1.02s2.15,0.59,2.12,1.21S62.29,82.43,61.09,82.37z M81.19,69.63
		c-0.01,0.05-0.01,0.11-0.03,0.16c-0.02,0.05-0.06,0.1-0.1,0.15c-0.03,0.05-0.05,0.1-0.09,0.14c0,0,0,0-0.01,0.01l-12.17,11.9
		c-0.08,0.08-0.18,0.14-0.29,0.19c-0.06,0.02-0.13,0.03-0.19,0.04c-0.05,0.01-0.09,0.03-0.14,0.03c0,0,0,0,0,0
		c-0.11,0-0.23-0.02-0.34-0.07c-0.11-0.04-0.2-0.11-0.28-0.19c0,0,0,0,0,0c-0.03-0.03-0.05-0.07-0.07-0.11
		c-0.04-0.05-0.08-0.1-0.11-0.17c-0.04-0.1-0.07-0.22-0.06-0.33l-0.02-5.8c0-0.77-0.39-1.16-1.16-1.16l-16.8,0.14
		c-1.05,0.01-1.54-0.51-1.45-1.56c0.12-1.41,0.07-2.75-0.14-4.02c-0.09-0.59-0.35-0.67-0.77-0.25l-7.1,7.12
		c-1.19,1.2-1.14,2.35,0.16,3.44c1.94,1.62,3.83,3.48,5.69,5.56c1.77,2,2.47,1.67,2.1-0.97c-0.37-2.67,0.58-3.92,2.84-3.75
		c1.03,0.07,2.14,0.06,3.34-0.05c0.8-0.07,1.2,0.3,1.18,1.11l-0.01,0.56c-0.01,0.42-0.22,0.62-0.63,0.58L50.87,82
		c-0.07-0.01-0.14,0.01-0.21,0.02c-0.06,0.01-0.12,0.01-0.18,0.03c-0.05,0.02-0.1,0.05-0.15,0.08c-0.05,0.03-0.1,0.06-0.15,0.09
		c-0.04,0.04-0.07,0.09-0.11,0.13c-0.04,0.05-0.07,0.09-0.1,0.14c-0.03,0.05-0.04,0.12-0.05,0.17c-0.02,0.07-0.05,0.13-0.05,0.21
		l-0.2,6.48c0,0,0,0.01,0,0.01c0,0.05-0.02,0.09-0.03,0.13c-0.01,0.05-0.02,0.09-0.04,0.14c-0.02,0.04-0.05,0.07-0.08,0.11
		c-0.03,0.04-0.05,0.08-0.08,0.11c-0.03,0.03-0.08,0.05-0.12,0.07c-0.04,0.02-0.07,0.05-0.12,0.07c-0.04,0.02-0.09,0.02-0.14,0.02
		c-0.04,0.01-0.09,0.02-0.13,0.02c0,0-0.01,0-0.01,0c-0.4-0.02-0.74-0.17-1.03-0.45c-3.73-3.59-7.61-7.39-11.64-11.41
		c-0.01-0.01-0.01-0.01-0.02-0.02c-0.05-0.06-0.08-0.13-0.12-0.19c-0.04-0.07-0.1-0.12-0.13-0.2c-0.03-0.07-0.03-0.15-0.04-0.22
		c-0.01-0.07-0.04-0.15-0.04-0.22c0-0.08,0.03-0.15,0.04-0.23c0.02-0.07,0.02-0.15,0.05-0.22c0.03-0.07,0.09-0.13,0.13-0.2
		c0.04-0.06,0.07-0.13,0.12-0.19c0.01-0.01,0.01-0.01,0.02-0.02l12.01-11.77c0.08-0.08,0.18-0.15,0.28-0.19
		c0.1-0.04,0.22-0.06,0.33-0.06c0,0,0,0,0,0c0.03,0,0.06,0.02,0.09,0.02c0.08,0.01,0.16,0.02,0.23,0.05
		c0.07,0.03,0.13,0.08,0.2,0.13c0.03,0.02,0.06,0.03,0.08,0.05c0,0,0,0,0,0c0.08,0.08,0.14,0.17,0.19,0.28
		c0.04,0.1,0.07,0.22,0.07,0.33l-0.01,5.92c-0.01,0.92,0.45,1.38,1.38,1.38l17.12-0.11c0,0,0.01,0,0.01,0c0.07,0,0.13,0.03,0.2,0.04
		c0.07,0.01,0.14,0.02,0.21,0.04c0.06,0.03,0.11,0.07,0.17,0.11c0.06,0.04,0.12,0.07,0.17,0.12c0.05,0.05,0.08,0.11,0.11,0.17
		c0.04,0.06,0.08,0.1,0.11,0.17c0.03,0.06,0.03,0.14,0.04,0.21c0.01,0.07,0.04,0.13,0.04,0.2c0,0,0,0.01,0,0.01l-0.07,4.32
		c-0.02,0.75,0.24,0.85,0.76,0.32l8.38-8.38c0.03-0.03,0.05-0.08,0.08-0.12c0.02-0.04,0.06-0.07,0.07-0.12
		c0.02-0.04,0.02-0.09,0.02-0.13c0.01-0.04,0.02-0.09,0.02-0.13c0-0.04-0.02-0.09-0.03-0.13c-0.01-0.04-0.01-0.09-0.03-0.13
		c-0.02-0.04-0.05-0.08-0.08-0.11c-0.03-0.04-0.05-0.08-0.08-0.12l-8.23-7.78c-0.06-0.06-0.15-0.09-0.23-0.09
		c-0.05,0-0.09,0.02-0.13,0.03c-0.04,0.01-0.09,0.02-0.12,0.05c-0.06,0.06-0.11,0.13-0.12,0.22c-0.12,0.79-0.14,1.59-0.04,2.38
		c0.22,1.82-0.58,2.73-2.41,2.73l-4.99,0.01c-0.47,0-0.69-0.24-0.65-0.71l0.04-0.46c0,0,0,0,0-0.01c0.01-0.06,0.03-0.12,0.05-0.18
		c0.02-0.06,0.02-0.13,0.05-0.18c0.03-0.06,0.08-0.1,0.12-0.15c0.04-0.05,0.07-0.1,0.11-0.14c0.05-0.04,0.11-0.06,0.16-0.09
		c0.05-0.03,0.1-0.07,0.16-0.09c0.06-0.02,0.13-0.02,0.19-0.02c0.06-0.01,0.12-0.03,0.18-0.02c0,0,0,0,0.01,0l3.83,0.29
		c0.4,0.03,0.75-0.27,0.78-0.67c0.17-2.05,0.25-4.09,0.24-6.11c0-0.37,0.11-0.7,0.34-0.98c0.02-0.02,0.03-0.04,0.05-0.06
		c0.03-0.03,0.06-0.04,0.09-0.06c0.04-0.03,0.08-0.06,0.13-0.09c0.04-0.02,0.09-0.03,0.14-0.04c0.05-0.01,0.09-0.03,0.14-0.03
		c0.05,0,0.1,0,0.15,0.01c0.05,0.01,0.1,0.01,0.14,0.03c0.05,0.02,0.09,0.04,0.14,0.07c0.03,0.02,0.07,0.03,0.1,0.05
		c0.02,0.02,0.04,0.03,0.06,0.05l12.18,12.02c0,0,0,0,0.01,0.01c0.04,0.04,0.06,0.09,0.09,0.14c0.03,0.05,0.07,0.09,0.1,0.15
		c0.02,0.05,0.02,0.11,0.03,0.16c0.01,0.05,0.03,0.11,0.03,0.16C81.22,69.53,81.2,69.58,81.19,69.63z"/>
	<path class="st2" d="M81.19,69.31c-0.01-0.05-0.01-0.11-0.03-0.16c-0.02-0.05-0.06-0.1-0.1-0.15c-0.03-0.05-0.05-0.1-0.09-0.14
		L68.78,56.84c-0.02-0.02-0.04-0.04-0.06-0.05c-0.03-0.02-0.07-0.03-0.1-0.05c-0.04-0.03-0.09-0.05-0.14-0.07
		c-0.05-0.02-0.09-0.02-0.14-0.03c-0.05-0.01-0.1-0.01-0.15-0.01c-0.05,0-0.1,0.02-0.14,0.03c-0.05,0.01-0.09,0.02-0.14,0.04
		c-0.05,0.02-0.09,0.05-0.13,0.09c-0.05,0.04-0.11,0.07-0.15,0.12c-0.22,0.28-0.34,0.61-0.34,0.98c0.02,2.02-0.06,4.06-0.24,6.11
		c-0.03,0.4-0.38,0.7-0.78,0.67l-3.83-0.29c0,0,0,0-0.01,0c-0.06,0-0.12,0.02-0.18,0.02c-0.06,0.01-0.13,0-0.19,0.02
		c-0.06,0.02-0.1,0.06-0.16,0.09c-0.05,0.03-0.12,0.05-0.16,0.09c-0.05,0.04-0.07,0.09-0.11,0.14c-0.04,0.05-0.09,0.09-0.12,0.15
		c-0.03,0.06-0.04,0.12-0.05,0.18c-0.02,0.06-0.05,0.12-0.05,0.19l-0.04,0.46c-0.04,0.47,0.17,0.71,0.65,0.71l4.99-0.01
		c1.83,0,2.63-0.91,2.41-2.73c-0.1-0.79-0.09-1.59,0.04-2.38c0.01-0.08,0.04-0.15,0.1-0.2c0.01-0.01,0.02,0,0.02-0.01
		c0.04-0.03,0.08-0.04,0.12-0.05c0.05-0.02,0.08-0.04,0.13-0.03c0.08,0.01,0.17,0.03,0.23,0.09l8.23,7.78c0,0,0,0,0.01,0.01
		c0.03,0.03,0.05,0.07,0.07,0.11c0.03,0.04,0.06,0.07,0.08,0.11c0.02,0.04,0.02,0.09,0.03,0.13c0.01,0.04,0.03,0.09,0.03,0.13
		c0,0.04-0.01,0.09-0.02,0.13c-0.01,0.04-0.01,0.09-0.02,0.13c-0.02,0.04-0.05,0.08-0.07,0.12c-0.02,0.04-0.04,0.08-0.08,0.12
		l-8.38,8.38c-0.52,0.53-0.77,0.42-0.76-0.32l0.07-4.32c0,0,0-0.01,0-0.01c0-0.07-0.03-0.13-0.04-0.2
		c-0.01-0.07-0.02-0.14-0.04-0.21c-0.03-0.06-0.07-0.11-0.11-0.17c-0.04-0.06-0.07-0.12-0.11-0.17c-0.05-0.05-0.11-0.08-0.17-0.12
		c-0.06-0.04-0.1-0.09-0.17-0.11c-0.06-0.03-0.14-0.03-0.21-0.04c-0.07-0.01-0.14-0.04-0.21-0.04l-17.12,0.11
		c-0.93,0-1.39-0.46-1.38-1.38l0.01-5.92c0-0.12-0.02-0.23-0.07-0.33c-0.04-0.1-0.11-0.2-0.19-0.28c0,0,0,0,0,0
		c-0.02-0.02-0.05-0.03-0.08-0.05c-0.06-0.05-0.12-0.1-0.2-0.13c-0.07-0.03-0.15-0.04-0.23-0.05c-0.03,0-0.06-0.02-0.09-0.02
		c-0.11,0-0.22,0.02-0.33,0.06c-0.1,0.04-0.2,0.1-0.28,0.19L36.26,76.5c-0.01,0.01-0.01,0.01-0.02,0.02
		c-0.05,0.06-0.08,0.13-0.12,0.19c-0.04,0.07-0.1,0.13-0.13,0.2c-0.03,0.07-0.03,0.15-0.05,0.22c-0.02,0.08-0.04,0.15-0.04,0.23
		c0,0.08,0.03,0.15,0.04,0.22c0.01,0.08,0.02,0.15,0.04,0.22c0.03,0.07,0.08,0.13,0.13,0.2c0.05,0.07,0.08,0.14,0.14,0.2
		c4.02,4.02,7.9,7.83,11.64,11.41c0.29,0.27,0.63,0.42,1.03,0.45c0,0,0.01,0,0.01,0c0.05,0,0.09-0.01,0.13-0.02
		c0.05-0.01,0.1-0.01,0.14-0.02c0.04-0.02,0.08-0.05,0.12-0.07c0.04-0.02,0.08-0.04,0.12-0.07c0.03-0.03,0.06-0.07,0.08-0.11
		c0.03-0.04,0.06-0.07,0.08-0.11c0.02-0.04,0.02-0.09,0.04-0.14c0.01-0.05,0.03-0.09,0.03-0.14l0.2-6.48c0-0.02,0-0.04,0-0.07
		c0-0.05,0.03-0.09,0.04-0.14c0.02-0.06,0.03-0.12,0.05-0.17c0.03-0.05,0.06-0.1,0.1-0.14c0.04-0.05,0.07-0.1,0.11-0.13
		c0.04-0.04,0.1-0.06,0.15-0.09c0.05-0.03,0.1-0.06,0.15-0.08c0.06-0.02,0.12-0.02,0.18-0.03C50.73,82.02,50.8,82,50.87,82l3.65,0.3
		c0.41,0.03,0.63-0.16,0.63-0.58l0.01-0.56c0.02-0.8-0.38-1.17-1.18-1.11c-1.2,0.11-2.31,0.12-3.34,0.05
		c-2.27-0.17-3.22,1.08-2.84,3.75c0.37,2.64-0.33,2.96-2.1,0.97c-1.85-2.09-3.75-3.94-5.69-5.56c-1.3-1.09-1.35-2.24-0.16-3.44
		l7.1-7.12c0.42-0.42,0.68-0.34,0.77,0.25c0.21,1.28,0.25,2.62,0.14,4.02c-0.08,1.05,0.4,1.57,1.45,1.56l16.8-0.14
		c0.77,0,1.16,0.39,1.16,1.16l0.02,5.8c0,0.12,0.02,0.23,0.06,0.33c0.03,0.06,0.07,0.11,0.11,0.17c0.03,0.04,0.04,0.08,0.07,0.11
		c0,0,0,0,0,0c0.08,0.08,0.18,0.15,0.28,0.19c0.11,0.04,0.22,0.07,0.34,0.07c0.05,0,0.09-0.02,0.14-0.03
		c0.07-0.01,0.13-0.01,0.19-0.04c0.1-0.04,0.2-0.1,0.29-0.19l12.17-11.9c0,0,0,0,0.01-0.01c0.04-0.04,0.06-0.09,0.09-0.14
		c0.03-0.05,0.07-0.09,0.1-0.15c0.02-0.05,0.02-0.11,0.03-0.16c0.01-0.05,0.03-0.11,0.03-0.16C81.22,69.42,81.2,69.36,81.19,69.31z"
		/>
	<path class="st2" d="M54.34,65.99c0.27,0.36,0.74,0.63,1.32,0.68c0.91,0.07,1.69-0.43,1.74-1.11c0.02-0.34-0.14-0.66-0.42-0.9
		c-0.28-0.24-0.68-0.41-1.14-0.44c-0.91-0.07-1.69,0.43-1.74,1.11l0,0C54.09,65.56,54.19,65.78,54.34,65.99z"/>
	<path class="st2" d="M61.19,80.14c-1.2-0.05-2.19,0.41-2.22,1.02c-0.03,0.62,0.92,1.16,2.12,1.21c1.2,0.05,2.19-0.41,2.22-1.02
		S62.39,80.19,61.19,80.14z"/>
</g>
</svg>
