<?xml version="1.0" encoding="utf-8"?>
<!-- Generator: Adobe Illustrator 28.0.0, SVG Export Plug-In . SVG Version: 6.00 Build 0)  -->
<svg version="1.1" id="Capa_1" xmlns="http://www.w3.org/2000/svg" xmlns:xlink="http://www.w3.org/1999/xlink" x="0px" y="0px"
	 viewBox="0 0 126 126" style="enable-background:new 0 0 126 126;" xml:space="preserve">
<style type="text/css">
	.st0{fill:#FFFFFF;stroke:#1DA9FC;stroke-miterlimit:10;}
	.st1{fill:none;}
	.st2{fill:#16517E;}
	.st3{fill:#B3DFF8;}
</style>
<circle class="st0" cx="63" cy="63" r="59.67"/>
<g>
	<path class="st1" d="M75.65,46.19c0,0,0.01,0.01,0.01,0.02C75.66,46.2,75.66,46.2,75.65,46.19C75.66,46.19,75.65,46.19,75.65,46.19
		z"/>
	<path class="st1" d="M78.85,50.88c0-0.02,0-0.04,0-0.06c0,0.06-0.02,0.1-0.03,0.16C78.82,50.94,78.84,50.91,78.85,50.88z"/>
	<path class="st1" d="M84.14,101.07c-0.01-0.02-0.02-0.03-0.04-0.05c0.04,0.05,0.06,0.11,0.09,0.17
		C84.17,101.15,84.17,101.11,84.14,101.07z"/>
	<path class="st1" d="M67.41,67.48c-0.03,0.04-0.08,0.06-0.12,0.08c0.02-0.01,0.04-0.01,0.05-0.03
		C67.37,67.52,67.39,67.5,67.41,67.48z"/>
	<path class="st1" d="M60.56,76.18c0-0.01,0-0.02,0-0.03c0,0.05-0.01,0.09-0.02,0.14C60.55,76.26,60.56,76.22,60.56,76.18z"/>
	<path class="st1" d="M34.09,23.93c-0.02,0.05-0.03,0.1-0.03,0.15c0-0.06,0.02-0.12,0.04-0.17C34.1,23.92,34.09,23.93,34.09,23.93z"
		/>
	<path class="st1" d="M68.72,80.53c0.04,0.05,0.05,0.12,0.05,0.18c0-0.01,0.01-0.02,0-0.03C68.77,80.62,68.75,80.57,68.72,80.53z"/>
	<path class="st1" d="M78.12,31.39c-0.01,0.07-0.03,0.13-0.05,0.19c0.01-0.02,0.02-0.04,0.03-0.06
		C78.11,31.48,78.12,31.44,78.12,31.39z"/>
	<path class="st1" d="M78.33,44.53C78.33,44.53,78.33,44.53,78.33,44.53c0.04,0,0.07,0.01,0.1,0.02
		C78.39,44.55,78.36,44.53,78.33,44.53z"/>
	<path class="st1" d="M71.06,80.95c0.06,0.07,0.09,0.15,0.12,0.23c-0.01-0.03-0.01-0.06-0.03-0.09C71.13,81.04,71.1,81,71.06,80.95z
		"/>
	<path class="st1" d="M77.04,71.94c0.02,0.03,0.04,0.06,0.05,0.1c-0.01-0.01-0.01-0.03-0.01-0.04
		C77.06,71.97,77.05,71.95,77.04,71.94z"/>
	<path class="st1" d="M81.8,98.23c-0.03-0.03-0.05-0.07-0.07-0.11c0.02,0.03,0.04,0.07,0.06,0.1C81.79,98.23,81.8,98.23,81.8,98.23z
		"/>
	<path class="st1" d="M81.9,69.67c0.02,0.03,0.03,0.06,0.04,0.08c-0.01-0.02-0.02-0.05-0.03-0.07C81.91,69.68,81.9,69.68,81.9,69.67
		z"/>
	<path class="st1" d="M94.69,83.45c-0.03-0.04-0.07-0.07-0.11-0.1c0.05,0.03,0.09,0.08,0.12,0.12C94.7,83.46,94.7,83.46,94.69,83.45
		z"/>
	<path class="st2" d="M59.96,76.8c0.04,0,0.07-0.02,0.1-0.03c0.04-0.01,0.08-0.01,0.12-0.03c0.04-0.02,0.07-0.04,0.1-0.07
		c0.03-0.02,0.07-0.04,0.1-0.07c0.03-0.03,0.05-0.06,0.07-0.1c0.02-0.03,0.05-0.06,0.06-0.1c0.02-0.04,0.02-0.08,0.03-0.12
		c0.01-0.05,0.02-0.09,0.02-0.14l-0.01-0.33c-0.01-0.39-0.21-0.58-0.59-0.58c-10.6-0.03-20.33-0.03-29.18,0.02
		c-2.55,0.01-4.8-1.15-5.44-3.76c-0.09-0.36-0.14-2.18-0.14-5.44c-0.02-8.81-0.01-17.65,0.02-26.5c0-0.32,0.16-0.48,0.48-0.48
		l60.77,0.03c0.19,0,0.34,0.16,0.34,0.35l-0.01,22.56c0,0.26,0.12,0.51,0.32,0.67c0.27,0.23,0.55,0.32,0.83,0.27
		c0.38-0.08,0.58-0.31,0.58-0.7c0.07-10.5,0.06-20.04-0.02-28.63c-0.06-5.89-4.79-7.28-9.83-6.91c-0.35,0.03-0.53-0.13-0.54-0.48
		l-0.05-2.11c-0.02-0.4-0.22-0.56-0.61-0.49l-0.29,0.05c-0.21,0.04-0.36,0.21-0.37,0.42l-0.14,1.94c-0.03,0.39-0.23,0.58-0.62,0.58
		C64.8,26.75,53.32,26.8,41.6,26.78c-1.91-0.01-3.8-0.06-5.66-0.15c-0.23-0.01-0.4-0.2-0.4-0.42l-0.02-1.79
		c-0.01-0.31-0.15-0.52-0.43-0.63l-0.36-0.14c-0.05-0.02-0.1-0.03-0.15-0.03c-0.01,0-0.01,0-0.02,0c-0.04,0-0.07,0.01-0.1,0.02
		c-0.03,0.01-0.06,0.01-0.08,0.02c-0.03,0.01-0.05,0.03-0.08,0.05c-0.03,0.02-0.05,0.03-0.08,0.05c-0.02,0.02-0.03,0.04-0.05,0.07
		c-0.02,0.03-0.04,0.06-0.06,0.09c-0.02,0.05-0.04,0.11-0.04,0.17l-0.08,1.94c-0.01,0.33-0.18,0.52-0.51,0.57
		c-1.79,0.24-3.61-0.01-5.33,0.55c-3.81,1.21-4.56,4.34-4.54,8.16c0.05,10.16,0.05,21.22,0,33.2c-0.02,5.83,2.42,8.44,8.3,8.38
		c10.35-0.11,19.7-0.14,28.03-0.08C59.94,76.81,59.95,76.81,59.96,76.8z M33.45,28.42c0.27,0.04,0.41,0.18,0.43,0.45l0.18,2.62
		c0.02,0.26,0.22,0.47,0.48,0.49c0.26,0.02,0.5-0.07,0.73-0.26c0.15-0.14,0.24-0.34,0.25-0.55l0.02-2.39c0-0.24,0.2-0.43,0.45-0.43
		l40.11,0.1c0.3,0.01,0.46,0.15,0.48,0.45l0.22,2.72c0.01,0.14,0.11,0.26,0.25,0.3l0.24,0.07C77.35,32,77.42,32,77.48,32
		c0.04,0,0.09-0.01,0.13-0.02c0.04-0.01,0.08-0.02,0.12-0.04c0.04-0.02,0.07-0.04,0.11-0.06c0.03-0.02,0.07-0.05,0.09-0.08
		c0.03-0.03,0.05-0.06,0.08-0.1c0.02-0.04,0.04-0.08,0.06-0.12c0.02-0.06,0.05-0.12,0.05-0.19l0.19-2.73
		c0.02-0.26,0.16-0.38,0.42-0.38c1.12,0.02,2.25,0.07,3.38,0.15c5.01,0.36,4.8,4.45,4.73,8.19c-0.01,0.41-0.34,0.74-0.76,0.74H25.7
		c-0.33,0-0.5-0.16-0.52-0.49C24.78,30.37,26.61,27.56,33.45,28.42z"/>
	<path class="st3" d="M25.7,37.37h60.37c0.41,0,0.75-0.33,0.76-0.74c0.08-3.73,0.29-7.83-4.73-8.19c-1.13-0.08-2.26-0.13-3.38-0.15
		c-0.26-0.01-0.4,0.12-0.42,0.38l-0.19,2.73c0,0.04-0.01,0.08-0.02,0.12c-0.01,0.02-0.02,0.04-0.03,0.06
		c-0.02,0.04-0.04,0.08-0.06,0.12c-0.02,0.04-0.05,0.07-0.08,0.1c-0.03,0.03-0.06,0.06-0.09,0.08c-0.03,0.02-0.07,0.04-0.11,0.06
		c-0.04,0.02-0.08,0.03-0.12,0.04C77.57,31.99,77.53,32,77.48,32c-0.06,0-0.13,0-0.19-0.01l-0.24-0.07
		c-0.14-0.04-0.24-0.16-0.25-0.3l-0.22-2.72c-0.02-0.29-0.18-0.44-0.48-0.45l-40.11-0.1c-0.24,0-0.44,0.19-0.45,0.43l-0.02,2.39
		c-0.01,0.21-0.1,0.41-0.25,0.55c-0.22,0.19-0.46,0.28-0.73,0.26c-0.26-0.02-0.46-0.23-0.48-0.49l-0.18-2.62
		c-0.02-0.26-0.16-0.41-0.43-0.45c-6.84-0.86-8.67,1.95-8.28,8.46C25.2,37.2,25.37,37.37,25.7,37.37z"/>
	<path class="st2" d="M75.64,46.57l-6.52,6.17c-0.31,0.29-0.74,0.43-1.17,0.36l-9.38-1.37c-0.53-0.08-1.07,0.1-1.45,0.48l-6.48,6.41
		c-0.4,0.4-0.96,0.59-1.51,0.51l-7.12-0.89c-0.45-0.06-0.9,0.09-1.23,0.41l-9.2,8.86c-0.02,0.02-0.04,0.05-0.05,0.08
		c-0.42,0.8-0.42,1.28,0.01,1.46c0.3,0.13,0.57,0.08,0.81-0.14l8.96-8.53c0.4-0.38,0.95-0.56,1.5-0.48l6.53,0.87
		c0.81,0.11,1.62-0.16,2.2-0.74l6.3-6.25c0.28-0.28,0.62-0.39,1.01-0.33l9.47,1.33c0.57,0.08,1.14-0.11,1.56-0.5l7-6.66
		c0.27-0.25,0.41-0.19,0.42,0.17l0.1,3.22c0,0.21,0.17,0.39,0.38,0.41l0.37,0.05c0.02,0,0.04,0,0.07,0c0.03,0,0.06-0.01,0.1-0.02
		c0.04-0.01,0.09-0.01,0.13-0.02c0.04-0.01,0.07-0.04,0.11-0.06c0.04-0.02,0.07-0.04,0.1-0.07c0.03-0.03,0.05-0.06,0.08-0.09
		c0.03-0.03,0.05-0.06,0.07-0.1c0.02-0.04,0.03-0.08,0.04-0.12c0.01-0.05,0.03-0.1,0.03-0.16l0.06-5.69c0,0,0,0,0,0
		c0-0.03-0.01-0.06-0.02-0.09c-0.01-0.05-0.01-0.1-0.03-0.14c-0.01-0.02-0.03-0.04-0.04-0.06c-0.03-0.05-0.05-0.09-0.09-0.13
		c-0.03-0.03-0.07-0.05-0.11-0.08c-0.02-0.02-0.04-0.04-0.07-0.05c-0.04-0.02-0.09-0.02-0.13-0.03c-0.03-0.01-0.06-0.02-0.1-0.02
		l-5.87-0.05c-0.44-0.01-0.66,0.21-0.64,0.66l0.02,0.36c0.02,0.39,0.22,0.59,0.61,0.59l3.01,0.02c0.04,0,0.07,0.01,0.11,0.02
		c0.01,0,0.02,0.01,0.02,0.02c0.02,0.01,0.04,0.03,0.06,0.05c0,0,0.01,0,0.01,0.01c0,0,0,0.01,0,0.01c0.04,0.05,0.06,0.11,0.06,0.18
		c0,0.01,0,0.01,0,0.02C75.71,46.46,75.69,46.52,75.64,46.57z"/>
	<path class="st2" d="M96.72,82.61c-0.37,0.11-0.71,0.05-1.01-0.2c-2.75-2.2-1.72-6.11-3.86-8.75c-2.48-3.06-5.25-6.49-8.3-10.28
		c-1.81-2.25-4.78-2.5-6.49,0.14c-0.2,0.3-0.47,0.43-0.83,0.37c-1.8-0.28-3.16,0.33-4.08,1.82c-0.19,0.3-0.46,0.43-0.81,0.38
		c-1.5-0.22-2.81,0.24-3.92,1.39c-0.02,0.02-0.04,0.04-0.06,0.06c-0.02,0.01-0.04,0.02-0.05,0.03c-0.03,0.02-0.06,0.03-0.09,0.04
		c-0.03,0.01-0.06,0.02-0.09,0.02c-0.03,0-0.06,0.01-0.1,0c-0.03,0-0.06-0.01-0.09-0.02c-0.03-0.01-0.06-0.02-0.09-0.03
		c-0.03-0.01-0.06-0.03-0.09-0.05c-0.04-0.03-0.08-0.05-0.11-0.09c-1.36-1.83-2.73-3.56-4.1-5.21c-1.43-1.71-3.15-2-5.16-0.86
		c-0.05,0.03-0.09,0.06-0.13,0.11c-1.35,1.74-1.33,3.47,0.06,5.17c3.74,4.58,7.54,9.21,11.41,13.89c0.03,0.04,0.05,0.09,0.05,0.15
		c0,0.01,0,0.02,0,0.03c0,0.01,0,0.02,0,0.02c-0.01,0.06-0.04,0.11-0.08,0.15c-0.01,0.01-0.01,0.01-0.02,0.02
		c-0.04,0.03-0.08,0.05-0.13,0.05c-1.67,0.07-3.33,0.1-5,0.1c-2.63,0-5.57,2.25-4.29,5.09c0.38,0.86,1.07,1.43,2.06,1.73
		c6.05,1.8,11.54,3.41,16.47,4.83c1.16,0.33,2.04,1.08,2.64,2.23c0.15,0.3,0.13,0.66-0.05,0.94c-1.23,1.86,0.2,3.42,1.32,4.79
		c0.5,0.6,1.04,1.15,1.61,1.64c0.13,0.11,0.33,0.12,0.48,0.02l0.17-0.12c0.02-0.01,0.03-0.02,0.05-0.04
		c0.03-0.03,0.05-0.07,0.08-0.1c0.04-0.04,0.08-0.08,0.1-0.12c0.03-0.05,0.04-0.09,0.06-0.14c0.02-0.05,0.04-0.09,0.04-0.15
		c0.01-0.05,0-0.1,0-0.15c0-0.05,0-0.1-0.01-0.15c-0.01-0.05-0.04-0.1-0.06-0.15c-0.03-0.06-0.05-0.12-0.09-0.17l-2.3-2.79
		c0,0-0.01-0.01-0.01-0.01c-0.02-0.03-0.04-0.06-0.06-0.1c-0.02-0.04-0.05-0.07-0.07-0.11c-0.02-0.04-0.03-0.07-0.05-0.11
		c-0.02-0.04-0.03-0.08-0.05-0.11c-0.01-0.04-0.02-0.08-0.02-0.12c-0.01-0.04-0.02-0.08-0.02-0.12c0-0.04,0-0.08,0-0.12
		c0-0.04,0-0.08,0-0.12c0-0.04,0.01-0.08,0.02-0.11c0.01-0.04,0.01-0.08,0.03-0.12c0.01-0.04,0.03-0.07,0.04-0.11
		c0.02-0.04,0.03-0.08,0.05-0.11c0.02-0.04,0.04-0.07,0.07-0.1c0.02-0.03,0.04-0.07,0.07-0.1c0.03-0.03,0.06-0.06,0.09-0.09
		c0.03-0.03,0.06-0.06,0.09-0.09l14.98-12.09c0.5-0.41,1.23-0.34,1.64,0.15l2.64,3.1c0.16,0.19,0.44,0.22,0.64,0.06l0.17-0.13
		c0.39-0.31,0.45-0.67,0.16-1.08C100.6,84.2,99.29,81.85,96.72,82.61z M94.77,83.91c-0.01,0.03-0.02,0.07-0.04,0.1
		c0,0.01,0,0.01-0.01,0.02c-0.03,0.04-0.06,0.08-0.1,0.11L82.3,94.18c-0.22,0.18-0.4,0.15-0.54-0.1c-0.88-1.53-2.04-2.51-3.5-2.93
		c-5.53-1.6-11.08-3.25-16.65-4.94c-0.66-0.2-1.07-0.85-0.98-1.54c0.17-1.24,1.1-1.91,2.79-2c1.95-0.11,3.98-0.13,6.1-0.07
		c0.46,0.01,0.89-0.09,1.28-0.3c0.08-0.04,0.14-0.1,0.2-0.17c0.04-0.04,0.08-0.09,0.11-0.14c0.03-0.05,0.06-0.1,0.08-0.15
		c0.02-0.05,0.04-0.11,0.05-0.16c0.01-0.06,0.02-0.11,0.02-0.17c0-0.06,0-0.11-0.02-0.17c-0.01-0.06-0.03-0.12-0.05-0.17
		c-0.03-0.08-0.06-0.16-0.12-0.23L58.09,65.01c-0.24-0.29-0.34-0.66-0.3-1.02c0.08-0.64,0.33-1.08,0.73-1.33
		c1.03-0.62,1.92-0.46,2.68,0.47l9.39,11.64c0.09,0.12,0.23,0.2,0.38,0.22c0.57,0.09,0.91-0.07,1.01-0.47
		c0.08-0.28,0.03-0.53-0.15-0.76l-3.01-3.85c-0.5-0.64-0.42-1.19,0.24-1.66c0.19-0.14,0.39-0.25,0.6-0.36
		c0.96-0.46,1.77-0.28,2.45,0.54l3.34,4.07c0.32,0.38,0.69,0.45,1.12,0.21l0.33-0.19c0.03-0.02,0.06-0.05,0.08-0.07
		c0.02-0.02,0.04-0.04,0.05-0.06c0.01-0.02,0.02-0.04,0.03-0.07c0.01-0.02,0.02-0.05,0.02-0.07c0-0.02,0.01-0.05,0.01-0.07
		c0-0.02,0-0.05-0.01-0.07c0-0.03-0.01-0.05-0.02-0.07c-0.01-0.03-0.03-0.07-0.05-0.1l-3.14-4.04c-0.69-0.88-0.55-1.61,0.41-2.18
		c0.44-0.27,0.99-0.33,1.64-0.17c0.36,0.08,0.68,0.28,0.92,0.57l3.5,4.19c0.31,0.38,0.87,0.44,1.26,0.15l0.2-0.15
		c0.03-0.02,0.04-0.05,0.06-0.07c0.02-0.02,0.04-0.04,0.06-0.06c0.01-0.02,0.02-0.05,0.03-0.08c0.01-0.03,0.02-0.05,0.02-0.08
		c0-0.03,0-0.06,0-0.08c0-0.03,0-0.06-0.01-0.08c-0.01-0.03-0.02-0.05-0.04-0.08c-0.01-0.03-0.02-0.06-0.04-0.08l-3.18-4.06
		c-0.68-0.86-0.52-1.53,0.46-2.01l0.47-0.23c0.75-0.37,1.65-0.16,2.17,0.49c2.54,3.23,5.16,6.43,7.86,9.62
		c1.7,2.01,2.17,4.17,2.7,6.63c0.29,1.38,1.02,2.46,2.2,3.23c0.04,0.03,0.08,0.06,0.11,0.1c0,0.01,0.01,0.01,0.01,0.02
		c0.02,0.03,0.03,0.06,0.05,0.09c0.01,0.03,0.03,0.05,0.03,0.08c0.01,0.03,0.01,0.06,0.01,0.09c0,0.03,0.01,0.06,0,0.09
		C94.79,83.86,94.78,83.88,94.77,83.91z"/>
	<path class="st3" d="M94.78,83.64c-0.01-0.03-0.02-0.05-0.03-0.08c-0.01-0.03-0.03-0.06-0.05-0.09c-0.03-0.05-0.07-0.09-0.12-0.12
		c-1.18-0.78-1.92-1.86-2.2-3.23c-0.52-2.46-0.99-4.62-2.7-6.63c-2.7-3.19-5.32-6.4-7.86-9.62C81.3,63.2,80.4,63,79.65,63.36
		l-0.47,0.23c-0.98,0.48-1.14,1.15-0.46,2.01l3.18,4.06c0,0,0.01,0.01,0.01,0.01c0.02,0.02,0.02,0.05,0.03,0.07
		c0.01,0.03,0.03,0.05,0.04,0.08c0.01,0.03,0,0.05,0.01,0.08c0,0.03,0.01,0.06,0,0.08c0,0.03-0.02,0.05-0.02,0.08
		c-0.01,0.03-0.01,0.05-0.03,0.08c-0.01,0.02-0.04,0.04-0.06,0.06c-0.02,0.02-0.04,0.05-0.06,0.07l-0.2,0.15
		c-0.39,0.29-0.94,0.23-1.26-0.15l-3.5-4.19c-0.24-0.29-0.56-0.48-0.92-0.57c-0.65-0.15-1.19-0.09-1.64,0.17
		c-0.96,0.58-1.1,1.3-0.41,2.18l3.14,4.04c0.01,0.02,0.03,0.03,0.04,0.05c0.01,0.01,0.01,0.03,0.01,0.04
		c0.01,0.02,0.02,0.05,0.02,0.07c0,0.02,0.01,0.05,0.01,0.07c0,0.02,0,0.05-0.01,0.07c-0.01,0.02-0.01,0.05-0.02,0.07
		c-0.01,0.02-0.02,0.04-0.03,0.07c-0.01,0.02-0.03,0.04-0.05,0.06c-0.03,0.03-0.05,0.05-0.08,0.07l-0.33,0.19
		c-0.43,0.24-0.8,0.17-1.12-0.21l-3.34-4.07c-0.67-0.82-1.49-1-2.45-0.54c-0.21,0.1-0.41,0.22-0.6,0.36
		c-0.66,0.46-0.74,1.02-0.24,1.66l3.01,3.85c0.18,0.23,0.23,0.49,0.15,0.76c-0.11,0.4-0.44,0.56-1.01,0.47
		c-0.15-0.02-0.29-0.1-0.38-0.22l-9.39-11.64c-0.76-0.93-1.65-1.09-2.68-0.47c-0.41,0.24-0.65,0.68-0.73,1.33
		c-0.05,0.37,0.06,0.74,0.3,1.02l12.97,15.95c0.04,0.04,0.07,0.09,0.09,0.14c0.02,0.03,0.02,0.06,0.03,0.09
		c0.02,0.06,0.04,0.11,0.05,0.17c0.01,0.06,0.02,0.11,0.02,0.17c0,0.06-0.01,0.11-0.02,0.17c-0.01,0.06-0.03,0.11-0.05,0.16
		c-0.02,0.05-0.05,0.1-0.08,0.15c-0.03,0.05-0.07,0.09-0.11,0.14c-0.06,0.06-0.12,0.12-0.2,0.17c-0.39,0.21-0.82,0.31-1.28,0.3
		c-2.12-0.06-4.15-0.04-6.1,0.07c-1.69,0.09-2.61,0.76-2.79,2c-0.09,0.68,0.32,1.34,0.98,1.54c5.57,1.69,11.12,3.34,16.65,4.94
		c1.45,0.42,2.62,1.4,3.5,2.93c0.14,0.25,0.32,0.28,0.54,0.1l12.32-10.04c0.04-0.03,0.07-0.07,0.1-0.11c0-0.01,0-0.01,0.01-0.02
		c0.02-0.03,0.03-0.06,0.04-0.1c0.01-0.03,0.02-0.06,0.03-0.08c0-0.03,0-0.06,0-0.09C94.79,83.7,94.79,83.67,94.78,83.64z"/>
</g>
</svg>
