<?xml version="1.0" encoding="utf-8"?>
<!-- Generator: Adobe Illustrator 28.0.0, SVG Export Plug-In . SVG Version: 6.00 Build 0)  -->
<svg version="1.1" id="Capa_1" xmlns="http://www.w3.org/2000/svg" xmlns:xlink="http://www.w3.org/1999/xlink" x="0px" y="0px"
	 viewBox="0 0 126 126" style="enable-background:new 0 0 126 126;" xml:space="preserve">
<style type="text/css">
	.st0{fill:#FFFFFF;stroke:#1DA9FC;stroke-miterlimit:10;}
	.st1{fill:none;}
	.st2{fill:#04487A;}
	.st3{fill:#B3DFF7;}
	.st4{fill:#FFFFFF;}
</style>
<circle class="st0" cx="63" cy="63" r="59.67"/>
<g>
	<path class="st1" d="M71.44,83.29c0.01,0,0.02,0,0.03,0.01c-0.03-0.01-0.06-0.03-0.09-0.06C71.4,83.26,71.42,83.28,71.44,83.29z"/>
	<path class="st1" d="M57.83,69.25c0.04,0,0.07,0.01,0.11,0.02c-0.03-0.01-0.06-0.02-0.1-0.02C57.83,69.25,57.83,69.25,57.83,69.25z
		"/>
	<path class="st1" d="M55.9,70.9c0.07-0.01,0.13,0.01,0.19,0.02c-0.04-0.01-0.08-0.03-0.13-0.03C55.95,70.9,55.93,70.9,55.9,70.9z"
		/>
	<path class="st1" d="M77.66,56.31c-0.02-0.01-0.04-0.01-0.06-0.02c0.04,0.02,0.08,0.04,0.13,0.07
		C77.7,56.34,77.68,56.32,77.66,56.31z"/>
	<path class="st1" d="M53.26,42.17c-0.06-0.03-0.13-0.04-0.2-0.04C53.13,42.13,53.2,42.14,53.26,42.17
		C53.26,42.17,53.26,42.17,53.26,42.17z"/>
	<path class="st1" d="M50.78,43.9c-0.01,0-0.01,0-0.02,0c0.02,0.01,0.04,0.02,0.05,0.03C50.8,43.92,50.79,43.91,50.78,43.9z"/>
	<path class="st1" d="M51.12,75.71c-0.05,0-0.1,0-0.14,0.01c0.08-0.01,0.15,0,0.22,0.01C51.17,75.72,51.15,75.71,51.12,75.71z"/>
	<path class="st1" d="M46.88,69.12c0.02,0.01,0.04,0.01,0.05,0.02c-0.04-0.02-0.08-0.04-0.11-0.06
		C46.84,69.09,46.86,69.11,46.88,69.12z"/>
	<path class="st1" d="M73.6,50.02c0.05,0,0.1,0,0.14-0.01c-0.08,0.01-0.16,0-0.24-0.01C73.54,50.01,73.56,50.02,73.6,50.02z"/>
	<path class="st1" d="M73.94,81.75c0.01,0.01,0.02,0,0.03,0.01c-0.03-0.01-0.06-0.03-0.08-0.05C73.91,81.72,73.92,81.74,73.94,81.75
		z"/>
	<path class="st1" d="M92.86,52.24c-0.05,0-0.09-0.01-0.13-0.02c0.02,0,0.04,0.02,0.07,0.02C92.82,52.24,92.84,52.24,92.86,52.24z"
		/>
	<path class="st2" d="M76.91,54.61c-2.78-0.08-5.54-0.04-8.29,0.1c-0.48,0.03-0.72-0.2-0.73-0.68c-0.05-5.79-0.04-11.58,0.03-17.36
		c0.02-1.85-0.14-3.67-2.41-4.03c-1.72-0.27-2.99,0.37-3.82,1.93c-5.24,9.88-10.81,20.3-16.71,31.28c-1.53,2.86,0.33,5.27,3.33,5.29
		c2.63,0.01,5.16-0.07,7.6-0.24c0.02,0,0.04,0,0.06,0c0.05,0,0.08,0.02,0.13,0.03c0.05,0.01,0.11,0.01,0.16,0.03
		c0.05,0.02,0.09,0.05,0.14,0.08c0.04,0.03,0.09,0.05,0.13,0.09c0.04,0.04,0.07,0.08,0.1,0.12c0.03,0.04,0.06,0.08,0.09,0.13
		c0.02,0.05,0.03,0.1,0.04,0.16c0.02,0.06,0.04,0.12,0.04,0.19c-0.05,5.53-0.07,11.47-0.04,17.84c0,2,1.32,3.79,3.41,3.86
		c0.4,0.01,0.74-0.12,1.02-0.39c0.92-0.87,1.72-1.92,2.37-3.14c5.49-10.32,10.83-20.37,16.03-30.16
		C80.78,57.48,79.69,54.68,76.91,54.61z M78.58,57.91c0,0.1-0.02,0.19-0.04,0.29c-0.01,0.04-0.01,0.07-0.02,0.11
		c-0.03,0.13-0.08,0.25-0.15,0.37l-17.28,32.2c-0.17,0.32-0.48,0.54-0.83,0.6c-0.79,0.14-1.34-0.13-1.62-0.82
		c-0.17-0.42-0.26-0.85-0.26-1.3c-0.03-6.59-0.04-13.11-0.01-19.56c0-0.04-0.01-0.07-0.02-0.11c-0.01-0.04-0.01-0.07-0.02-0.1
		c-0.01-0.03-0.04-0.06-0.06-0.08c-0.02-0.03-0.03-0.06-0.06-0.08c-0.02-0.02-0.06-0.04-0.08-0.06c-0.03-0.02-0.05-0.04-0.09-0.06
		c-0.03-0.01-0.07-0.01-0.1-0.02c-0.04-0.01-0.07-0.02-0.11-0.02l-10.19,0.06c-0.12,0-0.24-0.02-0.36-0.04
		c-0.03-0.01-0.06-0.02-0.1-0.03c-0.08-0.03-0.17-0.06-0.24-0.09c-0.02-0.01-0.04-0.01-0.05-0.02c-0.02-0.01-0.04-0.03-0.06-0.04
		c-0.05-0.03-0.1-0.06-0.14-0.09c-0.04-0.03-0.08-0.06-0.12-0.1c-0.04-0.03-0.07-0.07-0.11-0.11c-0.04-0.04-0.07-0.08-0.1-0.12
		c-0.03-0.04-0.06-0.08-0.08-0.13c-0.03-0.04-0.05-0.09-0.07-0.13c-0.02-0.05-0.04-0.09-0.06-0.14c-0.02-0.05-0.03-0.1-0.05-0.15
		c-0.01-0.05-0.02-0.1-0.03-0.15c-0.01-0.06-0.01-0.11-0.02-0.17c0-0.03-0.01-0.05-0.01-0.07c0-0.02,0.01-0.04,0.01-0.06
		c0-0.09,0.01-0.17,0.03-0.26c0.01-0.03,0.01-0.07,0.02-0.1c0.03-0.12,0.07-0.23,0.13-0.34l17.15-32c0.16-0.31,0.42-0.55,0.74-0.7
		c0.87-0.39,1.48-0.24,1.84,0.44c0.23,0.45,0.35,0.92,0.35,1.42c0.02,6.49,0.03,12.99,0.02,19.49c0,0.29,0.23,0.52,0.51,0.52
		l9.99-0.04c0.14,0,0.27,0.02,0.4,0.05c0.04,0.01,0.07,0.02,0.11,0.03c0.09,0.03,0.19,0.06,0.27,0.11c0.02,0.01,0.04,0.01,0.06,0.02
		c0.02,0.01,0.04,0.03,0.07,0.04c0.05,0.03,0.11,0.07,0.15,0.1c0.04,0.03,0.09,0.07,0.13,0.1c0.04,0.04,0.08,0.08,0.12,0.12
		c0.04,0.04,0.08,0.09,0.11,0.13c0.03,0.04,0.06,0.09,0.09,0.14c0.03,0.05,0.06,0.1,0.08,0.15c0.02,0.05,0.05,0.1,0.07,0.16
		c0.02,0.05,0.04,0.11,0.05,0.16c0.01,0.05,0.02,0.11,0.03,0.16c0.01,0.06,0.02,0.12,0.02,0.19c0,0.03,0.01,0.05,0.01,0.08
		C78.58,57.86,78.58,57.88,78.58,57.91z"/>
	<path class="st3" d="M78.56,57.58c-0.01-0.05-0.02-0.11-0.03-0.16c-0.01-0.05-0.03-0.11-0.05-0.16c-0.02-0.05-0.04-0.11-0.07-0.16
		c-0.02-0.05-0.05-0.1-0.08-0.15c-0.03-0.05-0.06-0.09-0.09-0.14c-0.03-0.05-0.07-0.09-0.11-0.13c-0.04-0.04-0.08-0.08-0.12-0.12
		c-0.04-0.04-0.08-0.07-0.13-0.1c-0.05-0.04-0.1-0.07-0.15-0.1c-0.04-0.02-0.08-0.05-0.13-0.07c-0.09-0.04-0.18-0.08-0.27-0.11
		c-0.04-0.01-0.07-0.02-0.11-0.03c-0.13-0.03-0.26-0.05-0.4-0.05l-9.99,0.04c-0.28,0-0.51-0.23-0.51-0.52c0.01-6.5,0-13-0.02-19.49
		c0-0.5-0.12-0.97-0.35-1.42c-0.36-0.68-0.97-0.83-1.84-0.44c-0.32,0.15-0.58,0.39-0.74,0.7l-17.15,32
		c-0.06,0.11-0.1,0.22-0.13,0.34c-0.01,0.03-0.01,0.07-0.02,0.1c-0.02,0.09-0.03,0.17-0.03,0.26c0,0.02-0.01,0.04-0.01,0.06
		c0,0.03,0.01,0.05,0.01,0.07c0,0.06,0.01,0.11,0.02,0.17c0.01,0.05,0.02,0.1,0.03,0.15c0.01,0.05,0.03,0.1,0.05,0.15
		c0.02,0.05,0.04,0.1,0.06,0.14c0.02,0.05,0.05,0.09,0.07,0.13c0.03,0.04,0.05,0.09,0.08,0.13c0.03,0.04,0.06,0.08,0.1,0.12
		c0.03,0.04,0.07,0.07,0.11,0.11c0.04,0.03,0.08,0.07,0.12,0.1c0.05,0.03,0.09,0.07,0.14,0.09c0.04,0.02,0.08,0.04,0.11,0.06
		c0.08,0.04,0.16,0.07,0.24,0.09c0.03,0.01,0.06,0.02,0.1,0.03c0.12,0.03,0.24,0.04,0.36,0.04l10.19-0.06c0,0,0.01,0,0.01,0
		c0.04,0,0.07,0.01,0.1,0.02c0.03,0.01,0.07,0.01,0.1,0.02c0.03,0.01,0.06,0.04,0.09,0.06c0.03,0.02,0.06,0.03,0.08,0.06
		c0.02,0.02,0.04,0.06,0.06,0.08c0.02,0.03,0.04,0.05,0.06,0.08c0.01,0.03,0.02,0.07,0.02,0.1c0.01,0.04,0.02,0.07,0.02,0.11
		c-0.03,6.45-0.02,12.97,0.01,19.56c0,0.45,0.09,0.89,0.26,1.3c0.29,0.69,0.83,0.97,1.62,0.82c0.36-0.06,0.66-0.28,0.83-0.6
		l17.28-32.2c0.07-0.12,0.11-0.25,0.15-0.37c0.01-0.04,0.01-0.07,0.02-0.11c0.02-0.1,0.03-0.19,0.04-0.29
		c0-0.02,0.01-0.04,0.01-0.06c0-0.03-0.01-0.05-0.01-0.08C78.57,57.7,78.57,57.64,78.56,57.58z"/>
	<path class="st2" d="M52.19,74.18c-3.25,0.36-5.6,0.15-7.03-0.63c-4.21-2.29-5.18-5.51-2.9-9.64c3.45-6.25,6.8-12.39,10.04-18.42
		c0.49-0.9,0.9-1.78,1.25-2.64c0.03-0.06,0.04-0.13,0.04-0.2c0,0,0,0,0,0c0-0.07-0.02-0.14-0.04-0.2c-0.01-0.03-0.04-0.05-0.06-0.08
		c-0.02-0.03-0.03-0.06-0.06-0.08c-0.05-0.05-0.11-0.09-0.17-0.11c-0.06-0.03-0.13-0.04-0.2-0.04c-4.36,0.1-8.67,0.13-12.95,0.08
		c-7.31-0.09-10.56,3.34-10.4,10.76c0.14,6.76,0.14,13.82-0.01,21.18c-0.13,6.91,4.92,9.51,11.43,9.21
		c3.82-0.18,7.53-0.17,11.13,0.03c0.79,0.05,1.18-0.32,1.18-1.11l-0.02-6.99C53.42,74.46,53.01,74.09,52.19,74.18z M51.72,80.82
		c-0.03,0.65-0.36,0.96-1.01,0.91c-3.21-0.19-6.72-0.21-10.53-0.05c-4.56,0.18-8.57-1.6-8.65-6.69c-0.12-7.47-0.12-15.62-0.01-24.45
		c0.05-4.88,3.73-6.71,8.15-6.56c3.78,0.13,7.42,0.09,10.91-0.12c0.06,0,0.12,0.01,0.18,0.04c0.01,0,0.01,0,0.02,0
		c0.01,0.01,0.02,0.02,0.03,0.03c0.02,0.01,0.04,0.03,0.06,0.05c0.02,0.02,0.03,0.04,0.04,0.06c0.01,0.02,0.02,0.04,0.03,0.06
		c0.01,0.02,0.02,0.05,0.02,0.07c0,0.01,0.01,0.03,0.01,0.04c0,0.01,0,0.01,0,0.02c0,0.06-0.01,0.12-0.04,0.18L40.35,64.09
		c-0.17,0.32-0.3,0.66-0.38,1.02c-1.74,7.62,4.06,11.84,11,10.61c0.05-0.01,0.1-0.01,0.14-0.01c0.03,0,0.05,0.01,0.08,0.02
		c0.05,0.01,0.1,0.02,0.15,0.03c0.05,0.02,0.09,0.04,0.13,0.06c0.04,0.03,0.08,0.05,0.12,0.08c0.04,0.03,0.07,0.07,0.1,0.11
		c0.03,0.04,0.06,0.08,0.08,0.12c0.02,0.05,0.04,0.09,0.05,0.14c0.01,0.03,0.02,0.05,0.03,0.08c0.01,0.05,0.01,0.1,0.01,0.14
		L51.72,80.82z"/>
	<path class="st2" d="M92.86,52.24c-0.02,0-0.04,0-0.06,0c-0.02,0-0.04-0.01-0.07-0.02c-0.03-0.01-0.07-0.01-0.1-0.03
		c-0.03-0.01-0.06-0.03-0.08-0.05c-0.03-0.02-0.05-0.04-0.08-0.06c-0.02-0.02-0.04-0.05-0.06-0.08c-0.02-0.03-0.04-0.05-0.05-0.08
		c-0.01-0.03-0.02-0.07-0.03-0.1c-0.01-0.04-0.02-0.09-0.02-0.13c0.62-12.01-12.58-9.27-19.76-9.49c-0.9-0.03-1.35,0.41-1.35,1.3
		l0.03,6.68c0,0.86,0.42,1.24,1.27,1.16c5.22-0.51,10.72,0.34,10.9,6.37c0.03,1.23-0.35,2.59-1.15,4.06
		c-4.05,7.45-7.75,14.34-11.1,20.67c-0.05,0.09-0.06,0.19-0.06,0.29c0,0.01-0.01,0.02-0.01,0.03c0,0.03,0.01,0.05,0.02,0.07
		c0.01,0.04,0.02,0.08,0.03,0.12c0.01,0.04,0.03,0.07,0.06,0.1c0.02,0.03,0.04,0.07,0.07,0.09c0.03,0.03,0.06,0.06,0.1,0.08
		c0.03,0.02,0.06,0.04,0.09,0.06c0.09,0.04,0.18,0.07,0.29,0.06c2.69-0.13,5.53-0.15,8.51-0.05c6.57,0.22,12.33-1.43,12.02-9.15
		c-0.01-0.44,0.2-0.68,0.63-0.72c0.9-0.1,1.87,0.03,2.73-0.28c2.46-0.85,4.12-2.88,4.13-5.58c0.01-3.26-0.01-6.22-0.07-8.88
		C99.61,54.11,97.33,51.95,92.86,52.24z M91.87,71.6c-0.9-0.13-1.29,0.25-1.18,1.15c0.67,5.74-2.25,9.06-8.1,8.92
		c-2.77-0.07-5.54-0.02-8.33,0.15c-0.1,0.01-0.2-0.02-0.28-0.06c-0.01,0-0.02,0-0.03-0.01c-0.02-0.01-0.03-0.03-0.05-0.04
		c-0.03-0.02-0.07-0.05-0.09-0.08c-0.03-0.03-0.05-0.06-0.07-0.09c-0.02-0.03-0.04-0.06-0.05-0.1c-0.02-0.04-0.02-0.08-0.03-0.12
		c0-0.02-0.02-0.04-0.02-0.06c0-0.01,0.01-0.02,0.01-0.03c0-0.1,0.01-0.19,0.06-0.28c2.91-5.42,6.13-11.33,9.65-17.71
		c4.48-8.1-0.71-14.71-9.6-13.22c-0.05,0.01-0.1,0.01-0.14,0.01c-0.03,0-0.06-0.02-0.09-0.02c-0.06-0.01-0.11-0.02-0.17-0.03
		c-0.05-0.02-0.1-0.04-0.14-0.07c-0.05-0.03-0.09-0.06-0.13-0.09s-0.08-0.07-0.11-0.12c-0.03-0.04-0.06-0.08-0.09-0.13
		c-0.03-0.05-0.04-0.1-0.06-0.16c-0.01-0.03-0.03-0.06-0.03-0.09c-0.01-0.05-0.01-0.1-0.01-0.15v-4.56c0-0.44,0.35-0.8,0.78-0.8
		c3.93-0.05,7.27-0.02,10.01,0.08c5.15,0.19,7.54,3.12,7.18,8.79c-0.05,0.92,0.38,1.33,1.29,1.21c3.53-0.47,6.14,0.65,6.05,4.6
		c-0.07,2.74-0.06,5.38,0.03,7.91C98.24,70.61,95.98,72.22,91.87,71.6z"/>
	<path class="st4" d="M51.83,76.28c-0.01-0.05-0.03-0.1-0.05-0.14c-0.02-0.04-0.05-0.08-0.08-0.12c-0.03-0.04-0.06-0.07-0.1-0.11
		c-0.04-0.03-0.08-0.06-0.12-0.08c-0.04-0.02-0.08-0.04-0.13-0.06c-0.05-0.02-0.1-0.03-0.15-0.03c-0.07-0.01-0.15-0.02-0.22-0.01
		c-6.95,1.22-12.74-2.99-11-10.61c0.08-0.35,0.21-0.7,0.38-1.02l10.58-19.68c0.03-0.06,0.04-0.12,0.04-0.18c0-0.01,0-0.01,0-0.02
		c0-0.01-0.01-0.03-0.01-0.04c0-0.03-0.01-0.05-0.02-0.07c-0.01-0.02-0.02-0.04-0.03-0.06c-0.01-0.02-0.03-0.04-0.04-0.06
		c-0.02-0.02-0.04-0.03-0.06-0.05c-0.02-0.01-0.03-0.02-0.05-0.03c-0.05-0.03-0.11-0.04-0.18-0.04c-3.49,0.21-7.13,0.25-10.91,0.12
		c-4.42-0.15-8.1,1.67-8.15,6.56c-0.11,8.84-0.11,16.99,0.01,24.45c0.08,5.09,4.09,6.87,8.65,6.69c3.82-0.16,7.33-0.14,10.53,0.05
		c0.64,0.04,0.98-0.26,1.01-0.91l0.14-4.32c0-0.05,0-0.1-0.01-0.14C51.85,76.33,51.84,76.31,51.83,76.28z"/>
	<path class="st4" d="M98.07,58.5c0.09-3.96-2.52-5.08-6.05-4.6c-0.92,0.12-1.35-0.29-1.29-1.21c0.36-5.67-2.03-8.6-7.18-8.79
		c-2.74-0.1-6.08-0.13-10.01-0.08c-0.43,0.01-0.78,0.36-0.78,0.8v4.56c0,0.05,0,0.1,0.01,0.15c0.01,0.03,0.03,0.06,0.03,0.09
		c0.02,0.06,0.03,0.11,0.06,0.16c0.03,0.05,0.05,0.09,0.09,0.13c0.03,0.04,0.07,0.08,0.11,0.12s0.08,0.06,0.13,0.09
		c0.05,0.03,0.09,0.05,0.14,0.07c0.05,0.02,0.11,0.03,0.17,0.03c0.08,0.01,0.16,0.02,0.24,0.01c8.89-1.49,14.08,5.13,9.6,13.22
		c-3.52,6.38-6.74,12.29-9.65,17.71c-0.05,0.09-0.06,0.19-0.06,0.28c0,0.01-0.01,0.02-0.01,0.03c0,0.02,0.01,0.04,0.02,0.06
		c0.01,0.04,0.02,0.08,0.03,0.12c0.01,0.04,0.03,0.07,0.05,0.1c0.02,0.03,0.04,0.06,0.07,0.09c0.03,0.03,0.06,0.05,0.09,0.08
		c0.03,0.02,0.05,0.04,0.08,0.05c0.09,0.04,0.18,0.07,0.28,0.06c2.79-0.17,5.57-0.22,8.33-0.15c5.85,0.14,8.76-3.17,8.1-8.92
		c-0.11-0.9,0.28-1.28,1.18-1.15c4.11,0.62,6.37-0.99,6.24-5.19C98.01,63.88,98,61.24,98.07,58.5z"/>
</g>
</svg>
