<?xml version="1.0" encoding="utf-8"?>
<!-- Generator: Adobe Illustrator 28.0.0, SVG Export Plug-In . SVG Version: 6.00 Build 0)  -->
<svg version="1.1" id="Capa_1" xmlns="http://www.w3.org/2000/svg" xmlns:xlink="http://www.w3.org/1999/xlink" x="0px" y="0px"
	 viewBox="0 0 126 126" style="enable-background:new 0 0 126 126;" xml:space="preserve">
<style type="text/css">
	.st0{fill:#FFFFFF;stroke:#1DA9FC;stroke-miterlimit:10;}
	.st1{fill:none;}
	.st2{fill:#064874;}
	.st3{fill:#FFFFFF;}
	.st4{fill:#B3DFF7;}
</style>
<circle class="st0" cx="63" cy="63" r="59.67"/>
<g>
	<path class="st1" d="M62.94,83.85l0.11,0L62.94,83.85c-0.41,0-0.74,0.32-0.75,0.73c0,0,0,0,0,0l-0.04,4.26l0.04-4.26
		C62.2,84.18,62.53,83.85,62.94,83.85z"/>
	<path class="st1" d="M27.22,82.98c0.01-0.02,0.02-0.04,0.04-0.05C27.24,82.94,27.23,82.96,27.22,82.98z"/>
	<path class="st1" d="M27.17,83.07c-0.01,0.03-0.02,0.07-0.02,0.1c0-0.04,0.01-0.08,0.03-0.12C27.18,83.05,27.17,83.06,27.17,83.07z
		"/>
	<path class="st1" d="M27.31,82.88c0.02-0.01,0.04-0.03,0.06-0.04C27.35,82.85,27.33,82.87,27.31,82.88z"/>
	<path class="st1" d="M28.73,87.23c0,0.02,0,0.05,0.01,0.07C28.73,87.28,28.73,87.25,28.73,87.23z"/>
	<path class="st1" d="M27.43,82.82c0.02-0.01,0.05-0.01,0.07-0.01C27.48,82.81,27.46,82.82,27.43,82.82z"/>
	<path class="st1" d="M33.44,89.56c-0.02,0.01-0.05,0.01-0.07,0.02C33.39,89.57,33.42,89.57,33.44,89.56z"/>
	<path class="st1" d="M33.55,89.48c-0.02,0.02-0.04,0.03-0.06,0.04C33.52,89.51,33.54,89.5,33.55,89.48z"/>
	<path class="st1" d="M28.86,87.47c0.02,0.01,0.03,0.03,0.06,0.04C28.9,87.5,28.88,87.48,28.86,87.47z"/>
	<path class="st1" d="M28.91,38.65c0.02-0.02,0.04-0.03,0.06-0.04C28.95,38.62,28.92,38.63,28.91,38.65z"/>
	<path class="st1" d="M27.31,89.62c-0.02-0.01-0.04-0.02-0.06-0.04C27.27,89.59,27.29,89.61,27.31,89.62z"/>
	<path class="st1" d="M27.45,89.65c0.01,0,0.01,0,0.02,0c-0.03,0-0.06-0.01-0.08-0.01C27.4,89.64,27.42,89.65,27.45,89.65z"/>
	<path class="st1" d="M27.2,89.54c-0.02-0.02-0.03-0.04-0.04-0.06C27.17,89.5,27.18,89.52,27.2,89.54z"/>
	<path class="st1" d="M28.81,87.42c-0.02-0.02-0.02-0.04-0.04-0.06C28.78,87.38,28.79,87.4,28.81,87.42z"/>
	<path class="st1" d="M33.65,89.23c0-0.01,0-0.01,0-0.02c0,0.03-0.01,0.06-0.01,0.08C33.65,89.27,33.65,89.25,33.65,89.23z"/>
	<path class="st1" d="M46.02,85.8C46.02,85.8,46.02,85.8,46.02,85.8c-0.06-0.03-0.11-0.08-0.16-0.14
		C45.91,85.72,45.96,85.77,46.02,85.8z"/>
	<path class="st1" d="M35.94,71.17c0.18,0.15,0.28,0.36,0.29,0.58C36.21,71.54,36.11,71.33,35.94,71.17
		C35.94,71.17,35.94,71.17,35.94,71.17z"/>
	<path class="st1" d="M48.78,80.49c0.29,0.45,0.07,1.7-0.55,3.02C48.85,82.18,49.07,80.94,48.78,80.49z"/>
	<path class="st1" d="M48.41,80.31c-0.53,0.06-1.37,1.01-2,2.33c0,0,0,0,0,0c-0.36,0.75-0.58,1.48-0.66,2.06
		c0.07-0.57,0.3-1.3,0.66-2.06C47.05,81.32,47.88,80.37,48.41,80.31z"/>
	<path class="st1" d="M33.43,75.36l2.59-2.99c0.15-0.18,0.22-0.4,0.2-0.62c0.02,0.22-0.05,0.44-0.2,0.62L33.43,75.36z"/>
	<path class="st1" d="M48.22,83.5C48.22,83.5,48.22,83.5,48.22,83.5c-0.27,0.56-0.58,1.06-0.88,1.45
		C47.65,84.56,47.95,84.07,48.22,83.5z"/>
	<path class="st1" d="M32.07,74.18c-0.25,0.29-0.26,0.68-0.07,0.99C31.81,74.86,31.82,74.47,32.07,74.18z"/>
	<path class="st1" d="M28.82,38.92c0-0.02,0.01-0.05,0.01-0.07C28.82,38.87,28.81,38.89,28.82,38.92
		C28.82,38.92,28.82,38.92,28.82,38.92z"/>
	<path class="st1" d="M29.07,87.55c-0.03,0-0.05-0.01-0.08-0.02c0.02,0.01,0.04,0.02,0.06,0.02C29.06,87.55,29.06,87.55,29.07,87.55
		z"/>
	<path class="st1" d="M33.59,89.42c0.01-0.02,0.03-0.04,0.04-0.06C33.62,89.38,33.6,89.4,33.59,89.42z"/>
	<path class="st1" d="M32.92,75.63c-0.02,0-0.04,0.02-0.07,0.02C32.87,75.65,32.9,75.64,32.92,75.63z"/>
	<path class="st1" d="M34.66,71.19L34.66,71.19c0.08-0.09,0.17-0.16,0.27-0.21C34.83,71.03,34.74,71.1,34.66,71.19z"/>
	<path class="st1" d="M27.12,89.42c-0.01-0.02-0.01-0.05-0.02-0.07C27.11,89.38,27.11,89.4,27.12,89.42z"/>
	<path class="st1" d="M47.31,41.07c0.2,0.27,0.41,0.58,0.61,0.93C47.72,41.65,47.52,41.34,47.31,41.07z"/>
	<path class="st1" d="M77.89,42.52l-0.87,1.77c-0.05,0.1-0.08,0.21-0.08,0.32c0.01-0.11,0.03-0.21,0.08-0.32L77.89,42.52z"/>
	<path class="st1" d="M36.12,55.16L36.12,55.16c-0.03,0.02-0.07,0.03-0.11,0.05C36.05,55.19,36.09,55.18,36.12,55.16z"/>
	<path class="st1" d="M48.74,43.96c-0.12-0.44-0.3-0.91-0.54-1.41c-0.09-0.19-0.19-0.38-0.29-0.55c0.1,0.18,0.19,0.36,0.29,0.55
		C48.44,43.05,48.62,43.52,48.74,43.96z"/>
	<path class="st1" d="M79.92,40.4l-0.06-0.03c-0.1-0.05-0.21-0.08-0.32-0.08c0.11,0.01,0.21,0.03,0.32,0.08L79.92,40.4z"/>
	<path class="st1" d="M45.78,40.99c0-0.03-0.01-0.07-0.01-0.1C45.77,40.92,45.78,40.96,45.78,40.99z"/>
	<path class="st1" d="M27.12,42.77c-0.01-0.02-0.02-0.05-0.02-0.07C27.1,42.73,27.11,42.75,27.12,42.77z"/>
	<path class="st1" d="M93.9,50.49c0.4,0.34-0.17,1.65-1.26,2.92c-0.49,0.57-1,1.03-1.45,1.34c0.45-0.31,0.96-0.77,1.45-1.34
		c0,0,0,0,0,0C93.73,52.13,94.29,50.83,93.9,50.49c-0.4-0.34-1.6,0.42-2.69,1.69c0,0,0,0,0,0c-0.14,0.16-0.26,0.32-0.38,0.48
		c0.12-0.16,0.25-0.32,0.38-0.48C92.29,50.9,93.5,50.15,93.9,50.49z"/>
	<path class="st1" d="M89.95,55.09c0.19,0.16,0.57,0.07,1.03-0.21C90.51,55.16,90.14,55.26,89.95,55.09
		c-0.35-0.3,0.04-1.34,0.87-2.44C89.99,53.76,89.6,54.8,89.95,55.09C89.95,55.09,89.95,55.09,89.95,55.09z"/>
	<path class="st1" d="M80.3,41.51l-1.31,2.66L80.3,41.51c0.15-0.31,0.09-0.66-0.12-0.91C80.39,40.85,80.45,41.2,80.3,41.51z"/>
	<path class="st1" d="M77.13,45.19c-0.13-0.15-0.2-0.35-0.19-0.55C76.94,44.84,77,45.04,77.13,45.19z"/>
	<path class="st1" d="M77.39,45.39l0.06,0.03c0.1,0.05,0.21,0.08,0.32,0.08c-0.11-0.01-0.21-0.03-0.32-0.08L77.39,45.39z"/>
	<path class="st1" d="M48.86,44.44c0.02,0.09,0.03,0.18,0.05,0.27C48.9,44.63,48.88,44.54,48.86,44.44z"/>
	<path class="st1" d="M28.87,38.71c-0.01,0.02-0.03,0.04-0.04,0.06C28.84,38.75,28.86,38.73,28.87,38.71z"/>
	<path class="st1" d="M29.09,38.55c-0.02,0.01-0.05,0.01-0.07,0.02C29.04,38.55,29.07,38.55,29.09,38.55z"/>
	<path class="st1" d="M27.45,42.97c0.01,0,0.02,0,0.04,0c-0.03,0-0.06,0-0.09-0.01C27.42,42.97,27.43,42.98,27.45,42.97z"/>
	<path class="st1" d="M27.2,42.88c-0.02-0.02-0.03-0.03-0.05-0.05C27.17,42.85,27.19,42.87,27.2,42.88z"/>
	<path class="st1" d="M33.6,36.63c0.01,0.02,0.01,0.05,0.01,0.07C33.61,36.67,33.61,36.65,33.6,36.63z"/>
	<path class="st1" d="M27.33,42.95c-0.02-0.01-0.04-0.02-0.06-0.03C27.28,42.93,27.3,42.94,27.33,42.95z"/>
	<path class="st1" d="M33.41,36.43c0.02,0.01,0.04,0.03,0.06,0.04C33.45,36.45,33.43,36.44,33.41,36.43z"/>
	<path class="st1" d="M32.18,50.54c-0.02,0.01-0.06,0.02-0.08,0.03c-0.1,0.09-0.14,0.24-0.13,0.43c-0.01-0.19,0.03-0.34,0.13-0.43
		C32.13,50.56,32.16,50.55,32.18,50.54z"/>
	<path class="st1" d="M33.38,53.5c0.21,0.23,0.41,0.44,0.62,0.64C33.8,53.95,33.59,53.74,33.38,53.5z"/>
	<path class="st1" d="M35.37,55.12c-0.01,0-0.02-0.01-0.03-0.02C35.34,55.11,35.36,55.12,35.37,55.12z"/>
	<path class="st1" d="M33.27,36.39c0,0-0.01,0-0.01,0c0.03,0,0.05,0.01,0.08,0.02C33.32,36.4,33.3,36.39,33.27,36.39z"/>
	<path class="st1" d="M33.53,36.51c0.02,0.02,0.03,0.04,0.04,0.06C33.55,36.55,33.54,36.52,33.53,36.51z"/>
	<path class="st1" d="M35.93,55.24c-0.11,0.02-0.25-0.01-0.41-0.07C35.67,55.23,35.82,55.26,35.93,55.24z"/>
	<path class="st1" d="M90.32,72.66c-0.08-0.13-0.14-0.25-0.2-0.36C90.18,72.41,90.24,72.53,90.32,72.66z"/>
	<path class="st1" d="M96.37,87.73c0.06-0.01,0.13-0.02,0.19-0.04C96.5,87.71,96.43,87.72,96.37,87.73z"/>
	<path class="st1" d="M91.21,73.85C91.21,73.85,91.21,73.85,91.21,73.85c-0.02-0.03-0.04-0.05-0.06-0.08
		C91.17,73.8,91.19,73.83,91.21,73.85z"/>
	<path class="st1" d="M93,73.08c0.48,0.62,0.82,1.21,0.96,1.67C93.82,74.29,93.48,73.69,93,73.08z"/>
	<path class="st1" d="M92.61,72.61c0.14,0.15,0.27,0.31,0.39,0.46C92.88,72.92,92.75,72.77,92.61,72.61L92.61,72.61
		c-0.41-0.46-0.84-0.86-1.23-1.15C91.77,71.75,92.2,72.15,92.61,72.61z"/>
	<path class="st1" d="M94.02,75.06c0.01,0.13-0.01,0.23-0.06,0.32C94.01,75.29,94.03,75.19,94.02,75.06z"/>
	<path class="st1" d="M90.57,71c0.13,0.05,0.27,0.12,0.42,0.21C90.84,71.11,90.71,71.05,90.57,71z"/>
	<path class="st1" d="M57.64,66.59c0.35,0.51,0.76,0.97,1.24,1.37C58.4,67.57,57.99,67.11,57.64,66.59z"/>
	<path class="st1" d="M57.64,66.59c-0.23-0.34-0.43-0.71-0.59-1.09C57.21,65.89,57.41,66.25,57.64,66.59z"/>
	<path class="st1" d="M58.88,67.96c1.11,0.92,2.53,1.47,4.09,1.47c0,0,0,0,0,0c1.55,0,2.98-0.55,4.09-1.47
		c-1.11,0.92-2.53,1.47-4.09,1.47C61.41,69.43,59.99,68.88,58.88,67.96z"/>
	<path class="st1" d="M67.05,67.96c0.48-0.39,0.89-0.85,1.24-1.37C67.95,67.11,67.53,67.57,67.05,67.96z"/>
	<path class="st1" d="M92.37,36.9c0,0.01,0,0.02,0,0.02c0-0.05,0.03-0.09,0.04-0.13C92.4,36.83,92.37,36.86,92.37,36.9z"/>
	<path class="st1" d="M98.6,36.35c-0.01,0-0.01,0-0.02,0c0.05,0,0.09,0.03,0.13,0.05C98.67,36.38,98.64,36.35,98.6,36.35z"/>
	<path class="st1" d="M98.82,36.45c0.03,0.03,0.04,0.08,0.05,0.12C98.86,36.53,98.85,36.48,98.82,36.45z"/>
	<path class="st1" d="M92.45,36.67c0.03-0.03,0.07-0.04,0.11-0.06C92.53,36.63,92.48,36.64,92.45,36.67z"/>
	<path class="st1" d="M96.83,38.2c0.05,0,0.09,0.03,0.13,0.05c-0.04-0.02-0.07-0.05-0.11-0.05C96.84,38.2,96.83,38.2,96.83,38.2z"/>
	<path class="st1" d="M97.07,38.3c0.03,0.03,0.04,0.08,0.05,0.12C97.11,38.38,97.1,38.33,97.07,38.3z"/>
	<path class="st1" d="M96.87,87.48c-0.04,0.04-0.1,0.07-0.15,0.11C96.77,87.55,96.82,87.52,96.87,87.48z"/>
	<path class="st1" d="M96.97,87.32c0.03-0.05,0.08-0.1,0.1-0.16C97.05,87.22,97.01,87.27,96.97,87.32z"/>
	<path class="st1" d="M97.15,86.77c0,0.07-0.02,0.14-0.04,0.21c0.01-0.06,0.04-0.11,0.04-0.17C97.15,86.79,97.15,86.78,97.15,86.77z
		"/>
	<path class="st1" d="M98.69,42.71c0-0.02,0.01-0.03,0.01-0.05c0,0.05-0.04,0.09-0.06,0.14C98.65,42.76,98.68,42.74,98.69,42.71z"/>
	<path class="st1" d="M69.4,58.2c0.27,0.38,0.51,0.78,0.71,1.21C69.91,58.99,69.67,58.58,69.4,58.2z"/>
	<path class="st1" d="M98.56,42.9c-0.03,0.03-0.08,0.03-0.12,0.04C98.49,42.93,98.53,42.93,98.56,42.9z"/>
	<path class="st1" d="M68.89,65.5c-0.16,0.38-0.36,0.75-0.59,1.09C68.53,66.25,68.73,65.89,68.89,65.5z"/>
	<path class="st1" d="M77.46,80.19c0.07,0.01,0.15,0.04,0.24,0.09C77.62,80.24,77.54,80.21,77.46,80.19z"/>
	<path class="st1" d="M77.7,80.28c0.17,0.09,0.36,0.26,0.55,0.47C78.06,80.54,77.87,80.38,77.7,80.28z"/>
	<path class="st1" d="M77.12,80.36C77.12,80.35,77.13,80.35,77.12,80.36C77.13,80.35,77.12,80.35,77.12,80.36z"/>
	<path class="st1" d="M80.1,84.71c-0.08-0.58-0.31-1.32-0.67-2.1c0,0,0,0,0,0c-0.09-0.19-0.18-0.38-0.28-0.56
		c0.1,0.18,0.19,0.36,0.28,0.56C79.79,83.39,80.02,84.13,80.1,84.71z"/>
	<path class="st1" d="M77.01,80.92c0-0.17,0.02-0.3,0.06-0.41C77.03,80.62,77.01,80.75,77.01,80.92z"/>
	<path class="st1" d="M62.21,89.14c0.05,0.12,0.14,0.22,0.25,0.3C62.35,89.36,62.26,89.26,62.21,89.14z"/>
	<path class="st1" d="M78.25,80.76c0.2,0.22,0.4,0.49,0.6,0.8C78.65,81.24,78.45,80.97,78.25,80.76z"/>
	<path class="st1" d="M77.36,82.56c-0.15-0.42-0.25-0.81-0.31-1.15C77.11,81.75,77.22,82.14,77.36,82.56z"/>
	<path class="st1" d="M63.63,89.38c0.13-0.13,0.22-0.32,0.22-0.52c0,0,0,0,0,0l0.04-4.26l-0.04,4.26
		C63.85,89.07,63.76,89.25,63.63,89.38z"/>
	<path class="st1" d="M63,89.6l0.11,0c0.1,0,0.2-0.02,0.29-0.06c-0.09,0.04-0.19,0.06-0.29,0.06L63,89.6z"/>
	<path class="st1" d="M63.89,84.6c0-0.2-0.08-0.39-0.21-0.52C63.81,84.21,63.89,84.4,63.89,84.6z"/>
	<path class="st1" d="M77.71,83.42C77.71,83.42,77.71,83.42,77.71,83.42c-0.01-0.03-0.02-0.05-0.03-0.08
		C77.69,83.36,77.7,83.39,77.71,83.42z"/>
	<path class="st1" d="M59.5,70.42c-0.22-0.11-0.43-0.23-0.63-0.36C59.08,70.19,59.29,70.31,59.5,70.42z"/>
	<path class="st1" d="M62.88,54.8c1.08-0.01,2.12,0.21,3.08,0.62C65,55.02,63.96,54.8,62.88,54.8z"/>
	<path class="st1" d="M62.06,54.85C62.06,54.85,62.06,54.85,62.06,54.85c0.26-0.03,0.51-0.04,0.77-0.04
		C62.58,54.81,62.32,54.82,62.06,54.85z"/>
	<path class="st1" d="M56.53,67.86c-0.27-0.38-0.51-0.78-0.71-1.21C56.03,67.08,56.26,67.48,56.53,67.86z"/>
	<path class="st1" d="M65.96,55.42c0.72,0.3,1.39,0.71,1.99,1.21C67.35,56.13,66.68,55.72,65.96,55.42z"/>
	<path class="st1" d="M61.59,71.12c-0.11-0.02-0.21-0.04-0.31-0.07C61.38,71.08,61.48,71.1,61.59,71.12z"/>
	<path class="st2" d="M27.12,42.77c0.01,0.02,0.03,0.04,0.04,0.06c0.01,0.02,0.03,0.04,0.05,0.05c0.02,0.02,0.04,0.03,0.06,0.04
		c0.02,0.01,0.04,0.02,0.06,0.03c0.02,0.01,0.05,0.01,0.07,0.01c0.03,0,0.06,0.01,0.09,0.01l1.17-0.13c0.19-0.03,0.33-0.2,0.32-0.39
		l-0.16-3.53c0,0,0,0,0,0c0-0.02,0.01-0.04,0.01-0.07c0-0.03,0-0.05,0.01-0.08c0.01-0.02,0.02-0.04,0.04-0.06
		c0.01-0.02,0.02-0.04,0.04-0.06c0.02-0.02,0.04-0.03,0.06-0.04c0.02-0.01,0.04-0.03,0.06-0.04c0.02-0.01,0.04-0.01,0.07-0.02
		c0.03-0.01,0.05-0.02,0.08-0.02l4.1-0.23c0.19-0.01,0.34-0.17,0.35-0.36l0.02-1.16c0,0,0-0.01,0-0.01c0-0.02-0.01-0.04-0.01-0.07
		c0-0.02-0.01-0.05-0.01-0.07c-0.01-0.02-0.03-0.04-0.04-0.06c-0.01-0.02-0.02-0.04-0.04-0.06c-0.02-0.02-0.04-0.03-0.06-0.04
		c-0.02-0.01-0.04-0.03-0.06-0.04c-0.02-0.01-0.05-0.01-0.07-0.02c-0.03-0.01-0.05-0.02-0.08-0.02l-5.78-0.03
		c-0.2,0-0.37,0.17-0.37,0.37l-0.03,5.88c0,0.01,0,0.02,0,0.04c0,0.02,0.01,0.03,0.02,0.05C27.1,42.73,27.11,42.75,27.12,42.77z"/>
	<path class="st2" d="M62.82,42.13h0.39c0.37,0,0.66-0.3,0.66-0.66v-4.33c0-0.37-0.3-0.66-0.66-0.66h-0.39
		c-0.37,0-0.66,0.3-0.66,0.66v4.33C62.15,41.84,62.45,42.13,62.82,42.13z"/>
	<path class="st2" d="M98.82,36.45c-0.03-0.03-0.08-0.04-0.12-0.05c-0.04-0.02-0.08-0.05-0.13-0.05l-5.88,0.21
		c-0.01,0-0.02,0-0.02,0c-0.04,0-0.07,0.04-0.1,0.06c-0.04,0.02-0.08,0.03-0.11,0.06c-0.03,0.03-0.03,0.08-0.05,0.12
		c-0.02,0.04-0.05,0.08-0.04,0.13l0.1,1.09c0.02,0.18,0.17,0.31,0.35,0.3l4.01-0.12c0.01,0,0.01,0,0.02,0
		c0.04,0,0.07,0.03,0.11,0.05c0.04,0.02,0.09,0.02,0.12,0.05c0.03,0.03,0.04,0.08,0.05,0.12c0.02,0.04,0.05,0.08,0.05,0.13
		l-0.08,3.9c0,0.16,0.11,0.31,0.27,0.34l0.92,0.18c0.02,0,0.03,0.01,0.05,0.01c0.04,0,0.06-0.03,0.1-0.04
		c0.04-0.01,0.09-0.02,0.12-0.04c0.03-0.03,0.05-0.07,0.07-0.1c0.03-0.04,0.06-0.08,0.06-0.14l0.23-5.96c0-0.01,0-0.01,0-0.02
		c0-0.04-0.03-0.07-0.05-0.11C98.86,36.53,98.85,36.48,98.82,36.45z"/>
	<path class="st2" d="M46.5,43.37c0.74,1.53,1.72,2.59,2.19,2.36c0.22-0.11,0.29-0.49,0.22-1.02c-0.01-0.09-0.03-0.18-0.05-0.27
		c-0.03-0.15-0.07-0.32-0.12-0.49c-0.12-0.44-0.3-0.91-0.54-1.41c-0.09-0.19-0.19-0.38-0.29-0.55c-0.2-0.35-0.4-0.66-0.61-0.93
		s-0.4-0.48-0.59-0.64c-0.28-0.23-0.53-0.33-0.7-0.24c-0.18,0.08-0.26,0.34-0.25,0.7c0,0.03,0.01,0.07,0.01,0.1
		C45.82,41.6,46.06,42.46,46.5,43.37z"/>
	<path class="st2" d="M76.94,44.64c0,0.2,0.06,0.39,0.19,0.55c0.07,0.08,0.16,0.15,0.26,0.2l0.06,0.03c0.1,0.05,0.21,0.08,0.32,0.08
		c0.21,0.01,0.43-0.06,0.59-0.2c0.08-0.07,0.15-0.16,0.2-0.26l0.43-0.88l1.31-2.66c0.15-0.31,0.09-0.66-0.12-0.91
		c-0.07-0.08-0.16-0.15-0.26-0.2l-0.06-0.03c-0.1-0.05-0.21-0.08-0.32-0.08c-0.32-0.02-0.64,0.15-0.79,0.46l-0.87,1.77l-0.87,1.77
		c-0.05,0.1-0.08,0.21-0.08,0.32C76.93,44.61,76.94,44.63,76.94,44.64z"/>
	<path class="st2" d="M92.78,62.51c-6.33-7.32-14.18-13.83-23.69-16.23c-13.72-3.46-27.07,5.71-35.87,16.26
		c-0.25,0.29-0.25,0.73,0,1.03c8.69,10.36,22.64,20.3,36.9,15.96c9.06-2.76,16.45-8.72,22.66-16.05
		C93.02,63.2,93.02,62.79,92.78,62.51z M90.65,63.37c-3.76,4.61-8.44,8.37-14.04,11.29c-2.6,1.47-4.99,2.53-7.17,3.17
		c-8.43,2.52-14.9,0.36-19.42-6.47c-2.15-3.23-2.83-7.07-2.07-11.5c0.07-0.41-0.17-0.75-0.72-1.02c-0.25,0.01-0.48,0.12-0.68,0.35
		c-0.17,0.17-0.27,0.38-0.3,0.62c-1,6.13,0.88,9.98,3.91,14.93c0.49,0.79,0.34,0.95-0.47,0.48c-4.96-2.93-9.44-6.51-13.44-10.74
		c-1.02-1.08-1.05-2.07-0.08-2.96c4.71-4.34,8.42-7.88,14.22-10.7c8.12-4.66,18.31-5.61,24.49,2.48c2.86,3.75,3.88,7.99,3.06,12.71
		c-0.07,0.37,0.16,0.9,0.66,1.6c0.61-0.25,0.95-0.6,1.03-1.04c1-5.52-0.16-10.29-3.48-14.3c-1.59-1.93-1.32-2.25,0.83-0.96
		c5.11,3.08,9.66,6.83,13.63,11.24C90.84,62.77,90.85,63.13,90.65,63.37z"/>
	<path class="st3" d="M78.03,69.23c0.21-0.27,0.36-0.59,0.43-0.94l0.15-0.7c-0.51-0.7-0.73-1.23-0.66-1.6
		c0.83-4.72-0.19-8.96-3.06-12.71c-6.18-8.09-16.36-7.14-24.49-2.48l-3.16,8.02c0.55,0.28,0.79,0.62,0.72,1.02
		c-0.77,4.44-0.08,8.27,2.07,11.5c4.52,6.83,10.99,8.98,19.42,6.47c2.17-0.65,4.56-1.7,7.17-3.17
		C76.13,72.85,76.61,71.04,78.03,69.23z M63.87,71.21c-0.78,0.09-1.55,0.05-2.29-0.09c-0.1-0.02-0.21-0.04-0.31-0.07
		c-0.62-0.14-1.21-0.36-1.77-0.64c-0.22-0.11-0.43-0.23-0.63-0.36c-0.91-0.57-1.71-1.31-2.34-2.2c-0.27-0.38-0.51-0.78-0.71-1.21
		c-0.41-0.84-0.69-1.76-0.8-2.74c0,0,0,0,0,0c-0.5-4.52,2.65-8.57,7.04-9.06c0,0,0,0,0,0c0.26-0.03,0.51-0.04,0.77-0.04
		c0.02,0,0.03,0,0.05,0c1.08-0.01,2.12,0.21,3.08,0.62c0.72,0.3,1.39,0.71,1.99,1.21c0.55,0.45,1.04,0.99,1.46,1.58
		c0.27,0.38,0.51,0.78,0.71,1.21c0.41,0.84,0.69,1.76,0.8,2.74v0C71.41,66.67,68.26,70.73,63.87,71.21z"/>
	<path class="st2" d="M32.18,50.54c-0.02,0.01-0.06,0.02-0.08,0.03c-0.1,0.09-0.14,0.24-0.13,0.43c0.04,0.58,0.57,1.55,1.4,2.5
		c0.21,0.23,0.41,0.44,0.62,0.64c0.48,0.45,0.94,0.79,1.33,0.96c0.01,0,0.02,0.01,0.03,0.02c0.06,0.02,0.1,0.03,0.15,0.05
		c0.15,0.05,0.3,0.08,0.41,0.07c0.03,0,0.05-0.02,0.08-0.04c0.04-0.01,0.08-0.02,0.11-0.05h0c0.4-0.35-0.17-1.66-1.28-2.93
		C33.79,51.03,32.64,50.31,32.18,50.54z"/>
	<path class="st4" d="M76.99,51.3c-2.15-1.29-2.42-0.97-0.83,0.96c3.32,4.01,4.48,8.77,3.48,14.3c-0.08,0.44-0.42,0.79-1.03,1.04
		l-0.15,0.7c-0.07,0.34-0.22,0.66-0.43,0.94c-1.42,1.81-1.89,3.62-1.41,5.43c5.6-2.91,10.27-6.68,14.04-11.29
		c0.2-0.24,0.19-0.59-0.02-0.83C86.65,58.13,82.1,54.38,76.99,51.3z"/>
	<path class="st2" d="M89.95,55.09c0.19,0.16,0.57,0.07,1.03-0.21c0.07-0.04,0.14-0.09,0.21-0.14c0.45-0.31,0.96-0.77,1.45-1.34
		c1.09-1.27,1.65-2.58,1.26-2.92s-1.6,0.42-2.69,1.69c-0.14,0.16-0.26,0.32-0.38,0.48C89.99,53.76,89.6,54.8,89.95,55.09z"/>
	<path class="st4" d="M36.19,61.51c-0.97,0.89-0.95,1.88,0.08,2.96c4,4.23,8.48,7.81,13.44,10.74c0.8,0.47,0.96,0.31,0.47-0.48
		c-3.03-4.95-4.91-8.8-3.91-14.93c0.04-0.24,0.14-0.45,0.3-0.62c0.2-0.22,0.43-0.34,0.68-0.35l3.16-8.02
		C44.6,53.63,40.9,57.17,36.19,61.51z"/>
	<path class="st2" d="M70.91,62.16c-0.11-0.98-0.39-1.9-0.8-2.74c-0.21-0.43-0.44-0.83-0.71-1.21c-0.42-0.59-0.91-1.12-1.46-1.58
		c-0.6-0.5-1.27-0.9-1.99-1.21c-0.96-0.4-2-0.62-3.08-0.62c-0.02,0-0.03,0-0.05,0c-0.25,0-0.51,0.02-0.77,0.04
		c-4.39,0.48-7.54,4.54-7.04,9.06c0,0,0,0,0,0c0.11,0.98,0.39,1.9,0.8,2.74c0.21,0.43,0.44,0.83,0.71,1.21
		c0.63,0.89,1.43,1.63,2.34,2.2c0.21,0.13,0.42,0.25,0.63,0.36c0.56,0.28,1.15,0.5,1.77,0.64c0.1,0.02,0.21,0.05,0.31,0.07
		c0.74,0.14,1.5,0.18,2.29,0.09C68.26,70.73,71.41,66.67,70.91,62.16L70.91,62.16z M68.89,65.5c-0.16,0.38-0.36,0.75-0.59,1.09
		c-0.35,0.51-0.76,0.97-1.24,1.37c-1.11,0.92-2.53,1.47-4.09,1.47c0,0,0,0,0,0c-1.55,0-2.98-0.55-4.09-1.47
		c-0.48-0.39-0.89-0.85-1.24-1.37c-0.23-0.34-0.43-0.71-0.59-1.09c-0.33-0.77-0.5-1.61-0.5-2.5c0-3.55,2.88-6.43,6.43-6.43
		c3.55,0,6.43,2.88,6.43,6.43C69.39,63.89,69.21,64.73,68.89,65.5z"/>
	<path class="st4" d="M62.97,56.57c-3.55,0-6.43,2.88-6.43,6.43c0,0.89,0.18,1.73,0.5,2.5c0.16,0.38,0.36,0.75,0.59,1.09
		c0.35,0.51,0.76,0.97,1.24,1.37c1.11,0.92,2.53,1.47,4.09,1.47c1.55,0,2.98-0.55,4.09-1.47c0.48-0.39,0.89-0.85,1.24-1.37
		c0.23-0.34,0.43-0.71,0.59-1.09c0.33-0.77,0.5-1.61,0.5-2.5C69.39,59.45,66.52,56.57,62.97,56.57z"/>
	<path class="st2" d="M35.86,71.1c-0.09-0.08-0.19-0.13-0.29-0.17c-0.21-0.07-0.44-0.05-0.64,0.05c-0.1,0.05-0.19,0.12-0.27,0.21
		l0,0l-2.59,2.99c-0.25,0.29-0.26,0.68-0.07,0.99c0.04,0.07,0.09,0.15,0.16,0.21l0.08,0.07c0.18,0.15,0.4,0.22,0.62,0.2
		c0.02,0,0.04-0.01,0.07-0.02c0.19-0.03,0.38-0.11,0.51-0.27l2.59-2.99c0.15-0.18,0.22-0.4,0.2-0.62c-0.02-0.22-0.11-0.43-0.29-0.58
		L35.86,71.1z"/>
	<path class="st2" d="M93.9,75.48c0.03-0.03,0.04-0.07,0.06-0.1c0.04-0.08,0.07-0.19,0.06-0.32c-0.01-0.09-0.03-0.2-0.06-0.31
		c-0.14-0.45-0.47-1.05-0.96-1.67c-0.12-0.15-0.25-0.31-0.39-0.46c-0.41-0.46-0.84-0.86-1.23-1.15c-0.13-0.1-0.26-0.18-0.38-0.26
		c-0.15-0.09-0.29-0.16-0.42-0.21c-0.29-0.11-0.52-0.13-0.66-0.01c-0.22,0.19-0.12,0.69,0.2,1.31c0.06,0.12,0.13,0.24,0.2,0.36
		c0.22,0.36,0.5,0.74,0.83,1.12c0.02,0.03,0.04,0.05,0.06,0.08c0.69,0.77,1.42,1.35,1.96,1.59C93.5,75.58,93.76,75.6,93.9,75.48z"/>
	<path class="st2" d="M48.78,80.49c-0.04-0.06-0.09-0.11-0.16-0.14c-0.06-0.03-0.13-0.04-0.21-0.03c-0.53,0.06-1.37,1.01-2,2.33
		c-0.36,0.75-0.58,1.48-0.66,2.06c-0.05,0.43-0.02,0.77,0.1,0.96c0.04,0.06,0.09,0.11,0.16,0.14c0.31,0.15,0.81-0.2,1.32-0.85
		c0.31-0.39,0.61-0.89,0.88-1.45C48.85,82.18,49.07,80.94,48.78,80.49z"/>
	<path class="st2" d="M79.43,82.62c-0.09-0.19-0.18-0.38-0.28-0.56s-0.2-0.34-0.29-0.5c-0.2-0.31-0.4-0.59-0.6-0.8
		c-0.2-0.22-0.38-0.38-0.55-0.47c-0.08-0.05-0.16-0.08-0.24-0.09c-0.07-0.01-0.14,0-0.2,0.02c-0.06,0.03-0.1,0.07-0.14,0.13
		c0,0-0.01,0-0.01,0.01c-0.02,0.04-0.04,0.1-0.05,0.15c-0.03,0.11-0.06,0.25-0.06,0.41c0,0.15,0.02,0.31,0.05,0.49
		c0.05,0.34,0.16,0.73,0.31,1.15c0.09,0.25,0.19,0.51,0.31,0.78c0.01,0.03,0.02,0.05,0.03,0.08c0.27,0.58,0.58,1.09,0.88,1.5
		c0.5,0.67,0.99,1.04,1.29,0.9c0.12-0.06,0.19-0.19,0.23-0.38c0.04-0.19,0.03-0.44-0.01-0.73C80.02,84.13,79.79,83.39,79.43,82.62z"
		/>
	<path class="st2" d="M33.64,89.29c0-0.03,0.01-0.05,0.01-0.08l-0.05-1.11c-0.01-0.19-0.17-0.34-0.36-0.35l-4.18-0.2
		c0,0-0.01,0-0.01,0c-0.02,0-0.04-0.01-0.06-0.02c-0.02-0.01-0.05-0.01-0.07-0.02c-0.02-0.01-0.04-0.03-0.06-0.04
		c-0.02-0.01-0.04-0.03-0.06-0.04c-0.02-0.02-0.02-0.04-0.04-0.06c-0.01-0.02-0.03-0.04-0.03-0.06c-0.01-0.02-0.01-0.05-0.01-0.07
		c0-0.03-0.01-0.05-0.01-0.08l0.29-3.59c0.01-0.17-0.1-0.33-0.26-0.38l-1.12-0.36c-0.03-0.01-0.07-0.02-0.1-0.02
		c-0.01,0-0.01,0-0.02,0c-0.03,0-0.05,0.01-0.07,0.01c-0.02,0.01-0.04,0.01-0.06,0.02c-0.02,0.01-0.04,0.02-0.06,0.04
		c-0.02,0.01-0.04,0.03-0.05,0.04c-0.02,0.02-0.03,0.04-0.04,0.05c-0.01,0.02-0.03,0.04-0.04,0.07c-0.01,0.04-0.03,0.08-0.03,0.12
		l-0.07,6.1c0,0.01,0,0.01,0,0.02c0,0.02,0.01,0.04,0.01,0.06c0,0.02,0.01,0.05,0.02,0.07c0.01,0.02,0.02,0.04,0.04,0.06
		c0.01,0.02,0.02,0.04,0.04,0.06c0.02,0.02,0.04,0.03,0.06,0.04c0.02,0.01,0.04,0.03,0.06,0.04c0.02,0.01,0.05,0.01,0.07,0.02
		c0.03,0.01,0.05,0.02,0.08,0.01l5.82-0.05c0.01,0,0.01,0,0.02,0c0.02,0,0.04-0.01,0.06-0.02c0.02-0.01,0.05-0.01,0.07-0.02
		c0.02-0.01,0.04-0.03,0.06-0.04c0.02-0.01,0.04-0.03,0.06-0.04c0.02-0.02,0.03-0.04,0.04-0.06c0.01-0.02,0.03-0.04,0.04-0.06
		C33.64,89.34,33.64,89.31,33.64,89.29z"/>
	<path class="st2" d="M97.78,82.93l-0.35,0.11c-0.23,0.07-0.39,0.29-0.38,0.53l0.1,3.2c0,0.01,0,0.02,0,0.03
		c0,0.06-0.03,0.11-0.04,0.17c-0.01,0.06-0.02,0.13-0.04,0.19c-0.02,0.06-0.07,0.11-0.1,0.16c-0.03,0.05-0.06,0.11-0.11,0.15
		c-0.04,0.04-0.1,0.07-0.15,0.11s-0.1,0.08-0.16,0.1c-0.06,0.03-0.13,0.03-0.19,0.04c-0.07,0.01-0.13,0.04-0.21,0.04l-3.21-0.01
		c-0.27,0-0.49,0.21-0.51,0.48l-0.03,0.39c-0.04,0.54,0.21,0.82,0.75,0.84l4.91,0.17c0.57,0.01,0.84-0.26,0.83-0.82l-0.11-5.16
		C98.78,82.96,98.44,82.72,97.78,82.93z"/>
	<path class="st2" d="M63.16,83.86l-0.11,0l-0.11,0c-0.41,0-0.74,0.32-0.75,0.73l-0.04,4.26c0,0.1,0.02,0.2,0.06,0.29
		c0.05,0.12,0.14,0.22,0.25,0.3c0.12,0.09,0.26,0.15,0.43,0.16l0.11,0l0.11,0c0.1,0,0.2-0.02,0.29-0.06
		c0.09-0.04,0.17-0.09,0.24-0.16c0.13-0.13,0.22-0.32,0.22-0.52l0.04-4.26c0-0.2-0.08-0.39-0.21-0.52
		C63.54,83.94,63.36,83.86,63.16,83.86z"/>
</g>
</svg>
