<?xml version="1.0" encoding="utf-8"?>
<!-- Generator: Adobe Illustrator 28.0.0, SVG Export Plug-In . SVG Version: 6.00 Build 0)  -->
<svg version="1.1" id="Capa_1" xmlns="http://www.w3.org/2000/svg" xmlns:xlink="http://www.w3.org/1999/xlink" x="0px" y="0px"
	 viewBox="0 0 126 126" style="enable-background:new 0 0 126 126;" xml:space="preserve">
<style type="text/css">
	.st0{fill:#FFFFFF;stroke:#1DA9FC;stroke-miterlimit:10;}
	.st1{fill:none;}
	.st2{fill:#0B4774;}
	.st3{fill:#FFFFFF;}
	.st4{fill:#B3DFF8;}
</style>
<circle class="st0" cx="63" cy="63" r="59.67"/>
<g>
	<path class="st1" d="M51.05,96.41c0.03-0.02,0.06-0.01,0.09-0.01c-0.01,0-0.02-0.01-0.04-0.01C51.08,96.4,51.06,96.4,51.05,96.41z"
		/>
	<path class="st1" d="M86.93,53.67c0,0.05-0.02,0.1-0.03,0.14c0.01-0.04,0.02-0.07,0.02-0.1C86.93,53.69,86.93,53.68,86.93,53.67z"
		/>
	<path class="st1" d="M93.56,48.42c-0.01-0.02-0.02-0.04-0.04-0.05c0.03,0.04,0.04,0.08,0.06,0.12
		C93.57,48.46,93.57,48.44,93.56,48.42z"/>
	<path class="st1" d="M60.59,97.41c0.03-0.05,0.06-0.09,0.1-0.13c-0.02,0.02-0.04,0.03-0.05,0.04
		C60.62,97.35,60.6,97.38,60.59,97.41z"/>
	<path class="st1" d="M105.98,74.03C105.98,74.03,105.98,74.03,105.98,74.03c0.01,0.04,0.01,0.08,0.02,0.11
		C105.99,74.11,105.99,74.07,105.98,74.03z"/>
	<path class="st1" d="M39.09,82.9c-0.14,0.17-0.29,0.33-0.46,0.46C38.8,83.23,38.95,83.08,39.09,82.9l3.82-4.7
		c0.14-0.17,0.26-0.35,0.36-0.54c-0.1,0.19-0.22,0.37-0.36,0.54L39.09,82.9z"/>
	<path class="st1" d="M42.25,73.54l-0.04-0.04c-0.06-0.05-0.12-0.08-0.19-0.12c0.06,0.04,0.13,0.07,0.19,0.12L42.25,73.54z"/>
	<path class="st1" d="M37.7,73.97c0.14-0.17,0.29-0.33,0.46-0.46C37.99,73.64,37.84,73.8,37.7,73.97l-3.82,4.7
		c-0.31,0.38-0.51,0.81-0.62,1.26c0.11-0.45,0.31-0.88,0.62-1.26L37.7,73.97z"/>
	<path class="st1" d="M20.08,73.24c-0.02,0.05-0.04,0.1-0.05,0.15c0.01-0.07,0.05-0.14,0.08-0.2C20.11,73.2,20.09,73.22,20.08,73.24
		z"/>
	<path class="st1" d="M33.17,80.54c0-0.01,0-0.01,0-0.02C33.17,80.53,33.17,80.54,33.17,80.54z"/>
	<path class="st1" d="M43.11,74.47c0.14,0.21,0.25,0.44,0.33,0.67C43.36,74.9,43.25,74.68,43.11,74.47z"/>
	<path class="st1" d="M56.3,25.37c-0.09-0.02-0.2-0.02-0.3,0c0,0,0,0,0,0l-0.03,0.01L56,25.37C56.1,25.35,56.2,25.36,56.3,25.37z"/>
	<path class="st1" d="M66.37,40.85c0.07,0.05,0.16,0.09,0.25,0.11l0.02,0l-0.02,0C66.53,40.94,66.44,40.9,66.37,40.85z"/>
	<path class="st1" d="M79.54,36.79c0.04-0.12,0.04-0.25,0-0.37C79.57,36.55,79.57,36.67,79.54,36.79z"/>
	<path class="st1" d="M76.39,38.81l-3.03,4.5c-0.07,0.11-0.11,0.23-0.11,0.36c0-0.12,0.04-0.25,0.11-0.36L76.39,38.81z"/>
	<path class="st1" d="M77.64,39.65l1.81-2.68c0.04-0.05,0.06-0.11,0.08-0.17c-0.02,0.06-0.05,0.12-0.08,0.17L77.64,39.65z"/>
	<path class="st1" d="M46.57,36.06l0.04-0.03L46.57,36.06c-0.1,0.07-0.18,0.17-0.23,0.27C46.39,36.22,46.47,36.13,46.57,36.06z"/>
	<path class="st1" d="M46.26,36.82c0.02,0.1,0.06,0.19,0.11,0.27l1.78,2.62l-1.78-2.62C46.32,37.01,46.28,36.91,46.26,36.82z"/>
	<path class="st1" d="M58.51,40.92c0.16,0.11,0.36,0.15,0.56,0.11c0,0,0,0,0,0l0.03-0.01l-0.03,0.01
		C58.87,41.07,58.67,41.02,58.51,40.92z"/>
	<path class="st1" d="M52.21,44.28l-0.01,0.01L52.21,44.28c0.34-0.23,0.43-0.7,0.2-1.04l-1.78-2.62l1.78,2.62
		C52.64,43.58,52.56,44.04,52.21,44.28z"/>
	<polygon class="st1" points="55.39,26.26 55.39,26.26 55.79,28.27 	"/>
	<path class="st1" d="M34.54,83.33l0.04,0.04c0.52,0.42,1.12,0.65,1.74,0.71c-0.61-0.05-1.22-0.29-1.74-0.71L34.54,83.33z"/>
	<path class="st1" d="M59.61,40.63c0.07-0.14,0.11-0.31,0.08-0.48v0l-1.4-7.09l1.4,7.09C59.72,40.32,59.68,40.48,59.61,40.63z"/>
	<path class="st1" d="M62.43,88.31l-0.23-0.19L62.43,88.31c1.26,1.04,1.43,2.9,0.39,4.16l-3.17,3.84l3.17-3.84
		C63.86,91.22,63.69,89.35,62.43,88.31z"/>
	<path class="st1" d="M65.23,91.33C65.23,91.33,65.23,91.34,65.23,91.33c0.01-0.02,0.04-0.03,0.06-0.04
		C65.27,91.31,65.24,91.31,65.23,91.33z"/>
	<path class="st1" d="M71.54,73.93c0.03-0.05,0.08-0.08,0.12-0.12c-0.03,0.03-0.07,0.05-0.1,0.09
		C71.55,73.91,71.54,73.92,71.54,73.93z"/>
	<path class="st1" d="M53.95,98.35l0.11,0.09c0.16,0.13,0.32,0.24,0.5,0.33c-0.17-0.09-0.34-0.2-0.5-0.33L53.95,98.35z"/>
	<path class="st1" d="M56.41,90.48l-2.98,3.6c-0.52,0.63-0.74,1.41-0.66,2.16c-0.07-0.75,0.14-1.53,0.66-2.16L56.41,90.48z"/>
	<path class="st1" d="M66.67,81.29c-0.04-0.03-0.07-0.08-0.1-0.12c0.02,0.02,0.03,0.05,0.05,0.07
		C66.64,81.26,66.65,81.28,66.67,81.29z"/>
	<path class="st1" d="M69.53,94.03C69.53,94.03,69.53,94.03,69.53,94.03c0.09,0.06,0.17,0.14,0.25,0.21
		C69.7,94.17,69.62,94.1,69.53,94.03z"/>
	<path class="st1" d="M45.36,75.36c0.03-0.01,0.07-0.02,0.1-0.04C45.43,75.34,45.39,75.35,45.36,75.36
		C45.36,75.36,45.36,75.36,45.36,75.36z"/>
	<path class="st1" d="M46.83,76.17c-0.38,0.2-0.73,0.48-1.02,0.84L40,84.2l5.82-7.19C46.11,76.66,46.45,76.38,46.83,76.17z"/>
	<path class="st1" d="M60.03,87.46c0.38-0.04,0.76,0,1.13,0.11C60.79,87.46,60.41,87.42,60.03,87.46z"/>
	<path class="st1" d="M46.33,94.55C46.33,94.55,46.33,94.55,46.33,94.55c-0.32-0.26-0.57-0.58-0.76-0.92
		C45.75,93.97,46.01,94.28,46.33,94.55z"/>
	<path class="st1" d="M46.83,76.17c0.38-0.2,0.8-0.33,1.22-0.37C47.63,75.84,47.22,75.97,46.83,76.17z"/>
	<path class="st1" d="M57.1,83.13c-0.11-0.13-0.23-0.25-0.36-0.36c0,0,0,0,0,0l-0.14-0.12l0.14,0.12
		C56.87,82.88,56.99,83,57.1,83.13z"/>
	<path class="st2" d="M58.2,40.44c0.02,0.1,0.06,0.19,0.11,0.27c0.05,0.08,0.12,0.15,0.2,0.2c0.16,0.11,0.36,0.15,0.56,0.11
		l0.03-0.01c0.23-0.05,0.41-0.2,0.51-0.39c0.07-0.14,0.11-0.31,0.08-0.48l-1.4-7.09l-1.4-7.09c-0.02-0.1-0.06-0.19-0.11-0.27
		c-0.05-0.08-0.12-0.15-0.2-0.2c-0.08-0.05-0.17-0.09-0.26-0.11s-0.2-0.02-0.3,0l-0.03,0.01c-0.4,0.08-0.67,0.47-0.59,0.88l0.4,2.01
		L58.2,40.44z"/>
	<path class="st2" d="M66.37,40.85c0.07,0.05,0.16,0.09,0.25,0.11l0.02,0l0.12,0.02c0.38,0.07,0.74-0.17,0.81-0.54l2.8-14.16
		c0.04-0.19-0.01-0.37-0.1-0.52c-0.1-0.15-0.25-0.26-0.44-0.29l-0.15-0.03c-0.38-0.07-0.74,0.17-0.81,0.54l-2.8,14.16v0
		c-0.02,0.09-0.02,0.19,0,0.28C66.11,40.6,66.22,40.75,66.37,40.85z"/>
	<path class="st2" d="M46.26,36.82c0.02,0.1,0.06,0.19,0.11,0.27l1.78,2.62l2.99,4.4c0.23,0.34,0.7,0.43,1.04,0.2l0.03-0.02
		l0.01-0.01c0.34-0.23,0.43-0.7,0.2-1.04l-1.78-2.62l-2.99-4.4c-0.23-0.34-0.7-0.43-1.04-0.2l-0.04,0.03
		c-0.1,0.07-0.18,0.17-0.23,0.27c-0.05,0.09-0.08,0.18-0.09,0.28C46.24,36.67,46.25,36.75,46.26,36.82z"/>
	<path class="st2" d="M73.53,44.19l0.19,0.13c0.07,0.05,0.15,0.08,0.23,0.1c0.24,0.05,0.51-0.05,0.65-0.27l3.03-4.5l1.81-2.68
		c0.04-0.05,0.06-0.11,0.08-0.17c0.04-0.12,0.04-0.25,0-0.37c-0.02-0.06-0.04-0.12-0.08-0.17c-0.05-0.07-0.11-0.13-0.18-0.18l0,0
		l-0.19-0.13c-0.15-0.1-0.32-0.13-0.48-0.1c-0.16,0.03-0.31,0.12-0.41,0.27l-1.81,2.68l-3.03,4.5c-0.07,0.11-0.11,0.23-0.11,0.36
		c0,0.12,0.04,0.24,0.1,0.35C73.4,44.08,73.46,44.14,73.53,44.19z"/>
	<path class="st2" d="M105.98,74.03l-0.08-0.23c-0.1-0.26-0.37-0.41-0.64-0.34c-1.9,0.45-5.82,3.25-7.2,0.4
		c-3.25-6.68-6.39-13.13-9.42-19.37c-0.55-1.12-0.14-2.49,0.94-3.13l3.8-2.25c0.02-0.01,0.04-0.02,0.05-0.04
		c0.02-0.01,0.03-0.03,0.04-0.05c0.02-0.02,0.05-0.05,0.07-0.08c0.02-0.03,0.03-0.06,0.04-0.09c0.01-0.03,0.02-0.06,0.03-0.09
		c0.01-0.03,0.01-0.06,0.01-0.1c0-0.03,0-0.06-0.01-0.1c-0.01-0.03-0.02-0.06-0.03-0.1c-0.02-0.04-0.03-0.08-0.06-0.12l-0.23-0.3
		c-0.19-0.26-0.56-0.33-0.84-0.16c-2.26,1.37-5.6,2.47-5.53,5.76c0,0.01,0,0.03,0,0.04c0,0.04-0.02,0.07-0.02,0.1
		c-0.01,0.04-0.01,0.08-0.03,0.12c-0.02,0.04-0.04,0.07-0.07,0.1c-0.02,0.03-0.04,0.07-0.07,0.1c-0.03,0.03-0.06,0.05-0.1,0.07
		c-0.03,0.02-0.06,0.05-0.1,0.06c-0.04,0.02-0.08,0.02-0.12,0.03c-0.05,0.01-0.09,0.03-0.14,0.02c-1.75-0.06-3.43-0.55-5.04-1.48
		c-4.4-2.53-8.66-4.9-13.8-3.27c-1.09,0.35-2.16,0.46-3.2,0.33c-5.97-0.76-11.93,1.32-17.72,3.56c-2.49,0.96-4.9,1.09-7.25,0.38
		c-0.27-0.08-0.4-0.26-0.4-0.54c0.02-3.4-2.53-4.52-5.37-5.81c-0.33-0.15-0.72-0.02-0.9,0.3l-0.16,0.28
		c-0.11,0.19-0.04,0.43,0.14,0.54l3.65,2.14c1.06,0.62,1.46,1.95,0.92,3.05c-2.93,6.04-5.97,12.25-9.11,18.62
		c-1.77,3.58-4.5,1.62-7.04,0.47c-0.05-0.02-0.1-0.04-0.15-0.05c-0.02,0-0.04,0-0.06,0c-0.05-0.01-0.09-0.01-0.14,0
		c-0.04,0-0.09,0.01-0.13,0.02c-0.04,0.01-0.08,0.03-0.12,0.05c-0.04,0.02-0.08,0.04-0.11,0.07c-0.03,0.03-0.06,0.06-0.09,0.09
		c-0.03,0.04-0.06,0.07-0.08,0.11c-0.03,0.06-0.07,0.12-0.08,0.2l-0.05,0.22c-0.03,0.15,0.04,0.3,0.17,0.37
		c2.66,1.61,5.86,3.17,8.39,0.75c0.22-0.22,0.43-0.2,0.62,0.05c0.92,1.24,1.99,2.16,3.23,2.75c0.21,0.1,0.26,0.26,0.15,0.46
		c-1.95,3.51-0.04,7.73,4.13,7.5c0.31-0.02,0.42,0.12,0.33,0.42c-0.86,2.92,0.07,5.03,2.78,6.32c1.05,0.49,2.21,0.5,3.49,0.02
		c0.28-0.1,0.44-0.01,0.47,0.28c0.44,3.49,4.13,5.75,7.31,3.88c0.02-0.01,0.03-0.02,0.05-0.02c0.01,0,0.02,0.01,0.04,0.01
		c0.02,0,0.04,0,0.06,0.01c0.02,0.01,0.03,0.02,0.05,0.04c0.02,0.02,0.04,0.05,0.05,0.08c0.97,5.08,7.05,5.24,9.29,0.88
		c0.01-0.03,0.03-0.06,0.05-0.08c0.01-0.02,0.03-0.03,0.05-0.04c0.03-0.03,0.05-0.06,0.09-0.08c0.03-0.02,0.06-0.04,0.09-0.05
		c0.03-0.02,0.07-0.03,0.1-0.04c0.04-0.01,0.07-0.01,0.11-0.01c0.04,0,0.07,0,0.11,0c0.04,0.01,0.07,0.02,0.11,0.03
		c0.05,0.02,0.1,0.04,0.15,0.07c1.4,1.01,2.77,1.94,4.13,2.79c2.69,1.68,6.62-0.11,6.54-3.46c-0.01-0.28,0.12-0.38,0.39-0.29
		c3.05,1,5.31-0.08,6.76-3.23c0.18-0.4,0.26-0.81,0.24-1.26c-0.02-0.37,0.14-0.48,0.48-0.33c2.98,1.22,5.26,0.36,6.86-2.6
		c0.27-0.52,0.35-1.14,0.33-1.71c-0.02-0.38,0.15-0.49,0.49-0.33c2.66,1.22,4.8,0.68,6.39-1.64c1.71-2.48,1.37-4.75-1.03-6.84
		c-0.23-0.2-0.2-0.34,0.09-0.43c1.44-0.44,2.71-1.19,3.81-2.27c0.21-0.21,0.43-0.21,0.64,0.01c2.35,2.37,5.61,0.14,7.98-0.73
		c0,0,0,0,0,0c0.05-0.02,0.08-0.05,0.12-0.08c0.03-0.02,0.08-0.04,0.11-0.06c0.04-0.03,0.06-0.08,0.09-0.12
		c0.02-0.03,0.05-0.05,0.06-0.09c0.02-0.05,0.03-0.1,0.04-0.16c0.01-0.03,0.02-0.06,0.02-0.09c0-0.05-0.01-0.1-0.02-0.15
		C105.99,74.11,105.99,74.07,105.98,74.03z M36.93,84.07c-0.2,0.02-0.41,0.02-0.61,0c-0.61-0.05-1.22-0.29-1.74-0.71l-0.04-0.04
		l-0.19-0.16c-0.27-0.22-0.49-0.49-0.67-0.77c-0.09-0.14-0.17-0.29-0.23-0.44c-0.2-0.45-0.29-0.94-0.27-1.42c0-0.01,0-0.01,0-0.02
		c0.01-0.2,0.04-0.4,0.09-0.6c0.11-0.45,0.31-0.88,0.62-1.26l3.82-4.7c0.14-0.17,0.29-0.33,0.46-0.46c0.06-0.05,0.12-0.08,0.18-0.12
		c0.46-0.33,0.98-0.53,1.52-0.59c0.28-0.03,0.56-0.02,0.83,0.03c0.28,0.05,0.55,0.13,0.81,0.25c0.18,0.08,0.36,0.18,0.52,0.3
		c0.06,0.04,0.13,0.07,0.19,0.12l0.04,0.04l0.19,0.16c0.27,0.22,0.49,0.49,0.67,0.77c0.14,0.21,0.25,0.44,0.33,0.67
		c0.08,0.23,0.14,0.47,0.17,0.72c0.06,0.61-0.05,1.24-0.34,1.81c-0.1,0.19-0.22,0.37-0.36,0.54l-3.82,4.7
		c-0.14,0.17-0.29,0.33-0.46,0.46s-0.34,0.25-0.52,0.35C37.74,83.91,37.34,84.03,36.93,84.07z M39.55,90.37l-0.17-0.13
		c-0.71-0.58-1.12-1.39-1.21-2.23c-0.09-0.84,0.14-1.72,0.72-2.44L40,84.2l5.82-7.19c0.29-0.36,0.64-0.64,1.02-0.84
		c0.38-0.2,0.8-0.33,1.22-0.37c0.84-0.09,1.72,0.15,2.43,0.72l0.17,0.13c0.18,0.14,0.34,0.3,0.48,0.47
		c0.98,1.19,1.02,2.95,0.01,4.19l-6.93,8.55C43.06,91.3,40.97,91.52,39.55,90.37z M51.17,94.46c-0.14,0.17-0.29,0.32-0.46,0.45
		c-0.33,0.26-0.7,0.45-1.09,0.57c-0.19,0.06-0.39,0.1-0.6,0.11c-0.8,0.08-1.64-0.15-2.31-0.71l-0.4-0.33c0,0,0,0,0,0
		c-0.32-0.26-0.57-0.58-0.76-0.92c-0.18-0.34-0.3-0.72-0.35-1.1c-0.01-0.04-0.02-0.08-0.02-0.11c0,0,0,0,0,0
		c-0.03-0.36,0-0.73,0.1-1.09c0.1-0.37,0.26-0.72,0.5-1.05c0.04-0.06,0.07-0.12,0.12-0.18l5.99-7.24c0.14-0.17,0.29-0.32,0.46-0.45
		c1.14-0.92,2.82-0.94,3.99,0.03l0.26,0.21l0.14,0.12c0,0,0,0,0,0c0.13,0.11,0.25,0.23,0.36,0.36s0.2,0.27,0.29,0.41
		c0.17,0.28,0.3,0.57,0.38,0.89c0.09,0.35,0.13,0.72,0.09,1.09c-0.06,0.61-0.29,1.2-0.71,1.7L51.17,94.46z M59.65,96.31l-1.44,1.74
		c-0.76,0.92-1.95,1.25-3.03,0.96c-0.22-0.06-0.43-0.13-0.63-0.24c-0.17-0.09-0.34-0.2-0.5-0.33l-0.11-0.09l-0.13-0.11
		c-0.63-0.52-0.99-1.25-1.06-2c-0.07-0.75,0.14-1.53,0.66-2.16l2.98-3.6l1.63-1.97c0.52-0.63,1.25-0.99,2-1.06
		c0.38-0.04,0.76,0,1.13,0.11c0.37,0.11,0.72,0.29,1.03,0.55l0.23,0.19c1.26,1.04,1.43,2.9,0.39,4.16L59.65,96.31z M70.65,96.58
		c-0.01,0.08-0.01,0.16-0.03,0.24c-0.02,0.11-0.07,0.22-0.1,0.33c-0.02,0.06-0.03,0.12-0.06,0.18c-0.04,0.11-0.11,0.21-0.17,0.31
		c-0.03,0.06-0.06,0.12-0.1,0.18c0,0,0,0,0,0l-0.13,0.19c-0.86,1.25-2.55,1.58-3.78,0.74L62.28,96c-0.09-0.06-0.11-0.19-0.05-0.28
		l3-4.38c0,0,0,0,0,0c0.02-0.02,0.04-0.03,0.06-0.04c0.02-0.01,0.04-0.04,0.07-0.04c0.03,0,0.05,0.01,0.08,0.02
		c0.03,0.01,0.05,0,0.08,0.02c0,0,0,0,0,0l4.01,2.75c0,0,0,0,0,0c0.09,0.06,0.17,0.14,0.25,0.21c0.05,0.05,0.12,0.09,0.16,0.14
		c0.06,0.07,0.11,0.14,0.17,0.22c0.05,0.07,0.11,0.13,0.16,0.2c0.05,0.07,0.08,0.15,0.12,0.23c0.04,0.08,0.09,0.15,0.12,0.24
		c0.04,0.1,0.06,0.2,0.09,0.31c0.02,0.07,0.04,0.13,0.05,0.19c0.02,0.1,0.02,0.21,0.03,0.32c0,0.07,0.02,0.14,0.02,0.2
		C70.68,96.39,70.66,96.49,70.65,96.58z M87.86,85.11c-5.71-4.17-10.78-7.96-15.22-11.36c-0.05-0.04-0.1-0.05-0.16-0.08
		c-0.05-0.02-0.09-0.05-0.14-0.06c-0.05-0.01-0.1-0.01-0.15-0.01c-0.05,0-0.1-0.01-0.15,0c-0.05,0.01-0.09,0.03-0.14,0.05
		c-0.05,0.02-0.09,0.03-0.14,0.05c-0.04,0.03-0.08,0.07-0.12,0.1c-0.04,0.04-0.09,0.07-0.12,0.12l-0.13,0.2
		c-0.14,0.2-0.09,0.47,0.11,0.62c4.38,3.33,8.65,6.56,12.82,9.7c3.65,2.75-0.59,8.05-4.39,5.08c-3.79-2.95-7.92-6.09-12.39-9.44
		c-0.21-0.16-0.51-0.14-0.7,0.05L66.6,80.4c-0.04,0.04-0.06,0.08-0.08,0.13c-0.02,0.03-0.04,0.07-0.05,0.11
		c-0.01,0.04-0.02,0.07-0.02,0.11c0,0.04-0.01,0.08-0.01,0.11c0,0.04,0.01,0.07,0.02,0.11c0.01,0.04,0.02,0.07,0.04,0.11
		c0.02,0.04,0.04,0.07,0.07,0.1c0.03,0.04,0.06,0.08,0.1,0.12c3.22,2.44,6.49,4.94,9.83,7.49c3.74,2.85-0.14,8.32-4.13,5.5
		c-2.18-1.54-4.34-3.04-6.48-4.51c-2.29-1.57-2.42-3.98-5.95-3.85c-0.27,0.01-0.42-0.12-0.44-0.4c-0.23-3.28-2.15-5.07-5.76-5.36
		c-0.25-0.02-0.37-0.16-0.35-0.41c0.37-4.21-4.4-7.03-7.92-4.45c-0.03,0.02-0.06,0.04-0.1,0.04c0,0,0,0,0,0
		c-0.03,0.01-0.05,0.01-0.08,0c-0.01,0-0.02,0-0.03,0c-0.02,0-0.03-0.01-0.05-0.02c-0.02-0.01-0.04-0.01-0.05-0.02
		c-0.01,0-0.01-0.01-0.02-0.02c-0.02-0.02-0.04-0.03-0.06-0.05c0,0,0,0,0,0c-0.02-0.03-0.04-0.06-0.04-0.09
		c-0.75-2.95-4.11-4.76-6.84-3.48c-1.84,0.86-2.98,3.17-4.4,4.64c-0.16,0.17-0.34,0.19-0.53,0.06c-1.39-0.88-2.53-1.86-3.43-2.95
		c-0.23-0.28-0.27-0.66-0.11-0.98l8.39-17.03c0.13-0.27,0.34-0.36,0.62-0.27c2.69,0.88,5.21,0.88,7.55-0.02
		c5.33-2.03,9.94-3.71,15.29-3.96c1.08-0.05,1.16,0.2,0.24,0.76c-2.14,1.3-3.92,3.15-5.33,5.54c-1.95,3.31-3.88,6.77-5.8,10.37
		c-0.08,0.14-0.05,0.27,0.07,0.37c1.33,1.18,2.85,1.95,4.54,2.33c3.97,0.89,7.13-2.38,9.13-5.5c0.22-0.33,0.61-0.5,0.99-0.41
		c1.75,0.4,3.45,0.21,5.11-0.56c0.37-0.17,0.72-0.14,1.04,0.11c6.94,5.24,13.77,10.36,20.49,15.35
		C95.84,82.36,91.72,87.93,87.86,85.11z M96.15,74.42c-1.35,1.16-2.89,1.97-4.64,2.42c-0.29,0.08-0.57,0.02-0.81-0.16L71.41,62.22
		c-0.26-0.2-0.62-0.2-0.89-0.01c-1.77,1.31-3.69,1.49-5.77,0.56c-0.29-0.12-0.62-0.02-0.78,0.24c-2.51,3.98-5.82,8.39-11.14,4.9
		c-0.2-0.13-0.25-0.3-0.14-0.52c1.67-3.26,3.31-6.22,4.91-8.87c3.55-5.92,11.58-10.26,18.37-6.74c3.19,1.64,7.17,4.41,10.85,3.91
		c0.4-0.05,0.79,0.15,0.96,0.51l8.5,17.51C96.43,73.98,96.38,74.22,96.15,74.42z"/>
	<path class="st3" d="M87.79,56.2c-0.17-0.36-0.56-0.56-0.96-0.51c-3.68,0.49-7.66-2.27-10.85-3.91
		c-6.79-3.52-14.83,0.82-18.37,6.74c-1.6,2.66-3.23,5.62-4.91,8.87c-0.11,0.21-0.07,0.39,0.14,0.52c5.32,3.49,8.63-0.92,11.14-4.9
		c0.16-0.26,0.49-0.36,0.78-0.24c2.08,0.94,4,0.75,5.77-0.56c0.27-0.19,0.63-0.19,0.89,0.01L90.7,76.68
		c0.25,0.18,0.52,0.24,0.81,0.16c1.74-0.45,3.29-1.26,4.64-2.42c0.23-0.2,0.28-0.43,0.14-0.71L87.79,56.2z"/>
	<path class="st4" d="M92.03,79.53c-6.72-4.99-13.55-10.11-20.49-15.35c-0.32-0.24-0.67-0.28-1.04-0.11
		c-1.66,0.78-3.36,0.96-5.11,0.56c-0.38-0.09-0.77,0.08-0.99,0.41c-1.99,3.12-5.15,6.39-9.13,5.5c-1.69-0.38-3.2-1.15-4.54-2.33
		c-0.12-0.11-0.14-0.23-0.07-0.37c1.92-3.6,3.85-7.05,5.8-10.37c1.41-2.39,3.19-4.24,5.33-5.54c0.92-0.56,0.84-0.81-0.24-0.76
		c-5.35,0.25-9.96,1.93-15.29,3.96c-2.34,0.89-4.86,0.9-7.55,0.02c-0.28-0.09-0.49,0-0.62,0.27l-8.39,17.03
		c-0.16,0.32-0.11,0.7,0.11,0.98c0.89,1.09,2.03,2.08,3.43,2.95c0.19,0.13,0.37,0.11,0.53-0.06c1.42-1.48,2.56-3.78,4.4-4.64
		c2.73-1.28,6.1,0.53,6.84,3.48c0.01,0.03,0.02,0.07,0.04,0.09c0,0,0,0,0,0c0.02,0.02,0.04,0.04,0.06,0.05
		c0.01,0.01,0.01,0.01,0.02,0.02c0.02,0.01,0.03,0.01,0.05,0.02c0.02,0.01,0.03,0.01,0.05,0.02c0.01,0,0.02,0,0.03,0
		c0.03,0,0.05,0,0.08,0c0.03-0.01,0.07-0.02,0.1-0.04c3.52-2.59,8.3,0.24,7.92,4.45c-0.02,0.25,0.1,0.39,0.35,0.41
		c3.61,0.29,5.53,2.08,5.76,5.36c0.02,0.27,0.17,0.41,0.44,0.4c3.53-0.13,3.66,2.28,5.95,3.85c2.14,1.46,4.3,2.96,6.48,4.51
		c3.98,2.82,7.86-2.65,4.13-5.5c-3.33-2.55-6.61-5.05-9.83-7.49c-0.02-0.01-0.04-0.03-0.05-0.05c-0.02-0.02-0.03-0.05-0.05-0.07
		c-0.02-0.03-0.05-0.06-0.07-0.1c-0.02-0.03-0.03-0.07-0.04-0.11c-0.01-0.04-0.02-0.07-0.02-0.11c0-0.04,0-0.08,0.01-0.11
		c0-0.04,0.01-0.07,0.02-0.11c0.01-0.04,0.03-0.07,0.05-0.11c0.02-0.04,0.05-0.09,0.08-0.13l0.24-0.24c0.19-0.19,0.49-0.21,0.7-0.05
		c4.48,3.34,8.61,6.49,12.39,9.44c3.81,2.97,8.04-2.34,4.39-5.08c-4.17-3.14-8.44-6.38-12.82-9.7c-0.2-0.15-0.24-0.42-0.11-0.62
		l0.13-0.2c0.01-0.01,0.02-0.02,0.03-0.04c0.03-0.04,0.07-0.06,0.1-0.09c0.04-0.03,0.07-0.07,0.12-0.1
		c0.04-0.03,0.09-0.04,0.14-0.05c0.05-0.02,0.09-0.04,0.14-0.05c0.05-0.01,0.1,0,0.15,0c0.05,0,0.1,0,0.15,0.01
		c0.05,0.01,0.09,0.04,0.14,0.06c0.05,0.02,0.11,0.04,0.16,0.08c4.44,3.4,9.51,7.19,15.22,11.36
		C91.72,87.93,95.84,82.36,92.03,79.53z"/>
	<path class="st3" d="M39.09,82.9l3.82-4.7c0.14-0.17,0.26-0.35,0.36-0.54c0.3-0.57,0.41-1.2,0.34-1.81
		c-0.03-0.24-0.08-0.48-0.17-0.72c-0.08-0.23-0.2-0.46-0.33-0.67c-0.18-0.28-0.39-0.55-0.67-0.77l-0.19-0.16l-0.04-0.04
		c-0.06-0.05-0.12-0.08-0.19-0.12c-0.17-0.12-0.34-0.22-0.52-0.3c-0.26-0.12-0.53-0.2-0.81-0.25c-0.28-0.05-0.56-0.06-0.83-0.03
		c-0.54,0.06-1.07,0.26-1.52,0.59c-0.06,0.04-0.12,0.07-0.18,0.12c-0.16,0.13-0.32,0.29-0.46,0.46l-3.82,4.7
		c-0.31,0.38-0.51,0.81-0.62,1.26c-0.05,0.2-0.08,0.4-0.09,0.6c0,0.01,0,0.01,0,0.02c-0.02,0.49,0.07,0.97,0.27,1.42
		c0.07,0.15,0.14,0.3,0.23,0.44c0.18,0.28,0.39,0.55,0.67,0.77l0.19,0.16l0.04,0.04c0.52,0.42,1.12,0.65,1.74,0.71
		c0.2,0.02,0.41,0.02,0.61,0c0.41-0.04,0.81-0.16,1.18-0.36c0.18-0.1,0.36-0.21,0.52-0.35S38.95,83.08,39.09,82.9z"/>
	<path class="st3" d="M51.13,77.13c-0.14-0.17-0.3-0.33-0.48-0.47l-0.17-0.13c-0.71-0.58-1.59-0.81-2.43-0.72
		c-0.42,0.04-0.84,0.17-1.22,0.37c-0.38,0.2-0.73,0.48-1.02,0.84L40,84.2l-1.11,1.37c-0.58,0.71-0.81,1.59-0.72,2.44
		c0.09,0.84,0.5,1.66,1.21,2.23l0.17,0.13c1.42,1.15,3.51,0.93,4.67-0.49l6.93-8.55C52.15,80.08,52.11,78.32,51.13,77.13z"/>
	<path class="st3" d="M57.87,85.51c0.04-0.36,0-0.73-0.09-1.09c-0.08-0.31-0.21-0.61-0.38-0.89c-0.09-0.14-0.18-0.28-0.29-0.41
		s-0.23-0.25-0.36-0.36l-0.14-0.12l-0.26-0.21c-1.18-0.97-2.85-0.95-3.99-0.03c-0.16,0.13-0.32,0.28-0.46,0.45l-5.99,7.24
		c-0.05,0.06-0.08,0.12-0.12,0.18c-0.23,0.33-0.4,0.68-0.5,1.05c-0.09,0.36-0.13,0.72-0.1,1.09c0,0,0,0,0,0
		c0,0.04,0.02,0.08,0.02,0.11c0.05,0.38,0.17,0.75,0.35,1.1s0.44,0.66,0.76,0.92l0.4,0.33c0.67,0.56,1.51,0.79,2.31,0.71
		c0.2-0.02,0.4-0.06,0.6-0.11c0.39-0.11,0.76-0.3,1.09-0.57c0.16-0.13,0.32-0.28,0.46-0.45l5.99-7.24
		C57.58,86.71,57.81,86.12,57.87,85.51z"/>
	<path class="st3" d="M62.43,88.31l-0.23-0.19c-0.31-0.26-0.67-0.44-1.03-0.55c-0.37-0.11-0.75-0.15-1.13-0.11
		c-0.75,0.07-1.48,0.43-2,1.06l-1.63,1.97l-2.98,3.6c-0.52,0.63-0.74,1.41-0.66,2.16c0.07,0.75,0.43,1.48,1.06,2l0.13,0.11
		l0.11,0.09c0.16,0.13,0.32,0.24,0.5,0.33c0.2,0.11,0.41,0.18,0.63,0.24c1.08,0.29,2.27-0.05,3.03-0.96l1.44-1.74l3.17-3.84
		C63.86,91.22,63.68,89.35,62.43,88.31z"/>
	<path class="st4" d="M70.64,95.77c-0.01-0.07-0.04-0.13-0.05-0.19c-0.03-0.1-0.05-0.21-0.09-0.31c-0.03-0.08-0.08-0.16-0.12-0.24
		c-0.04-0.08-0.07-0.16-0.12-0.23c-0.04-0.07-0.1-0.13-0.16-0.2c-0.06-0.07-0.11-0.15-0.17-0.22c-0.05-0.05-0.11-0.09-0.16-0.14
		c-0.08-0.07-0.16-0.15-0.25-0.21l-4.01-2.75c0,0,0,0,0,0c-0.02-0.02-0.05-0.01-0.08-0.02c-0.03-0.01-0.05-0.02-0.08-0.02
		c-0.03,0-0.04,0.03-0.07,0.04c-0.02,0.01-0.05,0.02-0.07,0.04l-3,4.38c-0.06,0.09-0.04,0.22,0.05,0.28l4.01,2.75
		c1.23,0.84,2.92,0.51,3.78-0.74l0.13-0.19c0,0,0,0,0,0c0.04-0.06,0.06-0.12,0.1-0.18c0.06-0.1,0.12-0.2,0.17-0.31
		c0.03-0.06,0.04-0.12,0.06-0.18c0.04-0.11,0.08-0.22,0.1-0.33c0.02-0.08,0.02-0.16,0.03-0.24c0.01-0.1,0.03-0.19,0.03-0.29
		c0-0.07-0.01-0.14-0.02-0.2C70.66,95.98,70.66,95.88,70.64,95.77z"/>
</g>
</svg>
