<?xml version="1.0" encoding="utf-8"?>
<!-- Generator: Adobe Illustrator 28.0.0, SVG Export Plug-In . SVG Version: 6.00 Build 0)  -->
<svg version="1.1" id="Capa_1" xmlns="http://www.w3.org/2000/svg" xmlns:xlink="http://www.w3.org/1999/xlink" x="0px" y="0px"
	 viewBox="0 0 126 126" style="enable-background:new 0 0 126 126;" xml:space="preserve">
<style type="text/css">
	.st0{fill:#FFFFFF;stroke:#1DA9FC;stroke-miterlimit:10;}
	.st1{fill:none;}
	.st2{fill:#094774;}
	.st3{fill:#FFFFFF;}
	.st4{fill:#B3DFF8;}
	.st5{fill:#17A9F7;}
</style>
<circle class="st0" cx="63" cy="63" r="59.67"/>
<g>
	<path class="st1" d="M40.1,35.32c0-0.04,0.01-0.07,0.02-0.11C40.11,35.25,40.1,35.28,40.1,35.32C40.1,35.32,40.1,35.32,40.1,35.32z
		"/>
	<path class="st1" d="M30.53,63.35c0.02,0,0.04,0.01,0.07,0.01c-0.04,0-0.07-0.01-0.11-0.02C30.51,63.34,30.52,63.35,30.53,63.35z"
		/>
	<path class="st1" d="M49.52,62.67c0-0.04,0-0.08-0.01-0.11c0.01,0.07,0,0.13-0.01,0.2C49.5,62.72,49.52,62.7,49.52,62.67z"/>
	<path class="st1" d="M34.74,73.56c0-0.26,0.11-0.49,0.27-0.66C34.84,73.07,34.74,73.3,34.74,73.56z"/>
	<path class="st1" d="M57.64,84c0.01,0,0.01,0,0.02,0c-0.04,0-0.08-0.01-0.12-0.01C57.57,83.99,57.61,84,57.64,84z"/>
	<path class="st1" d="M70.44,59.5c0.01,0,0.03,0,0.04,0c-0.06,0-0.12-0.02-0.18-0.03C70.35,59.48,70.39,59.5,70.44,59.5z"/>
	<path class="st1" d="M47.16,82.15c0.25,0,0.45-0.2,0.45-0.45C47.61,81.95,47.41,82.15,47.16,82.15z"/>
	<path class="st2" d="M108.48,91.66l-3.26-0.1c-0.35-0.01-0.52-0.19-0.52-0.54l-0.12-50.67c0-0.39-0.31-0.71-0.7-0.71l-5.47-0.1
		c-0.58-0.01-1.14,0.24-1.53,0.67l-7.56,8.42c-0.93,1.03-1.36,0.85-1.29-0.54c0.1-2.26,0.13-4.81,0.08-7.64
		c-0.01-0.43-0.23-0.67-0.66-0.7c-2.18-0.14-4.21-0.12-6.09,0.05c-0.42,0.04-0.78,0.22-1.06,0.53l-7.94,8.79
		c-0.64,0.71-0.95,0.58-0.93-0.37l0.18-8.31c0.01-0.42-0.2-0.65-0.61-0.7c-2.05-0.27-4.08-0.27-6.08,0
		c-0.44,0.06-0.84,0.27-1.13,0.59L53.35,51.82c-0.4,0.43-0.37,0.83,0.1,1.19l0.26,0.21c0.23,0.18,0.55,0.15,0.75-0.06L64.8,41.89
		c0.23-0.25,0.52-0.38,0.86-0.38l3.41-0.02c0.38,0,0.56,0.19,0.56,0.56l-0.02,16.61c0,0.01,0,0.03,0,0.04
		c0,0.05,0.02,0.09,0.04,0.14c0.01,0.05,0.02,0.11,0.04,0.16c0.02,0.05,0.06,0.09,0.09,0.13c0.03,0.04,0.06,0.09,0.09,0.13
		c0.04,0.04,0.09,0.06,0.13,0.09c0.04,0.03,0.08,0.06,0.13,0.08c0.05,0.02,0.11,0.02,0.16,0.03c0.06,0.01,0.12,0.03,0.18,0.03
		l0.35-0.02c0.39-0.02,0.7-0.35,0.7-0.75l-0.07-5.05c-0.01-0.59,0.21-1.15,0.6-1.58l9.37-10.3c0.17-0.19,0.42-0.3,0.68-0.3
		l3.49,0.02c0.36,0,0.55,0.18,0.55,0.55l-0.02,16.38c0,0.56,0.27,0.89,0.82,1.01c0.17,0.03,0.34,0.04,0.51,0.02
		c0.36-0.06,0.63-0.36,0.63-0.73l0.03-5.8c0-0.25,0.09-0.48,0.26-0.67l9.48-10.32c0.28-0.3,0.62-0.45,1.03-0.44l3.18,0.05
		c0.38,0.01,0.57,0.2,0.57,0.58l-0.04,20.74c0,0.3-0.15,0.45-0.45,0.45l-50.28-0.07c-0.28,0-0.45-0.14-0.5-0.43L45.6,27.19
		c-0.06-0.35-0.36-0.61-0.72-0.62l-9.73-0.02c-0.54,0-0.86,0.27-0.95,0.81l-5.72,35.3c-0.05,0.33-0.34,0.58-0.67,0.58L24,63.33
		c-0.38,0.01-0.58,0.2-0.58,0.59L23.2,91.05c0,0.32-0.16,0.48-0.48,0.5l-3.45,0.12c-0.14,0.01-0.25,0.07-0.33,0.19
		c-0.2,0.31-0.23,0.61-0.11,0.91c0.15,0.4,0.53,0.66,0.96,0.67c31.01,0.01,60.08,0.01,87.22,0c0.44,0,0.88-0.03,1.31-0.1
		c0.68-0.1,0.98-0.44,0.9-1.02C109.17,91.89,108.92,91.67,108.48,91.66z M30.21,62.89l5.52-33.95c0.06-0.38,0.29-0.58,0.68-0.58
		l6.64-0.09c0.57-0.01,0.91,0.27,1.01,0.83l0.81,4.61c0.09,0.52-0.12,0.79-0.65,0.82l-3.58,0.2c-0.04,0-0.07,0.02-0.11,0.03
		c-0.04,0.01-0.08,0.01-0.11,0.03c-0.03,0.02-0.06,0.04-0.08,0.06c-0.03,0.02-0.06,0.04-0.09,0.06c-0.02,0.03-0.04,0.06-0.06,0.09
		c-0.02,0.03-0.04,0.06-0.05,0.09c-0.01,0.03-0.01,0.07-0.02,0.11c-0.01,0.04-0.02,0.07-0.02,0.11c0.02,0.6,0.32,0.92,0.89,0.96
		c1.28,0.08,2.53,0.13,3.75,0.17c0.46,0.01,0.73,0.25,0.79,0.71l0.4,3.02c0.06,0.43-0.13,0.65-0.56,0.65l-4.53,0.07
		c-0.11,0-0.22,0.04-0.31,0.11c-0.43,0.36-0.54,0.69-0.34,0.98c0.23,0.34,0.55,0.51,0.96,0.52l4.46,0.09
		c0.49,0.01,0.77,0.25,0.84,0.73l3.08,19.22c0.01,0.04,0.01,0.08,0.01,0.11c0,0.03-0.01,0.05-0.02,0.08
		c-0.01,0.05-0.01,0.09-0.03,0.14c-0.01,0.04-0.03,0.08-0.06,0.12c-0.02,0.04-0.05,0.08-0.07,0.11c-0.03,0.03-0.06,0.06-0.1,0.09
		c-0.03,0.03-0.07,0.05-0.11,0.07c-0.04,0.02-0.09,0.04-0.13,0.05c-0.03,0.01-0.05,0.02-0.08,0.03c-0.04,0.01-0.08,0.01-0.11,0.01
		L30.6,63.35c-0.02,0-0.04,0-0.07-0.01c-0.02,0-0.03-0.01-0.04-0.02c-0.03-0.01-0.05-0.02-0.07-0.03c-0.02-0.01-0.04-0.03-0.06-0.04
		c-0.02-0.02-0.04-0.03-0.05-0.05c-0.02-0.02-0.03-0.04-0.04-0.06c-0.01-0.02-0.02-0.04-0.03-0.07c-0.01-0.03-0.01-0.05-0.02-0.08
		c0-0.02-0.01-0.03-0.01-0.04C30.2,62.94,30.21,62.92,30.21,62.89z M102.6,91.06c0,0.3-0.24,0.54-0.54,0.54H25.87
		c-0.3,0-0.54-0.24-0.54-0.54V65.54c0-0.3,0.24-0.54,0.54-0.54h76.19c0.3,0,0.54,0.24,0.54,0.54V91.06z"/>
	<path class="st3" d="M30.23,63.08c0.01,0.02,0.02,0.05,0.03,0.07c0.01,0.02,0.03,0.04,0.04,0.06c0.02,0.02,0.03,0.04,0.05,0.05
		c0.02,0.02,0.04,0.03,0.06,0.04c0.02,0.01,0.05,0.02,0.07,0.03c0.04,0.01,0.07,0.02,0.11,0.02l18.21,0.02c0.04,0,0.08,0,0.11-0.01
		c0.03,0,0.05-0.02,0.08-0.03c0.05-0.01,0.09-0.03,0.13-0.05c0.04-0.02,0.07-0.05,0.11-0.07c0.04-0.03,0.07-0.06,0.1-0.09
		c0.03-0.03,0.05-0.07,0.07-0.11c0.02-0.04,0.04-0.08,0.06-0.12c0.02-0.04,0.02-0.09,0.03-0.14c0.01-0.06,0.02-0.13,0.01-0.2
		l-3.08-19.22c-0.08-0.48-0.36-0.72-0.84-0.73l-4.46-0.09c-0.41-0.01-0.72-0.19-0.96-0.52c-0.2-0.29-0.09-0.62,0.34-0.98
		c0.09-0.07,0.2-0.11,0.31-0.11l4.53-0.07c0.43-0.01,0.62-0.22,0.56-0.65l-0.4-3.02c-0.06-0.46-0.33-0.7-0.79-0.71
		c-1.22-0.03-2.46-0.09-3.75-0.17c-0.57-0.03-0.86-0.35-0.89-0.96c0,0,0,0,0,0c0-0.04,0.01-0.07,0.02-0.11
		c0.01-0.04,0-0.08,0.02-0.11c0.01-0.03,0.04-0.06,0.05-0.09c0.02-0.03,0.03-0.07,0.06-0.09c0.02-0.03,0.06-0.04,0.09-0.06
		c0.03-0.02,0.05-0.05,0.08-0.06c0.03-0.02,0.07-0.02,0.11-0.03c0.04-0.01,0.07-0.02,0.11-0.03l3.58-0.2
		c0.53-0.02,0.74-0.3,0.65-0.82l-0.81-4.61c-0.1-0.56-0.43-0.84-1.01-0.83l-6.64,0.09c-0.39,0.01-0.61,0.2-0.68,0.58l-5.52,33.95
		c0,0.02-0.01,0.04-0.01,0.07c0,0.02,0.01,0.03,0.01,0.04C30.22,63.03,30.22,63.05,30.23,63.08z"/>
	<path class="st4" d="M102.06,65H25.87c-0.3,0-0.54,0.24-0.54,0.54v25.51c0,0.3,0.24,0.54,0.54,0.54h76.19
		c0.3,0,0.54-0.24,0.54-0.54V65.54C102.6,65.25,102.36,65,102.06,65z M49.4,83.05c0,0.52-0.42,0.94-0.94,0.94H35.68
		c-0.52,0-0.94-0.42-0.94-0.94v-9.49c0-0.26,0.11-0.49,0.27-0.66c0.17-0.17,0.4-0.27,0.66-0.27h12.79c0.26,0,0.49,0.11,0.66,0.27
		c0.17,0.17,0.27,0.4,0.27,0.66V83.05z M71.31,83.48c-0.14,0.15-0.3,0.28-0.45,0.38c-0.16,0.1-0.33,0.16-0.51,0.16
		c-4.24-0.03-8.47-0.03-12.69-0.02c-0.01,0-0.01,0-0.02,0c-0.04,0-0.07-0.01-0.11-0.01c-0.04,0-0.08-0.01-0.12-0.01
		c-0.04-0.01-0.07-0.02-0.11-0.03c-0.04-0.01-0.07-0.02-0.11-0.04c-0.04-0.02-0.07-0.04-0.1-0.05c-0.03-0.02-0.07-0.03-0.1-0.05
		c-0.03-0.02-0.06-0.05-0.09-0.07c-0.03-0.02-0.06-0.05-0.09-0.07c-0.03-0.03-0.05-0.06-0.07-0.09c-0.02-0.03-0.05-0.06-0.07-0.09
		c-0.02-0.03-0.04-0.07-0.05-0.1c-0.02-0.03-0.04-0.07-0.05-0.1c-0.02-0.04-0.02-0.07-0.04-0.11c-0.01-0.04-0.03-0.07-0.03-0.11
		c-0.01-0.04-0.01-0.08-0.01-0.12c0-0.04-0.01-0.07-0.01-0.11c0-0.01,0-0.01,0-0.02l0.05-8.98c0-0.69,0.56-1.24,1.24-1.24
		l12.53,0.03c0.49,0,0.89,0.39,0.9,0.89L71.38,80C71.61,81.26,71.58,82.42,71.31,83.48z M92.15,83.99C87.86,84,83.83,84,80.06,83.98
		c-0.8-0.01-1.35-0.19-1.65-0.56l0.07-6.67l-0.01-3.25c0-0.12,0.02-0.23,0.07-0.33c0.07-0.16,0.2-0.29,0.35-0.38
		c0.13-0.08,0.28-0.14,0.44-0.14h0l12.79-0.01c0.62,0,0.93,0.31,0.93,0.93l0.03,9.49C93.08,83.57,92.66,83.99,92.15,83.99z"/>
	<path class="st2" d="M48.47,72.63H35.68c-0.26,0-0.49,0.11-0.66,0.27c-0.17,0.17-0.27,0.4-0.27,0.66v9.49
		c0,0.52,0.42,0.94,0.94,0.94h12.79c0.52,0,0.94-0.42,0.94-0.94v-9.49c0-0.26-0.11-0.49-0.27-0.66
		C48.96,72.73,48.73,72.63,48.47,72.63z M47.61,81.7c0,0.25-0.2,0.45-0.45,0.45h-9.94c-0.25,0-0.45-0.2-0.45-0.45v-6.81
		c0-0.25,0.2-0.45,0.45-0.45h9.94c0.25,0,0.45,0.2,0.45,0.45V81.7z"/>
	<path class="st2" d="M71.38,80l-0.17-6.51c-0.01-0.49-0.41-0.89-0.9-0.89l-12.53-0.03c-0.68,0-1.24,0.55-1.24,1.24l-0.05,8.98
		c0,0.01,0,0.01,0,0.02c0,0.04,0.01,0.07,0.01,0.11c0,0.04,0.01,0.08,0.01,0.12c0.01,0.04,0.02,0.07,0.03,0.11
		c0.01,0.04,0.02,0.08,0.04,0.11c0.02,0.04,0.04,0.07,0.05,0.1c0.02,0.03,0.03,0.07,0.05,0.1c0.02,0.03,0.05,0.06,0.07,0.09
		c0.02,0.03,0.04,0.06,0.07,0.09c0.03,0.03,0.06,0.05,0.09,0.07c0.03,0.02,0.06,0.05,0.09,0.07c0.03,0.02,0.07,0.04,0.1,0.05
		c0.03,0.02,0.07,0.04,0.1,0.05c0.04,0.01,0.07,0.02,0.11,0.04c0.04,0.01,0.07,0.03,0.11,0.03c0.04,0.01,0.08,0.01,0.12,0.01
		c0.04,0,0.08,0.01,0.12,0.01c4.22-0.02,8.45-0.01,12.69,0.02c0.19,0,0.36-0.05,0.51-0.16c0.16-0.1,0.31-0.23,0.45-0.38
		C71.04,82.45,71.07,81.29,71.38,80z M69.37,81.76c0,0.22-0.18,0.39-0.39,0.39h-9.98c-0.22,0-0.39-0.18-0.39-0.39v-6.92
		c0-0.22,0.18-0.39,0.39-0.39h9.98c0.22,0,0.39,0.18,0.39,0.39V81.76z"/>
	<path class="st2" d="M92.12,72.64l-12.79,0.01h0c-0.17,0-0.31,0.06-0.44,0.14c-0.15,0.09-0.28,0.22-0.35,0.38
		c-0.04,0.1-0.07,0.21-0.07,0.33l0.01,3.25l-0.07,6.67c0.3,0.36,0.85,0.55,1.65,0.56c3.77,0.02,7.8,0.02,12.09,0.01
		c0.51,0,0.93-0.42,0.93-0.93l-0.03-9.49C93.05,72.95,92.74,72.64,92.12,72.64z M91.17,81.7c0,0.06-0.01,0.12-0.04,0.18
		c-0.07,0.16-0.23,0.28-0.42,0.28h-9.85c-0.25,0-0.45-0.2-0.45-0.45v-6.81c0-0.25,0.2-0.45,0.45-0.45h9.85
		c0.19,0,0.35,0.11,0.42,0.28c0.02,0.05,0.04,0.11,0.04,0.18V81.7z"/>
	<path class="st3" d="M47.16,74.43h-9.94c-0.25,0-0.45,0.2-0.45,0.45v6.81c0,0.25,0.2,0.45,0.45,0.45h9.94
		c0.25,0,0.45-0.2,0.45-0.45v-6.81C47.61,74.63,47.41,74.43,47.16,74.43z"/>
	<path class="st3" d="M68.98,74.45h-9.98c-0.22,0-0.39,0.18-0.39,0.39v6.92c0,0.22,0.18,0.39,0.39,0.39h9.98
		c0.22,0,0.39-0.18,0.39-0.39v-6.92C69.37,74.63,69.2,74.45,68.98,74.45z"/>
	<path class="st3" d="M90.72,74.43h-9.85c-0.25,0-0.45,0.2-0.45,0.45v6.81c0,0.25,0.2,0.45,0.45,0.45h9.85
		c0.19,0,0.35-0.11,0.42-0.28c0.02-0.05,0.04-0.11,0.04-0.18v-6.81c0-0.06-0.01-0.12-0.04-0.18C91.07,74.55,90.91,74.43,90.72,74.43
		z"/>
	<path class="st5" d="M71.31,83.48c0.27-1.06,0.3-2.22,0.07-3.48C71.07,81.29,71.04,82.45,71.31,83.48z"/>
</g>
</svg>
