<?xml version="1.0" encoding="utf-8"?>
<!-- Generator: Adobe Illustrator 28.0.0, SVG Export Plug-In . SVG Version: 6.00 Build 0)  -->
<svg version="1.1" id="Capa_1" xmlns="http://www.w3.org/2000/svg" xmlns:xlink="http://www.w3.org/1999/xlink" x="0px" y="0px"
	 viewBox="0 0 126 126" style="enable-background:new 0 0 126 126;" xml:space="preserve">
<style type="text/css">
	.st0{fill:#FFFFFF;stroke:#1DA9FC;stroke-miterlimit:10;}
	.st1{fill:none;}
	.st2{fill:#074873;}
	.st3{fill:#B3DFF8;}
	.st4{fill:#FFFFFF;}
</style>
<circle class="st0" cx="63" cy="63" r="59.67"/>
<g>
	<path class="st1" d="M64.38,97.88c0.33,0.17,0.66,0.31,1,0.43C65.05,98.19,64.71,98.05,64.38,97.88L64.38,97.88z"/>
	<path class="st1" d="M91.91,56.78c0.1,0.05,0.18,0.14,0.21,0.24C92.08,56.93,92.01,56.84,91.91,56.78
		C91.91,56.78,91.91,56.78,91.91,56.78L48.95,35.18c-0.05-0.03-0.11-0.04-0.16-0.04c0.05,0,0.11,0.02,0.16,0.04L91.91,56.78z"/>
	<path class="st1" d="M27.77,75.69c-0.11-0.51-0.17-1.03-0.18-1.55C27.6,74.67,27.66,75.18,27.77,75.69z"/>
	<path class="st1" d="M75.85,88.01c0,0-0.01,0-0.01-0.01c0.04,0.02,0.07,0.06,0.11,0.09C75.92,88.07,75.89,88.03,75.85,88.01z"/>
	<path class="st1" d="M33.84,64.28l14.54-28.92c0.02-0.04,0.05-0.07,0.08-0.1c-0.03,0.03-0.06,0.06-0.08,0.1c0,0,0,0,0,0
		L33.84,64.28c-0.1,0.21-0.02,0.46,0.19,0.56h0C33.82,64.74,33.73,64.49,33.84,64.28z"/>
	<path class="st1" d="M80.99,103.17l6.45,0.01c0.1,0,0.19-0.03,0.28-0.06c-0.09,0.03-0.18,0.06-0.28,0.06L80.99,103.17z"/>
	<path class="st1" d="M75.89,94.12C75.89,94.12,75.89,94.12,75.89,94.12c-0.05,0.1-0.11,0.18-0.16,0.28
		C75.78,94.3,75.84,94.22,75.89,94.12z"/>
	<path class="st1" d="M74.55,101.31l6.45,0.01L74.55,101.31c-0.48,0-0.88,0.39-0.88,0.87C73.67,101.7,74.06,101.31,74.55,101.31z"/>
	<path class="st1" d="M88.25,102.65c0.04-0.1,0.07-0.22,0.07-0.34l0-0.09l0,0.09C88.32,102.43,88.29,102.54,88.25,102.65z"/>
	<path class="st1" d="M92.3,41.35C92.3,41.34,92.29,41.34,92.3,41.35c0.11,0.06,0.22,0.12,0.34,0.19
		C92.52,41.47,92.42,41.4,92.3,41.35z"/>
	<path class="st1" d="M84.86,71.72l7.23-14.37c0.03-0.05,0.04-0.11,0.04-0.16c0,0.05-0.02,0.11-0.04,0.16L84.86,71.72z"/>
	<path class="st1" d="M51.55,29.03c0,0,0,0.01-0.01,0.01c0.06-0.11,0.12-0.21,0.18-0.32C51.67,28.82,51.61,28.92,51.55,29.03z"/>
	<path class="st1" d="M50.29,33.64C50.29,33.64,50.29,33.64,50.29,33.64c-0.05-0.03-0.09-0.07-0.14-0.11
		C50.19,33.57,50.23,33.62,50.29,33.64z"/>
	<path class="st2" d="M95.19,40.98c-0.45-0.35-0.93-0.67-1.46-0.94L61.62,23.75c-1.32-0.67-2.73-0.96-4.11-0.92
		c-1.38,0.04-2.73,0.41-3.93,1.08c-0.48,0.27-0.94,0.58-1.36,0.94c-0.85,0.72-1.57,1.61-2.11,2.67l-21.6,42.57
		c-0.53,1.05-0.83,2.17-0.91,3.28c-0.02,0.26-0.02,0.52-0.02,0.79c0.01,0.52,0.07,1.04,0.18,1.55c0.05,0.25,0.12,0.5,0.19,0.75
		c0.34,1.1,0.89,2.14,1.64,3.04c0.18,0.21,0.37,0.42,0.57,0.61c0.6,0.59,1.31,1.09,2.1,1.49l32.11,16.29h0
		c0.33,0.17,0.66,0.31,1,0.43c1.02,0.36,2.07,0.52,3.1,0.49c0.61-0.02,1.22-0.11,1.8-0.25c0.47-0.12,0.94-0.27,1.39-0.46
		c0.25-0.11,0.5-0.23,0.74-0.36c0.72-0.4,1.39-0.91,1.97-1.51c0.2-0.2,0.38-0.41,0.56-0.64c0.29-0.36,0.54-0.76,0.78-1.18
		c0.05-0.09,0.11-0.18,0.16-0.28l21.6-42.57c0,0,0,0,0,0c0.22-0.44,0.4-0.89,0.54-1.35c0.05-0.15,0.09-0.3,0.13-0.45
		c0.11-0.46,0.19-0.92,0.23-1.38c0.03-0.31,0.04-0.62,0.03-0.93C98.34,44.96,97.19,42.57,95.19,40.98z M76.18,88.81
		c-0.01,0.04-0.01,0.08-0.03,0.12c0,0,0,0.01-0.01,0.01l-1.91,3.82c-1.7,3.4-5.94,4.72-9.47,2.95l-31.1-15.57
		c-3.53-1.77-5.01-5.95-3.31-9.35l1.92-3.84c0.17-0.34,0.58-0.47,0.92-0.3l42.64,21.35c0,0,0.01,0,0.01,0.01
		c0.04,0.02,0.07,0.05,0.1,0.08c0.04,0.03,0.08,0.05,0.11,0.09c0.03,0.03,0.04,0.08,0.07,0.12c0.02,0.04,0.05,0.07,0.06,0.11
		c0.01,0.04,0.01,0.09,0.02,0.13c0.01,0.04,0.02,0.09,0.01,0.13C76.21,88.72,76.19,88.76,76.18,88.81z M92.09,57.35l-7.23,14.37
		l-7.32,14.54c-0.03,0.05-0.06,0.1-0.1,0.13c-0.12,0.11-0.31,0.13-0.46,0.06L34.02,64.85h0c-0.21-0.1-0.29-0.36-0.19-0.56
		l14.54-28.92c0,0,0,0,0,0c0.02-0.04,0.05-0.07,0.08-0.1c0.01-0.01,0.01-0.02,0.02-0.03c0.04-0.04,0.09-0.06,0.14-0.08
		c0.05-0.02,0.11-0.02,0.16-0.02c0.05,0,0.11,0.02,0.16,0.04l42.96,21.61c0,0,0,0,0,0c0.1,0.05,0.18,0.14,0.21,0.24
		c0.02,0.05,0.02,0.11,0.02,0.16C92.13,57.24,92.12,57.3,92.09,57.35z M96.07,45.88c0.03,0.1,0.06,0.2,0.09,0.31
		c0.03,0.11,0.04,0.22,0.06,0.34c0.02,0.11,0.05,0.23,0.07,0.34c0.01,0.1,0.02,0.2,0.03,0.3c0.01,0.13,0.03,0.26,0.04,0.39
		c0,0.1,0,0.2,0,0.31c0,0.13,0,0.26,0,0.39c-0.01,0.11-0.02,0.21-0.03,0.32c-0.01,0.13-0.02,0.25-0.04,0.38
		c-0.02,0.11-0.05,0.22-0.07,0.33c-0.03,0.12-0.04,0.24-0.08,0.36c-0.03,0.11-0.07,0.22-0.1,0.32c-0.04,0.12-0.07,0.24-0.12,0.36
		c-0.04,0.1-0.09,0.21-0.13,0.31c-0.05,0.12-0.1,0.24-0.16,0.36c0,0,0,0,0,0.01l-1.68,3.37c-0.23,0.45-0.78,0.64-1.24,0.41
		L50.29,33.65c0,0,0,0,0,0c-0.06-0.03-0.09-0.07-0.14-0.11c-0.05-0.04-0.11-0.07-0.15-0.11c-0.04-0.04-0.06-0.1-0.09-0.15
		c-0.03-0.05-0.07-0.1-0.09-0.16c-0.02-0.05-0.02-0.11-0.02-0.17c-0.01-0.06-0.03-0.12-0.02-0.18c0-0.06,0.03-0.12,0.05-0.17
		c0.02-0.06,0.02-0.12,0.05-0.18c0,0,0,0,0,0l1.68-3.37c0,0,0-0.01,0.01-0.01c0.05-0.11,0.12-0.21,0.17-0.31
		c0.06-0.11,0.12-0.22,0.18-0.32c0.06-0.1,0.14-0.19,0.21-0.29c0.07-0.1,0.14-0.2,0.21-0.3c0.08-0.1,0.16-0.18,0.24-0.27
		c0.08-0.09,0.15-0.18,0.23-0.26c0.08-0.09,0.17-0.16,0.26-0.24c0.08-0.08,0.17-0.16,0.25-0.24c0.09-0.07,0.18-0.14,0.27-0.2
		c0.1-0.07,0.19-0.15,0.29-0.22c0.1-0.07,0.2-0.13,0.3-0.19c0.1-0.06,0.19-0.12,0.29-0.18c0.11-0.06,0.22-0.11,0.33-0.16
		c0.1-0.05,0.19-0.1,0.29-0.14c0.11-0.05,0.21-0.08,0.32-0.12c0.11-0.04,0.22-0.09,0.33-0.12c0.1-0.03,0.21-0.06,0.31-0.08
		c0.12-0.03,0.24-0.07,0.36-0.1c0.11-0.02,0.22-0.04,0.33-0.06c0.12-0.02,0.23-0.05,0.35-0.06c0.12-0.01,0.24-0.02,0.35-0.03
		c0.11-0.01,0.23-0.02,0.34-0.03c0.11,0,0.23,0,0.34,0.01c0.12,0,0.24,0,0.36,0.01c0.11,0.01,0.22,0.03,0.33,0.04
		c0.12,0.01,0.25,0.02,0.37,0.04c0.11,0.02,0.23,0.05,0.34,0.07c0.12,0.03,0.24,0.05,0.36,0.08c0.12,0.03,0.24,0.08,0.36,0.12
		c0.11,0.04,0.23,0.07,0.34,0.11c0.12,0.04,0.23,0.1,0.35,0.15c0.11,0.05,0.22,0.09,0.33,0.14c0,0,0.01,0,0.01,0.01l31.02,15.46
		c0,0,0,0,0.01,0c0.12,0.06,0.22,0.13,0.34,0.19c0.1,0.06,0.21,0.11,0.31,0.18c0.11,0.07,0.21,0.15,0.32,0.23
		c0.09,0.07,0.19,0.13,0.28,0.19c0.1,0.08,0.19,0.16,0.29,0.25c0.09,0.07,0.18,0.15,0.26,0.22c0.09,0.08,0.17,0.18,0.25,0.26
		c0.08,0.08,0.16,0.16,0.24,0.25c0.08,0.09,0.15,0.19,0.22,0.29c0.07,0.09,0.14,0.18,0.21,0.27c0.07,0.1,0.13,0.2,0.19,0.3
		c0.06,0.1,0.13,0.19,0.19,0.29c0.06,0.1,0.1,0.2,0.16,0.31c0.05,0.1,0.11,0.21,0.16,0.31c0.05,0.11,0.09,0.22,0.13,0.32
		c0.04,0.11,0.09,0.21,0.13,0.32C96.01,45.64,96.04,45.76,96.07,45.88z"/>
	<path class="st3" d="M95.71,44.88c-0.05-0.11-0.11-0.21-0.16-0.31c-0.05-0.1-0.1-0.21-0.16-0.31c-0.06-0.1-0.13-0.2-0.19-0.29
		c-0.06-0.1-0.12-0.2-0.19-0.3c-0.07-0.09-0.14-0.18-0.21-0.27c-0.07-0.1-0.15-0.19-0.22-0.29c-0.08-0.09-0.16-0.17-0.24-0.25
		c-0.08-0.09-0.16-0.18-0.25-0.26c-0.08-0.08-0.17-0.15-0.26-0.22c-0.1-0.08-0.19-0.17-0.29-0.25c-0.09-0.07-0.19-0.13-0.28-0.19
		c-0.11-0.08-0.21-0.15-0.32-0.23c-0.1-0.06-0.21-0.12-0.31-0.18c-0.11-0.06-0.22-0.13-0.34-0.19L61.27,25.88c0,0-0.01,0-0.01-0.01
		c-0.11-0.05-0.22-0.09-0.33-0.14c-0.12-0.05-0.23-0.11-0.35-0.15c-0.11-0.04-0.23-0.07-0.34-0.11c-0.12-0.04-0.24-0.08-0.36-0.12
		c-0.12-0.03-0.24-0.05-0.36-0.08c-0.11-0.02-0.23-0.05-0.34-0.07c-0.12-0.02-0.25-0.03-0.37-0.04c-0.11-0.01-0.22-0.03-0.33-0.04
		c-0.12-0.01-0.24-0.01-0.36-0.01c-0.11,0-0.23-0.01-0.34-0.01c-0.12,0-0.23,0.02-0.34,0.03c-0.12,0.01-0.24,0.01-0.35,0.03
		c-0.12,0.01-0.23,0.04-0.35,0.06c-0.11,0.02-0.22,0.03-0.33,0.06c-0.12,0.03-0.24,0.06-0.36,0.1c-0.1,0.03-0.21,0.05-0.31,0.08
		c-0.11,0.04-0.22,0.08-0.33,0.12c-0.11,0.04-0.22,0.08-0.32,0.12c-0.1,0.04-0.19,0.1-0.29,0.14c-0.11,0.05-0.22,0.1-0.33,0.16
		c-0.1,0.05-0.19,0.12-0.29,0.18c-0.1,0.06-0.21,0.12-0.3,0.19c-0.1,0.07-0.19,0.15-0.29,0.22c-0.09,0.07-0.18,0.13-0.27,0.2
		c-0.09,0.07-0.17,0.16-0.25,0.24c-0.09,0.08-0.18,0.16-0.26,0.24c-0.08,0.08-0.15,0.17-0.23,0.26c-0.08,0.09-0.16,0.18-0.24,0.27
		c-0.07,0.09-0.14,0.2-0.21,0.3c-0.07,0.1-0.14,0.19-0.21,0.29c-0.07,0.1-0.12,0.22-0.18,0.32c-0.06,0.11-0.13,0.21-0.18,0.32
		l-1.68,3.37c0,0,0,0,0,0c-0.03,0.06-0.03,0.12-0.05,0.18c-0.02,0.06-0.04,0.12-0.05,0.17c0,0.06,0.02,0.12,0.02,0.18
		c0.01,0.06,0,0.12,0.02,0.17c0.02,0.06,0.06,0.1,0.09,0.16c0.03,0.05,0.05,0.11,0.09,0.15c0.04,0.05,0.1,0.08,0.15,0.11
		c0.05,0.04,0.09,0.08,0.14,0.11L92.7,54.79c0.45,0.23,1.01,0.05,1.24-0.41l1.68-3.37c0,0,0,0,0-0.01c0.06-0.12,0.1-0.24,0.16-0.36
		c0.04-0.1,0.1-0.2,0.13-0.31c0.05-0.12,0.08-0.24,0.12-0.36c0.03-0.11,0.07-0.22,0.1-0.32c0.03-0.12,0.05-0.24,0.08-0.36
		c0.02-0.11,0.05-0.22,0.07-0.33c0.02-0.13,0.03-0.25,0.04-0.38c0.01-0.11,0.03-0.21,0.03-0.32c0.01-0.13,0-0.26,0-0.39
		c0-0.1,0.01-0.2,0-0.31c-0.01-0.13-0.02-0.26-0.04-0.39c-0.01-0.1-0.01-0.2-0.03-0.3c-0.02-0.12-0.04-0.23-0.07-0.34
		c-0.02-0.11-0.04-0.23-0.06-0.34c-0.02-0.1-0.06-0.2-0.09-0.31c-0.03-0.12-0.06-0.24-0.1-0.36c-0.04-0.11-0.09-0.21-0.13-0.32
		C95.8,45.09,95.76,44.98,95.71,44.88z"/>
	<path class="st4" d="M91.91,56.78L48.95,35.18c-0.05-0.03-0.11-0.04-0.16-0.04c-0.05,0-0.11,0-0.16,0.02
		c-0.05,0.02-0.1,0.04-0.14,0.08c-0.01,0.01-0.01,0.02-0.02,0.03c-0.03,0.03-0.06,0.06-0.08,0.1L33.84,64.28
		c-0.1,0.21-0.02,0.46,0.19,0.56l42.96,21.61c0.16,0.08,0.34,0.05,0.46-0.06c0.04-0.04,0.08-0.08,0.1-0.13l7.32-14.54l7.23-14.37
		c0.03-0.05,0.04-0.11,0.04-0.16c0-0.05,0-0.11-0.02-0.16C92.08,56.93,92.01,56.84,91.91,56.78z"/>
	<path class="st3" d="M76.18,88.41c-0.01-0.04-0.04-0.08-0.06-0.11c-0.02-0.04-0.04-0.08-0.07-0.12c-0.03-0.03-0.07-0.06-0.11-0.09
		c-0.04-0.03-0.07-0.07-0.11-0.09L33.2,66.66c-0.34-0.17-0.75-0.03-0.92,0.3l-1.92,3.84c-1.7,3.4-0.22,7.58,3.31,9.35l31.1,15.57
		c3.53,1.77,7.77,0.44,9.47-2.95l1.91-3.82c0,0,0-0.01,0.01-0.01c0.02-0.04,0.02-0.08,0.03-0.12c0.01-0.05,0.03-0.09,0.04-0.13
		c0-0.04-0.01-0.09-0.01-0.13C76.2,88.5,76.2,88.45,76.18,88.41z"/>
	<path class="st2" d="M63.72,101.32H50.48c-0.39,0-0.71,0.32-0.71,0.71v0.4c0,0.39,0.32,0.71,0.71,0.71h13.25
		c0.39,0,0.71-0.32,0.71-0.71v-0.4C64.43,101.64,64.12,101.32,63.72,101.32z"/>
	<path class="st2" d="M87.44,101.34l-6.45-0.01l-6.45-0.01c-0.48,0-0.88,0.39-0.88,0.87l0,0.09v0c0,0.48,0.39,0.88,0.87,0.88
		l6.45,0.01l6.45,0.01c0.1,0,0.19-0.03,0.28-0.06c0.13-0.04,0.24-0.11,0.34-0.2c0.08-0.08,0.14-0.17,0.19-0.28
		c0.04-0.1,0.07-0.22,0.07-0.34l0-0.09C88.32,101.73,87.93,101.34,87.44,101.34z"/>
</g>
</svg>
