<?xml version="1.0" encoding="utf-8"?>
<!-- Generator: Adobe Illustrator 28.0.0, SVG Export Plug-In . SVG Version: 6.00 Build 0)  -->
<svg version="1.1" id="Capa_1" xmlns="http://www.w3.org/2000/svg" xmlns:xlink="http://www.w3.org/1999/xlink" x="0px" y="0px"
	 viewBox="0 0 126 126" style="enable-background:new 0 0 126 126;" xml:space="preserve">
<style type="text/css">
	.st0{fill:#FFFFFF;stroke:#1DA9FC;stroke-miterlimit:10;}
	.st1{fill:none;}
	.st2{fill:#0E4D78;}
	.st3{fill:#FFFFFF;}
	.st4{fill:#B3DFF8;}
</style>
<circle class="st0" cx="63" cy="63" r="59.67"/>
<g>
	<path class="st1" d="M42.94,50.18c-0.04,0.04-0.1,0.07-0.15,0.1c0.02-0.01,0.05-0.02,0.07-0.04C42.89,50.22,42.91,50.2,42.94,50.18
		z"/>
	<path class="st1" d="M85.34,75.79c0.03-0.03,0.06-0.04,0.09-0.06c-0.02,0.01-0.03,0.01-0.05,0.02
		C85.36,75.77,85.35,75.78,85.34,75.79z"/>
	<path class="st1" d="M67.83,98.84c-0.05-0.04-0.09-0.09-0.13-0.15c0.02,0.03,0.03,0.06,0.05,0.08
		C67.78,98.79,67.81,98.81,67.83,98.84z"/>
	<path class="st1" d="M29.07,66.61c0.03-0.03,0.07-0.06,0.11-0.07C29.14,66.56,29.1,66.58,29.07,66.61
		C29.07,66.61,29.07,66.61,29.07,66.61z"/>
	<path class="st1" d="M57.06,92.94c0.04-0.03,0.08-0.06,0.11-0.1c-0.05,0.05-0.11,0.1-0.17,0.14
		C57.02,92.96,57.04,92.95,57.06,92.94z"/>
	<path class="st1" d="M53.23,83.59c0.01-0.01,0.02-0.02,0.03-0.03c-0.02,0.03-0.05,0.04-0.07,0.06
		C53.2,83.61,53.22,83.6,53.23,83.59z"/>
	<path class="st1" d="M43.89,52.08c0,0,0.01,0.01,0.01,0.01c-0.02-0.02-0.03-0.05-0.05-0.07C43.87,52.04,43.88,52.06,43.89,52.08z"
		/>
	<path class="st1" d="M60.45,27.65c0.03,0.03,0.05,0.07,0.08,0.11C60.5,27.73,60.49,27.69,60.45,27.65
		C60.45,27.66,60.45,27.65,60.45,27.65z"/>
	<path class="st1" d="M51.36,84.38c0.04,0.04,0.07,0.09,0.1,0.14c-0.02-0.03-0.03-0.06-0.05-0.08
		C51.39,84.41,51.38,84.39,51.36,84.38z"/>
	<path class="st1" d="M75.54,53.12c-0.01-0.02-0.03-0.04-0.05-0.05c0.03,0.02,0.04,0.05,0.06,0.08
		C75.54,53.14,75.54,53.13,75.54,53.12z"/>
	<path class="st1" d="M47.31,66.42c0.03,0,0.05,0,0.07,0c-0.06,0-0.12,0-0.18-0.01C47.24,66.41,47.27,66.42,47.31,66.42z"/>
	<path class="st1" d="M80.78,70.47c-0.03-0.03-0.05-0.08-0.07-0.12c0.01,0.02,0.01,0.04,0.02,0.06
		C80.75,70.43,80.77,70.45,80.78,70.47z"/>
	<path class="st1" d="M47.61,61.45c0,0.02,0,0.03,0,0.05c0-0.06,0.02-0.11,0.03-0.17C47.64,61.37,47.62,61.41,47.61,61.45z"/>
	<path class="st2" d="M102.73,55.31c-0.14-0.01-0.29,0.04-0.39,0.15l-3.41,3.39c-0.26,0.26-0.69,0.26-0.96,0l-8.66-8.67
		c-0.3-0.3-0.3-0.6,0-0.9l3.55-3.56c0.31-0.31,0.27-0.56-0.11-0.76l-0.29-0.16c-0.28-0.15-0.63-0.11-0.86,0.11l-3.79,3.65
		c-0.17,0.17-0.38,0.22-0.61,0.17l-4.14-0.98c-0.23-0.05-0.43-0.17-0.6-0.33l-5.77-5.74c-0.18-0.18-0.19-0.37-0.03-0.56
		c0.27-0.34,0.56-0.67,0.85-1c1.98-2.24,0.77-4.51-1.74-5.34c-0.31-0.1-0.55-0.35-0.66-0.66c-0.48-1.47-1.41-2.35-2.79-2.63
		c-0.23-0.05-0.37-0.19-0.42-0.41c-0.33-1.41-1.21-2.38-2.64-2.92c-0.37-0.14-0.67-0.43-0.8-0.8c-0.25-0.67-0.61-1.26-1.1-1.75
		c-0.97-0.99-2.75-1.1-3.81-0.09c-0.43,0.4-0.84,0.81-1.24,1.22c-0.18,0.18-0.35,0.18-0.52,0l-3.24-3.29
		c-0.33-0.33-0.72-0.41-1.15-0.24c-0.38,0.15-0.36,0.65,0.05,1.49c0.01,0.02,0.02,0.03,0.03,0.05l2.96,2.93c0,0,0,0,0.01,0.01
		c0.03,0.03,0.05,0.07,0.07,0.11c0.02,0.04,0.06,0.07,0.07,0.11c0.02,0.04,0.02,0.08,0.03,0.13c0.01,0.04,0.02,0.08,0.02,0.12
		c0,0.04-0.02,0.08-0.02,0.13c-0.01,0.04-0.01,0.09-0.03,0.13c-0.02,0.04-0.05,0.07-0.07,0.11c-0.03,0.04-0.04,0.08-0.08,0.11
		l-9.22,9.22c-0.19,0.19-0.51,0.19-0.7,0l-3.23-3.27c-0.25-0.26-0.55-0.35-0.9-0.28c-0.25,0.05-0.39,0.21-0.42,0.48
		c-0.06,0.54,0.1,0.99,0.48,1.37l3.08,3.05c0.17,0.17,0.25,0.42,0.2,0.66l-0.73,3.57c-0.12,0.58-0.4,1.11-0.82,1.53l-5.25,5.25
		c-0.02,0.02-0.05,0.04-0.07,0.06c-0.02,0.02-0.05,0.02-0.07,0.04c-0.04,0.02-0.08,0.04-0.12,0.06c-0.04,0.01-0.08,0.02-0.12,0.02
		c-0.04,0.01-0.08,0.01-0.12,0.01c-0.04,0-0.08-0.01-0.12-0.02c-0.04-0.01-0.08-0.02-0.12-0.04c-0.04-0.02-0.07-0.04-0.11-0.07
		c-0.05-0.04-0.09-0.07-0.13-0.12c-1.92-2.51-5.14-1.78-5.96,1.21c-0.07,0.25-0.26,0.45-0.51,0.52c-1.36,0.41-2.35,1.35-2.97,2.83
		c-0.13,0.31-0.38,0.55-0.69,0.66c-1.23,0.43-2.03,1.21-2.38,2.34c-0.1,0.32-0.33,0.59-0.64,0.74c-1.92,0.93-4,2.8-2.2,5.05
		c0.42,0.52,0.81,1.04,1.17,1.56c0.13,0.18,0.1,0.43-0.06,0.58l-4.81,4.49c-0.31,0.29-0.41,0.73-0.26,1.12l0.12,0.31
		c0.23,0.58,0.56,0.66,1.01,0.23l5.31-5.14c0,0,0,0,0,0c0.03-0.03,0.07-0.06,0.11-0.07c0.08-0.03,0.17-0.03,0.25,0
		c0.04,0.02,0.08,0.04,0.11,0.07l9.39,9.64c0.19,0.19,0.19,0.39,0,0.58l-2.76,2.86c-0.3,0.31-0.37,0.66-0.2,1.06
		c0.15,0.34,0.56,0.38,1.24,0.13c0.14-0.05,0.27-0.14,0.37-0.25l2.64-2.8c0.19-0.21,0.49-0.3,0.76-0.23c1.2,0.3,2.37,0.57,3.52,0.8
		c0.72,0.15,1.35,0.51,1.89,1.09c1.58,1.71,3.24,3.34,4.97,4.89c0.02,0.02,0.04,0.03,0.05,0.05c0.02,0.03,0.03,0.06,0.05,0.08
		c0.03,0.04,0.05,0.08,0.07,0.12c0.02,0.04,0.02,0.08,0.03,0.12c0.01,0.04,0.02,0.08,0.02,0.13c0,0.04-0.01,0.08-0.02,0.13
		c-0.01,0.04-0.02,0.08-0.03,0.12c-0.02,0.04-0.04,0.08-0.07,0.12c-0.03,0.05-0.06,0.1-0.1,0.14c-1.7,1.52-2.05,3.14-1.06,4.87
		c0.14,0.25,0.36,0.45,0.63,0.56c1.27,0.56,2.15,1.41,2.65,2.56c0.14,0.32,0.37,0.58,0.67,0.77l1.64,1.01
		c0.27,0.17,0.46,0.41,0.56,0.72c0.39,1.18,1.2,1.9,2.46,2.16c0.31,0.06,0.51,0.24,0.61,0.54c1.23,3.71,3.88,3.65,6.37,1.14
		c0.18-0.18,0.36-0.19,0.55-0.02c1.14,1.04,2.01,2.24,3.33,3.09c0.26,0.17,0.49,0.14,0.7-0.09c0.3-0.34,0.32-0.7,0.06-1.08
		c-0.69-1.02-1.59-1.95-2.69-2.8c-0.03-0.02-0.05-0.04-0.08-0.07c-0.02-0.02-0.03-0.05-0.05-0.08c-0.03-0.04-0.06-0.08-0.08-0.12
		c-0.02-0.04-0.03-0.09-0.05-0.13c-0.01-0.05-0.02-0.09-0.03-0.14c0-0.05,0-0.09,0.01-0.14c0.01-0.05,0.01-0.09,0.03-0.14
		c0.01-0.05,0.04-0.09,0.06-0.13c0.03-0.06,0.06-0.12,0.11-0.16l9.31-9.3c0.16-0.16,0.32-0.16,0.48-0.01l3.22,3.13
		c0.34,0.34,0.62,0.29,0.84-0.13l0.09-0.16c0.19-0.38,0.14-0.71-0.16-1.02l-3.21-3.17c-0.17-0.17-0.21-0.36-0.13-0.58
		c0.52-1.33,0.87-2.68,1.04-4.03c0.06-0.46,0.27-0.89,0.6-1.22l5.49-5.45c0.01-0.01,0.02-0.02,0.04-0.03
		c0.01-0.01,0.03-0.01,0.05-0.02c0.02-0.01,0.05-0.03,0.07-0.04c0.02-0.01,0.05-0.01,0.07-0.02c0.03,0,0.05-0.01,0.08-0.01
		c0.03,0,0.05,0.01,0.07,0.01c0.02,0.01,0.05,0.01,0.07,0.02c0.02,0.01,0.04,0.03,0.07,0.04c0.03,0.02,0.06,0.04,0.08,0.07
		c1.97,2.44,5,2.76,6.24-0.65c0.14-0.39,0.46-0.7,0.85-0.83c1.47-0.51,2.3-1.52,2.49-3.01c0.04-0.28,0.19-0.44,0.46-0.49
		c1.36-0.25,2.28-1.07,2.74-2.46c0.07-0.21,0.22-0.4,0.41-0.52c0.84-0.54,1.79-0.84,2.38-1.67c1.73-2.46-0.36-4.02-1.83-5.66
		c-0.12-0.14-0.12-0.27,0.01-0.4l3.41-3.29c0.35-0.34,0.43-0.72,0.23-1.16C103.23,55.46,103.03,55.34,102.73,55.31z M99.9,63.1
		c0.7,0.69,0.8,1.47,0.33,2.32c-0.1,0.17-0.26,0.3-0.48,0.38c-0.8,0.29-1.5,0.14-2.11-0.45l-2.58-2.51
		c-0.35-0.34-0.69-0.33-1.02,0.02l-0.15,0.17c-0.16,0.17-0.16,0.44,0,0.61l2.98,3.15c0.6,0.63,0.6,1.27,0.01,1.92l-0.15,0.17
		c-0.63,0.7-1.29,0.73-1.99,0.09c-0.88-0.81-1.75-1.64-2.6-2.5c-0.34-0.35-0.75-0.51-1.24-0.48c-0.11,0-0.21,0.05-0.29,0.14
		c-0.15,0.16-0.17,0.39-0.05,0.57c0.66,1.01,1.49,1.92,2.51,2.75c0.76,0.62,0.97,1.38,0.64,2.3c-0.08,0.22-0.18,0.42-0.31,0.6
		c-0.52,0.76-1.11,0.81-1.77,0.17l-3.29-3.25c-0.17-0.17-0.43-0.2-0.64-0.09c-0.44,0.24-0.48,0.75-0.11,1.51l-6.14-1.09l6.26,1.36
		l2.52,2.67c0.62,0.66,0.62,1.32,0.01,1.99l-0.27,0.3c-0.58,0.62-1.19,0.65-1.82,0.08c-1.86-1.67-3.55-3.48-5.05-5.42
		c-0.4-0.52-0.96-0.85-1.66-0.98c-0.22-0.04-0.42,0-0.6,0.12c-0.04,0.03-0.07,0.06-0.1,0.1c-0.02,0.03-0.04,0.05-0.06,0.08
		c-0.02,0.03-0.03,0.06-0.04,0.09c-0.01,0.03-0.02,0.06-0.02,0.09c0,0.03,0,0.06,0,0.09c0,0.03,0.01,0.06,0.01,0.09
		c0.01,0.03,0.02,0.06,0.04,0.09c0.02,0.04,0.04,0.08,0.07,0.12l3.49,3.82c0.19,0.21,0.18,0.42-0.03,0.61
		c-1.86,1.74-3.71,3.56-5.57,5.43c-0.5,0.5-1,1.3-1.04,2.01c-0.13,2.36-1.1,4.46-2.9,6.3c-3.9,3.95-7.54,7.58-10.93,10.88
		c-0.56,0.54-1.18,0.62-1.85,0.23c-0.12-0.07-0.21-0.15-0.3-0.24c-0.68-0.74-0.67-1.47,0.01-2.2l2.82-3
		c0.16-0.17,0.21-0.42,0.11-0.64c-0.28-0.65-0.83-0.61-1.65,0.11c-0.36,0.32-0.7,0.64-1.02,0.96c-0.5,0.51-1.02,1.01-1.55,1.48
		c-0.66,0.6-1.3,0.59-1.94-0.03l-0.15-0.15c-0.7-0.67-0.71-1.36-0.04-2.07l2.89-3.03c0.11-0.12,0.15-0.26,0.13-0.43
		c-0.06-0.43-0.36-0.62-0.9-0.58c-0.18,0.01-0.34,0.09-0.47,0.22l-2.72,2.67c-0.04,0.03-0.07,0.07-0.11,0.1
		c-0.02,0.02-0.04,0.03-0.06,0.04c-0.04,0.03-0.09,0.06-0.13,0.09c-0.04,0.02-0.08,0.05-0.13,0.07c-0.05,0.02-0.09,0.04-0.14,0.05
		c-0.05,0.02-0.09,0.03-0.14,0.04c-0.05,0.01-0.09,0.02-0.14,0.03c-0.05,0.01-0.1,0.01-0.14,0.01c-0.05,0-0.09,0-0.14,0
		c-0.05,0-0.09-0.01-0.14-0.01c-0.05-0.01-0.09-0.02-0.14-0.03c-0.05-0.01-0.09-0.03-0.14-0.04c-0.05-0.02-0.09-0.03-0.13-0.06
		c-0.04-0.02-0.09-0.04-0.13-0.07c-0.04-0.02-0.08-0.05-0.12-0.08c-0.04-0.03-0.08-0.06-0.12-0.1c-0.02-0.02-0.04-0.03-0.06-0.05
		c-0.03-0.04-0.07-0.07-0.1-0.11l-0.15-0.19c-0.51-0.62-0.48-1.22,0.09-1.8l2.54-2.56c0.31-0.32,0.43-0.7,0.34-1.14
		c-0.04-0.19-0.14-0.35-0.31-0.48c-0.22-0.16-0.53-0.13-0.7,0.08c-0.93,1.08-1.93,2.06-3,2.94c-0.73,0.6-1.44,0.58-2.14-0.05
		c-0.1-0.09-0.16-0.2-0.2-0.33c-0.24-0.8-0.01-1.67,0.59-2.26c1.72-1.66,3.48-3.39,5.28-5.21c0.32-0.32,0.37-0.68,0.16-1.08
		l-0.14-0.26c-0.19-0.35-0.44-0.4-0.75-0.15c-1.25,1.01-2.36,2.11-3.31,3.31c-0.01,0.01-0.02,0.02-0.03,0.03
		c-0.01,0.01-0.03,0.02-0.04,0.03c-0.02,0.02-0.04,0.03-0.06,0.04c-0.02,0.01-0.04,0.02-0.07,0.02c-0.02,0.01-0.05,0.01-0.07,0.01
		c-0.02,0-0.05,0-0.07,0c-0.02,0-0.05,0-0.07-0.01c-0.02-0.01-0.04-0.02-0.07-0.03c-0.02-0.01-0.03-0.01-0.05-0.02
		c-0.01-0.01-0.02-0.02-0.03-0.03c-1.9-1.89-3.74-3.78-5.51-5.68c-0.55-0.58-1.57-1.03-2.38-1.08c-2.33-0.16-4.33-1.12-5.98-2.89
		c-3.41-3.64-6.88-7.15-10.41-10.55c-0.62-0.59-0.87-1.31-0.75-2.18c0.02-0.15,0.08-0.3,0.18-0.42c0.66-0.84,1.37-0.9,2.15-0.17
		l2.84,2.68c0.26,0.24,0.56,0.3,0.88,0.17c0.27-0.11,0.43-0.34,0.49-0.7c0.03-0.21-0.04-0.42-0.19-0.58l-2.71-2.86
		c-0.52-0.55-0.58-1.14-0.16-1.77c0.08-0.13,0.19-0.24,0.31-0.33c0.72-0.57,1.41-0.53,2.07,0.11l2.55,2.5
		c0.05,0.04,0.1,0.08,0.17,0.1c0.77,0.25,1.22,0.16,1.33-0.27c0.05-0.18,0-0.37-0.13-0.51l-2.84-3.03c-0.7-0.75-0.68-1.47,0.07-2.16
		c0.28-0.27,0.65-0.41,1.09-0.42c0.34-0.01,0.67,0.12,0.92,0.36l2.82,2.76c0.22,0.22,0.54,0.29,0.83,0.19
		c0.49-0.16,0.62-0.44,0.41-0.85c-0.64-1.18-1.52-2.17-2.65-2.97c-0.44-0.31-0.67-0.84-0.58-1.38c0.07-0.46,0.23-0.83,0.5-1.11
		c0.6-0.64,1.21-0.65,1.83-0.03l6.1,5.99c0.31,0.3,0.64,0.34,1,0.11c0.27-0.17,0.37-0.5,0.3-0.97c-0.02-0.14-0.09-0.27-0.19-0.37
		l-3.17-3.17c0,0-0.01-0.01-0.01-0.01c-0.02-0.02-0.02-0.04-0.04-0.06c-0.01-0.02-0.03-0.04-0.04-0.07
		c-0.01-0.02-0.01-0.05-0.02-0.07c0-0.03-0.01-0.05-0.01-0.07c0-0.03,0.01-0.05,0.01-0.07c0.01-0.02,0.01-0.05,0.02-0.07
		c0.01-0.02,0.03-0.04,0.04-0.07c0.01-0.02,0.02-0.04,0.04-0.06c0,0,0.01-0.01,0.01-0.01c1.91-1.81,3.74-3.61,5.5-5.41
		c1.55-1.59,1.03-3.89,2.03-5.89c0.37-0.74,0.83-1.39,1.39-1.95c3.79-3.82,7.69-7.71,11.71-11.67c0.59-0.58,1.15-0.56,1.68,0.08
		l0.39,0.47c0.55,0.66,0.52,1.3-0.09,1.91L64,31.6c-0.31,0.31-0.4,0.68-0.27,1.11c0.06,0.17,0.17,0.29,0.34,0.38
		c0.2,0.1,0.45,0.06,0.61-0.1l2.87-2.8c0.7-0.68,1.4-0.7,2.13-0.04c0.12,0.1,0.22,0.22,0.31,0.36c0.4,0.6,0.35,1.16-0.15,1.68
		l-2.86,2.99c-0.31,0.33-0.27,0.6,0.11,0.83c0.2,0.12,0.41,0.17,0.63,0.16c0.51-0.01,0.99-0.27,1.29-0.68
		c0.63-0.89,1.41-1.64,2.32-2.26c0.33-0.22,0.69-0.27,1.07-0.16c1.3,0.4,1.45,1.86,0.6,2.78c-0.86,0.94-1.68,1.81-2.44,2.62
		c-0.28,0.3-0.33,0.63-0.13,1c0.08,0.15,0.23,0.26,0.44,0.32c0.15,0.04,0.31-0.01,0.42-0.11l3.03-2.96
		c0.56-0.55,1.13-0.56,1.71-0.03l0.34,0.31c0.72,0.66,0.74,1.33,0.05,2.02l-6.1,6.14c-0.27,0.27-0.27,0.55,0,0.82l0.24,0.23
		c0.29,0.29,0.58,0.29,0.86,0.01l3.37-3.36c0.18-0.18,0.37-0.19,0.55-0.01c1.36,1.28,2.71,2.63,4.05,4.07
		c1.31,1.4,2.76,2.74,4.79,2.78c1.48,0.03,2.84,0.66,4.08,1.89C92.08,55.31,95.94,59.16,99.9,63.1z"/>
	<path class="st3" d="M83.14,70.57c1.5,1.94,3.18,3.75,5.05,5.42c0.63,0.57,1.24,0.54,1.82-0.08l0.27-0.3
		c0.61-0.66,0.61-1.33-0.01-1.99l-2.52-2.67l-6.26-1.36C82.18,69.72,82.74,70.05,83.14,70.57z"/>
	<path class="st3" d="M84.22,49.68c-2.04-0.05-3.48-1.38-4.79-2.78c-1.34-1.44-2.69-2.8-4.05-4.07c-0.19-0.17-0.37-0.17-0.55,0.01
		l-3.37,3.36c-0.29,0.29-0.58,0.29-0.86-0.01l-0.24-0.23c-0.27-0.27-0.27-0.54,0-0.82l6.1-6.14c0.69-0.69,0.67-1.36-0.05-2.02
		l-0.34-0.31c-0.58-0.53-1.15-0.52-1.71,0.03l-3.03,2.96c-0.11,0.11-0.27,0.15-0.42,0.11c-0.21-0.06-0.36-0.16-0.44-0.32
		c-0.2-0.36-0.16-0.7,0.13-1c0.76-0.81,1.57-1.68,2.44-2.62c0.86-0.92,0.7-2.38-0.6-2.78c-0.38-0.12-0.74-0.06-1.07,0.16
		c-0.92,0.62-1.69,1.38-2.32,2.26c-0.3,0.42-0.78,0.67-1.29,0.68c-0.22,0.01-0.43-0.04-0.63-0.16c-0.39-0.23-0.42-0.5-0.11-0.83
		l2.86-2.99c0.5-0.52,0.54-1.08,0.15-1.68c-0.09-0.14-0.19-0.26-0.31-0.36c-0.72-0.66-1.43-0.64-2.13,0.04l-2.87,2.8
		c-0.16,0.16-0.41,0.2-0.61,0.1c-0.17-0.08-0.28-0.21-0.34-0.38c-0.14-0.43-0.05-0.79,0.27-1.11l2.53-2.53
		c0.61-0.61,0.64-1.25,0.09-1.91l-0.39-0.47c-0.53-0.64-1.09-0.66-1.68-0.08c-4.02,3.96-7.93,7.85-11.71,11.67
		c-0.56,0.56-1.02,1.21-1.39,1.95c-1,2-0.48,4.3-2.03,5.89c-1.76,1.8-3.59,3.6-5.5,5.41c0,0-0.01,0.01-0.01,0.01
		c-0.02,0.02-0.02,0.04-0.04,0.06c-0.01,0.02-0.03,0.04-0.04,0.07c-0.01,0.02-0.01,0.05-0.02,0.07c-0.01,0.02-0.01,0.05-0.01,0.07
		c0,0.03,0.01,0.05,0.01,0.07c0,0.03,0.01,0.05,0.02,0.07c0.01,0.02,0.03,0.05,0.04,0.07c0.02,0.02,0.03,0.05,0.05,0.07l3.17,3.17
		c0.1,0.1,0.16,0.23,0.19,0.37c0.07,0.47-0.03,0.8-0.3,0.97c-0.36,0.23-0.7,0.19-1-0.11l-6.1-5.99c-0.62-0.62-1.24-0.6-1.83,0.03
		c-0.27,0.28-0.43,0.65-0.5,1.11c-0.08,0.54,0.14,1.07,0.58,1.38c1.13,0.8,2.01,1.79,2.65,2.97c0.22,0.41,0.08,0.69-0.41,0.85
		c-0.29,0.1-0.61,0.02-0.83-0.19l-2.82-2.76c-0.24-0.24-0.57-0.37-0.92-0.36c-0.44,0.02-0.81,0.16-1.09,0.42
		c-0.75,0.7-0.77,1.42-0.07,2.16l2.84,3.03c0.13,0.14,0.18,0.33,0.13,0.51c-0.12,0.43-0.56,0.52-1.33,0.27
		c-0.06-0.02-0.12-0.06-0.17-0.1l-2.55-2.5c-0.66-0.64-1.35-0.68-2.07-0.11c-0.12,0.09-0.22,0.2-0.31,0.33
		c-0.42,0.63-0.36,1.22,0.16,1.77l2.71,2.86c0.15,0.16,0.22,0.37,0.19,0.58c-0.06,0.36-0.22,0.6-0.49,0.7
		c-0.33,0.13-0.62,0.08-0.88-0.17l-2.84-2.68c-0.78-0.73-1.5-0.68-2.15,0.17c-0.1,0.13-0.16,0.27-0.18,0.42
		c-0.12,0.86,0.14,1.59,0.75,2.18c3.53,3.39,7,6.91,10.41,10.55c1.65,1.77,3.64,2.73,5.98,2.89c0.8,0.05,1.83,0.5,2.38,1.08
		c1.78,1.9,3.61,3.79,5.51,5.68c0.01,0.01,0.02,0.02,0.03,0.03c0.01,0.01,0.03,0.01,0.05,0.02c0.02,0.01,0.04,0.03,0.07,0.03
		c0.02,0.01,0.05,0.01,0.07,0.01c0.02,0,0.05,0.01,0.07,0c0.02,0,0.05-0.01,0.07-0.01c0.02-0.01,0.05-0.01,0.07-0.02
		c0.02-0.01,0.04-0.03,0.06-0.04c0.03-0.02,0.05-0.04,0.07-0.06c0.95-1.2,2.05-2.3,3.31-3.31c0.31-0.25,0.56-0.2,0.75,0.15
		l0.14,0.26c0.21,0.4,0.16,0.76-0.16,1.08c-1.8,1.82-3.56,3.55-5.28,5.21c-0.6,0.58-0.83,1.45-0.59,2.26
		c0.04,0.13,0.1,0.24,0.2,0.33c0.7,0.63,1.41,0.64,2.14,0.05c1.07-0.87,2.07-1.85,3-2.94c0.18-0.21,0.48-0.24,0.7-0.08
		c0.17,0.12,0.27,0.28,0.31,0.48c0.09,0.44-0.02,0.82-0.34,1.14l-2.54,2.56c-0.57,0.58-0.6,1.18-0.09,1.8l0.15,0.19
		c0.03,0.04,0.06,0.08,0.1,0.11c0.02,0.02,0.04,0.03,0.06,0.05c0.04,0.04,0.08,0.07,0.12,0.1c0.04,0.03,0.08,0.06,0.12,0.08
		c0.04,0.03,0.09,0.05,0.13,0.07c0.04,0.02,0.09,0.04,0.13,0.06c0.04,0.02,0.09,0.03,0.14,0.04c0.05,0.01,0.09,0.02,0.14,0.03
		c0.05,0.01,0.09,0.01,0.14,0.01c0.05,0,0.09,0,0.14,0c0.05,0,0.1-0.01,0.14-0.01c0.05-0.01,0.09-0.01,0.14-0.03
		c0.05-0.01,0.09-0.02,0.14-0.04c0.05-0.02,0.09-0.03,0.14-0.05c0.04-0.02,0.09-0.04,0.13-0.07c0.04-0.03,0.09-0.05,0.13-0.09
		c0.06-0.04,0.12-0.09,0.17-0.14l2.72-2.67c0.13-0.13,0.3-0.21,0.47-0.22c0.54-0.04,0.84,0.15,0.9,0.58
		c0.02,0.16-0.02,0.31-0.13,0.43l-2.89,3.03c-0.67,0.7-0.66,1.39,0.04,2.07l0.15,0.15c0.64,0.62,1.28,0.62,1.94,0.03
		c0.53-0.47,1.04-0.97,1.55-1.48c0.31-0.32,0.65-0.64,1.02-0.96c0.82-0.72,1.37-0.76,1.65-0.11c0.09,0.21,0.05,0.46-0.11,0.64
		l-2.82,3c-0.69,0.73-0.69,1.46-0.01,2.2c0.08,0.09,0.18,0.17,0.3,0.24c0.68,0.39,1.29,0.31,1.85-0.23
		c3.39-3.3,7.03-6.93,10.93-10.88c1.81-1.83,2.77-3.93,2.9-6.3c0.04-0.71,0.54-1.51,1.04-2.01c1.86-1.88,3.72-3.69,5.57-5.43
		c0.21-0.19,0.22-0.4,0.03-0.61l-3.49-3.82c-0.02-0.02-0.03-0.04-0.05-0.06c-0.01-0.02-0.01-0.04-0.02-0.06
		c-0.01-0.03-0.03-0.06-0.04-0.09c-0.01-0.03-0.01-0.06-0.01-0.09c0-0.03,0-0.06,0-0.09c0-0.03,0.01-0.06,0.02-0.09
		c0.01-0.03,0.02-0.06,0.04-0.09c0.02-0.03,0.04-0.05,0.06-0.08c0.03-0.03,0.06-0.07,0.1-0.1c0.19-0.12,0.39-0.16,0.6-0.12
		l6.14,1.09c-0.37-0.77-0.34-1.27,0.11-1.51c0.21-0.11,0.47-0.07,0.64,0.09l3.29,3.25c0.66,0.65,1.24,0.59,1.77-0.17
		c0.13-0.18,0.23-0.38,0.31-0.6c0.33-0.92,0.12-1.68-0.64-2.3c-1.02-0.83-1.86-1.74-2.51-2.75c-0.12-0.18-0.1-0.42,0.05-0.57
		C90.7,66.05,90.79,66,90.9,66c0.48-0.02,0.89,0.14,1.24,0.48c0.85,0.86,1.72,1.69,2.6,2.5c0.69,0.63,1.35,0.6,1.99-0.09l0.15-0.17
		c0.59-0.65,0.58-1.29-0.01-1.92l-2.98-3.15c-0.16-0.17-0.16-0.44,0-0.61l0.15-0.17c0.33-0.35,0.67-0.36,1.02-0.02l2.58,2.51
		c0.61,0.59,1.31,0.74,2.11,0.45c0.22-0.08,0.38-0.21,0.48-0.38c0.48-0.86,0.37-1.63-0.33-2.32c-3.96-3.94-7.83-7.79-11.59-11.53
		C87.07,50.34,85.71,49.71,84.22,49.68z M79.57,66.25c-2.01,0.44-4.08,0.33-4.19,3.09c-0.01,0.25,0.07,0.49,0.21,0.68l1.66,2.3
		c0.24,0.34,0.2,0.8-0.09,1.1l-3.67,3.68c-0.31,0.31-0.81,0.34-1.16,0.05l-1.97-1.61c-0.24-0.19-0.5-0.24-0.8-0.15l-2.1,0.66
		c-0.26,0.08-0.44,0.3-0.48,0.56l-0.44,3.03c-0.05,0.33-0.33,0.57-0.66,0.57l-5.44-0.01c-0.35,0-0.65-0.26-0.7-0.6l-0.41-2.87
		c-0.04-0.28-0.19-0.47-0.45-0.58l-1.97-0.81c-0.24-0.1-0.47-0.08-0.68,0.07l-2.6,1.85c-0.25,0.18-0.61,0.15-0.82-0.07l-3.65-3.76
		c-0.35-0.36-0.38-0.74-0.1-1.15l1.53-2.22c0.14-0.21,0.21-0.44,0.19-0.69c-0.11-2.07-1.24-3.05-3.39-2.95c-0.02,0-0.05,0-0.07,0
		c-0.04,0-0.07-0.01-0.11-0.01c-0.05,0-0.1-0.01-0.15-0.02c-0.05-0.01-0.09-0.02-0.14-0.04c-0.05-0.01-0.09-0.03-0.14-0.04
		c-0.04-0.02-0.08-0.04-0.13-0.06c-0.04-0.02-0.08-0.04-0.12-0.07c-0.04-0.03-0.07-0.05-0.11-0.08c-0.04-0.03-0.07-0.06-0.11-0.09
		c-0.03-0.03-0.06-0.07-0.09-0.1c-0.03-0.03-0.06-0.07-0.09-0.11c-0.03-0.04-0.05-0.08-0.07-0.12c-0.02-0.04-0.05-0.08-0.07-0.12
		c-0.02-0.04-0.03-0.09-0.05-0.13c-0.01-0.04-0.03-0.09-0.04-0.13c-0.01-0.05-0.02-0.1-0.02-0.15c0-0.04-0.01-0.07-0.02-0.11
		c0-0.02,0-0.05,0-0.07l0.01-4.78c0-0.32,0.22-0.6,0.53-0.68c2.25-0.55,3.78-0.11,4.52-2.93c0.07-0.25,0.02-0.48-0.13-0.68
		l-1.99-2.67c-0.13-0.17-0.11-0.41,0.04-0.56l3.84-3.83c0.33-0.32,0.84-0.36,1.21-0.09l2.15,1.61c0.21,0.15,0.43,0.19,0.68,0.11
		l2.11-0.7c0.26-0.09,0.41-0.27,0.44-0.53l0.46-3.01c0.05-0.32,0.33-0.56,0.65-0.56l5.5,0.03c0.29,0,0.54,0.21,0.6,0.5
		c0.23,1.12,0.13,2.94,1.16,3.64c2.25,1.55,3.34-0.17,4.93-1.31c0.23-0.16,0.44-0.14,0.64,0.05l3.99,3.97
		c0.27,0.27,0.29,0.71,0.04,1c-0.62,0.72-1.55,1.44-1.74,2.41c-0.21,1.13,0.39,2.91,1.73,3.09c0.59,0.08,1.2,0.17,1.81,0.27
		c0.76,0.12,1.31,0.77,1.31,1.54l0.01,4.35C80.39,65.79,80.12,66.13,79.57,66.25z"/>
	<path class="st2" d="M79.06,59.34c-0.62-0.1-1.22-0.19-1.81-0.27c-1.33-0.18-1.93-1.96-1.73-3.09c0.19-0.97,1.12-1.69,1.74-2.41
		c0.25-0.29,0.23-0.73-0.04-1l-3.99-3.97c-0.2-0.19-0.41-0.21-0.64-0.05c-1.59,1.14-2.68,2.86-4.93,1.31
		c-1.02-0.7-0.92-2.52-1.16-3.64c-0.06-0.29-0.31-0.5-0.6-0.5l-5.5-0.03c-0.32,0-0.6,0.23-0.65,0.56l-0.46,3.01
		c-0.04,0.27-0.19,0.44-0.44,0.53l-2.11,0.7c-0.24,0.08-0.47,0.05-0.68-0.11l-2.15-1.61c-0.37-0.28-0.88-0.24-1.21,0.09l-3.84,3.83
		c-0.15,0.15-0.17,0.39-0.04,0.56l1.99,2.67c0.15,0.21,0.19,0.44,0.13,0.68c-0.74,2.82-2.26,2.38-4.52,2.93
		c-0.31,0.08-0.53,0.36-0.53,0.68l-0.01,4.78c0,0.02,0,0.05,0,0.07c0,0.04,0.01,0.07,0.02,0.11c0.01,0.05,0.01,0.1,0.02,0.15
		c0.01,0.05,0.03,0.09,0.04,0.13c0.02,0.05,0.03,0.09,0.05,0.13c0.02,0.04,0.04,0.08,0.07,0.12c0.02,0.04,0.04,0.08,0.07,0.12
		c0.03,0.04,0.06,0.07,0.09,0.11c0.03,0.03,0.06,0.07,0.09,0.1c0.03,0.03,0.07,0.06,0.11,0.09c0.04,0.03,0.07,0.06,0.11,0.08
		c0.04,0.02,0.08,0.04,0.12,0.07c0.04,0.02,0.08,0.04,0.13,0.06c0.04,0.02,0.09,0.03,0.14,0.04c0.04,0.01,0.09,0.03,0.14,0.04
		c0.05,0.01,0.1,0.01,0.15,0.02c0.06,0,0.12,0.01,0.18,0.01c2.15-0.11,3.28,0.88,3.39,2.95c0.01,0.25-0.05,0.48-0.19,0.69
		l-1.53,2.22c-0.28,0.41-0.25,0.79,0.1,1.15l3.65,3.76c0.22,0.23,0.57,0.26,0.82,0.07l2.6-1.85c0.21-0.15,0.44-0.17,0.68-0.07
		l1.97,0.81c0.26,0.11,0.41,0.31,0.45,0.58l0.41,2.87c0.05,0.35,0.35,0.6,0.7,0.6l5.44,0.01c0.33,0,0.61-0.24,0.66-0.57l0.44-3.03
		c0.04-0.26,0.22-0.48,0.48-0.56l2.1-0.66c0.29-0.09,0.56-0.04,0.8,0.15l1.97,1.61c0.34,0.28,0.84,0.26,1.16-0.05l3.67-3.68
		c0.3-0.29,0.34-0.76,0.09-1.1l-1.66-2.3c-0.15-0.2-0.22-0.44-0.21-0.68c0.11-2.76,2.18-2.65,4.19-3.09
		c0.54-0.12,0.82-0.46,0.82-1.02l-0.01-4.35C80.38,60.12,79.82,59.47,79.06,59.34z M78.72,64.19c0,0.28-0.13,0.47-0.4,0.57
		c-0.6,0.22-1.22,0.31-1.87,0.28c-0.29-0.02-0.57,0.09-0.78,0.29c-0.94,0.91-1.68,2.57-1.97,3.9c-0.24,1.1,0.8,2.18,1.48,2.95
		c0.24,0.27,0.24,0.54-0.02,0.81l-1.97,2.01c-0.33,0.34-0.67,0.34-1,0.01c-0.7-0.69-1.81-1.68-2.88-1.3
		c-1.16,0.41-2.26,0.86-3.31,1.33c-0.25,0.12-0.43,0.35-0.47,0.63l-0.39,2.64c-0.04,0.31-0.22,0.47-0.54,0.47l-2.68,0.01
		c-0.36,0-0.67-0.25-0.73-0.61l-0.4-2.4c-0.06-0.37-0.27-0.62-0.61-0.77l-3.6-1.5c-0.25-0.11-0.48-0.08-0.7,0.09l-1.75,1.35
		c-0.43,0.33-0.83,0.3-1.21-0.09l-1.8-1.88c-0.19-0.2-0.21-0.41-0.05-0.64l1.45-2.14c0.19-0.28,0.22-0.64,0.08-0.96
		c-1.03-2.3-0.76-4.42-4.14-4.32c-0.6,0.02-0.89-0.27-0.89-0.87l0.03-2.56c0-0.02,0-0.03,0-0.05c0-0.04,0.02-0.08,0.03-0.12
		c0.01-0.05,0.02-0.1,0.04-0.14c0.02-0.04,0.05-0.08,0.08-0.12c0.03-0.04,0.05-0.08,0.09-0.11c0.03-0.03,0.08-0.05,0.12-0.08
		c0.04-0.03,0.08-0.05,0.12-0.07c0.05-0.02,0.09-0.02,0.14-0.03c0.04-0.01,0.08-0.02,0.12-0.02c0.02,0,0.03,0,0.05,0
		c3.06,0.21,3.14-1.78,4.08-3.83c0.13-0.28,0.16-0.58,0.09-0.88c-0.23-0.99-0.67-1.71-1.33-2.14c-0.46-0.31-0.5-0.67-0.11-1.07
		l2.01-2.06c0.2-0.2,0.41-0.22,0.64-0.05l2.02,1.44c0.24,0.17,0.5,0.21,0.78,0.11l3.07-1.06c0.67-0.23,1.15-0.83,1.24-1.53
		l0.21-1.83c0.06-0.46,0.46-0.8,0.92-0.78l2.54,0.14c0.46,0.03,0.82,0.42,0.8,0.88c-0.04,0.76,0.05,1.48,0.25,2.16
		c0.07,0.24,0.23,0.45,0.45,0.57c0.98,0.56,2.05,0.99,3.21,1.29c1.5,0.39,2.01-0.7,3.11-1.39c0.23-0.15,0.45-0.13,0.66,0.06
		l2.43,2.28c0.02,0.02,0.03,0.03,0.05,0.05c0.01,0.01,0.01,0.02,0.01,0.03c0.01,0.02,0.02,0.04,0.03,0.06
		c0.01,0.02,0.01,0.04,0.01,0.06c0,0.02,0,0.04,0,0.06c0,0.02,0,0.04-0.01,0.06c-0.01,0.02-0.01,0.04-0.02,0.06
		c-0.01,0.02-0.02,0.04-0.04,0.06c-0.01,0.01-0.01,0.02-0.02,0.03c-0.02,0.02-0.03,0.03-0.05,0.05c-1,0.7-1.61,1.51-1.83,2.44
		c-0.05,0.23-0.03,0.44,0.07,0.65c0.38,0.79,0.71,1.6,1,2.42c0.63,1.85,1.96,1.43,3.47,1.7c0.32,0.06,0.56,0.34,0.56,0.66
		L78.72,64.19z"/>
	<path class="st4" d="M78.17,60.81c-1.51-0.27-2.84,0.15-3.47-1.7c-0.28-0.83-0.62-1.64-1-2.42c-0.1-0.21-0.13-0.43-0.07-0.65
		c0.21-0.93,0.82-1.75,1.83-2.44c0.02-0.01,0.04-0.03,0.05-0.05c0.01-0.01,0.01-0.02,0.02-0.03c0.01-0.02,0.03-0.04,0.04-0.06
		c0.01-0.02,0.02-0.04,0.02-0.06c0.01-0.02,0.01-0.04,0.01-0.06c0-0.02,0-0.04,0-0.06c0-0.02-0.01-0.04-0.01-0.06
		c-0.01-0.02-0.02-0.04-0.03-0.06c-0.02-0.03-0.03-0.06-0.06-0.08l-2.43-2.28c-0.2-0.19-0.42-0.21-0.66-0.06
		c-1.1,0.7-1.61,1.79-3.11,1.39c-1.16-0.31-2.22-0.74-3.21-1.29c-0.22-0.12-0.38-0.33-0.45-0.57c-0.2-0.68-0.29-1.4-0.25-2.16
		c0.02-0.46-0.34-0.86-0.8-0.88l-2.54-0.14c-0.47-0.02-0.87,0.32-0.92,0.78l-0.21,1.83c-0.08,0.71-0.56,1.3-1.24,1.53l-3.07,1.06
		c-0.28,0.1-0.54,0.06-0.78-0.11l-2.02-1.44c-0.23-0.16-0.44-0.15-0.64,0.05l-2.01,2.06c-0.39,0.4-0.35,0.75,0.11,1.07
		c0.66,0.44,1.1,1.15,1.33,2.14c0.07,0.3,0.04,0.59-0.09,0.88c-0.94,2.05-1.02,4.04-4.08,3.83c-0.02,0-0.03,0-0.05,0
		c-0.04,0-0.08,0.02-0.12,0.02c-0.05,0.01-0.1,0.01-0.14,0.03c-0.04,0.02-0.08,0.05-0.12,0.07c-0.04,0.03-0.08,0.05-0.12,0.08
		c-0.03,0.03-0.06,0.07-0.09,0.11c-0.03,0.04-0.06,0.07-0.08,0.12c-0.02,0.04-0.03,0.09-0.04,0.14c-0.01,0.06-0.03,0.11-0.03,0.17
		l-0.03,2.56c0,0.6,0.29,0.89,0.89,0.87c3.39-0.11,3.11,2.01,4.14,4.32c0.14,0.31,0.11,0.68-0.08,0.96l-1.45,2.14
		c-0.15,0.23-0.14,0.44,0.05,0.64l1.8,1.88c0.38,0.39,0.78,0.42,1.21,0.09l1.75-1.35c0.22-0.16,0.45-0.19,0.7-0.09l3.6,1.5
		c0.35,0.15,0.55,0.4,0.61,0.77l0.4,2.4c0.06,0.36,0.37,0.62,0.73,0.61l2.68-0.01c0.31,0,0.49-0.16,0.54-0.47l0.39-2.64
		c0.04-0.28,0.22-0.51,0.47-0.63c1.04-0.48,2.15-0.92,3.31-1.33c1.06-0.38,2.17,0.61,2.88,1.3c0.34,0.33,0.67,0.32,1-0.01l1.97-2.01
		c0.26-0.27,0.26-0.54,0.02-0.81c-0.68-0.76-1.72-1.85-1.48-2.95c0.29-1.33,1.02-2.99,1.97-3.9c0.21-0.2,0.49-0.3,0.78-0.29
		c0.65,0.04,1.28-0.06,1.87-0.28c0.27-0.1,0.4-0.29,0.4-0.57l0.01-2.72C78.72,61.15,78.49,60.87,78.17,60.81z M63.13,71.06
		c-4.53,0-8.19-3.67-8.19-8.19s3.67-8.19,8.19-8.19s8.19,3.67,8.19,8.19S67.66,71.06,63.13,71.06z"/>
	<path class="st2" d="M63.13,54.67c-4.53,0-8.19,3.67-8.19,8.19s3.67,8.19,8.19,8.19s8.19-3.67,8.19-8.19S67.66,54.67,63.13,54.67z
		 M63.15,69.52c-3.68,0-6.65-2.98-6.65-6.65c0-3.67,2.98-6.65,6.65-6.65c3.67,0,6.65,2.98,6.65,6.65
		C69.8,66.54,66.82,69.52,63.15,69.52z"/>
	
		<ellipse transform="matrix(0.3827 -0.9239 0.9239 0.3827 -19.0958 97.1442)" class="st3" cx="63.15" cy="62.86" rx="6.65" ry="6.65"/>
</g>
</svg>
