<?xml version="1.0" encoding="utf-8"?>
<!-- Generator: Adobe Illustrator 28.0.0, SVG Export Plug-In . SVG Version: 6.00 Build 0)  -->
<svg version="1.1" id="Capa_1" xmlns="http://www.w3.org/2000/svg" xmlns:xlink="http://www.w3.org/1999/xlink" x="0px" y="0px"
	 viewBox="0 0 126 126" style="enable-background:new 0 0 126 126;" xml:space="preserve">
<style type="text/css">
	.st0{fill:#FFFFFF;stroke:#1DA9FC;stroke-miterlimit:10;}
	.st1{fill:none;}
	.st2{fill:#A1DDF9;}
	.st3{fill:#0D5A84;}
	.st4{fill:#FFFFFF;}
</style>
<circle class="st0" cx="63" cy="63" r="59.67"/>
<g>
	<path class="st1" d="M45.15,52.37c0.01,0.01,0.02,0.02,0.03,0.03c-0.06-0.06-0.1-0.13-0.14-0.2C45.08,52.26,45.1,52.32,45.15,52.37
		z"/>
	<path class="st1" d="M54.71,60.95c0.02,0.02,0.03,0.04,0.05,0.06c-0.04-0.03-0.06-0.08-0.08-0.12
		C54.69,60.91,54.7,60.94,54.71,60.95z"/>
	<path class="st1" d="M65.6,43.48c-0.01,0-0.01,0-0.02,0c0.05,0,0.09,0.02,0.14,0.03C65.68,43.5,65.64,43.48,65.6,43.48z"/>
	<path class="st1" d="M71.01,61.18C71.01,61.18,71.01,61.18,71.01,61.18c-0.04,0.05-0.09,0.08-0.14,0.11
		C70.91,61.26,70.97,61.23,71.01,61.18z"/>
	<path class="st1" d="M45.29,75.5c0.01,0.01,0.01,0.01,0.02,0.02c-0.07-0.07-0.1-0.15-0.15-0.23C45.21,75.37,45.23,75.44,45.29,75.5
		z"/>
	<path class="st1" d="M73.36,45.6c-0.04,0.04-0.08,0.09-0.12,0.14c0.05-0.06,0.1-0.11,0.15-0.15C73.38,45.59,73.37,45.59,73.36,45.6
		z"/>
	<path class="st1" d="M43.39,60.31c0,0.02,0,0.04,0,0.06c0-0.05,0.02-0.09,0.03-0.14C43.4,60.26,43.39,60.28,43.39,60.31z"/>
	<path class="st1" d="M78.89,51.43c-0.02-0.04-0.05-0.08-0.08-0.11c0.04,0.04,0.07,0.09,0.1,0.14
		C78.89,51.45,78.89,51.44,78.89,51.43z"/>
	<path class="st1" d="M66.22,66.66c0.01-0.02,0.01-0.04,0.01-0.07c0,0.04-0.02,0.07-0.03,0.1C66.21,66.68,66.21,66.67,66.22,66.66z"
		/>
	<path class="st1" d="M43.93,66.26c0.01,0,0.01,0,0.02,0c-0.04,0-0.08-0.01-0.12-0.02C43.87,66.25,43.9,66.26,43.93,66.26z"/>
	<path class="st1" d="M54.18,84.08c0,0.01,0,0.02,0,0.03c0-0.04,0.01-0.08,0.02-0.11C54.2,84.03,54.18,84.05,54.18,84.08z"/>
	<path class="st1" d="M84.12,55.63c0.04,0.01,0.09,0.02,0.13,0.02c-0.05,0-0.1-0.01-0.15-0.03C84.11,55.62,84.11,55.63,84.12,55.63z
		"/>
	<path class="st1" d="M35.82,54.35c-0.06,0.01-0.12-0.01-0.18-0.02c0.04,0.01,0.08,0.02,0.12,0.02
		C35.78,54.35,35.8,54.35,35.82,54.35z"/>
	<path class="st1" d="M70.46,42.59c0.01,0,0.03,0,0.04,0c-0.04,0-0.08-0.01-0.12-0.02C70.41,42.58,70.43,42.59,70.46,42.59z"/>
	<path class="st1" d="M41.72,70.55c-0.01,0-0.02,0-0.03,0c0.03,0,0.06,0.02,0.09,0.03C41.76,70.56,41.74,70.55,41.72,70.55z"/>
	<path class="st2" d="M34.19,40.4c1.25,0,2.27-1.02,2.27-2.27c0-1.25-1.02-2.27-2.27-2.27s-2.27,1.02-2.27,2.27
		C31.92,39.39,32.94,40.4,34.19,40.4z"/>
	<path class="st3" d="M35.62,72.55c0.12-0.31,0.35-0.46,0.68-0.47l4.95-0.14c0.43-0.01,0.67-0.22,0.74-0.64l0.05-0.31
		c0.01-0.03,0-0.06,0-0.09c0-0.03,0-0.05-0.01-0.08c-0.01-0.02-0.02-0.05-0.03-0.07c-0.01-0.02-0.02-0.05-0.04-0.06
		c-0.02-0.02-0.04-0.03-0.05-0.05c-0.02-0.02-0.04-0.03-0.06-0.05s-0.05-0.02-0.07-0.03c-0.03-0.01-0.06-0.02-0.09-0.03
		c-1.45-0.16-2.95-0.18-4.5-0.07c-0.76,0.06-1.32-0.22-1.67-0.84c-1.67-2.94-6.52-3.22-7.42,0.4C26.8,75.28,33.78,77.19,35.62,72.55
		z M31.91,73.58c-1.28,0-2.31-1.03-2.31-2.31s1.03-2.31,2.31-2.31c1.28,0,2.31,1.03,2.31,2.31S33.19,73.58,31.91,73.58z"/>
	<path class="st2" d="M31.91,68.96c-1.28,0-2.31,1.03-2.31,2.31s1.03,2.31,2.31,2.31c1.28,0,2.31-1.03,2.31-2.31
		S33.19,68.96,31.91,68.96z"/>
	<circle class="st2" cx="37.96" cy="91.83" r="2.25"/>
	<path class="st3" d="M53.22,35.6c0.51,0.24,0.75,0.64,0.74,1.19l-0.11,4.55c-0.01,0.45,0.2,0.66,0.65,0.63l0.58-0.03
		c0.48-0.03,0.85-0.44,0.84-0.92l-0.09-4.34c-0.01-0.37,0.13-0.68,0.41-0.93c0.2-0.18,0.42-0.34,0.65-0.48
		c2.52-1.5,2.41-4.7,0.3-6.38C52.68,25.31,47.81,33.08,53.22,35.6z M54.78,29.77c1.25,0,2.27,1.02,2.27,2.27
		c0,1.25-1.02,2.27-2.27,2.27c-1.25,0-2.27-1.02-2.27-2.27C52.51,30.79,53.53,29.77,54.78,29.77z"/>
	<path class="st2" d="M54.78,34.31c1.25,0,2.27-1.02,2.27-2.27c0-1.25-1.02-2.27-2.27-2.27c-1.25,0-2.27,1.02-2.27,2.27
		C52.51,33.3,53.53,34.31,54.78,34.31z"/>
	<path class="st3" d="M70,42.21c0.01,0.03,0.01,0.06,0.03,0.09c0.01,0.03,0.03,0.05,0.05,0.08c0.02,0.03,0.03,0.05,0.06,0.07
		c0.02,0.02,0.05,0.04,0.08,0.05c0.03,0.02,0.05,0.04,0.08,0.05c0.03,0.01,0.06,0.02,0.09,0.02c0.04,0.01,0.08,0.02,0.12,0.02
		l1.03-0.06c0.29-0.02,0.44-0.18,0.44-0.47l-0.03-6.38c0-0.4,0.2-0.6,0.6-0.6h10.93c0.38,0,0.62,0.18,0.72,0.55
		c0.22,0.77,0.66,1.38,1.33,1.83c4.85,3.3,9.35-4.56,3.94-6.65c-2.33-0.89-4.09-0.14-5.3,2.26c-0.17,0.35-0.46,0.52-0.85,0.52H70.77
		c-0.48,0-0.72,0.24-0.73,0.73l-0.06,7.77c0,0.01,0,0.03,0,0.04C69.98,42.16,70,42.18,70,42.21z M87.94,32.02
		c1.28,0,2.32,1.04,2.32,2.32s-1.04,2.32-2.32,2.32s-2.32-1.04-2.32-2.32S86.66,32.02,87.94,32.02z"/>
	<circle class="st2" cx="87.94" cy="34.34" r="2.32"/>
	<path class="st3" d="M32.45,41.62c0.24,0.09,0.45,0.21,0.63,0.38c0.17,0.17,0.26,0.37,0.26,0.61l-0.02,12.66
		c0,0.39,0.19,0.61,0.58,0.64c2.71,0.26,5.47,0.23,8.3-0.08c0.44-0.05,0.65-0.29,0.64-0.73v-0.28c0-0.13-0.1-0.23-0.23-0.25
		c-2.39-0.32-4.65-0.39-6.79-0.22c-0.02,0-0.04,0-0.06,0c-0.04,0-0.08-0.02-0.12-0.02c-0.05-0.01-0.1-0.01-0.15-0.03
		c-0.05-0.02-0.08-0.04-0.13-0.07c-0.04-0.03-0.08-0.05-0.12-0.08c-0.04-0.03-0.06-0.07-0.09-0.11c-0.03-0.04-0.06-0.07-0.08-0.12
		c-0.02-0.04-0.03-0.09-0.04-0.14C35.02,53.72,35,53.66,35,53.6l-0.01-10.79c0-0.53,0.25-0.88,0.74-1.06
		c3.59-1.33,3.09-6.03-0.37-7.26C30.63,32.8,28.18,40.04,32.45,41.62z M34.19,35.86c1.25,0,2.27,1.02,2.27,2.27
		c0,1.25-1.02,2.27-2.27,2.27s-2.27-1.02-2.27-2.27C31.92,36.88,32.94,35.86,34.19,35.86z"/>
	<path class="st3" d="M80.42,68.82c0.15-0.37,0.42-0.59,0.83-0.64l2.28-0.32c0.39-0.05,0.59-0.28,0.59-0.67l-0.08-8.24
		c0-0.45-0.23-0.69-0.68-0.73l-2.21-0.2c-0.55-0.05-0.85-0.35-0.91-0.9c-0.09-0.87-0.42-1.64-0.99-2.32
		c-0.39-0.47-0.34-0.88,0.15-1.24c0.59-0.44,1.08-0.95,1.47-1.53c0.28-0.4,0.25-0.77-0.1-1.12l-5.23-5.3
		c-0.04-0.04-0.09-0.08-0.14-0.12c-0.11-0.09-0.22-0.15-0.34-0.2c-0.02-0.01-0.04-0.02-0.07-0.03c-0.16-0.06-0.34-0.1-0.51-0.1
		c-0.02,0-0.05,0-0.07,0c-0.17,0-0.35,0.03-0.51,0.1c-0.02,0.01-0.04,0.02-0.07,0.03c-0.16,0.07-0.32,0.17-0.45,0.29
		c-0.05,0.05-0.11,0.1-0.15,0.15l-0.56,0.7c-0.31,0.39-0.7,0.49-1.17,0.3l-2.93-1.18c-0.52-0.21-0.76-0.59-0.71-1.15l0.12-1.46
		c0.05-0.65-0.24-0.97-0.89-0.97H59c-0.58,0-0.89,0.29-0.92,0.87l-0.1,1.94c-0.01,0.33-0.17,0.55-0.48,0.67l-3.27,1.31
		c-0.41,0.17-0.73,0.05-0.95-0.34c-0.42-0.74-1.05-1.16-1.9-1.27c-0.3-0.04-0.61,0.06-0.82,0.27l-5.4,5.34
		c-0.01,0.01-0.02,0.02-0.03,0.03c-0.05,0.05-0.07,0.12-0.11,0.18c-0.04,0.07-0.09,0.12-0.12,0.2c-0.03,0.07-0.03,0.14-0.04,0.21
		c-0.01,0.07-0.04,0.14-0.04,0.22c0,0.07,0.03,0.14,0.04,0.21c0.01,0.07,0.02,0.14,0.05,0.21c0.03,0.07,0.08,0.13,0.12,0.19
		c0.05,0.07,0.08,0.14,0.14,0.2l1.13,1.06c0.27,0.25,0.36,0.63,0.24,0.98l-1.04,2.86c-0.17,0.45-0.48,0.7-0.95,0.75l-2.06,0.23
		c-0.48,0.05-0.72,0.32-0.72,0.81l-0.05,8.03c-0.01,0.53,0.26,0.81,0.79,0.84l1.95,0.08c0.37,0.02,0.64,0.2,0.79,0.55l1.3,3
		c0.16,0.37,0.07,0.8-0.22,1.08l-1.02,0.98c-0.01,0.01-0.01,0.01-0.02,0.02c-0.06,0.06-0.09,0.14-0.14,0.21
		c-0.05,0.07-0.11,0.14-0.14,0.22c-0.03,0.08-0.04,0.16-0.05,0.25c-0.02,0.08-0.05,0.16-0.05,0.24c0,0.08,0.03,0.16,0.04,0.25
		c0.02,0.08,0.02,0.17,0.05,0.25c0.03,0.08,0.09,0.15,0.14,0.22c0.05,0.08,0.08,0.16,0.15,0.23l5.2,5.16
		c0.35,0.35,0.77,0.44,1.24,0.27c0.59-0.21,1.07-0.57,1.42-1.08c0.2-0.28,0.55-0.42,0.89-0.36c1.19,0.21,2.32,0.62,3.39,1.22
		c0.34,0.19,0.52,0.47,0.54,0.86l0.08,1.8c0.03,0.55,0.31,0.82,0.86,0.82l8.14,0.03c0.65,0,0.94-0.32,0.88-0.97l-0.16-1.69
		c-0.04-0.39,0.19-0.76,0.55-0.9l3.08-1.23c0.37-0.15,0.79-0.07,1.08,0.21l1.1,1.05c0.48,0.45,1.23,0.44,1.7-0.03l5.38-5.43
		c0.61-0.62,0.56-1.17-0.17-1.65c-0.39-0.27-0.75-0.58-1.08-0.95c-0.25-0.28-0.3-0.59-0.16-0.93L80.42,68.82z M79.2,67.33
		l-1.83,4.54c-0.16,0.4-0.09,0.76,0.21,1.07l1.11,1.18c0.28,0.29,0.27,0.58-0.02,0.86l-3.73,3.63c-0.28,0.27-0.72,0.28-1.01,0.02
		l-1.09-0.97c-0.27-0.24-0.65-0.31-0.98-0.17l-4.88,2.02c-0.44,0.18-0.72,0.61-0.72,1.08v1.54c0,0.3-0.25,0.55-0.55,0.55l-5.44,0.04
		c-0.34,0-0.61-0.27-0.61-0.61l-0.01-1.44c-0.01-0.62-0.3-1.04-0.87-1.27l-4.67-1.87c-0.35-0.14-0.75-0.08-1.04,0.17l-1.1,0.94
		c-0.3,0.25-0.75,0.24-1.03-0.04l-3.65-3.62c-0.31-0.31-0.31-0.62-0.01-0.94l0.93-0.95c0.34-0.35,0.42-0.76,0.24-1.21l-1.73-4.38
		c-0.15-0.39-0.42-0.67-0.8-0.85c-0.62-0.29-1.28-0.42-1.97-0.39c-0.01,0-0.01,0-0.02,0c-0.03,0-0.06-0.01-0.1-0.02
		c-0.04-0.01-0.07-0.01-0.11-0.02c-0.03-0.01-0.06-0.04-0.09-0.06c-0.03-0.02-0.06-0.03-0.09-0.06c-0.03-0.02-0.04-0.06-0.06-0.08
		s-0.04-0.05-0.06-0.09c-0.01-0.03-0.02-0.07-0.03-0.11c-0.01-0.03-0.02-0.06-0.02-0.1c0-0.01,0-0.01,0-0.02v-5.34
		c0-0.02,0-0.04,0-0.06c0-0.03,0.02-0.05,0.03-0.07c0.01-0.04,0.02-0.07,0.04-0.11c0.02-0.03,0.04-0.06,0.06-0.09
		c0.02-0.03,0.04-0.06,0.07-0.08c0.03-0.02,0.06-0.04,0.09-0.06c0.03-0.02,0.06-0.04,0.09-0.05c0.04-0.01,0.07-0.02,0.11-0.02
		c0.03,0,0.05-0.02,0.08-0.01c0.02,0,0.04,0,0.06,0c3.15,0.42,3.53-3.69,4.8-5.74c0.19-0.3,0.13-0.55-0.16-0.74
		c-0.53-0.37-0.99-0.8-1.37-1.31c-0.25-0.34-0.23-0.66,0.07-0.97l3.46-3.51c0.3-0.3,0.77-0.37,1.13-0.15
		c0.31,0.19,0.58,0.42,0.81,0.71c0.37,0.45,0.98,0.61,1.52,0.4l4.83-1.89c0.67-0.27,0.91-0.75,0.72-1.44l-0.27-0.94
		c-0.13-0.49,0.05-0.74,0.56-0.74l5.47-0.02c0.01,0,0.01,0,0.02,0c0.04,0,0.08,0.02,0.12,0.03c0.04,0.01,0.09,0.01,0.13,0.03
		c0.04,0.02,0.07,0.05,0.11,0.07c0.04,0.02,0.07,0.04,0.1,0.07c0.03,0.03,0.05,0.07,0.07,0.11c0.02,0.04,0.05,0.07,0.07,0.11
		c0.02,0.04,0.02,0.09,0.03,0.13c0.01,0.04,0.02,0.08,0.02,0.12c0,0.01,0,0.01,0,0.02l-0.02,1.45c-0.01,0.39,0.16,0.67,0.53,0.83
		l4.65,2.04c0.96,0.42,1.67,0.16,2.12-0.78c0.11-0.23,0.29-0.38,0.52-0.45c0.35-0.11,0.65-0.03,0.91,0.23l3.84,3.83
		c0.03,0.03,0.06,0.07,0.08,0.11c0.01,0.01,0.01,0.02,0.01,0.03c0.02,0.03,0.02,0.07,0.03,0.1c0.01,0.03,0.02,0.06,0.02,0.09
		c0,0.03,0,0.06-0.01,0.1c0,0.03-0.01,0.07-0.02,0.1c-0.01,0.03-0.03,0.06-0.04,0.09c-0.02,0.03-0.03,0.06-0.06,0.09
		c-0.01,0.01-0.01,0.02-0.02,0.03c-0.03,0.03-0.07,0.06-0.11,0.08c-0.55,0.32-0.97,0.75-1.26,1.3c-0.18,0.34-0.19,0.68-0.04,1.03
		l1.97,4.45c0.15,0.35,0.42,0.56,0.81,0.62l1.86,0.29c0.32,0.05,0.48,0.23,0.48,0.55l-0.01,5.15c0,0.47-0.23,0.73-0.7,0.79
		l-1.55,0.2C79.78,66.58,79.38,66.89,79.2,67.33z"/>
	<path class="st2" d="M80.25,66.52l1.55-0.2c0.47-0.06,0.7-0.32,0.7-0.79l0.01-5.15c0-0.32-0.16-0.5-0.48-0.55l-1.86-0.29
		c-0.39-0.06-0.66-0.27-0.81-0.62l-1.97-4.45c-0.15-0.35-0.14-0.69,0.04-1.03c0.29-0.55,0.71-0.98,1.26-1.3
		c0.04-0.02,0.08-0.05,0.11-0.08c0.01-0.01,0.01-0.02,0.02-0.03c0.02-0.03,0.04-0.06,0.06-0.09c0.02-0.03,0.03-0.06,0.04-0.09
		c0.01-0.03,0.01-0.06,0.02-0.1c0-0.03,0.01-0.06,0.01-0.1c0-0.03-0.01-0.06-0.02-0.09c-0.01-0.03-0.02-0.07-0.03-0.1
		c-0.02-0.05-0.05-0.1-0.1-0.14l-3.84-3.83c-0.26-0.26-0.56-0.34-0.91-0.23c-0.23,0.07-0.41,0.22-0.52,0.45
		c-0.45,0.94-1.16,1.2-2.12,0.78l-4.65-2.04c-0.37-0.16-0.54-0.44-0.53-0.83l0.02-1.45c0-0.01,0-0.01,0-0.02
		c0-0.04-0.02-0.08-0.02-0.12c-0.01-0.04-0.01-0.09-0.03-0.13c-0.02-0.04-0.04-0.07-0.07-0.11c-0.02-0.04-0.04-0.08-0.07-0.11
		c-0.03-0.03-0.07-0.05-0.1-0.07c-0.04-0.02-0.07-0.05-0.11-0.07c-0.04-0.02-0.09-0.02-0.13-0.03c-0.05-0.01-0.09-0.03-0.14-0.03
		l-5.47,0.02c-0.51,0-0.69,0.25-0.56,0.74l0.27,0.94c0.19,0.69-0.05,1.17-0.72,1.44l-4.83,1.89c-0.54,0.21-1.15,0.05-1.52-0.4
		c-0.23-0.29-0.5-0.52-0.81-0.71c-0.36-0.22-0.83-0.15-1.13,0.15l-3.46,3.51c-0.3,0.31-0.32,0.63-0.07,0.97
		c0.38,0.51,0.84,0.94,1.37,1.31c0.29,0.19,0.35,0.44,0.16,0.74c-1.27,2.05-1.65,6.16-4.8,5.74c-0.02,0-0.04,0-0.06,0
		c-0.03,0-0.05,0.01-0.08,0.01c-0.04,0.01-0.07,0.01-0.11,0.02c-0.03,0.01-0.06,0.03-0.09,0.05c-0.03,0.02-0.06,0.03-0.09,0.06
		c-0.03,0.02-0.05,0.05-0.07,0.08c-0.02,0.03-0.04,0.05-0.06,0.09c-0.02,0.03-0.03,0.07-0.04,0.11c-0.01,0.05-0.03,0.09-0.03,0.14
		v5.34c0,0.01,0,0.01,0,0.02c0,0.03,0.02,0.06,0.02,0.1c0.01,0.04,0.01,0.07,0.03,0.11c0.01,0.03,0.04,0.06,0.06,0.09
		s0.04,0.06,0.06,0.08c0.03,0.02,0.06,0.04,0.09,0.06c0.03,0.02,0.06,0.04,0.09,0.06c0.03,0.01,0.07,0.01,0.11,0.02
		c0.04,0.01,0.08,0.02,0.12,0.02c0.69-0.03,1.35,0.1,1.97,0.39c0.38,0.18,0.65,0.46,0.8,0.85l1.73,4.38
		c0.18,0.45,0.1,0.86-0.24,1.21l-0.93,0.95c-0.3,0.32-0.3,0.63,0.01,0.94l3.65,3.62c0.28,0.28,0.73,0.29,1.03,0.04l1.1-0.94
		c0.29-0.25,0.69-0.31,1.04-0.17l4.67,1.87c0.57,0.23,0.86,0.65,0.87,1.27l0.01,1.44c0,0.34,0.27,0.61,0.61,0.61l5.44-0.04
		c0.3,0,0.55-0.25,0.55-0.55v-1.54c0-0.47,0.28-0.9,0.72-1.08l4.88-2.02c0.33-0.14,0.71-0.07,0.98,0.17l1.09,0.97
		c0.29,0.26,0.73,0.25,1.01-0.02l3.73-3.63c0.29-0.28,0.3-0.57,0.02-0.86l-1.11-1.18c-0.3-0.31-0.37-0.67-0.21-1.07l1.83-4.54
		C79.38,66.89,79.78,66.58,80.25,66.52z M62.95,77.13c-7.77,0-14.06-6.29-14.06-14.06c0-0.97,0.1-1.92,0.29-2.83
		c0.19-0.92,0.46-1.8,0.82-2.64c0.36-0.84,0.79-1.64,1.3-2.39c0.76-1.12,1.67-2.13,2.72-2.99s2.21-1.57,3.47-2.11
		c0.84-0.36,1.72-0.63,2.64-0.82c0.92-0.19,1.86-0.29,2.83-0.29s1.92,0.1,2.83,0.29c0.92,0.19,1.8,0.46,2.64,0.82
		c1.26,0.53,2.43,1.25,3.47,2.11c2.43,2.01,4.18,4.81,4.83,8.02c0.19,0.92,0.29,1.86,0.29,2.83C77.01,70.84,70.72,77.13,62.95,77.13
		z"/>
	<path class="st3" d="M71.9,52.22c-1.04-0.86-2.21-1.57-3.47-2.11c-0.84-0.36-1.72-0.63-2.64-0.82c-0.92-0.19-1.86-0.29-2.83-0.29
		s-1.92,0.1-2.83,0.29c-0.92,0.19-1.8,0.46-2.64,0.82c-1.26,0.53-2.43,1.25-3.47,2.11s-1.96,1.87-2.72,2.99
		c-0.51,0.75-0.94,1.55-1.3,2.39c-0.36,0.84-0.63,1.72-0.82,2.64c-0.19,0.92-0.29,1.86-0.29,2.83c0,7.77,6.29,14.06,14.06,14.06
		s14.06-6.29,14.06-14.06c0-0.97-0.1-1.92-0.29-2.83C76.07,57.03,74.33,54.23,71.9,52.22z M62.95,75.45
		c-6.84,0-12.39-5.55-12.39-12.39c0-6.84,5.55-12.39,12.39-12.39c6.84,0,12.39,5.55,12.39,12.39C75.34,69.9,69.79,75.45,62.95,75.45
		z"/>
	<path class="st4" d="M62.95,50.67c-6.84,0-12.39,5.55-12.39,12.39c0,6.84,5.55,12.39,12.39,12.39c6.84,0,12.39-5.55,12.39-12.39
		C75.34,56.22,69.79,50.67,62.95,50.67z M63.92,69.73c-0.33,0.62-0.85,0.86-1.55,0.72c-0.29-0.06-0.37-0.22-0.24-0.48
		c-0.09-0.21-0.15-0.42-0.16-0.65c-0.01-0.17,0.04-0.31,0.15-0.44c0.45-0.57,0.95-0.69,1.48-0.36
		C64.01,68.78,64.15,69.31,63.92,69.73z M66.23,66.59c0,0.02-0.01,0.05-0.01,0.07c0,0.01-0.01,0.02-0.02,0.03
		c-0.01,0.02-0.02,0.04-0.03,0.06c-0.01,0.02-0.03,0.03-0.04,0.05c-0.02,0.02-0.03,0.03-0.05,0.04c-0.02,0.01-0.04,0.02-0.06,0.03
		c-0.02,0.01-0.04,0.01-0.06,0.02c-0.02,0-0.04,0.01-0.07,0.01c-0.01,0-0.02,0-0.03,0c-0.02,0-0.05-0.01-0.07-0.01
		c-2.03-0.59-3.81-0.62-5.33-0.09c-0.26,0.09-0.48,0.04-0.66-0.17l-0.25-0.28c-0.15-0.16-0.14-0.31,0.03-0.45
		c1.6-1.32,3.63-1.52,6.09-0.59c0.44,0.17,0.64,0.48,0.59,0.95L66.23,66.59z M68.47,63.77l-0.32,0.17
		c-0.36,0.19-0.71,0.17-1.06-0.05c-3-1.97-5.91-1.46-8.8,0.21c-0.33,0.19-0.62,0.14-0.86-0.15l-0.26-0.3
		c-0.22-0.26-0.19-0.49,0.08-0.7c3.14-2.32,8.21-2.81,11.32,0.03C68.92,63.3,68.89,63.56,68.47,63.77z M71.19,60.96l-0.18,0.22
		c0,0,0,0,0,0c-0.04,0.05-0.09,0.08-0.14,0.11c-0.05,0.04-0.08,0.08-0.13,0.11c-0.05,0.03-0.11,0.03-0.17,0.05
		c-0.05,0.02-0.1,0.04-0.16,0.05c-0.06,0.01-0.12-0.01-0.18-0.02c-0.06-0.01-0.11,0-0.17-0.02c-0.06-0.02-0.11-0.06-0.16-0.09
		c-0.05-0.03-0.11-0.04-0.15-0.08c0,0,0,0,0,0c-4-3.33-9.75-2.93-13.73,0.06c-0.33,0.25-0.65,0.23-0.95-0.06l-0.3-0.29
		c-0.02-0.02-0.04-0.04-0.05-0.06c-0.01-0.02-0.02-0.04-0.03-0.06c-0.02-0.03-0.03-0.06-0.05-0.09c-0.01-0.03-0.02-0.06-0.02-0.1
		c0-0.03-0.01-0.07-0.01-0.1c0-0.03,0.01-0.07,0.02-0.1c0.01-0.03,0.02-0.06,0.03-0.1c0.02-0.03,0.04-0.06,0.06-0.09
		c0.01-0.02,0.02-0.04,0.04-0.06c0.02-0.02,0.04-0.04,0.06-0.05c4.51-3.4,9.37-3.82,14.57-1.25c0.75,0.37,1.36,0.88,1.82,1.53
		C71.3,60.63,71.3,60.82,71.19,60.96z"/>
	<path class="st3" d="M96.32,51.81c-2.43-1.53-4.46-0.92-6.09,1.83c-0.17,0.29-0.42,0.44-0.76,0.44l-4.79,0.03
		c-0.37,0-0.61,0.18-0.72,0.54l-0.13,0.43c-0.01,0.04-0.02,0.09-0.02,0.13c0,0.01,0,0.01,0,0.02c0,0.03,0.01,0.06,0.02,0.09
		c0.01,0.03,0.01,0.05,0.02,0.08c0.01,0.03,0.03,0.05,0.05,0.07c0.02,0.02,0.03,0.05,0.05,0.06c0.02,0.02,0.04,0.03,0.07,0.04
		c0.03,0.02,0.05,0.03,0.08,0.04c0.05,0.02,0.1,0.03,0.15,0.03l5.07,0.09c0.39,0.01,0.74,0.22,0.91,0.56
		c1.71,3.27,6.25,3.62,7.55-0.15C98.43,54.28,97.94,52.83,96.32,51.81z M94.03,57.22c-1.28,0-2.31-1.03-2.31-2.31
		s1.03-2.31,2.31-2.31c1.28,0,2.31,1.03,2.31,2.31S95.31,57.22,94.03,57.22z"/>
	<circle class="st2" cx="94.03" cy="54.91" r="2.31"/>
	<path class="st3" d="M69.38,58.96c-5.2-2.57-10.06-2.15-14.57,1.25c-0.02,0.02-0.04,0.03-0.06,0.05c-0.02,0.02-0.02,0.04-0.04,0.06
		c-0.02,0.03-0.04,0.06-0.06,0.09c-0.01,0.03-0.02,0.06-0.03,0.1c-0.01,0.03-0.02,0.06-0.02,0.1c0,0.03,0,0.07,0.01,0.1
		c0,0.03,0.01,0.07,0.02,0.1c0.01,0.03,0.03,0.06,0.05,0.09c0.02,0.04,0.04,0.08,0.08,0.12l0.3,0.29c0.3,0.29,0.62,0.31,0.95,0.06
		c3.98-2.99,9.73-3.39,13.73-0.06c0,0,0,0,0,0c0.05,0.04,0.1,0.05,0.15,0.08c0.05,0.03,0.1,0.07,0.16,0.09
		c0.05,0.02,0.11,0.01,0.17,0.02c0.06,0.01,0.12,0.02,0.18,0.02c0.06-0.01,0.11-0.03,0.16-0.05c0.06-0.02,0.12-0.02,0.17-0.05
		c0.05-0.03,0.09-0.07,0.13-0.11c0.05-0.04,0.1-0.07,0.15-0.12l0.18-0.22c0.11-0.14,0.11-0.33,0.01-0.47
		C70.74,59.85,70.14,59.34,69.38,58.96z"/>
	<path class="st3" d="M57.25,62.95c-0.27,0.21-0.3,0.44-0.08,0.7l0.26,0.3c0.24,0.29,0.53,0.34,0.86,0.15
		c2.89-1.67,5.8-2.18,8.8-0.21c0.35,0.22,0.7,0.24,1.06,0.05l0.32-0.17c0.41-0.21,0.45-0.48,0.1-0.79
		C65.46,60.14,60.39,60.63,57.25,62.95z"/>
	<path class="st3" d="M65.67,65.3c-2.46-0.93-4.49-0.73-6.09,0.59c-0.17,0.14-0.18,0.29-0.03,0.45l0.25,0.28
		c0.18,0.21,0.4,0.26,0.66,0.17c1.52-0.53,3.3-0.5,5.33,0.09c0.02,0.01,0.04,0.01,0.07,0.01c0.01,0,0.02,0,0.03,0
		c0.02,0,0.05,0,0.07-0.01c0.02,0,0.04-0.01,0.06-0.02c0.02-0.01,0.04-0.02,0.06-0.03c0.02-0.01,0.03-0.02,0.05-0.04
		c0.02-0.01,0.03-0.03,0.04-0.05c0.01-0.02,0.02-0.04,0.03-0.06c0.01-0.03,0.03-0.06,0.03-0.1l0.03-0.34
		C66.31,65.79,66.11,65.47,65.67,65.3z"/>
	<path class="st3" d="M63.6,68.52c-0.53-0.33-1.03-0.21-1.48,0.36c-0.11,0.13-0.16,0.27-0.15,0.44c0.01,0.23,0.07,0.44,0.16,0.65
		c-0.13,0.26-0.05,0.42,0.24,0.48c0.7,0.14,1.22-0.1,1.55-0.72C64.15,69.31,64.01,68.78,63.6,68.52z"/>
	<path class="st3" d="M93.02,84.28c-0.36-0.18-0.54-0.47-0.54-0.87l-0.02-12.13c0-0.11,0.03-0.2,0.09-0.29
		c0.09-0.11,0.08-0.22-0.03-0.33c-0.29-0.28-0.67-0.45-1.07-0.47c-2.46-0.13-4.95-0.11-7.47,0.06c-0.5,0.03-0.73,0.3-0.7,0.8
		l0.01,0.33c0.02,0.29,0.17,0.43,0.46,0.43l6.51,0.07c0.48,0.01,0.72,0.25,0.72,0.73l-0.03,10.93c0,0.33-0.14,0.57-0.43,0.73
		c-1.01,0.57-1.9,0.93-2.39,2.08c-2.06,4.89,5.02,8.03,7.25,3.16C96.44,87.2,95.02,85.3,93.02,84.28z M91.71,90.35
		c-1.28,0-2.31-1.03-2.31-2.31c0-1.28,1.03-2.31,2.31-2.31c1.28,0,2.31,1.03,2.31,2.31C94.02,89.32,92.99,90.35,91.71,90.35z"/>
	<path class="st3" d="M55.27,83.63l-0.54-0.03c-0.01,0-0.02,0-0.03,0c-0.03,0-0.06,0.01-0.09,0.02c-0.03,0.01-0.07,0.01-0.1,0.02
		c-0.03,0.01-0.06,0.03-0.09,0.05c-0.03,0.02-0.06,0.03-0.08,0.05s-0.04,0.05-0.06,0.08s-0.04,0.05-0.06,0.08
		c-0.01,0.03-0.02,0.06-0.03,0.1c-0.01,0.04-0.02,0.07-0.02,0.11l-0.01,6.27c0,0.47-0.24,0.71-0.71,0.71l-10.92-0.01
		c-0.39,0-0.67-0.18-0.83-0.54c-1.07-2.37-2.77-3.13-5.1-2.27c-5.5,2.03-1.19,10.42,3.99,6.58c0.66-0.5,0.84-1.2,1.31-1.81
		c0.22-0.29,0.51-0.44,0.87-0.44l12.45-0.01c0.4,0,0.73-0.33,0.73-0.73v-7.5C55.96,83.9,55.73,83.65,55.27,83.63z M37.96,94.08
		c-1.24,0-2.25-1.01-2.25-2.25s1.01-2.25,2.25-2.25c1.24,0,2.25,1.01,2.25,2.25S39.2,94.08,37.96,94.08z"/>
	<path class="st3" d="M72.57,90.47c-0.39-0.18-0.59-0.49-0.59-0.92L72,84.88c0.01-0.39-0.19-0.61-0.58-0.66l-0.41-0.06
		c-0.51-0.07-0.76,0.16-0.76,0.67l0.01,4.75c0,0.37-0.16,0.65-0.47,0.84c-0.83,0.5-1.64,0.99-2.08,1.88
		c-3.19,6.59,7.97,8.01,7.32,1.56C74.88,92.29,74.06,91.16,72.57,90.47z M71.14,96.47c-0.96,0-1.78-0.58-2.13-1.41
		c-0.12-0.28-0.18-0.58-0.18-0.9c0-1.28,1.03-2.31,2.31-2.31c0.32,0,0.62,0.06,0.9,0.18c0.83,0.35,1.41,1.17,1.41,2.13
		C73.45,95.44,72.42,96.47,71.14,96.47z"/>
	<circle class="st2" cx="91.71" cy="88.04" r="2.31"/>
	<path class="st2" d="M72.04,92.03c-0.28-0.12-0.58-0.18-0.9-0.18c-1.28,0-2.31,1.03-2.31,2.31c0,0.32,0.06,0.62,0.18,0.9
		c0.35,0.83,1.17,1.41,2.13,1.41c1.28,0,2.31-1.03,2.31-2.31C73.45,93.2,72.87,92.38,72.04,92.03z"/>
</g>
</svg>
