<?xml version="1.0" encoding="utf-8"?>
<!-- Generator: Adobe Illustrator 28.0.0, SVG Export Plug-In . SVG Version: 6.00 Build 0)  -->
<svg version="1.1" id="Capa_1" xmlns="http://www.w3.org/2000/svg" xmlns:xlink="http://www.w3.org/1999/xlink" x="0px" y="0px"
	 viewBox="0 0 126 126" style="enable-background:new 0 0 126 126;" xml:space="preserve">
<style type="text/css">
	.st0{fill:#FFFFFF;stroke:#1DA9FC;stroke-miterlimit:10;}
	.st1{fill:none;}
	.st2{fill:#0F507B;}
	.st3{fill:#B5E0F8;}
	.st4{fill:#FFFFFF;}
</style>
<circle class="st0" cx="63" cy="63" r="59.67"/>
<g>
	<path class="st1" d="M55.1,45.19c0,0.05-0.02,0.1-0.03,0.15c0.01-0.05,0.03-0.09,0.03-0.14C55.1,45.2,55.1,45.2,55.1,45.19z"/>
	<path class="st1" d="M45.16,70.96c0.05,0,0.09,0.02,0.14,0.03C45.26,70.98,45.21,70.96,45.16,70.96
		C45.16,70.96,45.16,70.96,45.16,70.96z"/>
	<path class="st1" d="M54.43,80.36c0.06,0,0.11,0.02,0.16,0.03c-0.05-0.01-0.1-0.03-0.15-0.03C54.44,80.36,54.44,80.36,54.43,80.36z
		"/>
	<path class="st1" d="M80.69,69.23c-0.04,0-0.08-0.01-0.11-0.02c0.04,0.01,0.07,0.02,0.1,0.02C80.68,69.23,80.69,69.23,80.69,69.23z
		"/>
	<path class="st1" d="M56.98,81.01c0-0.05,0.02-0.1,0.03-0.15C57,80.91,56.98,80.95,56.98,81C56.98,81.01,56.98,81.01,56.98,81.01z"
		/>
	<path class="st1" d="M45.74,47.22c0,0.02,0,0.03,0,0.05c0-0.06,0.01-0.11,0.01-0.17C45.75,47.14,45.74,47.18,45.74,47.22z"/>
	<path class="st1" d="M80.16,79.05c0,0,0-0.01,0-0.01c0,0.08-0.03,0.16-0.05,0.24C80.13,79.2,80.16,79.13,80.16,79.05z"/>
	<path class="st1" d="M46.94,80.3L46.94,80.3c-0.27,0-0.52-0.11-0.71-0.27C46.43,80.19,46.67,80.3,46.94,80.3z"/>
	<path class="st1" d="M39,56.99c0,0,0.01,0,0.01,0c-0.09,0-0.17-0.03-0.25-0.05C38.84,56.96,38.92,56.99,39,56.99z"/>
	<path class="st1" d="M66.86,92.64L66.86,92.64c0-0.43,0.09-0.84,0.25-1.21C66.95,91.8,66.86,92.21,66.86,92.64z"/>
	<path class="st1" d="M47.96,78.46c0.06,0.03,0.13,0.04,0.19,0.04l0.05,0l-0.05,0C48.09,78.5,48.02,78.48,47.96,78.46z"/>
	<path class="st1" d="M90.36,89.02L90.36,89.02c0,0.43-0.09,0.83-0.24,1.2C90.28,89.86,90.36,89.45,90.36,89.02z"/>
	<path class="st2" d="M94.63,51.68c-3.02-1.29-5.44,0.33-6.72,2.99c-0.21,0.44-0.57,0.64-1.06,0.59c-1.93-0.19-3.86-0.18-5.78,0.03
		c-0.63,0.07-0.95-0.22-0.95-0.85v-7.29c0-0.66-0.54-1.2-1.21-1.2h-7.08c-0.59,0-0.88-0.29-0.88-0.88l-0.04-4.64
		c-0.01-0.6,0.29-0.9,0.9-0.9l9.94-0.02c0.4,0,0.75,0.26,0.88,0.64c1.62,5.01,8.37,4.38,9.33-0.69c0.32-1.65-0.13-3.01-1.36-4.08
		c-3.08-2.69-6.37-1.52-8.21,2c-0.15,0.29-0.39,0.43-0.7,0.42l-11.67-0.08c-0.42,0-0.76,0.33-0.77,0.75l-0.17,6.95
		c-0.01,0.27-0.23,0.49-0.51,0.49l-10.92-0.06c-0.39,0-0.7-0.32-0.7-0.71l0.02-6.1c0.01-0.45,0.21-0.77,0.6-0.98
		c2.34-1.19,3.94-3.43,3.1-6.15c-2-6.52-12.03-2.86-8.82,3.82c0.52,1.07,1.64,1.77,2.66,2.33c0.42,0.23,0.68,0.68,0.67,1.16
		l-0.08,5.97c0,0,0,0.01,0,0.01c0,0.05-0.02,0.09-0.03,0.14c-0.01,0.05-0.01,0.1-0.03,0.15c-0.02,0.05-0.06,0.08-0.08,0.12
		c-0.03,0.04-0.05,0.09-0.09,0.12c-0.04,0.03-0.08,0.05-0.12,0.08c-0.04,0.03-0.08,0.06-0.13,0.08c-0.05,0.02-0.1,0.02-0.15,0.03
		c-0.05,0.01-0.1,0.03-0.16,0.03l-7.08-0.15c-0.02,0-0.03,0-0.05,0c-0.04,0-0.08,0.01-0.12,0.01c-0.05,0-0.1,0.01-0.15,0.02
		c-0.05,0.01-0.09,0.03-0.14,0.04c-0.05,0.01-0.09,0.03-0.14,0.04c-0.04,0.02-0.08,0.04-0.13,0.06c-0.04,0.02-0.08,0.04-0.12,0.07
		c-0.04,0.03-0.07,0.06-0.11,0.09c-0.04,0.03-0.07,0.06-0.11,0.09c-0.03,0.03-0.06,0.07-0.09,0.11c-0.03,0.04-0.06,0.07-0.09,0.11
		c-0.03,0.04-0.05,0.08-0.07,0.12c-0.02,0.04-0.05,0.08-0.07,0.12c-0.02,0.04-0.03,0.09-0.05,0.14c-0.01,0.04-0.03,0.09-0.04,0.14
		c-0.01,0.05-0.01,0.1-0.02,0.15c-0.01,0.06-0.02,0.11-0.01,0.17l0.1,6.93c0.01,0.45-0.35,0.82-0.8,0.83l-4.56,0.16
		c-0.5,0.01-0.75-0.23-0.75-0.72l-0.07-10.18c0-0.44,0.27-0.83,0.68-0.98c2.53-0.95,3.6-2.72,3.23-5.3c-0.99-6.96-12-4.49-9.07,2.97
		c0.51,1.31,1.81,1.8,2.86,2.59c0.28,0.21,0.42,0.49,0.42,0.84l-0.02,11.34c0,0,0,0.01,0,0.01c0,0.08,0.03,0.15,0.05,0.23
		c0.02,0.08,0.02,0.17,0.05,0.24c0.03,0.07,0.09,0.13,0.13,0.19c0.05,0.07,0.08,0.14,0.14,0.2c0.05,0.05,0.13,0.09,0.19,0.13
		c0.07,0.05,0.13,0.1,0.2,0.13c0.07,0.03,0.16,0.03,0.24,0.05c0.08,0.02,0.16,0.05,0.25,0.05l6.03-0.02c0.45,0,0.81,0.36,0.81,0.81
		l-0.08,10.47c0,0.43-0.35,0.78-0.78,0.79l-5.96,0.13c-0.43,0.01-0.74-0.18-0.91-0.58c-1.36-3.12-4.67-4.61-7.62-2.56
		c-2.62,1.83-2.66,5.99-0.01,7.79c3.08,2.09,6.08,0.73,7.7-2.49c0.17-0.33,0.43-0.49,0.8-0.48l6.17,0.11c0,0,0,0,0,0
		c0.05,0,0.09,0.02,0.14,0.03c0.04,0.01,0.09,0.01,0.12,0.03c0.03,0.01,0.05,0.04,0.08,0.06c0.04,0.03,0.09,0.05,0.13,0.09
		c0.04,0.04,0.07,0.1,0.1,0.15c0.01,0.02,0.03,0.04,0.04,0.07c0.02,0.05,0.02,0.11,0.03,0.17c0,0.03,0.02,0.06,0.02,0.1l-0.06,7.46
		v0c0,0.03,0.02,0.06,0.02,0.09c0.02,0.29,0.13,0.55,0.32,0.75c0.03,0.03,0.08,0.05,0.12,0.08c0.2,0.16,0.44,0.27,0.71,0.27
		l7.49,0.06c0,0,0.01,0,0.01,0c0.05,0,0.1,0.02,0.15,0.03c0.05,0.01,0.11,0.01,0.15,0.03c0.05,0.02,0.08,0.06,0.12,0.08
		c0.04,0.03,0.09,0.05,0.13,0.09c0.04,0.04,0.06,0.08,0.08,0.12c0.03,0.04,0.06,0.08,0.08,0.13c0.02,0.05,0.02,0.1,0.03,0.15
		c0.01,0.05,0.03,0.1,0.03,0.16l-0.06,4.42c-0.01,0.58-0.3,0.87-0.88,0.86l-9.81-0.06c-0.41,0-0.72-0.18-0.92-0.55
		c-1.33-2.42-2.73-3.95-5.84-3.3c-3.41,0.71-4.79,4.7-2.86,7.44c2.5,3.55,7.01,2.45,8.67-1.28c0.15-0.33,0.4-0.5,0.77-0.49
		l11.69,0.04c0.54,0,0.98-0.44,0.98-0.98l0.02-6.25c0,0,0-0.01,0-0.01c0-0.05,0.02-0.09,0.03-0.14c0.01-0.05,0.01-0.1,0.03-0.15
		c0.02-0.04,0.05-0.08,0.08-0.12c0.03-0.04,0.05-0.09,0.08-0.12c0.03-0.03,0.08-0.05,0.12-0.08c0.04-0.03,0.08-0.06,0.12-0.08
		c0.04-0.02,0.1-0.02,0.14-0.03c0.05-0.01,0.1-0.03,0.15-0.03l10.67,0.08c0.53,0,0.79,0.27,0.79,0.8l-0.02,5.66
		c0,0.49-0.28,0.94-0.72,1.15c-2.72,1.33-3.73,3.36-3.04,6.08c1.63,6.39,11.78,3.23,8.9-3.53c-0.52-1.24-1.81-1.95-2.9-2.65
		c-0.32-0.21-0.48-0.5-0.48-0.88l0.04-6.04c0-0.36,0.3-0.66,0.66-0.66l7.32-0.01c0,0,0.01,0,0.01,0c0.08,0,0.15-0.03,0.23-0.05
		c0.08-0.02,0.17-0.02,0.24-0.05c0.07-0.03,0.13-0.09,0.19-0.13c0.06-0.04,0.14-0.08,0.19-0.13c0.05-0.05,0.09-0.13,0.13-0.19
		c0.04-0.06,0.1-0.12,0.13-0.19c0.03-0.07,0.03-0.16,0.05-0.24c0.02-0.08,0.05-0.15,0.05-0.24l-0.01-7.81
		c0-0.24,0.12-0.36,0.36-0.37l5.51-0.06c0.32-0.01,0.48,0.15,0.48,0.46l-0.01,12.23c0,0.41-0.19,0.7-0.57,0.85
		c-6.41,2.6-3.12,11.57,3.08,9.11c4.17-1.66,3.97-7.35-0.23-8.94c-0.42-0.16-0.63-0.46-0.63-0.91l-0.06-13.4
		c-0.01-0.74-0.38-1.1-1.12-1.09l-6.27,0.12c0,0-0.01,0-0.01,0c-0.04,0-0.07-0.01-0.1-0.02c-0.04-0.01-0.07-0.01-0.11-0.02
		c-0.03-0.01-0.06-0.04-0.09-0.06c-0.03-0.02-0.06-0.03-0.09-0.06c-0.03-0.02-0.04-0.06-0.06-0.09c-0.02-0.03-0.05-0.06-0.06-0.09
		c-0.01-0.03-0.02-0.07-0.02-0.11c-0.01-0.04-0.02-0.07-0.02-0.11l0.02-11.19c0-0.41,0.2-0.61,0.61-0.6l6.32,0.05
		c0.4,0.01,0.7,0.18,0.9,0.53c1.3,2.27,2.67,3.78,5.49,3.25C98.13,59.85,99,53.55,94.63,51.68z M87.33,35.6
		c1.73,0,3.14,1.41,3.14,3.14s-1.41,3.14-3.14,3.14s-3.14-1.41-3.14-3.14S85.6,35.6,87.33,35.6z M38.82,41.78
		c-1.7,0-3.08-1.38-3.08-3.08c0-1.7,1.38-3.08,3.08-3.08S41.9,37,41.9,38.7C41.9,40.4,40.52,41.78,38.82,41.78z M33.38,73.04
		c-1.7,0-3.08-1.38-3.08-3.08c0-1.7,1.38-3.08,3.08-3.08c1.7,0,3.08,1.38,3.08,3.08C36.46,71.66,35.08,73.04,33.38,73.04z
		 M40.99,89.42c-0.56,0.56-1.34,0.91-2.21,0.91c-1.51,0-2.77-1.07-3.06-2.49c-0.04-0.2-0.06-0.41-0.06-0.63
		c0-1.72,1.4-3.12,3.12-3.12c1.72,0,3.12,1.4,3.12,3.12C41.9,88.07,41.55,88.85,40.99,89.42z M52.97,33.31
		c0-1.7,1.37-3.07,3.07-3.07c1.7,0,3.07,1.37,3.07,3.07c0,1.7-1.37,3.07-3.07,3.07C54.35,36.38,52.97,35.01,52.97,33.31z
		 M71.73,90.06c0.83,0.56,1.38,1.51,1.38,2.59c0,1.08-0.55,2.03-1.38,2.59c-0.5,0.34-1.1,0.53-1.74,0.53c-1.72,0-3.12-1.4-3.12-3.12
		v0c0-0.43,0.09-0.84,0.25-1.21c0.47-1.12,1.58-1.91,2.87-1.91C70.63,89.52,71.23,89.72,71.73,90.06z M78.46,78.05
		c0,0.21-0.13,0.38-0.31,0.46c-0.06,0.03-0.13,0.04-0.19,0.04L48.21,78.5l-0.05,0c-0.07,0-0.13-0.01-0.19-0.04
		c-0.18-0.08-0.3-0.25-0.3-0.46l0.05-29.8c0-0.14,0.06-0.26,0.15-0.35c0.09-0.09,0.22-0.15,0.35-0.15l29.8,0.05
		c0.14,0,0.26,0.06,0.35,0.15c0.09,0.09,0.15,0.22,0.15,0.35L78.46,78.05z M87.27,85.93c1.71,0,3.09,1.38,3.09,3.09v0
		c0,0.43-0.09,0.83-0.24,1.2c-0.47,1.11-1.57,1.89-2.85,1.89c-1.71,0-3.09-1.38-3.09-3.09C84.18,87.32,85.57,85.93,87.27,85.93z
		 M92.71,59.14c-1.71,0-3.1-1.39-3.1-3.1s1.39-3.1,3.1-3.1c1.71,0,3.1,1.39,3.1,3.1S94.42,59.14,92.71,59.14z"/>
	<path class="st3" d="M59.11,33.31c0-1.7-1.37-3.07-3.07-3.07c-1.7,0-3.07,1.37-3.07,3.07c0,1.7,1.37,3.07,3.07,3.07
		C57.74,36.38,59.11,35.01,59.11,33.31z"/>
	<path class="st3" d="M41.9,38.7c0-1.7-1.38-3.08-3.08-3.08S35.74,37,35.74,38.7c0,1.7,1.38,3.08,3.08,3.08S41.9,40.4,41.9,38.7z"/>
	<circle class="st3" cx="87.33" cy="38.74" r="3.14"/>
	<path class="st4" d="M78.01,47.75l-29.8-0.05c-0.14,0-0.26,0.06-0.35,0.15c-0.09,0.09-0.15,0.22-0.15,0.35L47.66,78
		c0,0.21,0.13,0.39,0.3,0.46c0.06,0.03,0.13,0.04,0.19,0.04l0.05,0l29.75,0.05c0.07,0,0.13-0.01,0.19-0.04
		c0.18-0.08,0.31-0.25,0.31-0.46l0.05-29.8c0-0.14-0.06-0.26-0.15-0.35C78.27,47.8,78.15,47.75,78.01,47.75z"/>
	<path class="st3" d="M92.71,52.94c-1.71,0-3.1,1.39-3.1,3.1s1.39,3.1,3.1,3.1c1.71,0,3.1-1.39,3.1-3.1S94.42,52.94,92.71,52.94z"/>
	<path class="st3" d="M33.38,66.88c-1.7,0-3.08,1.38-3.08,3.08c0,1.7,1.38,3.08,3.08,3.08c1.7,0,3.08-1.38,3.08-3.08
		C36.46,68.26,35.08,66.88,33.38,66.88z"/>
	<path class="st3" d="M38.78,84.09c-1.72,0-3.12,1.4-3.12,3.12c0,0.22,0.02,0.43,0.06,0.63c0.29,1.42,1.55,2.49,3.06,2.49
		c0.86,0,1.64-0.35,2.21-0.91c0.56-0.56,0.91-1.34,0.91-2.21C41.9,85.49,40.5,84.09,38.78,84.09z"/>
	<path class="st3" d="M84.18,89.02c0,1.71,1.38,3.09,3.09,3.09c1.28,0,2.38-0.78,2.85-1.89c0.16-0.37,0.24-0.78,0.24-1.2
		c0-1.71-1.38-3.09-3.09-3.09C85.57,85.93,84.18,87.32,84.18,89.02z"/>
	<path class="st3" d="M67.11,91.43c-0.16,0.37-0.25,0.78-0.25,1.21c0,1.72,1.4,3.12,3.12,3.12c0.65,0,1.25-0.2,1.74-0.53
		c0.83-0.56,1.38-1.51,1.38-2.59c0-1.08-0.55-2.03-1.38-2.59c-0.5-0.34-1.1-0.53-1.74-0.53C68.69,89.52,67.58,90.31,67.11,91.43z"/>
</g>
</svg>
