<?xml version="1.0" encoding="utf-8"?>
<!-- Generator: Adobe Illustrator 28.0.0, SVG Export Plug-In . SVG Version: 6.00 Build 0)  -->
<svg version="1.1" id="Capa_1" xmlns="http://www.w3.org/2000/svg" xmlns:xlink="http://www.w3.org/1999/xlink" x="0px" y="0px"
	 viewBox="0 0 126 126" style="enable-background:new 0 0 126 126;" xml:space="preserve">
<style type="text/css">
	.st0{fill:#FFFFFF;stroke:#1DA9FC;stroke-miterlimit:10;}
	.st1{fill:#31536C;}
	.st2{fill:#B3DFF8;}
	.st3{fill:#FFFFFF;}
</style>
<circle class="st0" cx="63" cy="63" r="59.67"/>
<g>
	<path class="st1" d="M35.92,53.16h-12.3c-0.55,0-1-0.45-1-1c0-0.55,0.45-1,1-1h12.3c0.55,0,1,0.45,1,1
		C36.92,52.71,36.47,53.16,35.92,53.16z"/>
	<path class="st1" d="M19.08,53.16h-3.65c-0.55,0-1-0.45-1-1c0-0.55,0.45-1,1-1h3.65c0.55,0,1,0.45,1,1
		C20.08,52.71,19.63,53.16,19.08,53.16z"/>
	<path class="st1" d="M35.92,62.78H30.2c-0.55,0-1-0.45-1-1s0.45-1,1-1h5.72c0.55,0,1,0.45,1,1S36.47,62.78,35.92,62.78z"/>
	<path class="st1" d="M25.67,62.78H15.43c-0.55,0-1-0.45-1-1s0.45-1,1-1h10.24c0.55,0,1,0.45,1,1S26.22,62.78,25.67,62.78z"/>
	<path class="st1" d="M35.92,72.39H21.66c-0.55,0-1-0.45-1-1s0.45-1,1-1h14.26c0.55,0,1,0.45,1,1S36.47,72.39,35.92,72.39z"/>
	<path class="st1" d="M18.27,72.39h-2.84c-0.55,0-1-0.45-1-1s0.45-1,1-1h2.84c0.55,0,1,0.45,1,1S18.82,72.39,18.27,72.39z"/>
	<path class="st1" d="M110.57,82.56h-10.36c-0.55,0-1-0.45-1-1s0.45-1,1-1h9.36V62.51L97.51,50.45H80.29v30.11h9.36
		c0.55,0,1,0.45,1,1s-0.45,1-1,1H79.29c-0.55,0-1-0.45-1-1V49.45c0-0.55,0.45-1,1-1h18.63c0.27,0,0.52,0.1,0.71,0.29l12.65,12.65
		c0.19,0.19,0.29,0.44,0.29,0.71v19.46C111.57,82.11,111.12,82.56,110.57,82.56z"/>
	<path class="st1" d="M79.15,82.56H50.33c-0.55,0-1-0.45-1-1s0.45-1,1-1h27.82v-40.4H36.92v40.4h2.85c0.55,0,1,0.45,1,1s-0.45,1-1,1
		h-3.85c-0.55,0-1-0.45-1-1v-42.4c0-0.55,0.45-1,1-1h43.23c0.55,0,1,0.45,1,1v42.4C80.15,82.11,79.7,82.56,79.15,82.56z"/>
	<path class="st1" d="M45.05,87.84c-3.47,0-6.28-2.81-6.28-6.28s2.81-6.28,6.28-6.28s6.28,2.81,6.28,6.28l0,0
		C51.32,85.03,48.52,87.83,45.05,87.84z M45.05,77.28c-2.36,0-4.28,1.92-4.28,4.28s1.92,4.28,4.28,4.28c2.36,0,4.28-1.92,4.28-4.28
		l0,0C49.32,79.2,47.41,77.29,45.05,77.28z"/>
	<polygon class="st2" points="80.29,50.45 80.29,80.56 109.57,80.56 109.57,62.51 97.51,50.45 	"/>
	<path class="st1" d="M94.93,87.84c-3.47-0.01-6.28-2.82-6.27-6.29s2.82-6.28,6.29-6.27c3.46,0.01,6.27,2.82,6.27,6.28
		C101.21,85.03,98.4,87.84,94.93,87.84z M94.93,77.28c-2.36,0.01-4.28,1.93-4.27,4.29c0.01,2.36,1.93,4.28,4.29,4.27
		c2.36-0.01,4.27-1.92,4.27-4.28c0-2.36-1.92-4.28-4.28-4.28C94.94,77.28,94.93,77.28,94.93,77.28z"/>
	<circle class="st3" cx="94.93" cy="81.56" r="4.34"/>
</g>
</svg>
