<?xml version="1.0" encoding="UTF-8"?><svg id="Capa_1" xmlns="http://www.w3.org/2000/svg" viewBox="0 0 165.83 53.46"><defs><style>.cls-1{fill:#fff;}</style></defs><polygon class="cls-1" points="35.6 27.51 31.9 23.7 31.9 34.34 35.6 34.34 35.6 27.51"/><path class="cls-1" d="m20.58,16.1h9.17l-3.71-3.71h-4.88c3.12-.29,5.66-2.93,5.66-6.15,0-3.41-2.73-6.24-6.24-6.24v12.39L10.24,2.15c-.59.29-1.07.59-1.56.88-.59.39-1.07.78-1.66,1.17l9.75,9.75v21.36l7.51,7.51v-5.36l-3.8-3.8.1-17.56Z"/><polygon class="cls-1" points="24.29 16.1 24.29 34.34 28.09 34.34 28.09 19.9 24.29 16.1"/><polygon class="cls-1" points="37.26 23.7 33.46 19.9 28.09 19.9 31.9 23.7 37.26 23.7"/><path class="cls-1" d="m12.97,31.7V15.51L4.29,6.83c-.78.98-1.56,2.05-2.15,3.22l7.02,7.02v5.36L.68,13.95c-.39,1.46-.59,3.02-.68,4.68.1,0,12.58,12.68,12.97,13.07"/><polygon class="cls-1" points=".2 24 .2 29.36 24.29 53.46 24.29 48.19 .2 24"/><path class="cls-1" d="m43.21,29.65h-3.8v4.78h-3.8c0,3.41,2.83,6.24,6.24,6.24s6.24-2.83,6.24-6.24l-4.88-4.78Z"/><polygon class="cls-1" points="74.14 34.43 71.11 39.8 53.46 39.8 64.87 17.85 54.72 17.85 57.55 12.49 75.21 12.49 63.8 34.43 74.14 34.43"/><polygon class="cls-1" points="84.18 23.41 93.16 23.41 93.16 28.78 84.18 28.78 84.18 34.43 93.16 34.43 93.16 39.8 77.45 39.8 77.45 12.49 93.16 12.49 93.16 17.85 84.18 17.85 84.18 23.41"/><path class="cls-1" d="m102.81,35.12h2.44c2.83,0,4-.98,4-3.12,0-1.27-.49-2.24-1.46-2.83-.78-.39-1.36-.49-3.41-.49h-1.56v6.44Zm0-11.32h1.66c3.02,0,4.29-.98,4.29-3.22s-1.27-3.12-4.39-3.12h-1.56v6.34Zm2.73-11.32c3.51,0,5.46.39,7.02,1.27,1.85,1.17,3.02,3.51,3.02,6.15,0,1.95-.59,3.51-1.85,4.78-.78.78-1.37,1.17-2.83,1.56,1.66.39,2.44.78,3.32,1.56,1.27,1.17,1.85,2.73,1.85,4.78,0,2.54-1.07,4.78-2.83,5.95-1.36.88-3.02,1.27-5.75,1.27h-11.22V12.39l9.27.1Z"/><path class="cls-1" d="m127.59,25.46c2.73,0,4.39-1.37,4.39-3.8,0-2.24-1.56-3.8-3.9-3.8h-2.54v7.61h2.05Zm-2.15,14.34h-6.63V12.39h8.88c3.61,0,6.24.68,8.1,2.05,1.85,1.46,2.93,3.9,2.93,6.93,0,4.19-1.76,6.93-5.27,8.29l6.05,10.05h-8l-5.95-10.63-.1,10.73Z"/><path class="cls-1" d="m149.83,29.17l2.73-8.88,2.73,8.88h-5.46Zm7.12-16.68h-8.49l-9.07,27.41h7.02l1.66-5.37h8.88l1.66,5.37h7.22l-8.88-27.41Z"/></svg>