<?xml version="1.0" standalone="no"?>
<!DOCTYPE svg PUBLIC "-//W3C//DTD SVG 20010904//EN"
 "http://www.w3.org/TR/2001/REC-SVG-20010904/DTD/svg10.dtd">
<svg version="1.0" xmlns="http://www.w3.org/2000/svg"
 width="1741.000000pt" height="1741.000000pt" viewBox="0 0 1741.000000 1741.000000"
 preserveAspectRatio="xMidYMid meet">
<metadata>
Created by potrace 1.14, written by Peter Selinger 2001-2017
</metadata>
<g transform="translate(0.000000,1741.000000) scale(0.100000,-0.100000)"
fill="#000000" stroke="none">
<path d="M7560 15387 l0 -2021 -1202 1202 c-662 660 -1417 1414 -1679 1676
l-475 474 -70 -37 c-38 -21 -98 -54 -132 -74 -35 -20 -65 -37 -67 -37 -3 0
-135 -80 -165 -100 -8 -6 -60 -40 -114 -76 -138 -92 -294 -204 -405 -293 l-95
-74 1589 -1584 1589 -1583 0 -3470 1 -3471 1219 -1220 c671 -671 1223 -1222
1227 -1225 4 -2 8 384 8 859 l-1 864 -618 619 -618 618 4 2855 c2 1569 6 2856
9 2859 2 3 673 5 1490 5 l1486 0 -28 29 c-15 16 -290 292 -610 612 l-582 583
-755 -1 c-416 0 -756 2 -756 5 0 4 25 10 56 14 285 35 608 166 863 350 46 33
93 67 105 74 46 32 276 271 333 346 73 97 145 213 200 320 63 123 143 348 159
445 3 19 8 38 10 41 4 7 8 29 28 174 14 97 15 401 1 485 -9 58 -27 164 -31
183 -57 270 -179 540 -353 777 -71 98 -105 136 -220 248 -349 343 -815 544
-1310 566 l-91 4 0 -2021z"/>
<path d="M2275 15146 c-6 -8 -59 -79 -120 -158 -60 -78 -121 -159 -134 -178
-155 -226 -287 -438 -376 -603 l-47 -89 1141 -1141 1141 -1141 0 -865 0 -865
-67 67 c-107 105 -2666 2667 -2682 2683 -7 8 -15 14 -17 12 -13 -13 -112 -457
-129 -578 -3 -25 -10 -70 -15 -100 -5 -30 -12 -82 -15 -115 -4 -33 -8 -67 -10
-75 -2 -8 -7 -51 -11 -95 -3 -44 -8 -89 -10 -99 -4 -20 -14 -216 -19 -370 l-3
-89 202 -204 c110 -112 263 -268 340 -346 76 -78 354 -360 616 -627 262 -267
540 -549 616 -627 77 -78 329 -334 560 -570 232 -235 484 -492 560 -569 77
-78 338 -344 580 -590 243 -247 504 -513 580 -591 77 -79 142 -143 146 -143 3
0 6 1184 6 2632 l0 2632 -1407 1408 c-775 774 -1410 1408 -1412 1408 -2 0 -9
-6 -14 -14z"/>
<path d="M8789 12123 c-2 -10 -4 -1341 -4 -2958 l0 -2940 608 0 c335 0 610 3
612 6 2 3 5 1057 6 2343 l2 2337 -69 70 c-912 922 -1152 1159 -1155 1142z"/>
<path d="M10627 10298 l613 -613 875 0 c481 0 875 2 875 4 0 2 -274 278 -609
612 l-610 609 -878 0 -878 0 612 -612z"/>
<path d="M11243 7948 l2 -1733 613 0 612 0 1 -75 c1 -41 3 -84 4 -95 1 -11 5
-48 9 -83 28 -258 119 -523 275 -792 144 -252 420 -525 695 -690 152 -91 428
-204 553 -226 15 -3 45 -9 65 -15 20 -5 72 -14 115 -19 43 -6 94 -12 113 -15
41 -6 346 -7 375 -1 11 2 49 8 85 12 36 4 67 9 70 9 3 1 23 5 45 9 166 32 326
86 490 167 149 72 191 97 313 184 83 60 335 298 382 360 8 11 34 46 58 78 150
201 288 503 341 748 27 130 38 210 47 351 l5 88 -233 228 c-128 126 -270 265
-314 308 -69 67 -390 381 -913 892 -64 63 -123 117 -131 121 -8 4 -287 7 -620
7 l-605 -1 -1 -765 c-1 -421 -2 -769 -3 -775 -1 -11 -1205 -15 -1216 -4 -3 4
-6 508 -6 1121 l0 1115 -610 609 c-335 335 -611 611 -613 612 -3 2 -4 -776 -3
-1730z"/>
<path d="M925 8724 l0 -865 3928 -3925 c2160 -2158 3929 -3924 3931 -3924 3 0
4 389 5 863 l0 864 -482 482 c-2316 2316 -7376 7371 -7379 7371 -2 0 -3 -390
-3 -866z"/>
</g>
</svg>
